<?xml version="1.0" encoding="UTF-8"?>
<!DOCTYPE svg PUBLIC "-//W3C//DTD SVG 1.1//EN" "http://www.w3.org/Graphics/SVG/1.1/DTD/svg11.dtd">
<svg version="1.1" xmlns="http://www.w3.org/2000/svg" xmlns:xlink="http://www.w3.org/1999/xlink" x="0" y="0" width="194.49" height="58.07" viewBox="0, 0, 194.49, 58.07">
  <g id="Layer_1">
    <g>
      <path d="M151.77,48.43 L130.62,26.54 L130.85,26.54 L169.19,22.65 L169.05,22.85 z M131.1,26.72 L151.72,48.04 L168.72,22.86 z" fill="#5BA5B3"/>
      <path d="M101.05,28.86 L115.22,14.04 L115.22,14.04 L152.72,13.04 z M115.32,14.21 L101.81,28.39 L151.03,13.29 z" fill="#5BA5B3"/>
      <path d="M169.8,58.04 L169.45,57.9 L116.37,37.63 L116.47,37.51 L136.53,11.99 L136.62,12.11 z M116.72,37.53 L169.15,57.6 L136.52,12.36 z" fill="#5BA5B3"/>
      <path d="M101.38,64.32 L101.44,64.1 L115.72,13.68 L115.86,13.82 L147.47,45.82 z M115.8,14.11 L101.72,63.94 L147.03,45.76 z" fill="#5BA5B3"/>
      <path d="M151.61,80.28 L151.45,80.28 L123.01,75.8 L123.01,75.68 L136.5,11.68 z M123.28,75.59 L151.28,80 L136.53,12.71 z" fill="#5BA5B3"/>
      <path d="M115.14,31.97 L153.87,1.53 L153.94,1.59 L178.85,24.38 z M153.86,1.83 L115.91,31.65 L178.33,24.22 z" fill="#5BA5B3"/>
      <path d="M85.5,55.66 L146.34,31.32 L146.34,31.32 L188.76,54.8 z M146.32,31.57 L86.72,55.42 L187.96,54.61 z" fill="#5BA5B3"/>
      <path d="M151.78,80.86 L151.78,80.42 L151.78,12.93 L151.93,13.04 L177.82,33.5 L177.82,33.58 z M151.98,13.4 L151.98,79.98 L177.52,33.56 z" fill="#5BA5B3"/>
      <path d="M188.51,54.86 L188.35,54.86 L146.58,45.86 L146.71,45.71 L181.61,7.52 L181.61,7.76 z M147.01,45.66 L188.24,54.57 L181.46,7.97 z" fill="#5BA5B3"/>
      <path d="M85.83,55.68 L86.02,55.47 L130.87,4.73 L166,48.64 L165.79,48.64 z M130.83,5.07 L86.37,55.4 L165.56,48.45 z" fill="#5BA5B3"/>
      <g>
        <path d="M142.67,22.72 L142.62,22.64 L136.31,12.53 L141.95,1.92 L153.95,1.5 L160.31,11.69 L154.72,22.3 z M136.67,12.51 L142.83,22.37 L154.45,21.97 L159.91,11.71 L153.75,1.85 L142.13,2.25 z" fill="#2D7174"/>
        <path d="M165.85,48.73 L165.72,48.73 L146.72,45.93 L139.58,27.93 L139.64,27.85 L151.64,12.75 L151.72,12.75 L170.72,15.55 L177.86,33.55 L177.8,33.63 z M146.95,45.61 L165.72,48.36 L177.49,33.49 L170.49,15.87 L151.72,13.12 L139.96,27.98 z" fill="#2D7174"/>
        <path d="M131.04,40.63 L130.95,40.63 L115.32,31.77 L115.13,13.77 L115.21,13.77 L130.65,4.64 L130.74,4.64 L146.37,13.45 L146.56,31.45 L146.48,31.45 z M115.66,31.58 L131.03,40.24 L146.22,31.24 L146.03,13.59 L130.66,4.94 L115.47,13.94 z" fill="#2D7174"/>
        <path d="M178.72,24.63 L178.62,24.63 L168.87,22.93 L165.44,13.54 L171.85,5.87 L171.95,5.87 L181.7,7.57 L185.13,16.96 z M169.12,22.63 L178.58,24.28 L184.72,16.89 L181.42,7.89 L171.96,6.24 L165.8,13.61 z" fill="#2D7174"/>
        <path d="M151.53,80.32 L151.43,80.32 L123.01,75.85 L123.01,75.76 L112.65,48.89 L130.79,26.44 L130.89,26.44 L159.31,30.91 L159.31,31 L169.72,57.87 z M123.26,75.53 L151.39,79.96 L169.29,57.81 L159.06,31.24 L130.93,26.81 L113.03,48.95 z" fill="#2D7174"/>
        <path d="M176.45,69.24 L176.35,69.24 L157.84,66.01 L151.35,48.27 L163.47,33.78 L163.57,33.78 L182.08,37.04 L188.57,54.78 z M158.1,65.69 L176.32,68.87 L188.19,54.68 L181.84,37.31 L163.62,34.13 L151.72,48.32 z" fill="#2D7174"/>
        <path d="M142.359,1.192 C142.974,1.299 143.385,1.885 143.278,2.5 C143.17,3.114 142.585,3.526 141.97,3.418 C141.355,3.311 140.944,2.725 141.051,2.111 C141.159,1.496 141.744,1.085 142.359,1.192 z" fill="#2D7174"/>
        <path d="M142.949,21.434 C143.563,21.542 143.975,22.127 143.867,22.742 C143.76,23.357 143.174,23.768 142.56,23.66 C141.945,23.553 141.534,22.968 141.641,22.353 C141.748,21.738 142.334,21.327 142.949,21.434 z" fill="#2D7174"/>
        <path d="M140.018,27.24 C140.632,27.348 141.044,27.933 140.936,28.548 C140.829,29.163 140.243,29.574 139.629,29.467 C139.014,29.359 138.603,28.774 138.71,28.159 C138.817,27.544 139.403,27.133 140.018,27.24 z" fill="#2D7174"/>
        <path d="M131.466,25.225 C132.347,25.379 132.937,26.219 132.783,27.1 C132.629,27.981 131.79,28.571 130.908,28.417 C130.027,28.263 129.437,27.424 129.591,26.542 C129.745,25.661 130.585,25.071 131.466,25.225 z" fill="#2D7174"/>
        <path d="M159.399,29.715 C160.281,29.869 160.87,30.708 160.716,31.59 C160.562,32.471 159.723,33.061 158.842,32.907 C157.96,32.753 157.371,31.913 157.525,31.032 C157.679,30.151 158.518,29.561 159.399,29.715 z" fill="#2D7174"/>
        <path d="M113.421,47.355 C114.303,47.509 114.892,48.348 114.738,49.229 C114.584,50.111 113.745,50.7 112.864,50.546 C111.982,50.392 111.393,49.553 111.547,48.672 C111.701,47.79 112.54,47.201 113.421,47.355 z" fill="#2D7174"/>
        <path d="M169.755,56.245 C170.636,56.399 171.226,57.239 171.072,58.12 C170.918,59.001 170.078,59.591 169.197,59.437 C168.316,59.283 167.726,58.444 167.88,57.562 C168.034,56.681 168.873,56.091 169.755,56.245 z" fill="#2D7174"/>
        <path d="M182.106,36.045 C182.759,36.16 183.196,36.781 183.081,37.434 C182.967,38.087 182.346,38.524 181.693,38.41 C181.04,38.296 180.603,37.674 180.717,37.021 C180.831,36.368 181.453,35.931 182.106,36.045 z" fill="#2D7174"/>
        <path d="M146.998,44.558 C147.651,44.672 148.088,45.294 147.974,45.947 C147.86,46.599 147.238,47.036 146.585,46.922 C145.932,46.808 145.495,46.186 145.609,45.534 C145.723,44.881 146.345,44.444 146.998,44.558 z" fill="#2D7174"/>
        <path d="M165.984,47.365 C166.637,47.479 167.074,48.101 166.96,48.754 C166.846,49.406 166.224,49.843 165.571,49.729 C164.918,49.615 164.482,48.993 164.596,48.341 C164.71,47.688 165.331,47.251 165.984,47.365 z" fill="#2D7174"/>
        <path d="M151.906,47.35 C152.401,47.436 152.732,47.908 152.646,48.403 C152.559,48.898 152.088,49.229 151.593,49.143 C151.098,49.056 150.766,48.585 150.853,48.09 C150.939,47.595 151.411,47.263 151.906,47.35 z" fill="#2D7174"/>
        <path d="M163.586,33.162 C164.081,33.248 164.412,33.72 164.326,34.215 C164.239,34.71 163.768,35.041 163.273,34.955 C162.778,34.868 162.447,34.397 162.533,33.902 C162.62,33.407 163.091,33.075 163.586,33.162 z" fill="#2D7174"/>
        <path d="M177.835,32.633 C178.33,32.72 178.661,33.191 178.575,33.686 C178.488,34.181 178.017,34.512 177.522,34.426 C177.026,34.339 176.695,33.868 176.782,33.373 C176.868,32.878 177.34,32.547 177.835,32.633 z" fill="#2D7174"/>
        <path d="M154.729,21.238 C155.224,21.325 155.555,21.796 155.469,22.291 C155.382,22.786 154.911,23.118 154.416,23.031 C153.921,22.945 153.59,22.473 153.676,21.978 C153.763,21.483 154.234,21.152 154.729,21.238 z" fill="#2D7174"/>
        <path d="M160.28,10.814 C160.775,10.901 161.106,11.372 161.02,11.867 C160.933,12.362 160.462,12.694 159.967,12.607 C159.472,12.521 159.141,12.049 159.227,11.554 C159.314,11.059 159.785,10.728 160.28,10.814 z" fill="#2D7174"/>
        <path d="M136.681,11.285 C137.176,11.371 137.508,11.843 137.421,12.338 C137.335,12.833 136.863,13.164 136.368,13.078 C135.873,12.991 135.542,12.52 135.628,12.025 C135.715,11.529 136.186,11.198 136.681,11.285 z" fill="#2D7174"/>
        <path d="M146.154,12.65 C146.649,12.737 146.981,13.208 146.894,13.703 C146.808,14.199 146.336,14.53 145.841,14.443 C145.346,14.357 145.015,13.885 145.101,13.39 C145.188,12.895 145.659,12.564 146.154,12.65 z" fill="#2D7174"/>
        <path d="M154.06,0.325 C154.816,0.457 155.322,1.177 155.19,1.933 C155.057,2.69 154.337,3.195 153.581,3.063 C152.825,2.931 152.319,2.211 152.451,1.455 C152.583,0.699 153.303,0.193 154.06,0.325 z" fill="#2D7174"/>
        <path d="M151.877,11.567 C152.633,11.699 153.139,12.419 153.007,13.175 C152.875,13.931 152.154,14.437 151.398,14.305 C150.642,14.173 150.136,13.453 150.268,12.697 C150.4,11.941 151.12,11.435 151.877,11.567 z" fill="#2D7174"/>
        <path d="M170.918,14.46 C171.675,14.592 172.181,15.312 172.049,16.068 C171.916,16.824 171.196,17.33 170.44,17.198 C169.684,17.066 169.178,16.346 169.31,15.59 C169.442,14.834 170.162,14.328 170.918,14.46 z" fill="#2D7174"/>
        <path d="M169.199,21.387 C169.955,21.519 170.461,22.239 170.329,22.995 C170.197,23.751 169.477,24.257 168.721,24.125 C167.964,23.993 167.458,23.273 167.591,22.517 C167.723,21.761 168.443,21.255 169.199,21.387 z" fill="#2D7174"/>
        <path d="M131.098,3.525 C131.855,3.657 132.361,4.377 132.229,5.133 C132.096,5.889 131.376,6.395 130.62,6.263 C129.864,6.131 129.358,5.411 129.49,4.655 C129.622,3.898 130.342,3.392 131.098,3.525 z" fill="#2D7174"/>
        <path d="M115.769,30.437 C116.525,30.569 117.031,31.289 116.899,32.046 C116.767,32.802 116.046,33.308 115.29,33.176 C114.534,33.043 114.028,32.323 114.16,31.567 C114.292,30.811 115.012,30.305 115.769,30.437 z" fill="#2D7174"/>
        <path d="M146.565,30.073 C147.321,30.205 147.827,30.925 147.695,31.681 C147.563,32.438 146.843,32.944 146.086,32.811 C145.33,32.679 144.824,31.959 144.956,31.203 C145.089,30.447 145.809,29.941 146.565,30.073 z" fill="#2D7174"/>
        <path d="M131.152,39.41 C131.696,39.505 132.06,40.023 131.965,40.567 C131.87,41.111 131.352,41.475 130.808,41.38 C130.264,41.285 129.9,40.767 129.995,40.223 C130.09,39.679 130.608,39.315 131.152,39.41 z" fill="#2D7174"/>
        <path d="M115.701,12.896 C116.245,12.991 116.609,13.509 116.514,14.053 C116.419,14.597 115.901,14.961 115.357,14.866 C114.813,14.771 114.449,14.253 114.544,13.709 C114.639,13.165 115.157,12.801 115.701,12.896 z" fill="#2D7174"/>
        <path d="M165.854,12.748 C166.398,12.843 166.762,13.361 166.667,13.905 C166.572,14.449 166.054,14.813 165.51,14.718 C164.966,14.623 164.602,14.105 164.697,13.561 C164.792,13.017 165.31,12.653 165.854,12.748 z" fill="#2D7174"/>
        <path d="M172.207,5.24 C172.751,5.335 173.115,5.853 173.02,6.397 C172.925,6.941 172.407,7.305 171.863,7.21 C171.319,7.115 170.955,6.597 171.05,6.053 C171.145,5.509 171.663,5.145 172.207,5.24 z" fill="#2D7174"/>
        <path d="M185.129,15.62 C185.853,15.747 186.337,16.436 186.21,17.159 C186.084,17.883 185.395,18.367 184.671,18.241 C183.948,18.114 183.464,17.425 183.59,16.702 C183.716,15.978 184.405,15.494 185.129,15.62 z" fill="#2D7174"/>
        <path d="M181.634,6.812 C182.206,6.912 182.588,7.456 182.488,8.027 C182.388,8.598 181.844,8.981 181.273,8.881 C180.702,8.781 180.319,8.237 180.419,7.666 C180.519,7.095 181.063,6.712 181.634,6.812 z" fill="#2D7174"/>
        <path d="M178.765,23.26 C179.336,23.36 179.718,23.904 179.619,24.475 C179.519,25.047 178.975,25.429 178.403,25.329 C177.832,25.229 177.45,24.685 177.55,24.114 C177.65,23.543 178.194,23.161 178.765,23.26 z" fill="#2D7174"/>
        <path d="M101.61,64.36 L101.52,64.36 L85.89,55.55 L85.7,37.55 L85.78,37.55 L101.22,28.42 L101.31,28.42 L116.94,37.23 L117.13,55.23 L117.05,55.23 z M86.23,55.31 L101.6,63.97 L116.79,54.97 L116.61,37.34 L101.24,28.68 L86.05,37.68 z" fill="#2D7174"/>
        <path d="M116.735,36.387 C117.23,36.473 117.561,36.945 117.475,37.44 C117.388,37.935 116.917,38.266 116.422,38.18 C115.927,38.093 115.596,37.622 115.682,37.127 C115.769,36.632 116.24,36.3 116.735,36.387 z" fill="#2D7174"/>
        <path d="M101.669,27.259 C102.426,27.392 102.932,28.112 102.8,28.868 C102.667,29.624 101.947,30.13 101.191,29.998 C100.435,29.866 99.929,29.146 100.061,28.389 C100.193,27.633 100.913,27.127 101.669,27.259 z" fill="#2D7174"/>
        <path d="M86.34,54.172 C87.096,54.304 87.602,55.024 87.47,55.78 C87.338,56.537 86.617,57.043 85.861,56.91 C85.105,56.778 84.599,56.058 84.731,55.302 C84.863,54.546 85.583,54.04 86.34,54.172 z" fill="#2D7174"/>
        <path d="M117.146,53.81 C117.902,53.942 118.408,54.662 118.276,55.418 C118.144,56.174 117.424,56.68 116.667,56.548 C115.911,56.416 115.405,55.696 115.537,54.94 C115.669,54.183 116.39,53.677 117.146,53.81 z" fill="#2D7174"/>
        <path d="M188.464,53.671 C189.008,53.766 189.372,54.284 189.277,54.828 C189.182,55.372 188.664,55.736 188.12,55.641 C187.576,55.546 187.212,55.028 187.307,54.484 C187.402,53.94 187.92,53.576 188.464,53.671 z" fill="#2D7174"/>
        <path d="M86.272,36.63 C86.816,36.726 87.18,37.244 87.085,37.788 C86.99,38.332 86.472,38.696 85.928,38.601 C85.384,38.506 85.02,37.988 85.115,37.443 C85.21,36.899 85.728,36.535 86.272,36.63 z" fill="#2D7174"/>
      </g>
      <path d="M155.706,35.315 C156.326,35.423 156.741,36.014 156.632,36.634 C156.524,37.254 155.933,37.669 155.313,37.561 C154.693,37.452 154.278,36.862 154.386,36.242 C154.495,35.621 155.085,35.206 155.706,35.315 z" fill="#5BA5B3"/>
      <path d="M128.565,50.819 C129.185,50.928 129.6,51.518 129.492,52.139 C129.384,52.759 128.793,53.174 128.173,53.065 C127.552,52.957 127.138,52.366 127.246,51.746 C127.354,51.126 127.945,50.711 128.565,50.819 z" fill="#5BA5B3"/>
      <path d="M130.738,18.915 C131.157,18.988 131.437,19.387 131.364,19.806 C131.291,20.225 130.892,20.505 130.473,20.432 C130.054,20.359 129.774,19.96 129.847,19.541 C129.92,19.122 130.319,18.842 130.738,18.915 z" fill="#5BA5B3"/>
      <path d="M171.528,44.434 C171.947,44.507 172.227,44.906 172.154,45.325 C172.08,45.744 171.681,46.024 171.263,45.951 C170.844,45.878 170.563,45.479 170.637,45.06 C170.71,44.641 171.109,44.361 171.528,44.434 z" fill="#5BA5B3"/>
      <path d="M146.247,54.379 C146.666,54.452 146.946,54.851 146.873,55.27 C146.8,55.689 146.401,55.969 145.982,55.896 C145.563,55.823 145.282,55.424 145.356,55.005 C145.429,54.586 145.828,54.306 146.247,54.379 z" fill="#5BA5B3"/>
      <path d="M152.203,23.529 C152.622,23.602 152.902,24.001 152.829,24.42 C152.756,24.839 152.357,25.119 151.938,25.046 C151.519,24.973 151.239,24.574 151.312,24.155 C151.385,23.736 151.784,23.456 152.203,23.529 z" fill="#5BA5B3"/>
      <path d="M106.162,46.941 C106.581,47.014 106.861,47.413 106.788,47.832 C106.714,48.251 106.316,48.531 105.897,48.458 C105.478,48.385 105.197,47.986 105.271,47.567 C105.344,47.148 105.743,46.868 106.162,46.941 z" fill="#5BA5B3"/>
      <path d="M112.966,23.668 C113.717,23.799 114.219,24.514 114.088,25.265 C113.957,26.016 113.242,26.518 112.491,26.387 C111.74,26.256 111.238,25.541 111.369,24.79 C111.5,24.039 112.215,23.537 112.966,23.668 z" fill="#5BA5B3"/>
      <path d="M161.955,54.036 C162.412,54.116 162.718,54.551 162.638,55.008 C162.558,55.465 162.123,55.771 161.666,55.691 C161.209,55.611 160.903,55.176 160.983,54.719 C161.063,54.262 161.498,53.956 161.955,54.036 z" fill="#5BA5B3"/>
      <path d="M167.349,24.818 C167.806,24.898 168.111,25.333 168.031,25.79 C167.952,26.247 167.516,26.553 167.059,26.473 C166.602,26.393 166.297,25.958 166.376,25.501 C166.456,25.044 166.892,24.738 167.349,24.818 z" fill="#5BA5B3"/>
      <path d="M136.969,34.298 C137.426,34.378 137.731,34.813 137.651,35.27 C137.572,35.727 137.136,36.033 136.679,35.953 C136.222,35.873 135.917,35.438 135.996,34.981 C136.076,34.524 136.512,34.218 136.969,34.298 z" fill="#5BA5B3"/>
      <path d="M142.846,46.675 C143.303,46.754 143.609,47.19 143.529,47.647 C143.449,48.104 143.014,48.409 142.557,48.329 C142.1,48.25 141.794,47.814 141.874,47.357 C141.954,46.9 142.389,46.595 142.846,46.675 z" fill="#5BA5B3"/>
      <path d="M119.773,16.812 C120.23,16.891 120.536,17.327 120.456,17.784 C120.376,18.241 119.941,18.546 119.484,18.466 C119.027,18.387 118.721,17.951 118.801,17.494 C118.881,17.037 119.316,16.732 119.773,16.812 z" fill="#5BA5B3"/>
      <path d="M125.907,22.053 C126.864,22.22 127.505,23.132 127.338,24.089 C127.17,25.047 126.259,25.688 125.301,25.52 C124.343,25.353 123.703,24.441 123.87,23.484 C124.037,22.526 124.949,21.885 125.907,22.053 z" fill="#5BA5B3"/>
      <path d="M124.13,38.7 C125.088,38.867 125.729,39.779 125.561,40.736 C125.394,41.694 124.482,42.335 123.525,42.167 C122.567,42 121.927,41.088 122.094,40.131 C122.261,39.173 123.173,38.533 124.13,38.7 z" fill="#5BA5B3"/>
      <path d="M149.301,48.298 C150.258,48.465 150.899,49.377 150.732,50.334 C150.564,51.292 149.652,51.932 148.695,51.765 C147.737,51.598 147.097,50.686 147.264,49.729 C147.431,48.771 148.343,48.13 149.301,48.298 z" fill="#5BA5B3"/>
      <path d="M164.948,21.221 C165.906,21.388 166.546,22.3 166.379,23.257 C166.212,24.215 165.3,24.855 164.342,24.688 C163.385,24.521 162.744,23.609 162.912,22.652 C163.079,21.694 163.991,21.053 164.948,21.221 z" fill="#5BA5B3"/>
    </g>
    <g>
      <path d="M124.12,55.45 L124.19,55.31 L130.33,43.17 L130.33,43.11 C130.256,43.153 130.174,43.183 130.09,43.2 L130.09,43.2 C129.75,43.15 98.65,41.69 98.33,41.67 L98.18,41.67 L98.3,41.58 L123.3,21.69 L122.78,13.93 L122.86,13.93 L135.3,17.83 L135.3,17.83 L133.88,29.22 L130.52,42.84 C132.75,41.84 143.27,36.63 151.79,32.42 L152.05,27.34 L156.97,26.04 L157.47,29.65 L164.8,26.04 L165.03,25.92 L164.86,26.12 L160.05,32.04 L179.05,29.3 L191.32,4.84 L191.43,4.84 L184.72,28.59 L184.72,28.59 L179.14,29.4 L168.57,50.27 L168.63,50.33 L168.53,50.33 L168.53,50.33 L168.53,50.33 C167.95,50.33 158.72,50.51 152.03,50.61 L152.03,55.09 L145.33,50.68 L144.97,50.68 L144.97,50.68 L144.97,50.59 L144.97,50.59 L144.97,50.59 L133.41,51.39 z M130.47,43.04 L130.47,43.19 L124.39,55.19 L133.3,51.19 L144.97,50.38 C145.46,49.76 147.75,46.93 151.97,41.74 L151.97,40.22 L151.72,33.31 L151.72,33.25 L151.72,33.25 L151.72,32.63 C143.15,36.89 132.52,42.13 130.47,43.04 z M145.47,50.67 L151.85,54.87 L151.85,50.6 C148.85,50.6 146.75,50.67 145.7,50.67 L145.43,50.67 z M145.29,50.56 L145.72,50.56 C146.77,50.56 148.84,50.56 151.87,50.49 L151.95,41.97 C147.95,46.97 145.67,49.7 145.09,50.43 z M152.08,41.83 L152,50.49 C158.44,50.4 167.22,50.24 168.39,50.21 L155.72,37.36 L152.07,41.85 L152.07,41.85 z M158.62,38.04 L168.49,50.18 L178.94,29.42 L159.94,32.16 L158.12,34.39 z M155.78,37.27 L167.72,49.39 L158.52,38.04 L158.52,38.04 L158.03,34.49 z M98.49,41.57 C101.1,41.69 129.43,43.02 130.1,43.09 L130.38,42.97 L133.72,29.27 L135.13,17.94 L122.9,14.04 L123.42,21.69 L123.42,21.69 z M151.85,33.43 L152.07,40.22 L152.07,41.66 L155.64,37.27 z M155.72,37.19 L158.02,34.37 L157.72,32.49 L151.89,33.33 z M157.87,32.47 L158.12,34.25 L159.8,32.19 z M151.87,32.56 L151.87,33.22 L157.74,32.37 L157.39,29.84 z M152.13,27.49 L151.88,32.43 L157.35,29.72 L156.86,26.2 z M157.46,29.79 L157.82,32.36 L159.82,32.06 L164.56,26.25 L157.42,29.79 L157.42,29.79 z M191.14,5.42 L179.14,29.28 L184.61,28.49 z" fill="#1F383D"/>
      <path d="M191.678,3.418 C192.402,3.545 192.886,4.234 192.76,4.958 C192.633,5.681 191.944,6.165 191.221,6.039 C190.497,5.912 190.013,5.223 190.139,4.5 C190.266,3.776 190.955,3.292 191.678,3.418 z" fill="#1F383D"/>
      <path d="M184.873,27.235 C185.596,27.361 186.08,28.05 185.954,28.774 C185.828,29.497 185.139,29.981 184.415,29.855 C183.691,29.729 183.207,29.04 183.334,28.316 C183.46,27.592 184.149,27.108 184.873,27.235 z" fill="#1F383D"/>
      <path d="M152.016,54.161 C152.478,54.241 152.788,54.682 152.707,55.144 C152.626,55.607 152.186,55.916 151.723,55.835 C151.261,55.755 150.951,55.314 151.032,54.852 C151.113,54.389 151.553,54.08 152.016,54.161 z" fill="#1F383D"/>
      <path d="M157.146,24.828 C157.87,24.954 158.354,25.643 158.227,26.367 C158.101,27.091 157.412,27.575 156.688,27.448 C155.965,27.322 155.481,26.633 155.607,25.909 C155.734,25.186 156.423,24.702 157.146,24.828 z" fill="#1F383D"/>
      <path d="M168.604,49.635 C168.963,49.698 169.203,50.04 169.14,50.399 C169.077,50.758 168.736,50.998 168.376,50.936 C168.017,50.873 167.777,50.531 167.84,50.172 C167.903,49.813 168.245,49.573 168.604,49.635 z" fill="#1F383D"/>
      <path d="M164.953,25.437 C165.312,25.5 165.552,25.842 165.49,26.201 C165.427,26.56 165.085,26.8 164.726,26.738 C164.367,26.675 164.126,26.333 164.189,25.974 C164.252,25.615 164.594,25.375 164.953,25.437 z" fill="#1F383D"/>
      <path d="M152.2,26.801 C152.559,26.864 152.799,27.206 152.737,27.565 C152.674,27.924 152.332,28.164 151.973,28.102 C151.614,28.039 151.374,27.697 151.436,27.338 C151.499,26.979 151.841,26.739 152.2,26.801 z" fill="#1F383D"/>
      <path d="M158.687,37.424 C159.046,37.487 159.286,37.829 159.224,38.188 C159.161,38.547 158.819,38.787 158.46,38.724 C158.101,38.662 157.861,38.32 157.923,37.961 C157.986,37.601 158.328,37.361 158.687,37.424 z" fill="#1F383D"/>
      <path d="M145.239,49.42 C145.832,49.523 146.228,50.088 146.125,50.681 C146.021,51.274 145.456,51.671 144.863,51.567 C144.27,51.463 143.874,50.899 143.977,50.306 C144.081,49.713 144.646,49.316 145.239,49.42 z" fill="#1F383D"/>
      <path d="M134.066,28.658 C134.659,28.762 135.056,29.327 134.952,29.92 C134.849,30.513 134.284,30.909 133.691,30.806 C133.098,30.702 132.701,30.138 132.805,29.545 C132.908,28.952 133.473,28.555 134.066,28.658 z" fill="#1F383D"/>
      <path d="M123.475,20.986 C123.878,21.056 124.147,21.44 124.077,21.842 C124.006,22.245 123.623,22.514 123.22,22.444 C122.818,22.374 122.548,21.99 122.619,21.588 C122.689,21.185 123.072,20.916 123.475,20.986 z" fill="#1F383D"/>
      <path d="M122.96,13.283 C123.363,13.353 123.632,13.737 123.562,14.139 C123.492,14.542 123.108,14.811 122.706,14.741 C122.303,14.671 122.034,14.287 122.104,13.885 C122.174,13.482 122.558,13.213 122.96,13.283 z" fill="#1F383D"/>
      <path d="M133.449,50.302 C134.009,50.4 134.384,50.934 134.286,51.494 C134.188,52.055 133.655,52.43 133.094,52.332 C132.534,52.234 132.159,51.7 132.257,51.14 C132.355,50.579 132.888,50.204 133.449,50.302 z" fill="#1F383D"/>
      <path d="M135.47,17.328 C136.03,17.426 136.405,17.96 136.307,18.52 C136.21,19.081 135.676,19.456 135.116,19.358 C134.555,19.26 134.18,18.726 134.278,18.166 C134.376,17.605 134.91,17.231 135.47,17.328 z" fill="#1F383D"/>
      <path d="M151.965,32.277 C152.525,32.375 152.9,32.909 152.802,33.469 C152.704,34.03 152.171,34.405 151.61,34.307 C151.05,34.209 150.675,33.675 150.773,33.115 C150.871,32.554 151.405,32.18 151.965,32.277 z" fill="#1F383D"/>
      <path d="M98.512,40.604 C99.072,40.701 99.447,41.235 99.349,41.795 C99.251,42.356 98.718,42.731 98.157,42.633 C97.597,42.535 97.222,42.001 97.32,41.441 C97.418,40.881 97.952,40.506 98.512,40.604 z" fill="#1F383D"/>
      <path d="M124.365,54.607 C124.767,54.677 125.037,55.061 124.966,55.463 C124.896,55.866 124.513,56.135 124.11,56.065 C123.707,55.994 123.438,55.611 123.508,55.208 C123.579,54.806 123.962,54.537 124.365,54.607 z" fill="#1F383D"/>
      <path d="M152.233,38.908 C152.956,39.034 153.44,39.723 153.314,40.447 C153.188,41.171 152.499,41.655 151.775,41.528 C151.051,41.402 150.567,40.713 150.694,39.989 C150.82,39.266 151.509,38.782 152.233,38.908 z" fill="#1F383D"/>
      <path d="M130.604,41.886 C131.328,42.013 131.812,42.702 131.686,43.425 C131.559,44.149 130.87,44.633 130.146,44.507 C129.423,44.38 128.939,43.691 129.065,42.968 C129.192,42.244 129.881,41.76 130.604,41.886 z" fill="#1F383D"/>
    </g>
  </g>
</svg>
