<?xml version="1.0" encoding="UTF-8"?>
<!DOCTYPE svg PUBLIC "-//W3C//DTD SVG 1.1//EN" "http://www.w3.org/Graphics/SVG/1.1/DTD/svg11.dtd">
<svg version="1.1" xmlns="http://www.w3.org/2000/svg" xmlns:xlink="http://www.w3.org/1999/xlink" x="0" y="0" width="194.49" height="58.07" viewBox="0, 0, 194.49, 58.07">
  <g id="Layer_1">
    <g>
      <g>
        <path d="M175.226,50.469 C175.657,51.611 175.08,52.886 173.938,53.317 C172.796,53.747 171.521,53.17 171.09,52.028 C170.66,50.886 171.237,49.611 172.379,49.181 C173.521,48.75 174.796,49.327 175.226,50.469 z" fill="#73E3E3"/>
        <path d="M175.012,35.873 C175.156,36.256 174.963,36.683 174.58,36.827 C174.198,36.971 173.771,36.778 173.627,36.396 C173.483,36.013 173.676,35.586 174.058,35.442 C174.441,35.298 174.867,35.491 175.012,35.873 z" fill="#73E3E3"/>
        <path d="M172.07,49.33 C173.61,48.46 174.26,37.06 173.83,36.66 L174.75,36.73 C174.26,37.06 173.14,48.43 174.53,49.52 z" fill="#73E3E3"/>
        <path d="M187,50.04 C187,50.891 186.311,51.58 185.46,51.58 C184.609,51.58 183.92,50.891 183.92,50.04 C183.92,49.189 184.609,48.5 185.46,48.5 C186.311,48.5 187,49.189 187,50.04 z" fill="#73E3E3"/>
        <path d="M167.08,39.82 C167.08,41.847 165.437,43.49 163.41,43.49 C161.383,43.49 159.74,41.847 159.74,39.82 C159.74,37.793 161.383,36.15 163.41,36.15 C165.437,36.15 167.08,37.793 167.08,39.82 z" fill="#73E3E3"/>
        <path d="M161.71,54.23 C161.71,54.959 161.119,55.55 160.39,55.55 C159.661,55.55 159.07,54.959 159.07,54.23 C159.07,53.501 159.661,52.91 160.39,52.91 C161.119,52.91 161.71,53.501 161.71,54.23 z" fill="#73E3E3"/>
        <path d="M178.62,60.48 C178.62,61.17 178.06,61.73 177.37,61.73 C176.68,61.73 176.12,61.17 176.12,60.48 C176.12,59.79 176.68,59.23 177.37,59.23 C178.06,59.23 178.62,59.79 178.62,60.48 z" fill="#73E3E3"/>
        <path d="M195.09,32.18 C195.09,32.749 194.629,33.21 194.06,33.21 C193.491,33.21 193.03,32.749 193.03,32.18 C193.03,31.611 193.491,31.15 194.06,31.15 C194.629,31.15 195.09,31.611 195.09,32.18 z" fill="#73E3E3"/>
        <path d="M175.03,50.09 C175.73,51.22 183.67,50.31 184.03,49.45 L184.17,50.89 C183.66,50.12 175.69,50.78 175.22,52.02 z" fill="#73E3E3"/>
        <path d="M173.96,49.19 C175.2,49.67 193.22,33.03 193.07,32.43 L193.72,33.14 C193.14,32.93 174.92,49.36 175.29,50.64 z" fill="#73E3E3"/>
        <path d="M175.19,52.12 C174.32,54.12 176.72,58.83 177.87,59.32 L176.19,60.09 C176.57,58.9 174.6,54.03 172.49,53.36 z" fill="#73E3E3"/>
        <path d="M171.66,52.89 C170.35,51.7 162.04,53.81 161.6,54.78 L161.23,53.21 C162.05,53.88 170.45,52.1 171.09,50.45 z" fill="#73E3E3"/>
        <path d="M171.18,50.26 C171.68,49.26 165.78,42 164.35,42.47 L166.06,41.04 C165.34,42.37 171.46,49.46 172.52,49.14 z" fill="#73E3E3"/>
        <path d="M175.853,50.223 C176.414,51.711 175.662,53.373 174.174,53.934 C172.686,54.495 171.024,53.743 170.463,52.254 C169.902,50.766 170.654,49.105 172.143,48.544 C173.631,47.983 175.292,48.735 175.853,50.223 z" fill="#73E3E3"/>
        <path d="M141.5,42.58 C141.5,43.519 140.739,44.28 139.8,44.28 C138.861,44.28 138.1,43.519 138.1,42.58 C138.1,41.641 138.861,40.88 139.8,40.88 C140.739,40.88 141.5,41.641 141.5,42.58 z" fill="#73E3E3"/>
        <path d="M159.41,23.72 C159.41,24.659 158.649,25.42 157.71,25.42 C156.771,25.42 156.01,24.659 156.01,23.72 C156.01,22.781 156.771,22.02 157.71,22.02 C158.649,22.02 159.41,22.781 159.41,23.72 z" fill="#73E3E3"/>
        <path d="M155.9,49.23 C155.9,49.804 155.434,50.27 154.86,50.27 C154.286,50.27 153.82,49.804 153.82,49.23 C153.82,48.656 154.286,48.19 154.86,48.19 C155.434,48.19 155.9,48.656 155.9,49.23 z" fill="#73E3E3"/>
        <path d="M135.46,23.72 C135.46,23.146 135.926,22.68 136.5,22.68 C137.074,22.68 137.54,23.146 137.54,23.72 C137.54,24.88 137.07,24.72 136.54,24.72 C136.261,24.742 135.986,24.647 135.781,24.457 C135.575,24.267 135.459,24 135.46,23.72 z" fill="#73E3E3"/>
        <path d="M173.3,29.64 C173.3,30.214 172.834,30.68 172.26,30.68 C171.686,30.68 171.22,30.214 171.22,29.64 C171.22,29.066 171.686,28.6 172.26,28.6 C172.834,28.6 173.3,29.066 173.3,29.64 z" fill="#73E3E3"/>
        <path d="M163.67,36.6 C166.37,36.83 171.29,30.65 171.22,29.72 L172.31,30.72 C171.37,30.72 165.81,36.37 166.36,39.03 z" fill="#73E3E3"/>
        <path d="M161.26,37.49 C162.53,36.2 158.46,25.56 157.45,25.4 L158.97,24.86 C158.29,25.62 161.92,36.42 163.71,36.61 z" fill="#73E3E3"/>
        <path d="M162.31,42.41 C160.91,41.86 155.6,48.34 155.81,48.82 L155.16,48.24 C155.66,48.39 161.46,42.35 160.75,41.02 z" fill="#73E3E3"/>
        <path d="M160.66,40.85 C160.16,39.75 141.59,42.25 141.46,42.91 L141.32,41.83 C141.62,42.44 160.22,40.24 160.43,39.06 z" fill="#73E3E3"/>
        <path d="M160.62,38.68 C160.85,38.12 137.44,24.24 137.3,24.39 L137.47,24.1 C137.39,24.29 160.69,38.36 161.08,37.9 z" fill="#73E3E3"/>
        <path d="M146.086,35.307 C146.457,35.909 146.269,36.698 145.667,37.069 C145.065,37.439 144.277,37.252 143.906,36.65 C143.536,36.048 143.723,35.259 144.325,34.889 C144.927,34.518 145.716,34.705 146.086,35.307 z" fill="#73E3E3"/>
        <path d="M136.646,36.735 C136.771,36.937 136.708,37.202 136.506,37.326 C136.303,37.451 136.038,37.388 135.914,37.186 C135.789,36.983 135.852,36.719 136.055,36.594 C136.257,36.469 136.522,36.532 136.646,36.735 z" fill="#73E3E3"/>
        <path d="M144.04,36.77 C143.38,35.99 136.84,36.88 136.66,37.17 L136.6,36.64 C136.84,36.88 143.41,36.27 143.88,35.36 z" fill="#73E3E3"/>
        <path d="M143.865,28.893 C143.958,29.376 143.643,29.843 143.161,29.937 C142.678,30.03 142.211,29.715 142.117,29.232 C142.024,28.75 142.339,28.283 142.822,28.189 C143.304,28.096 143.771,28.411 143.865,28.893 z" fill="#73E3E3"/>
        <path d="M148.872,42.669 C148.952,43.081 148.683,43.48 148.271,43.56 C147.859,43.64 147.46,43.371 147.38,42.959 C147.3,42.547 147.569,42.148 147.981,42.068 C148.393,41.988 148.792,42.257 148.872,42.669 z" fill="#73E3E3"/>
        <path d="M150.462,32.425 C150.538,32.816 150.283,33.193 149.892,33.269 C149.502,33.345 149.124,33.09 149.048,32.699 C148.973,32.309 149.228,31.931 149.618,31.855 C150.009,31.78 150.386,32.035 150.462,32.425 z" fill="#73E3E3"/>
        <path d="M132.487,26.034 C132.549,26.354 132.34,26.664 132.02,26.726 C131.7,26.788 131.391,26.579 131.329,26.259 C131.266,25.939 131.475,25.63 131.795,25.568 C132.115,25.506 132.425,25.715 132.487,26.034 z" fill="#73E3E3"/>
        <path d="M144.14,35.04 C144.7,34.52 143.31,30.11 142.79,30.04 L143.59,29.8 C143.21,30.18 144.46,34.62 145.22,34.75 z" fill="#73E3E3"/>
        <path d="M143.77,35.71 C143.91,34.96 132.49,26.56 132.16,26.71 L132.49,26.27 C132.43,26.62 143.76,35.15 144.49,34.8 z" fill="#73E3E3"/>
        <path d="M145.28,34.69 C146.53,34.96 148.92,33.08 149.07,32.38 L149.69,33.25 C148.97,33.17 146.43,34.82 146.28,36.09 z" fill="#73E3E3"/>
        <path d="M146.1,36.61 C145.57,37.48 147.68,41.97 148.28,42.11 L147.43,42.49 C147.72,41.95 145.79,37.38 144.78,37.2 z" fill="#73E3E3"/>
        <path d="M144.66,37.17 C144.05,37 140.57,41.17 140.99,41.9 L139.99,41.09 C140.82,41.35 144.17,37.09 143.88,36.54 z" fill="#73E3E3"/>
        <path d="M146.41,35.108 C146.891,35.889 146.647,36.911 145.867,37.392 C145.086,37.873 144.063,37.63 143.583,36.849 C143.102,36.068 143.345,35.046 144.126,34.565 C144.907,34.084 145.929,34.328 146.41,35.108 z" fill="#73E3E3"/>
        <path d="M191.94,48.922 C192.422,49.084 192.681,49.605 192.52,50.087 C192.359,50.569 191.837,50.828 191.355,50.667 C190.874,50.505 190.614,49.984 190.775,49.502 C190.937,49.02 191.458,48.761 191.94,48.922 z" fill="#73E3E3"/>
        <path d="M187.212,45.201 C187.374,45.255 187.462,45.431 187.407,45.593 C187.353,45.756 187.177,45.843 187.015,45.789 C186.853,45.734 186.765,45.559 186.819,45.396 C186.874,45.234 187.049,45.146 187.212,45.201 z" fill="#73E3E3"/>
        <path d="M190.77,49.64 C190.9,48.92 187.39,45.71 187.15,45.75 L187.41,45.47 C187.41,45.72 190.75,49.06 191.47,48.9 z" fill="#73E3E3"/>
        <path d="M194.889,45.01 C195.163,45.234 195.204,45.637 194.981,45.911 C194.758,46.185 194.355,46.226 194.081,46.003 C193.807,45.779 193.766,45.376 193.989,45.102 C194.212,44.828 194.615,44.787 194.889,45.01 z" fill="#73E3E3"/>
        <path d="M189.607,54.267 C189.842,54.459 189.877,54.806 189.686,55.041 C189.494,55.277 189.147,55.312 188.912,55.12 C188.676,54.928 188.641,54.582 188.833,54.346 C189.025,54.111 189.371,54.076 189.607,54.267 z" fill="#73E3E3"/>
        <path d="M196.056,50.496 C196.279,50.677 196.312,51.005 196.131,51.227 C195.949,51.45 195.622,51.483 195.399,51.302 C195.177,51.12 195.143,50.793 195.325,50.57 C195.506,50.348 195.834,50.314 196.056,50.496 z" fill="#73E3E3"/>
        <path d="M191.269,37.706 C191.453,37.856 191.481,38.126 191.331,38.31 C191.181,38.495 190.91,38.522 190.726,38.372 C190.542,38.222 190.514,37.951 190.664,37.767 C190.814,37.583 191.085,37.555 191.269,37.706 z" fill="#73E3E3"/>
        <path d="M191.77,48.89 C192.32,48.96 194.11,46.16 193.93,45.83 L194.43,46.16 C194.05,46.16 192.17,48.86 192.43,49.34 z" fill="#73E3E3"/>
        <path d="M191.2,49.04 C191.68,48.77 191.05,38.59 190.82,38.49 L191.22,38.49 C191,38.62 191.51,48.8 192.02,49.02 z" fill="#73E3E3"/>
        <path d="M192.47,49.37 C192.9,50.18 195.03,50.64 195.47,50.37 L195.28,51.11 C195,50.68 192.91,50.03 192.14,50.53 z" fill="#73E3E3"/>
        <path d="M191.77,50.71 C191.04,50.82 189.54,54.05 189.77,54.45 L189.17,54.16 C189.6,54.07 191.23,50.9 190.87,50.26 z" fill="#73E3E3"/>
        <path d="M190.77,50.17 C190.58,49.75 186.69,49.74 186.47,50.33 L186.47,49.4 C186.71,49.98 190.6,49.87 190.78,49.4 L190.78,50.13 z" fill="#73E3E3"/>
        <path d="M192.019,48.637 C192.647,48.847 192.986,49.528 192.776,50.156 C192.565,50.784 191.885,51.123 191.256,50.912 C190.628,50.702 190.289,50.022 190.5,49.393 C190.711,48.765 191.391,48.426 192.019,48.637 z" fill="#73E3E3"/>
        <g>
          <path d="M138.351,51.807 C139.499,52.565 139.815,54.109 139.057,55.257 C138.3,56.405 136.755,56.721 135.608,55.963 C134.46,55.205 134.144,53.661 134.901,52.513 C135.659,51.366 137.204,51.049 138.351,51.807 z" fill="#73E3E3"/>
          <path d="M142.708,39.933 C143.235,40.282 143.379,40.993 143.03,41.52 C142.681,42.047 141.97,42.191 141.443,41.842 C140.916,41.493 140.772,40.782 141.121,40.255 C141.47,39.728 142.181,39.584 142.708,39.933 z" fill="#73E3E3"/>
          <path d="M148.848,55.72 C149.378,56.07 149.524,56.784 149.174,57.314 C148.824,57.844 148.111,57.99 147.581,57.64 C147.051,57.29 146.905,56.576 147.255,56.046 C147.605,55.516 148.318,55.37 148.848,55.72 z" fill="#73E3E3"/>
          <path d="M135.247,44.965 C135.574,45.182 135.664,45.622 135.448,45.949 C135.232,46.276 134.792,46.367 134.465,46.151 C134.137,45.935 134.047,45.494 134.263,45.167 C134.479,44.84 134.92,44.749 135.247,44.965 z" fill="#73E3E3"/>
          <path d="M156.53,44.15 C156.766,44.278 156.91,44.528 156.902,44.797 C156.893,45.065 156.734,45.306 156.49,45.419 C156.247,45.532 155.96,45.497 155.75,45.33 C155.09,44.9 155.34,44.68 155.55,44.33 C155.773,44.012 156.209,43.932 156.53,44.15 z" fill="#73E3E3"/>
          <path d="M139.838,62.103 C140.166,62.319 140.256,62.76 140.04,63.087 C139.824,63.414 139.383,63.504 139.056,63.288 C138.729,63.072 138.639,62.632 138.855,62.304 C139.071,61.977 139.511,61.887 139.838,62.103 z" fill="#73E3E3"/>
          <path d="M138.72,55.28 C137.58,56.72 139.24,61.81 139.79,62.12 L138.79,62.37 C139.11,61.82 138.02,56.59 136.31,55.91 z" fill="#73E3E3"/>
          <path d="M139.12,53.59 C139.37,54.79 146.91,56.46 147.37,55.95 L147.11,57.04 C146.94,56.37 139.47,54.39 138.7,55.34 z" fill="#73E3E3"/>
          <path d="M135.94,52.35 C136.77,51.76 135.09,46.35 134.74,46.28 L135.31,46.13 C135.04,46.36 136.31,51.89 137.31,51.98 z" fill="#73E3E3"/>
          <path d="M137.43,52.04 C138.24,52.17 143.76,40.74 143.43,40.41 L144.09,40.74 C143.63,40.68 137.93,52.02 138.52,52.58 z" fill="#73E3E3"/>
          <path d="M138.68,52.78 C138.91,53.12 155.5,45.07 155.46,44.93 L155.56,45.14 C155.48,45.02 138.83,52.94 138.95,53.33 z" fill="#73E3E3"/>
        </g>
        <g>
          <path d="M175.477,19.629 C176.384,20.663 176.281,22.236 175.247,23.143 C174.213,24.05 172.64,23.947 171.733,22.914 C170.826,21.88 170.929,20.307 171.963,19.4 C172.997,18.493 174.57,18.596 175.477,19.629 z" fill="#73E3E3"/>
          <path d="M185.894,30.396 C186.313,30.873 186.267,31.599 185.79,32.018 C185.314,32.437 184.588,32.391 184.169,31.914 C183.75,31.438 183.796,30.712 184.272,30.293 C184.749,29.874 185.475,29.92 185.894,30.396 z" fill="#73E3E3"/>
          <path d="M168.809,30.591 C169.228,31.068 169.18,31.795 168.703,32.214 C168.225,32.632 167.499,32.585 167.08,32.108 C166.661,31.63 166.708,30.903 167.186,30.485 C167.663,30.066 168.39,30.113 168.809,30.591 z" fill="#73E3E3"/>
          <path d="M182.75,20.958 C183.009,21.253 182.979,21.701 182.684,21.96 C182.39,22.219 181.941,22.189 181.683,21.894 C181.424,21.6 181.453,21.151 181.748,20.893 C182.043,20.634 182.491,20.663 182.75,20.958 z" fill="#73E3E3"/>
          <path d="M177.88,42.71 C177.697,42.913 177.413,42.994 177.151,42.916 C176.888,42.838 176.694,42.617 176.651,42.346 C176.608,42.076 176.724,41.805 176.95,41.65 C177.54,41.13 177.69,41.42 177.95,41.72 C178.199,42.014 178.168,42.454 177.88,42.71 z" fill="#73E3E3"/>
          <path d="M164.994,20.841 C165.253,21.136 165.224,21.584 164.929,21.843 C164.634,22.102 164.185,22.072 163.927,21.778 C163.668,21.483 163.698,21.034 163.992,20.776 C164.287,20.517 164.736,20.546 164.994,20.841 z" fill="#73E3E3"/>
          <path d="M171.84,22.59 C170.75,21.11 165.41,21.37 164.96,21.82 L164.96,20.82 C165.4,21.28 170.74,21.6 171.85,20.14 z" fill="#73E3E3"/>
          <path d="M173.37,23.42 C172.15,23.35 168.54,30.18 168.92,30.76 L167.92,30.23 C168.61,30.23 172.49,23.56 171.78,22.57 z" fill="#73E3E3"/>
          <path d="M175.4,20.69 C175.75,21.69 181.4,21.46 181.57,21.14 L181.57,21.73 C181.42,21.41 175.76,21.15 175.4,22.11 L175.4,20.69 z" fill="#73E3E3"/>
          <path d="M175.35,22.22 C175.02,22.97 184.58,31.31 184.98,31.08 L184.49,31.63 C184.67,31.21 175.24,22.71 174.54,23.14 z" fill="#73E3E3"/>
          <path d="M174.26,23.22 C173.87,23.35 177.26,41.48 177.4,41.47 L177.17,41.47 C177.3,41.47 174.06,23.27 173.65,23.28 z" fill="#73E3E3"/>
        </g>
        <g>
          <path d="M132.359,43.109 C133.651,43.581 134.315,45.011 133.843,46.302 C133.37,47.594 131.94,48.258 130.649,47.785 C129.357,47.313 128.693,45.883 129.166,44.592 C129.638,43.3 131.068,42.636 132.359,43.109 z" fill="#73E3E3"/>
          <path d="M128.162,60.029 C128.758,60.247 129.065,60.907 128.847,61.504 C128.628,62.1 127.968,62.407 127.372,62.189 C126.775,61.97 126.468,61.31 126.687,60.714 C126.905,60.117 127.565,59.81 128.162,60.029 z" fill="#73E3E3"/>
          <path d="M120.366,44.32 C120.963,44.538 121.269,45.198 121.051,45.795 C120.833,46.391 120.172,46.698 119.576,46.48 C118.98,46.261 118.673,45.601 118.891,45.004 C119.11,44.408 119.77,44.101 120.366,44.32 z" fill="#73E3E3"/>
          <path d="M135.781,52.484 C136.149,52.619 136.338,53.026 136.203,53.395 C136.069,53.763 135.661,53.952 135.293,53.817 C134.924,53.683 134.735,53.275 134.87,52.907 C135.005,52.538 135.412,52.349 135.781,52.484 z" fill="#73E3E3"/>
          <path d="M114.77,59.52 C114.497,59.464 114.282,59.254 114.22,58.982 C114.158,58.71 114.261,58.427 114.483,58.259 C114.705,58.09 115.005,58.067 115.25,58.2 C115.99,58.47 115.8,58.74 115.67,59.1 C115.534,59.461 115.134,59.648 114.77,59.52 z" fill="#73E3E3"/>
          <path d="M127.336,36.793 C127.705,36.928 127.894,37.336 127.759,37.704 C127.625,38.072 127.217,38.262 126.849,38.127 C126.48,37.992 126.291,37.584 126.426,37.216 C126.561,36.848 126.968,36.659 127.336,36.793 z" fill="#73E3E3"/>
          <path d="M129.54,44.58 C130.32,42.92 127.54,38.35 126.92,38.17 L127.79,37.7 C127.6,38.31 129.87,43.15 131.69,43.42 z" fill="#73E3E3"/>
          <path d="M129.54,46.31 C129.02,45.2 121.3,45.31 120.97,45.92 L120.97,44.83 C121.29,45.44 128.97,45.65 129.55,44.55 L129.55,46.32 z" fill="#73E3E3"/>
          <path d="M132.92,46.79 C132.25,47.56 135.13,52.44 135.48,52.42 L134.96,52.7 C135.17,52.42 132.68,47.32 131.67,47.47 z" fill="#73E3E3"/>
          <path d="M131.54,47.48 C130.73,47.54 127.99,59.94 128.38,60.18 L127.67,60.04 C128.13,60.04 131.06,47.65 130.35,47.24 z" fill="#73E3E3"/>
          <path d="M130.15,47.04 C129.85,46.76 115.57,58.43 115.64,58.55 L115.5,58.37 C115.61,58.46 129.98,46.92 129.77,46.56 z" fill="#73E3E3"/>
        </g>
      </g>
      <g>
        <path d="M131.702,17.106 C132.844,17.535 133.423,18.809 132.994,19.951 C132.565,21.094 131.291,21.673 130.149,21.244 C129.006,20.815 128.427,19.541 128.856,18.398 C129.285,17.256 130.559,16.677 131.702,17.106 z" fill="#73E3E3"/>
        <path d="M130.019,3.328 C130.402,3.472 130.596,3.898 130.452,4.281 C130.309,4.663 129.882,4.857 129.499,4.714 C129.117,4.57 128.923,4.143 129.067,3.761 C129.21,3.378 129.637,3.184 130.019,3.328 z" fill="#73E3E3"/>
        <path d="M132,17.21 C130.46,16.34 129.81,4.94 130.24,4.54 L129.32,4.61 C129.81,4.94 130.93,16.31 129.54,17.4 z" fill="#73E3E3"/>
        <path d="M120.15,17.93 C120.15,18.781 119.461,19.47 118.61,19.47 C117.759,19.47 117.07,18.781 117.07,17.93 C117.07,17.079 117.759,16.39 118.61,16.39 C119.461,16.39 120.15,17.079 120.15,17.93 z" fill="#73E3E3"/>
        <path d="M144.33,7.71 C144.33,9.737 142.687,11.38 140.66,11.38 C138.633,11.38 136.99,9.737 136.99,7.71 C136.99,5.683 138.633,4.04 140.66,4.04 C142.687,4.04 144.33,5.683 144.33,7.71 z" fill="#73E3E3"/>
        <path d="M144.99,22.12 C144.99,22.849 144.399,23.44 143.67,23.44 C142.941,23.44 142.35,22.849 142.35,22.12 C142.35,21.391 142.941,20.8 143.67,20.8 C144.399,20.8 144.99,21.391 144.99,22.12 z" fill="#73E3E3"/>
        <path d="M127.94,28.37 C127.94,29.06 127.38,29.62 126.69,29.62 C126,29.62 125.44,29.06 125.44,28.37 C125.44,27.68 126,27.12 126.69,27.12 C127.38,27.12 127.94,27.68 127.94,28.37 z" fill="#73E3E3"/>
        <path d="M111.04,0.06 C111.04,0.629 110.579,1.09 110.01,1.09 C109.441,1.09 108.98,0.629 108.98,0.06 C108.98,-0.509 109.441,-0.97 110.01,-0.97 C110.579,-0.97 111.04,-0.509 111.04,0.06 z" fill="#73E3E3"/>
        <path d="M129.03,17.98 C128.33,19.11 120.39,18.2 120.03,17.34 L119.89,18.78 C120.4,18.01 128.37,18.67 128.84,19.91 z" fill="#73E3E3"/>
        <path d="M130.11,17.04 C128.87,17.52 110.85,0.88 111,0.28 L110.35,0.99 C110.93,0.78 129.15,17.21 128.78,18.49 z" fill="#73E3E3"/>
        <path d="M128.88,20.04 C129.75,22.04 127.35,26.75 126.2,27.24 L127.88,28.01 C127.5,26.82 129.47,21.95 131.58,21.28 z" fill="#73E3E3"/>
        <path d="M132.41,20.78 C133.72,19.59 142.03,21.7 142.47,22.67 L142.84,21.1 C142.02,21.77 133.62,19.99 132.98,18.34 z" fill="#73E3E3"/>
        <path d="M132.89,18.14 C132.39,17.14 138.29,9.88 139.72,10.35 L138.01,8.92 C138.73,10.25 132.61,17.34 131.55,17.02 z" fill="#73E3E3"/>
        <path d="M131.937,16.478 C133.426,17.037 134.18,18.698 133.622,20.187 C133.063,21.676 131.402,22.43 129.913,21.871 C128.424,21.312 127.67,19.652 128.229,18.163 C128.788,16.674 130.448,15.92 131.937,16.478 z" fill="#73E3E3"/>
        <path d="M165.97,10.47 C165.97,11.409 165.209,12.17 164.27,12.17 C163.331,12.17 162.57,11.409 162.57,10.47 C162.57,9.531 163.331,8.77 164.27,8.77 C165.209,8.77 165.97,9.531 165.97,10.47 z" fill="#73E3E3"/>
        <path d="M148.06,-8.39 C148.06,-7.451 147.299,-6.69 146.36,-6.69 C145.421,-6.69 144.66,-7.451 144.66,-8.39 C144.66,-9.329 145.421,-10.09 146.36,-10.09 C147.299,-10.09 148.06,-9.329 148.06,-8.39 z" fill="#73E3E3"/>
        <path d="M150.25,17.12 C150.25,17.694 149.784,18.16 149.21,18.16 C148.636,18.16 148.17,17.694 148.17,17.12 C148.17,16.546 148.636,16.08 149.21,16.08 C149.784,16.08 150.25,16.546 150.25,17.12 z" fill="#73E3E3"/>
        <path d="M168.6,-8.39 C168.6,-8.964 168.134,-9.43 167.56,-9.43 C166.986,-9.43 166.52,-8.964 166.52,-8.39 C166.52,-7.23 166.99,-7.39 167.52,-7.39 C167.799,-7.368 168.074,-7.463 168.279,-7.653 C168.485,-7.843 168.601,-8.11 168.6,-8.39 z" fill="#73E3E3"/>
        <path d="M132.85,-2.47 C132.85,-1.896 132.384,-1.43 131.81,-1.43 C131.236,-1.43 130.77,-1.896 130.77,-2.47 C130.77,-3.044 131.236,-3.51 131.81,-3.51 C132.384,-3.51 132.85,-3.044 132.85,-2.47 z" fill="#73E3E3"/>
        <path d="M140.4,4.49 C137.7,4.72 132.78,-1.46 132.85,-2.39 L131.76,-1.39 C132.7,-1.39 138.26,4.26 137.71,6.92 z" fill="#73E3E3"/>
        <path d="M142.77,5.37 C141.5,4.08 145.57,-6.56 146.58,-6.72 L145.06,-7.26 C145.74,-6.5 142.11,4.3 140.32,4.49 z" fill="#73E3E3"/>
        <path d="M141.77,10.3 C143.17,9.75 148.48,16.23 148.27,16.71 L148.92,16.13 C148.42,16.28 142.62,10.24 143.33,8.91 z" fill="#73E3E3"/>
        <path d="M143.4,8.74 C143.9,7.64 162.47,10.14 162.6,10.8 L162.74,9.72 C162.44,10.33 143.84,8.13 143.63,6.95 z" fill="#73E3E3"/>
        <path d="M143.45,6.57 C143.22,6.01 166.63,-7.87 166.77,-7.72 L166.6,-8.01 C166.68,-7.82 143.38,6.25 142.99,5.79 z" fill="#73E3E3"/>
        <path d="M159.717,2.728 C160.32,3.098 160.508,3.886 160.139,4.488 C159.769,5.091 158.981,5.28 158.378,4.91 C157.776,4.54 157.587,3.752 157.957,3.149 C158.327,2.547 159.115,2.358 159.717,2.728 z" fill="#73E3E3"/>
        <path d="M167.996,4.484 C168.199,4.608 168.262,4.873 168.138,5.075 C168.014,5.278 167.749,5.341 167.546,5.217 C167.344,5.092 167.281,4.828 167.405,4.625 C167.529,4.423 167.794,4.359 167.996,4.484 z" fill="#73E3E3"/>
        <path d="M160.03,4.66 C160.69,3.88 167.23,4.77 167.41,5.06 L167.47,4.53 C167.23,4.77 160.66,4.16 160.19,3.25 z" fill="#73E3E3"/>
        <path d="M161.257,-3.909 C161.739,-3.816 162.055,-3.349 161.961,-2.866 C161.868,-2.384 161.401,-2.068 160.918,-2.162 C160.436,-2.255 160.12,-2.722 160.214,-3.205 C160.307,-3.688 160.774,-4.003 161.257,-3.909 z" fill="#73E3E3"/>
        <path d="M156.128,10.029 C156.54,10.109 156.809,10.508 156.729,10.92 C156.649,11.332 156.25,11.601 155.838,11.522 C155.426,11.442 155.157,11.043 155.237,10.631 C155.317,10.219 155.716,9.949 156.128,10.029 z" fill="#73E3E3"/>
        <path d="M153.658,0.247 C154.048,0.323 154.302,0.7 154.227,1.089 C154.151,1.479 153.774,1.734 153.384,1.658 C152.995,1.583 152.74,1.206 152.816,0.816 C152.891,0.426 153.268,0.171 153.658,0.247 z" fill="#73E3E3"/>
        <path d="M172.26,-6.536 C172.579,-6.474 172.788,-6.165 172.726,-5.845 C172.664,-5.525 172.355,-5.316 172.035,-5.378 C171.715,-5.44 171.506,-5.75 171.568,-6.069 C171.63,-6.389 171.94,-6.598 172.26,-6.536 z" fill="#73E3E3"/>
        <path d="M159.92,2.89 C159.36,2.37 160.75,-2.04 161.27,-2.11 L160.47,-2.35 C160.85,-1.97 159.6,2.47 158.84,2.6 z" fill="#73E3E3"/>
        <path d="M160.31,3.6 C160.17,2.85 171.59,-5.55 171.92,-5.4 L171.59,-5.84 C171.65,-5.49 160.32,3.04 159.59,2.69 z" fill="#73E3E3"/>
        <path d="M158.77,2.58 C157.52,2.85 155.13,0.98 154.98,0.27 L154.36,1.14 C155.08,1.06 157.62,2.71 157.77,3.98 z" fill="#73E3E3"/>
        <path d="M157.96,4.5 C158.49,5.37 156.38,9.86 155.78,10 L156.63,10.38 C156.34,9.84 158.27,5.27 159.28,5.09 z" fill="#73E3E3"/>
        <path d="M159.4,5.04 C160.01,4.87 163.49,9.04 163.07,9.77 L164.07,8.96 C163.24,9.22 159.89,4.96 160.18,4.4 z" fill="#73E3E3"/>
        <path d="M159.916,2.404 C160.697,2.884 160.942,3.906 160.462,4.687 C159.983,5.469 158.961,5.713 158.179,5.234 C157.398,4.754 157.153,3.732 157.633,2.951 C158.112,2.169 159.135,1.925 159.916,2.404 z" fill="#73E3E3"/>
        <path d="M113.27,17.41 C113.432,17.892 113.173,18.414 112.692,18.576 C112.21,18.738 111.688,18.479 111.526,17.998 C111.364,17.516 111.623,16.994 112.104,16.832 C112.586,16.67 113.108,16.929 113.27,17.41 z" fill="#73E3E3"/>
        <path d="M117.249,13.264 C117.304,13.426 117.217,13.602 117.054,13.657 C116.892,13.711 116.716,13.624 116.662,13.462 C116.607,13.299 116.694,13.124 116.857,13.069 C117.019,13.014 117.195,13.102 117.249,13.264 z" fill="#73E3E3"/>
        <path d="M113.32,17.53 C113.19,16.81 116.7,13.6 116.94,13.64 L116.68,13.36 C116.68,13.61 113.34,16.95 112.62,16.79 z" fill="#73E3E3"/>
        <path d="M110.068,12.997 C110.291,13.271 110.25,13.674 109.976,13.897 C109.702,14.121 109.299,14.08 109.076,13.806 C108.852,13.532 108.893,13.128 109.167,12.905 C109.441,12.682 109.845,12.723 110.068,12.997 z" fill="#73E3E3"/>
        <path d="M115.226,22.258 C115.417,22.493 115.382,22.84 115.147,23.032 C114.911,23.224 114.565,23.188 114.373,22.953 C114.181,22.717 114.216,22.371 114.452,22.179 C114.687,21.987 115.034,22.022 115.226,22.258 z" fill="#73E3E3"/>
        <path d="M108.737,18.395 C108.919,18.618 108.885,18.946 108.663,19.127 C108.44,19.308 108.113,19.275 107.931,19.052 C107.75,18.83 107.783,18.502 108.006,18.321 C108.228,18.139 108.556,18.173 108.737,18.395 z" fill="#73E3E3"/>
        <path d="M113.405,5.696 C113.555,5.88 113.528,6.151 113.344,6.301 C113.16,6.451 112.889,6.423 112.739,6.239 C112.589,6.055 112.616,5.784 112.8,5.634 C112.984,5.484 113.255,5.512 113.405,5.696 z" fill="#73E3E3"/>
        <path d="M112.29,16.78 C111.74,16.85 109.95,14.05 110.13,13.72 L109.63,14.05 C110.01,14.05 111.89,16.75 111.63,17.23 z" fill="#73E3E3"/>
        <path d="M112.87,16.89 C112.39,16.62 113.02,6.44 113.25,6.34 L112.85,6.34 C113.07,6.47 112.56,16.65 112.05,16.87 z" fill="#73E3E3"/>
        <path d="M111.6,17.26 C111.17,18.07 109.04,18.53 108.6,18.26 L108.77,19.04 C109.05,18.61 111.14,17.96 111.91,18.46 z" fill="#73E3E3"/>
        <path d="M112.28,18.6 C113.01,18.71 114.51,21.94 114.28,22.34 L114.88,22.05 C114.45,21.96 112.82,18.79 113.18,18.15 z" fill="#73E3E3"/>
        <path d="M113.25,18.04 C113.44,17.62 117.33,17.61 117.55,18.2 L117.55,17.27 C117.31,17.85 113.42,17.74 113.24,17.27 L113.24,18.04 z" fill="#73E3E3"/>
        <path d="M113.545,17.311 C113.757,17.939 113.419,18.62 112.791,18.831 C112.163,19.043 111.482,18.705 111.271,18.077 C111.059,17.449 111.397,16.768 112.025,16.557 C112.653,16.345 113.334,16.683 113.545,17.311 z" fill="#73E3E3"/>
        <g>
          <path d="M169.145,20.481 C169.903,21.629 169.587,23.173 168.439,23.931 C167.291,24.689 165.747,24.372 164.989,23.225 C164.232,22.077 164.548,20.533 165.695,19.775 C166.843,19.017 168.388,19.334 169.145,20.481 z" fill="#73E3E3"/>
          <path d="M160.774,6.833 C161.124,7.363 160.978,8.076 160.448,8.426 C159.918,8.776 159.205,8.63 158.855,8.1 C158.505,7.57 158.651,6.856 159.181,6.506 C159.711,6.157 160.424,6.303 160.774,6.833 z" fill="#73E3E3"/>
          <path d="M156.81,23.94 C157.16,24.47 157.014,25.184 156.484,25.534 C155.954,25.884 155.241,25.738 154.891,25.208 C154.541,24.678 154.687,23.964 155.217,23.614 C155.747,23.265 156.46,23.41 156.81,23.94 z" fill="#73E3E3"/>
          <path d="M169.793,13.035 C170.009,13.362 169.919,13.802 169.591,14.018 C169.264,14.235 168.824,14.144 168.608,13.817 C168.392,13.49 168.482,13.05 168.809,12.834 C169.136,12.617 169.576,12.708 169.793,13.035 z" fill="#73E3E3"/>
          <path d="M147.54,12.04 C147.252,12.269 147.187,12.68 147.39,12.987 C147.593,13.294 147.996,13.395 148.32,13.22 C148.98,12.79 148.73,12.57 148.52,12.22 C148.297,11.902 147.861,11.822 147.54,12.04 z" fill="#73E3E3"/>
          <path d="M165.221,30.19 C165.438,30.517 165.347,30.957 165.02,31.173 C164.693,31.389 164.253,31.299 164.037,30.972 C163.82,30.645 163.911,30.205 164.238,29.988 C164.565,29.772 165.005,29.862 165.221,30.19 z" fill="#73E3E3"/>
          <path d="M165.35,23.17 C166.49,24.61 164.83,29.7 164.28,30.01 L165.28,30.26 C164.96,29.71 166.05,24.48 167.76,23.8 z" fill="#73E3E3"/>
          <path d="M164.95,21.48 C164.7,22.68 157.16,24.35 156.7,23.84 L156.96,24.9 C157.13,24.23 164.6,22.25 165.37,23.2 z" fill="#73E3E3"/>
          <path d="M168.13,20.24 C167.3,19.65 168.98,14.24 169.33,14.17 L168.77,14.04 C169.04,14.27 167.77,19.8 166.77,19.89 z" fill="#73E3E3"/>
          <path d="M166.63,19.89 C165.82,20.02 160.3,8.59 160.63,8.26 L159.97,8.59 C160.43,8.53 166.13,19.87 165.54,20.43 z" fill="#73E3E3"/>
          <path d="M165.38,20.67 C165.15,21.01 148.56,12.96 148.6,12.82 L148.5,13.03 C148.58,12.91 165.23,20.83 165.11,21.22 z" fill="#73E3E3"/>
        </g>
        <g>
          <path d="M132.12,-12.679 C133.153,-11.773 133.256,-10.199 132.349,-9.166 C131.442,-8.132 129.869,-8.029 128.835,-8.936 C127.802,-9.843 127.699,-11.416 128.606,-12.45 C129.513,-13.484 131.086,-13.586 132.12,-12.679 z" fill="#73E3E3"/>
          <path d="M119.286,-0.883 C119.764,-0.464 119.811,0.262 119.392,0.74 C118.973,1.217 118.247,1.265 117.769,0.846 C117.292,0.427 117.244,-0.3 117.663,-0.777 C118.082,-1.255 118.809,-1.302 119.286,-0.883 z" fill="#73E3E3"/>
          <path d="M136.877,-1.575 C137.354,-1.156 137.402,-0.43 136.983,0.048 C136.564,0.525 135.837,0.573 135.36,0.154 C134.883,-0.265 134.835,-0.992 135.254,-1.469 C135.673,-1.947 136.399,-1.994 136.877,-1.575 z" fill="#73E3E3"/>
          <path d="M122.323,-11.177 C122.618,-10.918 122.647,-10.47 122.388,-10.175 C122.13,-9.88 121.681,-9.851 121.386,-10.109 C121.092,-10.368 121.062,-10.816 121.321,-11.111 C121.579,-11.406 122.028,-11.435 122.323,-11.177 z" fill="#73E3E3"/>
          <path d="M126.19,10.6 C126.373,10.803 126.657,10.884 126.919,10.806 C127.182,10.728 127.376,10.507 127.419,10.236 C127.462,9.966 127.346,9.695 127.12,9.54 C126.53,9.02 126.38,9.31 126.12,9.6 C125.864,9.896 125.895,10.343 126.19,10.6 z" fill="#73E3E3"/>
          <path d="M140.083,-11.276 C140.378,-11.017 140.407,-10.569 140.149,-10.274 C139.89,-9.979 139.442,-9.95 139.147,-10.208 C138.852,-10.467 138.823,-10.915 139.081,-11.21 C139.34,-11.505 139.789,-11.534 140.083,-11.276 z" fill="#73E3E3"/>
          <path d="M132.23,-9.52 C133.32,-11 138.66,-10.74 139.11,-10.29 L139.11,-11.29 C138.67,-10.83 133.33,-10.51 132.22,-11.97 z" fill="#73E3E3"/>
          <path d="M130.7,-8.69 C131.92,-8.76 135.53,-1.93 135.15,-1.35 L136.15,-1.88 C135.46,-1.88 131.58,-8.55 132.29,-9.54 z" fill="#73E3E3"/>
          <path d="M128.66,-11.42 C128.31,-10.42 122.66,-10.65 122.49,-10.97 L122.49,-10.38 C122.64,-10.7 128.3,-10.96 128.66,-10 L128.66,-11.42 z" fill="#73E3E3"/>
          <path d="M128.72,-9.89 C129.05,-9.15 119.49,-0.8 119.09,-1.03 L119.58,-0.48 C119.4,-0.9 128.83,-9.4 129.53,-8.97 z" fill="#73E3E3"/>
          <path d="M129.77,-8.89 C130.16,-8.76 126.77,9.37 126.63,9.36 L126.86,9.36 C126.73,9.36 129.97,-8.84 130.38,-8.83 z" fill="#73E3E3"/>
        </g>
        <g>
          <path d="M174.867,12.568 C175.34,13.859 174.676,15.289 173.384,15.762 C172.093,16.234 170.663,15.57 170.19,14.278 C169.718,12.987 170.382,11.557 171.673,11.085 C172.965,10.612 174.395,11.276 174.867,12.568 z" fill="#73E3E3"/>
          <path d="M177.34,28.681 C177.559,29.277 177.252,29.937 176.655,30.156 C176.059,30.374 175.399,30.067 175.18,29.471 C174.962,28.874 175.269,28.214 175.865,27.996 C176.462,27.777 177.122,28.084 177.34,28.681 z" fill="#73E3E3"/>
          <path d="M185.174,12.901 C185.392,13.498 185.085,14.158 184.489,14.376 C183.892,14.594 183.232,14.288 183.014,13.691 C182.795,13.095 183.102,12.434 183.699,12.216 C184.295,11.998 184.955,12.305 185.174,12.901 z" fill="#73E3E3"/>
          <path d="M169.218,20.74 C169.353,21.108 169.163,21.516 168.795,21.65 C168.427,21.785 168.019,21.596 167.884,21.228 C167.75,20.859 167.939,20.452 168.307,20.317 C168.675,20.182 169.083,20.371 169.218,20.74 z" fill="#73E3E3"/>
          <path d="M189.29,27.41 C189.668,27.266 189.859,26.843 189.715,26.465 C189.571,26.087 189.148,25.896 188.77,26.04 C188.03,26.31 188.22,26.58 188.35,26.94 C188.404,27.133 188.537,27.293 188.716,27.383 C188.895,27.472 189.103,27.482 189.29,27.41 z" fill="#73E3E3"/>
          <path d="M177.634,5.108 C177.769,5.476 177.579,5.884 177.211,6.019 C176.843,6.153 176.435,5.964 176.3,5.596 C176.165,5.228 176.355,4.82 176.723,4.685 C177.091,4.55 177.499,4.74 177.634,5.108 z" fill="#73E3E3"/>
          <path d="M174.53,12.46 C173.75,10.8 176.53,6.23 177.15,6.05 L176.28,5.58 C176.47,6.19 174.2,11.03 172.38,11.3 z" fill="#73E3E3"/>
          <path d="M174.53,14.2 C175.05,13.09 182.77,13.2 183.1,13.81 L183.1,12.72 C182.78,13.33 175.1,13.54 174.52,12.44 L174.52,14.21 z" fill="#73E3E3"/>
          <path d="M171.15,14.68 C171.82,15.45 168.94,20.33 168.59,20.31 L169.11,20.59 C168.9,20.31 171.39,15.21 172.4,15.36 z" fill="#73E3E3"/>
          <path d="M172.52,15.36 C173.33,15.42 176.07,27.82 175.68,28.06 L176.4,27.9 C175.94,27.9 173.01,15.51 173.72,15.1 z" fill="#73E3E3"/>
          <path d="M173.92,14.89 C174.22,14.61 188.5,26.28 188.43,26.4 L188.57,26.22 C188.46,26.31 174.09,14.77 174.3,14.41 z" fill="#73E3E3"/>
        </g>
      </g>
    </g>
    <g>
      <path d="M166.362,45.848 C166.98,47.486 166.152,49.315 164.514,49.932 C162.876,50.549 161.047,49.722 160.43,48.084 C159.812,46.445 160.64,44.617 162.278,43.999 C163.916,43.382 165.745,44.209 166.362,45.848 z" fill="#6FABA5"/>
      <path d="M166.071,24.901 C166.28,25.454 166.001,26.071 165.448,26.28 C164.895,26.488 164.277,26.209 164.069,25.656 C163.86,25.103 164.14,24.486 164.693,24.278 C165.246,24.069 165.863,24.348 166.071,24.901 z" fill="#6FABA5"/>
      <path d="M161.84,44.21 C164.05,42.97 164.98,26.63 164.36,26.05 L165.68,26.15 C164.97,26.62 163.37,42.91 165.37,44.48 z" fill="#6FABA5"/>
      <path d="M183.24,45.23 C183.24,46.451 182.251,47.44 181.03,47.44 C179.809,47.44 178.82,46.451 178.82,45.23 C178.82,44.009 179.809,43.02 181.03,43.02 C182.251,43.02 183.24,44.009 183.24,45.23 z" fill="#6FABA5"/>
      <path d="M154.68,30.59 C154.68,33.495 152.325,35.85 149.42,35.85 C146.515,35.85 144.16,33.495 144.16,30.59 C144.16,27.685 146.515,25.33 149.42,25.33 C152.325,25.33 154.68,27.685 154.68,30.59 z" fill="#6FABA5"/>
      <path d="M147,51.24 C147,52.289 146.149,53.14 145.1,53.14 C144.051,53.14 143.2,52.289 143.2,51.24 C143.2,50.191 144.051,49.34 145.1,49.34 C146.149,49.34 147,50.191 147,51.24 z" fill="#6FABA5"/>
      <path d="M171.23,60.19 C171.23,61.179 170.429,61.98 169.44,61.98 C168.451,61.98 167.65,61.179 167.65,60.19 C167.65,59.201 168.451,58.4 169.44,58.4 C170.429,58.4 171.23,59.201 171.23,60.19 z" fill="#6FABA5"/>
      <path d="M194.82,19.63 C194.82,20.442 194.162,21.1 193.35,21.1 C192.538,21.1 191.88,20.442 191.88,19.63 C191.88,18.818 192.538,18.16 193.35,18.16 C194.162,18.16 194.82,18.818 194.82,19.63 z" fill="#6FABA5"/>
      <path d="M166.09,45.31 C167.09,46.93 178.48,45.62 178.98,44.4 L179.18,46.46 C178.45,45.35 167.02,46.3 166.36,48.09 z" fill="#6FABA5"/>
      <path d="M164.54,44.04 C166.31,44.73 192.15,20.88 191.92,20.04 L192.84,21.04 C192.01,20.74 165.9,44.29 166.42,46.12 z" fill="#6FABA5"/>
      <path d="M166.31,48.22 C165.06,51.14 168.5,57.84 170.15,58.54 L167.74,59.64 C168.28,57.93 165.46,50.95 162.43,49.99 z" fill="#6FABA5"/>
      <path d="M161.25,49.32 C159.38,47.61 147.46,50.65 146.83,52.03 L146.31,49.78 C147.48,50.78 159.52,48.19 160.44,45.83 z" fill="#6FABA5"/>
      <path d="M160.56,45.54 C161.28,44.13 152.82,33.7 150.77,34.37 L153.23,32.32 C152.23,34.22 160.97,44.39 162.49,43.93 z" fill="#6FABA5"/>
      <path d="M159.53,48.43 C158.94,46.866 159.35,45.101 160.57,43.958 C161.79,42.815 163.579,42.52 165.101,43.211 C166.623,43.902 167.579,45.442 167.521,47.113 C167.464,48.783 166.406,50.255 164.84,50.84 C162.708,51.637 160.334,50.559 159.53,48.43 z" fill="#6FABA5"/>
      <path d="M118.02,34.54 C118.02,35.888 116.928,36.98 115.58,36.98 C114.232,36.98 113.14,35.888 113.14,34.54 C113.14,33.192 114.232,32.1 115.58,32.1 C116.928,32.1 118.02,33.192 118.02,34.54 z" fill="#6FABA5"/>
      <path d="M143.69,7.51 C143.69,8.858 142.598,9.95 141.25,9.95 C139.902,9.95 138.81,8.858 138.81,7.51 C138.81,6.162 139.902,5.07 141.25,5.07 C142.598,5.07 143.69,6.162 143.69,7.51 z" fill="#6FABA5"/>
      <path d="M138.66,44.08 C138.66,44.903 137.993,45.57 137.17,45.57 C136.347,45.57 135.68,44.903 135.68,44.08 C135.68,43.257 136.347,42.59 137.17,42.59 C137.993,42.59 138.66,43.257 138.66,44.08 z" fill="#6FABA5"/>
      <path d="M109.38,7.51 C109.38,6.682 110.052,6.01 110.88,6.01 C111.708,6.01 112.38,6.682 112.38,7.51 C112.38,9.17 111.71,9 110.89,9 C110.491,9.005 110.107,8.851 109.823,8.571 C109.54,8.291 109.38,7.909 109.38,7.51 z" fill="#6FABA5"/>
      <path d="M163.6,16 C163.6,16.823 162.933,17.49 162.11,17.49 C161.287,17.49 160.62,16.823 160.62,16 C160.62,15.177 161.287,14.51 162.11,14.51 C162.933,14.51 163.6,15.177 163.6,16 z" fill="#6FABA5"/>
      <path d="M149.77,25.97 C153.64,26.31 160.69,17.44 160.59,16.1 L162.15,17.49 C160.81,17.55 152.83,25.59 153.62,29.4 z" fill="#6FABA5"/>
      <path d="M146.35,27.24 C148.17,25.39 142.35,10.14 140.89,9.92 L143.07,9.14 C142.07,10.23 147.29,25.71 149.87,25.98 z" fill="#6FABA5"/>
      <path d="M147.85,34.3 C145.85,33.52 138.23,42.8 138.53,43.48 L137.6,42.65 C138.31,42.87 146.6,34.21 145.6,32.31 z" fill="#6FABA5"/>
      <path d="M145.49,32.04 C144.77,30.47 118.16,34.04 117.97,35.04 L117.77,33.48 C118.19,34.36 144.86,31.21 145.16,29.48 z" fill="#6FABA5"/>
      <path d="M145.42,28.95 C145.75,28.15 112.2,8.25 112,8.48 L112.25,8.06 C112.14,8.34 145.53,28.5 146.08,27.84 z" fill="#6FABA5"/>
      <path d="M124.613,24.087 C125.143,24.947 124.875,26.075 124.014,26.605 C123.154,27.134 122.027,26.866 121.497,26.006 C120.967,25.145 121.235,24.018 122.096,23.488 C122.956,22.958 124.083,23.226 124.613,24.087 z" fill="#6FABA5"/>
      <path d="M111.09,26.118 C111.269,26.41 111.179,26.792 110.887,26.972 C110.596,27.151 110.214,27.06 110.034,26.769 C109.854,26.477 109.945,26.095 110.237,25.916 C110.528,25.736 110.91,25.827 111.09,26.118 z" fill="#6FABA5"/>
      <path d="M121.66,26.22 C120.71,25.1 111.34,26.37 111.08,26.79 L110.99,26.03 C111.34,26.38 120.75,25.5 121.42,24.19 z" fill="#6FABA5"/>
      <path d="M121.36,15.007 C121.494,15.701 121.041,16.373 120.347,16.507 C119.653,16.642 118.981,16.188 118.846,15.494 C118.712,14.8 119.165,14.129 119.859,13.994 C120.554,13.86 121.225,14.313 121.36,15.007 z" fill="#6FABA5"/>
      <path d="M128.549,34.741 C128.665,35.337 128.275,35.914 127.679,36.03 C127.082,36.146 126.505,35.756 126.389,35.159 C126.274,34.563 126.664,33.986 127.26,33.87 C127.856,33.755 128.434,34.144 128.549,34.741 z" fill="#6FABA5"/>
      <path d="M130.872,19.978 C130.98,20.536 130.615,21.077 130.057,21.185 C129.499,21.293 128.958,20.928 128.85,20.37 C128.742,19.811 129.107,19.271 129.665,19.162 C130.223,19.054 130.764,19.419 130.872,19.978 z" fill="#6FABA5"/>
      <path d="M105.072,10.897 C105.162,11.358 104.86,11.804 104.4,11.894 C103.939,11.983 103.493,11.682 103.403,11.221 C103.314,10.76 103.615,10.314 104.076,10.225 C104.537,10.135 104.983,10.436 105.072,10.897 z" fill="#6FABA5"/>
      <path d="M121.77,23.68 C122.58,22.93 120.59,16.62 119.83,16.47 L120.98,16.13 C120.43,16.67 122.23,23.04 123.31,23.22 z" fill="#6FABA5"/>
      <path d="M121.26,24.7 C121.46,23.62 105.09,11.59 104.63,11.81 L105.1,11.17 C105.02,11.68 121.25,23.89 122.23,23.39 z" fill="#6FABA5"/>
      <path d="M123.45,23.24 C125.24,23.63 128.67,20.94 128.88,19.93 L129.77,21.18 C128.77,21.06 125.09,23.43 124.88,25.25 z" fill="#6FABA5"/>
      <path d="M124.62,25.99 C123.85,27.24 126.89,33.67 127.74,33.87 L126.52,34.42 C126.94,33.65 124.17,27.1 122.73,26.84 z" fill="#6FABA5"/>
      <path d="M122.56,26.79 C121.68,26.54 116.7,32.48 117.3,33.57 L115.87,32.4 C117.06,32.77 121.87,26.68 121.44,25.87 z" fill="#6FABA5"/>
      <path d="M125.09,23.793 C125.782,24.917 125.432,26.389 124.308,27.081 C123.184,27.773 121.712,27.423 121.02,26.299 C120.328,25.175 120.678,23.703 121.802,23.011 C122.926,22.319 124.398,22.669 125.09,23.793 z" fill="#6FABA5"/>
      <path d="M190.319,43.632 C191.01,43.864 191.383,44.612 191.151,45.304 C190.919,45.995 190.171,46.367 189.48,46.136 C188.789,45.904 188.416,45.156 188.648,44.465 C188.879,43.773 189.628,43.401 190.319,43.632 z" fill="#6FABA5"/>
      <path d="M183.514,38.255 C183.744,38.332 183.868,38.581 183.791,38.812 C183.714,39.042 183.464,39.167 183.234,39.089 C183.004,39.012 182.879,38.763 182.957,38.532 C183.034,38.302 183.283,38.178 183.514,38.255 z" fill="#6FABA5"/>
      <path d="M188.61,44.67 C188.79,43.67 183.77,39.04 183.42,39.09 L183.8,38.69 C183.8,39.04 188.59,43.83 189.62,43.6 z" fill="#6FABA5"/>
      <path d="M194.55,38.049 C194.944,38.37 195.003,38.95 194.682,39.344 C194.361,39.738 193.781,39.797 193.387,39.476 C192.994,39.155 192.934,38.575 193.255,38.181 C193.576,37.787 194.156,37.728 194.55,38.049 z" fill="#6FABA5"/>
      <path d="M186.979,51.294 C187.317,51.569 187.368,52.067 187.093,52.405 C186.817,52.743 186.319,52.794 185.981,52.519 C185.643,52.243 185.592,51.745 185.868,51.407 C186.143,51.069 186.641,51.018 186.979,51.294 z" fill="#6FABA5"/>
      <path d="M196.218,45.858 C196.535,46.117 196.583,46.583 196.325,46.899 C196.066,47.216 195.6,47.264 195.283,47.006 C194.967,46.747 194.919,46.281 195.177,45.964 C195.436,45.648 195.902,45.6 196.218,45.858 z" fill="#6FABA5"/>
      <path d="M189.342,27.6 C189.604,27.813 189.643,28.197 189.43,28.458 C189.217,28.719 188.833,28.758 188.572,28.545 C188.311,28.333 188.271,27.948 188.484,27.687 C188.697,27.426 189.081,27.387 189.342,27.6 z" fill="#6FABA5"/>
      <path d="M190.08,43.59 C190.86,43.69 193.43,39.68 193.17,39.2 L193.89,39.68 C193.34,39.63 190.65,43.55 191.05,44.24 z" fill="#6FABA5"/>
      <path d="M189.26,43.74 C189.95,43.35 189.05,28.74 188.71,28.62 L189.28,28.62 C188.96,28.81 189.7,43.4 190.42,43.71 z" fill="#6FABA5"/>
      <path d="M191.07,44.28 C191.68,45.45 194.74,46.1 195.4,45.75 L195.12,46.82 C194.71,46.2 191.72,45.28 190.62,46 z" fill="#6FABA5"/>
      <path d="M190.1,46.2 C189.1,46.35 186.91,50.99 187.19,51.55 L186.33,51.13 C186.95,51 189.33,46.46 188.77,45.54 z" fill="#6FABA5"/>
      <path d="M188.7,45.43 C188.43,44.83 182.86,44.81 182.53,45.65 L182.53,44.32 C182.87,45.15 188.45,45 188.7,44.39 L188.7,45.39 z" fill="#6FABA5"/>
      <path d="M190.443,43.253 C191.338,43.553 191.821,44.522 191.521,45.417 C191.221,46.313 190.251,46.795 189.356,46.495 C188.46,46.195 187.978,45.226 188.278,44.331 C188.578,43.435 189.547,42.953 190.443,43.253 z" fill="#6FABA5"/>
      <g>
        <path d="M113.522,47.8 C115.163,48.883 115.615,51.091 114.532,52.732 C113.449,54.373 111.241,54.825 109.6,53.742 C107.959,52.659 107.507,50.45 108.59,48.809 C109.673,47.169 111.882,46.716 113.522,47.8 z" fill="#6FABA5"/>
        <path d="M122.862,28.794 C123.623,29.296 123.832,30.319 123.33,31.08 C122.828,31.84 121.805,32.05 121.044,31.548 C120.284,31.046 120.074,30.022 120.576,29.262 C121.078,28.501 122.102,28.292 122.862,28.794 z" fill="#6FABA5"/>
        <path d="M128.563,53.399 C129.323,53.901 129.533,54.925 129.031,55.685 C128.529,56.446 127.505,56.655 126.745,56.153 C125.984,55.651 125.775,54.628 126.277,53.867 C126.779,53.107 127.802,52.897 128.563,53.399 z" fill="#6FABA5"/>
        <path d="M109.078,38.046 C109.543,38.353 109.672,38.979 109.364,39.445 C109.057,39.91 108.43,40.039 107.965,39.731 C107.499,39.424 107.371,38.797 107.679,38.332 C107.986,37.866 108.613,37.738 109.078,38.046 z" fill="#6FABA5"/>
        <path d="M139.56,36.79 C140.027,37.097 140.157,37.723 139.85,38.19 C139.543,38.657 138.917,38.787 138.45,38.48 C137.51,37.86 137.86,37.55 138.16,37.08 C138.305,36.854 138.536,36.695 138.799,36.641 C139.062,36.586 139.337,36.64 139.56,36.79 z" fill="#6FABA5"/>
        <path d="M115.634,62.561 C116.099,62.868 116.227,63.495 115.92,63.96 C115.613,64.426 114.986,64.554 114.521,64.247 C114.055,63.94 113.927,63.313 114.234,62.848 C114.541,62.382 115.168,62.254 115.634,62.561 z" fill="#6FABA5"/>
        <path d="M114.04,52.75 C112.4,54.81 114.79,62.1 115.58,62.55 L114.21,62.91 C114.67,62.13 113.11,54.62 110.66,53.65 z" fill="#6FABA5"/>
        <path d="M114.61,50.32 C114.97,52.04 125.78,54.44 126.44,53.7 L126.07,55.22 C125.82,54.22 115.13,51.42 114.01,52.78 z" fill="#6FABA5"/>
        <path d="M110.06,48.54 C111.25,47.7 108.85,39.93 108.35,39.85 L109.17,39.63 C108.78,39.95 110.57,47.88 112.03,48.02 z" fill="#6FABA5"/>
        <path d="M112.2,48.04 C113.36,48.22 121.27,31.84 120.8,31.38 L121.77,31.84 C121.12,31.75 112.94,48 113.77,48.84 z" fill="#6FABA5"/>
        <path d="M113.99,49.16 C114.32,49.64 138.09,38.11 137.99,37.91 L138.13,38.21 C138.01,38.04 114.13,49.39 114.32,49.95 z" fill="#6FABA5"/>
      </g>
      <g>
        <path d="M166.705,1.66 C168.001,3.138 167.854,5.388 166.376,6.684 C164.898,7.981 162.649,7.834 161.352,6.356 C160.056,4.878 160.203,2.628 161.681,1.332 C163.159,0.035 165.408,0.182 166.705,1.66 z" fill="#6FABA5"/>
        <path d="M182.401,18.385 C183.002,19.07 182.934,20.112 182.249,20.713 C181.564,21.314 180.522,21.246 179.921,20.561 C179.32,19.876 179.388,18.833 180.073,18.232 C180.758,17.632 181.8,17.7 182.401,18.385 z" fill="#6FABA5"/>
        <path d="M157.165,17.396 C157.766,18.081 157.698,19.123 157.013,19.724 C156.328,20.325 155.285,20.257 154.684,19.572 C154.083,18.887 154.151,17.844 154.836,17.243 C155.521,16.643 156.564,16.711 157.165,17.396 z" fill="#6FABA5"/>
        <path d="M177.132,3.562 C177.5,3.981 177.459,4.619 177.039,4.987 C176.62,5.355 175.982,5.313 175.614,4.894 C175.246,4.475 175.288,3.837 175.707,3.469 C176.126,3.101 176.765,3.143 177.132,3.562 z" fill="#6FABA5"/>
        <path d="M170.16,34.73 C169.74,35.097 169.102,35.055 168.735,34.635 C168.368,34.215 168.41,33.577 168.83,33.21 C169.68,32.47 169.89,32.88 170.26,33.3 C170.44,33.501 170.531,33.767 170.512,34.036 C170.493,34.305 170.366,34.556 170.16,34.73 z" fill="#6FABA5"/>
        <path d="M151.69,3.406 C152.057,3.825 152.016,4.464 151.596,4.831 C151.177,5.199 150.539,5.158 150.171,4.738 C149.803,4.319 149.845,3.681 150.264,3.313 C150.684,2.945 151.322,2.987 151.69,3.406 z" fill="#6FABA5"/>
        <path d="M161.51,5.9 C159.95,3.78 152.29,4.15 151.65,4.8 L151.65,3.39 C152.28,4.04 159.94,4.51 161.52,2.39 z" fill="#6FABA5"/>
        <path d="M163.7,7.04 C161.95,6.94 156.78,16.72 157.32,17.56 L155.95,16.8 C156.95,16.8 162.5,7.25 161.49,5.8 z" fill="#6FABA5"/>
        <path d="M166.62,3.17 C167.12,4.55 175.24,4.27 175.46,3.81 L175.46,4.65 C175.25,4.19 167.13,3.82 166.62,5.19 L166.62,3.19 z" fill="#6FABA5"/>
        <path d="M166.54,5.37 C166.06,6.44 179.77,18.37 180.34,18.06 L179.64,18.85 C179.9,18.24 166.38,6.07 165.38,6.68 z" fill="#6FABA5"/>
        <path d="M164.98,6.79 C164.43,6.98 169.28,32.96 169.48,32.95 L169.16,33.01 C169.35,32.94 164.7,6.93 164.16,6.95 z" fill="#6FABA5"/>
      </g>
      <g>
        <path d="M104.94,35.337 C106.786,36.012 107.736,38.056 107.06,39.903 C106.385,41.749 104.34,42.699 102.494,42.023 C100.647,41.348 99.698,39.304 100.373,37.457 C101.049,35.611 103.093,34.661 104.94,35.337 z" fill="#6FABA5"/>
        <path d="M98.927,59.572 C99.783,59.885 100.223,60.833 99.91,61.689 C99.597,62.545 98.649,62.985 97.794,62.672 C96.938,62.359 96.498,61.411 96.811,60.555 C97.124,59.699 98.071,59.259 98.927,59.572 z" fill="#6FABA5"/>
        <path d="M87.699,36.95 C88.555,37.263 88.995,38.21 88.682,39.066 C88.369,39.922 87.422,40.362 86.566,40.049 C85.71,39.736 85.27,38.788 85.583,37.933 C85.896,37.077 86.844,36.637 87.699,36.95 z" fill="#6FABA5"/>
        <path d="M109.819,48.732 C110.343,48.924 110.612,49.504 110.421,50.028 C110.229,50.552 109.649,50.821 109.125,50.629 C108.601,50.438 108.332,49.858 108.524,49.334 C108.715,48.81 109.295,48.541 109.819,48.732 z" fill="#6FABA5"/>
        <path d="M79.77,58.82 C79.245,58.629 78.974,58.05 79.165,57.525 C79.356,57 79.935,56.729 80.46,56.92 C81.52,57.31 81.25,57.69 81.06,58.22 C80.97,58.472 80.783,58.677 80.54,58.789 C80.298,58.902 80.021,58.913 79.77,58.82 z" fill="#6FABA5"/>
        <path d="M97.737,26.276 C98.261,26.468 98.531,27.048 98.339,27.572 C98.147,28.096 97.567,28.365 97.043,28.174 C96.52,27.982 96.25,27.402 96.442,26.878 C96.633,26.354 97.213,26.085 97.737,26.276 z" fill="#6FABA5"/>
        <path d="M100.88,37.4 C101.99,35.01 98,28.47 97.12,28.22 L98.36,27.55 C98.09,28.42 101.36,35.36 103.95,35.75 z" fill="#6FABA5"/>
        <path d="M100.89,39.89 C100.14,38.3 89.08,38.46 88.6,39.33 L88.6,37.76 C89.06,38.63 100.13,38.93 100.9,37.35 z" fill="#6FABA5"/>
        <path d="M105.77,40.58 C104.77,41.68 108.94,48.68 109.44,48.64 L108.7,49.04 C109,48.64 105.43,41.33 103.98,41.54 z" fill="#6FABA5"/>
        <path d="M103.77,41.56 C102.6,41.65 98.68,59.41 99.25,59.76 L98.25,59.52 C98.91,59.45 103.11,41.76 102.1,41.17 z" fill="#6FABA5"/>
        <path d="M101.77,40.88 C101.34,40.49 80.87,57.2 80.97,57.37 L80.76,57.11 C80.91,57.24 101.51,40.69 101.22,40.19 z" fill="#6FABA5"/>
      </g>
    </g>
    <g>
      <path d="M137.032,10.041 C137.649,11.68 136.821,13.508 135.183,14.126 C133.545,14.743 131.716,13.915 131.099,12.277 C130.482,10.639 131.309,8.81 132.947,8.193 C134.586,7.575 136.414,8.403 137.032,10.041 z" fill="#2D7174"/>
      <path d="M133.362,32.545 C133.571,33.098 133.291,33.715 132.738,33.924 C132.185,34.132 131.568,33.853 131.36,33.3 C131.151,32.747 131.43,32.13 131.983,31.921 C132.536,31.713 133.154,31.992 133.362,32.545 z" fill="#2D7174"/>
      <path d="M135.62,13.94 C133.41,15.18 132.48,31.52 133.1,32.1 L131.77,32.04 C132.48,31.57 134.08,15.28 132.08,13.71 z" fill="#2D7174"/>
      <path d="M118.63,12.92 C118.63,14.141 117.641,15.13 116.42,15.13 C115.199,15.13 114.21,14.141 114.21,12.92 C114.21,11.699 115.199,10.71 116.42,10.71 C117.641,10.71 118.63,11.699 118.63,12.92 z" fill="#2D7174"/>
      <path d="M153.29,27.57 C153.29,30.475 150.935,32.83 148.03,32.83 C145.125,32.83 142.77,30.475 142.77,27.57 C142.77,24.665 145.125,22.31 148.03,22.31 C150.935,22.31 153.29,24.665 153.29,27.57 z" fill="#2D7174"/>
      <path d="M154.25,6.92 C154.25,7.969 153.399,8.82 152.35,8.82 C151.301,8.82 150.45,7.969 150.45,6.92 C150.45,5.871 151.301,5.02 152.35,5.02 C153.399,5.02 154.25,5.871 154.25,6.92 z" fill="#2D7174"/>
      <path d="M129.8,-2.04 C129.8,-1.051 128.999,-0.25 128.01,-0.25 C127.021,-0.25 126.22,-1.051 126.22,-2.04 C126.22,-3.029 127.021,-3.83 128.01,-3.83 C128.999,-3.83 129.8,-3.029 129.8,-2.04 z" fill="#2D7174"/>
      <path d="M105.57,38.52 C105.57,39.332 104.912,39.99 104.1,39.99 C103.288,39.99 102.63,39.332 102.63,38.52 C102.63,37.708 103.288,37.05 104.1,37.05 C104.912,37.05 105.57,37.708 105.57,38.52 z" fill="#2D7174"/>
      <path d="M131.36,12.85 C130.36,11.23 118.97,12.54 118.47,13.76 L118.27,11.7 C119,12.81 130.43,11.86 131.09,10.07 z" fill="#2D7174"/>
      <path d="M132.91,14.13 C131.14,13.44 105.3,37.29 105.53,38.13 L104.61,37.13 C105.44,37.43 131.55,13.88 131.03,12.05 z" fill="#2D7174"/>
      <path d="M131.15,9.93 C132.4,7.01 128.96,0.31 127.31,-0.4 L129.72,-1.5 C129.18,0.21 132,7.19 135.03,8.15 z" fill="#2D7174"/>
      <path d="M136.2,8.84 C138.07,10.55 149.99,7.51 150.62,6.13 L151.14,8.38 C149.97,7.38 137.93,9.97 137.01,12.33 z" fill="#2D7174"/>
      <path d="M136.89,12.61 C136.17,14.02 144.63,24.45 146.68,23.78 L144.22,25.83 C145.22,23.93 136.48,13.76 134.96,14.22 z" fill="#2D7174"/>
      <path d="M137.92,9.72 C138.51,11.284 138.1,13.049 136.88,14.192 C135.66,15.335 133.871,15.63 132.349,14.939 C130.827,14.248 129.871,12.708 129.929,11.037 C129.986,9.367 131.044,7.895 132.61,7.31 C134.742,6.513 137.116,7.591 137.92,9.72 z" fill="#2D7174"/>
      <path d="M184.31,23.61 C184.31,24.958 183.218,26.05 181.87,26.05 C180.522,26.05 179.43,24.958 179.43,23.61 C179.43,22.262 180.522,21.17 181.87,21.17 C183.218,21.17 184.31,22.262 184.31,23.61 z" fill="#2D7174"/>
      <path d="M158.64,50.64 C158.64,51.988 157.548,53.08 156.2,53.08 C154.852,53.08 153.76,51.988 153.76,50.64 C153.76,49.292 154.852,48.2 156.2,48.2 C157.548,48.2 158.64,49.292 158.64,50.64 z" fill="#2D7174"/>
      <path d="M161.77,14.08 C161.77,14.903 161.103,15.57 160.28,15.57 C159.457,15.57 158.79,14.903 158.79,14.08 C158.79,13.257 159.457,12.59 160.28,12.59 C161.103,12.59 161.77,13.257 161.77,14.08 z" fill="#2D7174"/>
      <path d="M188.08,50.65 C188.08,51.478 187.408,52.15 186.58,52.15 C185.752,52.15 185.08,51.478 185.08,50.65 C185.08,48.99 185.75,49.16 186.57,49.16 C186.969,49.155 187.353,49.309 187.637,49.589 C187.92,49.869 188.08,50.251 188.08,50.65 z" fill="#2D7174"/>
      <path d="M136.83,42.16 C136.83,42.983 136.163,43.65 135.34,43.65 C134.517,43.65 133.85,42.983 133.85,42.16 C133.85,41.337 134.517,40.67 135.34,40.67 C136.163,40.67 136.83,41.337 136.83,42.16 z" fill="#2D7174"/>
      <path d="M147.66,32.19 C143.79,31.85 136.74,40.72 136.84,42.06 L135.28,40.67 C136.62,40.61 144.6,32.57 143.81,28.76 z" fill="#2D7174"/>
      <path d="M151.11,30.92 C149.29,32.77 155.11,48.02 156.57,48.24 L154.39,49.02 C155.39,47.93 150.17,32.45 147.59,32.18 z" fill="#2D7174"/>
      <path d="M149.6,23.86 C151.6,24.64 159.22,15.36 158.92,14.68 L159.85,15.51 C159.14,15.29 150.85,23.95 151.85,25.85 z" fill="#2D7174"/>
      <path d="M151.96,26.04 C152.68,27.61 179.29,24.04 179.48,23.04 L179.67,24.58 C179.25,23.7 152.58,26.85 152.28,28.58 z" fill="#2D7174"/>
      <path d="M152.03,29.2 C151.7,30 185.25,49.9 185.45,49.67 L185.2,50.09 C185.31,49.81 151.92,29.65 151.37,30.31 z" fill="#2D7174"/>
      <path d="M173.619,33.353 C174.145,34.212 173.874,35.334 173.015,35.86 C172.156,36.385 171.034,36.115 170.508,35.256 C169.983,34.397 170.253,33.274 171.112,32.749 C171.971,32.223 173.094,32.493 173.619,33.353 z" fill="#2D7174"/>
      <path d="M187.418,31.34 C187.597,31.631 187.506,32.013 187.215,32.193 C186.923,32.373 186.542,32.282 186.362,31.99 C186.182,31.699 186.273,31.317 186.564,31.137 C186.856,30.958 187.238,31.048 187.418,31.34 z" fill="#2D7174"/>
      <path d="M175.77,31.94 C176.72,33.06 186.09,31.79 186.35,31.37 L186.44,32.13 C186.09,31.78 176.68,32.66 176.01,33.97 z" fill="#2D7174"/>
      <path d="M178.55,42.738 C178.684,43.432 178.231,44.103 177.537,44.238 C176.843,44.372 176.171,43.919 176.036,43.225 C175.902,42.531 176.355,41.859 177.049,41.725 C177.743,41.59 178.415,42.044 178.55,42.738 z" fill="#2D7174"/>
      <path d="M171.025,23.033 C171.14,23.629 170.751,24.206 170.154,24.322 C169.558,24.438 168.981,24.048 168.865,23.452 C168.749,22.855 169.139,22.278 169.736,22.162 C170.332,22.047 170.909,22.436 171.025,23.033 z" fill="#2D7174"/>
      <path d="M168.544,37.853 C168.653,38.411 168.288,38.952 167.729,39.06 C167.171,39.168 166.63,38.803 166.522,38.245 C166.414,37.686 166.779,37.146 167.337,37.037 C167.896,36.929 168.436,37.294 168.544,37.853 z" fill="#2D7174"/>
      <path d="M194.058,46.924 C194.148,47.385 193.846,47.831 193.386,47.92 C192.925,48.01 192.479,47.709 192.389,47.248 C192.3,46.787 192.601,46.341 193.062,46.251 C193.523,46.162 193.969,46.463 194.058,46.924 z" fill="#2D7174"/>
      <path d="M175.64,34.47 C174.83,35.22 176.82,41.53 177.58,41.68 L176.43,42.02 C176.98,41.48 175.18,35.11 174.1,34.93 z" fill="#2D7174"/>
      <path d="M176.2,33.46 C176,34.54 192.37,46.57 192.83,46.35 L192.36,46.99 C192.44,46.48 176.21,34.27 175.23,34.77 z" fill="#2D7174"/>
      <path d="M174.01,34.92 C172.22,34.53 168.79,37.22 168.58,38.23 L167.69,36.98 C168.69,37.1 172.37,34.73 172.58,32.91 z" fill="#2D7174"/>
      <path d="M172.83,32.17 C173.6,30.92 170.56,24.49 169.71,24.29 L170.93,23.74 C170.51,24.51 173.28,31.06 174.72,31.32 z" fill="#2D7174"/>
      <path d="M174.89,31.36 C175.77,31.61 180.75,25.67 180.15,24.58 L181.58,25.75 C180.39,25.38 175.58,31.47 176.01,32.28 z" fill="#2D7174"/>
      <path d="M174.095,33.071 C174.782,34.193 174.429,35.659 173.307,36.346 C172.185,37.032 170.719,36.679 170.032,35.557 C169.346,34.435 169.699,32.969 170.821,32.283 C171.943,31.596 173.409,31.949 174.095,33.071 z" fill="#2D7174"/>
      <path d="M107.964,12.001 C108.656,12.232 109.028,12.98 108.797,13.672 C108.565,14.363 107.817,14.735 107.125,14.504 C106.434,14.272 106.062,13.524 106.293,12.833 C106.525,12.141 107.273,11.769 107.964,12.001 z" fill="#2D7174"/>
      <path d="M114.255,19.119 C114.486,19.196 114.61,19.445 114.533,19.676 C114.456,19.906 114.206,20.03 113.976,19.953 C113.745,19.876 113.621,19.626 113.698,19.396 C113.776,19.166 114.025,19.041 114.255,19.119 z" fill="#2D7174"/>
      <path d="M108.84,13.49 C108.66,14.49 113.68,19.12 114.03,19.07 L113.65,19.47 C113.65,19.12 108.86,14.33 107.83,14.56 z" fill="#2D7174"/>
      <path d="M104.053,18.68 C104.446,19.001 104.505,19.58 104.184,19.974 C103.863,20.368 103.284,20.427 102.89,20.106 C102.496,19.785 102.437,19.205 102.758,18.811 C103.079,18.418 103.659,18.359 104.053,18.68 z" fill="#2D7174"/>
      <path d="M111.477,5.673 C111.815,5.949 111.866,6.446 111.59,6.784 C111.314,7.123 110.817,7.173 110.478,6.898 C110.14,6.622 110.09,6.124 110.365,5.786 C110.641,5.448 111.138,5.397 111.477,5.673 z" fill="#2D7174"/>
      <path d="M102.167,11.19 C102.483,11.448 102.531,11.914 102.273,12.231 C102.015,12.548 101.548,12.595 101.232,12.337 C100.915,12.079 100.867,11.613 101.125,11.296 C101.384,10.979 101.85,10.931 102.167,11.19 z" fill="#2D7174"/>
      <path d="M108.868,29.63 C109.13,29.843 109.169,30.227 108.956,30.488 C108.743,30.749 108.359,30.788 108.098,30.575 C107.836,30.363 107.797,29.978 108.01,29.717 C108.223,29.456 108.607,29.417 108.868,29.63 z" fill="#2D7174"/>
      <path d="M107.38,14.57 C106.6,14.47 104.03,18.48 104.29,18.96 L103.57,18.48 C104.12,18.53 106.81,14.61 106.41,13.92 z" fill="#2D7174"/>
      <path d="M108.2,14.41 C107.51,14.8 108.41,29.41 108.75,29.53 L108.18,29.53 C108.5,29.34 107.76,14.75 107.04,14.44 z" fill="#2D7174"/>
      <path d="M106.38,13.88 C105.77,12.71 102.71,12.06 102.05,12.41 L102.33,11.34 C102.74,11.96 105.73,12.88 106.83,12.16 z" fill="#2D7174"/>
      <path d="M107.35,11.96 C108.35,11.81 110.54,7.17 110.26,6.61 L111.12,7.03 C110.5,7.16 108.12,11.7 108.68,12.62 z" fill="#2D7174"/>
      <path d="M108.77,12.73 C109.04,13.33 114.61,13.35 114.94,12.51 L114.94,13.84 C114.6,13.01 109.02,13.16 108.77,13.77 L108.77,12.77 z" fill="#2D7174"/>
      <path d="M108.078,11.631 C108.974,11.931 109.456,12.9 109.156,13.796 C108.856,14.691 107.887,15.174 106.992,14.874 C106.096,14.573 105.614,13.604 105.914,12.709 C106.214,11.813 107.183,11.331 108.078,11.631 z" fill="#2D7174"/>
      <g>
        <path d="M187.823,4.325 C189.464,5.408 189.916,7.617 188.833,9.257 C187.749,10.898 185.541,11.35 183.9,10.267 C182.259,9.184 181.807,6.976 182.891,5.335 C183.974,3.694 186.182,3.242 187.823,4.325 z" fill="#2D7174"/>
        <path d="M198.49,6.63 C197.96,5.7 188.91,6.63 188.49,8 L188.25,5.85 C188.94,7.14 197.96,5.98 198.25,4.95 z" fill="#2D7174"/>
        <path d="M176.41,26.621 C177.17,27.123 177.38,28.147 176.877,28.907 C176.375,29.667 175.352,29.877 174.591,29.375 C173.831,28.872 173.621,27.849 174.124,27.089 C174.626,26.328 175.649,26.119 176.41,26.621 z" fill="#2D7174"/>
        <path d="M170.686,1.929 C171.447,2.431 171.656,3.455 171.154,4.215 C170.652,4.976 169.629,5.185 168.868,4.683 C168.108,4.181 167.898,3.158 168.4,2.397 C168.902,1.637 169.926,1.427 170.686,1.929 z" fill="#2D7174"/>
        <path d="M189.501,18.495 C189.966,18.802 190.094,19.429 189.787,19.894 C189.48,20.36 188.853,20.488 188.388,20.18 C187.922,19.873 187.794,19.246 188.101,18.781 C188.409,18.315 189.035,18.187 189.501,18.495 z" fill="#2D7174"/>
        <path d="M157.89,21.37 C157.423,21.063 157.293,20.437 157.6,19.97 C157.907,19.503 158.533,19.373 159,19.68 C159.94,20.3 159.59,20.61 159.29,21.08 C159.145,21.306 158.914,21.465 158.651,21.519 C158.388,21.574 158.113,21.52 157.89,21.37 z" fill="#2D7174"/>
        <path d="M182.921,-6.144 C183.386,-5.837 183.514,-5.211 183.207,-4.745 C182.9,-4.28 182.273,-4.151 181.808,-4.459 C181.342,-4.766 181.214,-5.392 181.521,-5.858 C181.828,-6.324 182.455,-6.452 182.921,-6.144 z" fill="#2D7174"/>
        <path d="M183.41,5.41 C185.05,3.35 182.66,-3.94 181.87,-4.39 L183.24,-4.75 C182.78,-3.97 184.34,3.54 186.79,4.51 z" fill="#2D7174"/>
        <path d="M182.84,7.83 C182.48,6.11 171.67,3.71 171.01,4.45 L171.38,2.93 C171.63,3.93 182.32,6.73 183.44,5.37 z" fill="#2D7174"/>
        <path d="M187.39,9.61 C186.2,10.45 188.6,18.22 189.1,18.3 L188.28,18.52 C188.67,18.2 186.88,10.27 185.42,10.13 z" fill="#2D7174"/>
        <path d="M185.25,10.12 C184.09,9.94 176.18,26.32 176.65,26.78 L175.7,26.31 C176.35,26.4 184.53,10.15 183.7,9.31 z" fill="#2D7174"/>
        <path d="M183.47,9.04 C183.14,8.56 159.37,20.09 159.47,20.29 L159.33,19.99 C159.45,20.16 183.33,8.81 183.14,8.25 z" fill="#2D7174"/>
      </g>
      <g>
        <path d="M112.193,48.036 C113.568,48.411 114.378,49.829 114.003,51.204 C113.628,52.578 112.21,53.389 110.835,53.014 C109.46,52.639 108.65,51.22 109.025,49.846 C109.4,48.471 110.818,47.661 112.193,48.036 z" fill="#2D7174"/>
        <path d="M114.86,59.04 C115.38,58.46 112.73,52.44 111.67,52.49 L113.1,51.84 C112.37,52.61 115.2,58.55 115.98,58.53 z" fill="#2D7174"/>
        <path d="M95.307,46.896 C95.941,47.069 96.315,47.723 96.142,48.357 C95.969,48.991 95.315,49.365 94.681,49.192 C94.047,49.019 93.673,48.365 93.846,47.731 C94.019,47.097 94.673,46.723 95.307,46.896 z" fill="#2D7174"/>
        <path d="M110.948,37.395 C111.582,37.568 111.955,38.222 111.782,38.856 C111.609,39.49 110.955,39.864 110.321,39.691 C109.687,39.518 109.313,38.864 109.486,38.23 C109.659,37.596 110.314,37.222 110.948,37.395 z" fill="#2D7174"/>
        <path d="M104.162,54.628 C104.551,54.734 104.781,55.135 104.674,55.524 C104.568,55.913 104.167,56.143 103.778,56.036 C103.389,55.93 103.16,55.529 103.266,55.14 C103.372,54.751 103.773,54.522 104.162,54.628 z" fill="#2D7174"/>
        <path d="M95.55,34.45 C95.658,34.061 96.061,33.832 96.45,33.94 C96.839,34.048 97.068,34.451 96.96,34.84 C96.75,35.63 96.45,35.46 96.06,35.35 C95.873,35.299 95.714,35.175 95.618,35.006 C95.522,34.837 95.498,34.637 95.55,34.45 z" fill="#2D7174"/>
        <path d="M119.589,44.541 C119.978,44.648 120.207,45.049 120.101,45.438 C119.995,45.827 119.593,46.056 119.204,45.95 C118.815,45.844 118.586,45.443 118.692,45.054 C118.798,44.665 119.2,44.435 119.589,44.541 z" fill="#2D7174"/>
        <path d="M112.29,48.4 C114.08,49.06 118.56,45.77 118.68,45.13 L119.24,45.99 C118.6,45.85 113.79,48.62 113.67,50.52 z" fill="#2D7174"/>
        <path d="M110.5,48.56 C111.6,47.92 110.81,39.95 110.16,39.66 L111.29,39.57 C110.69,39.96 111.15,47.96 112.29,48.42 z" fill="#2D7174"/>
        <path d="M110.3,52.09 C109.45,51.46 104.65,54.87 104.71,55.23 L104.38,54.72 C104.69,54.91 109.74,51.89 109.5,50.86 z" fill="#2D7174"/>
        <path d="M109.47,50.73 C109.33,49.89 96.28,48.15 96.07,48.58 L96.18,47.82 C96.27,48.29 109.29,50.24 109.65,49.48 z" fill="#2D7174"/>
        <path d="M109.84,49.25 C110.1,48.91 96.84,35.17 96.67,35.25 L96.84,35.08 C96.75,35.2 109.95,49.08 110.29,48.81 z" fill="#2D7174"/>
      </g>
      <g>
        <path d="M2.77,55.473 C3.465,56.717 3.02,58.289 1.777,58.984 C0.533,59.679 -1.039,59.235 -1.734,57.991 C-2.43,56.747 -1.985,55.175 -0.741,54.48 C0.502,53.785 2.074,54.229 2.77,55.473 z" fill="#2D7174"/>
        <path d="M15.097,46.368 C15.418,46.942 15.213,47.667 14.639,47.988 C14.065,48.309 13.34,48.104 13.02,47.53 C12.699,46.956 12.904,46.231 13.478,45.911 C14.051,45.59 14.776,45.795 15.097,46.368 z" fill="#2D7174"/>
        <path d="M3.167,47.678 C3.364,48.029 3.238,48.474 2.887,48.671 C2.535,48.868 2.09,48.742 1.893,48.39 C1.696,48.038 1.822,47.593 2.174,47.397 C2.526,47.2 2.971,47.326 3.167,47.678 z" fill="#2D7174"/>
        <path d="M23.2,57.04 C23.396,57.393 23.268,57.839 22.915,58.035 C22.562,58.231 22.116,58.103 21.92,57.75 C21.52,57.04 21.85,56.95 22.2,56.75 C22.371,56.654 22.573,56.631 22.761,56.685 C22.949,56.74 23.107,56.868 23.2,57.04 z" fill="#2D7174"/>
        <path d="M0.31,54.76 C1.31,54.61 2.39,48.82 2.1,48.6 L2.7,48.73 C2.34,48.81 0.86,54.5 1.7,55.07 z" fill="#2D7174"/>
        <path d="M1.86,55.15 C2.54,55.65 13.08,47.75 12.93,47.3 L13.38,47.91 C12.99,47.64 2.33,55.37 2.6,56.17 z" fill="#2D7174"/>
        <path d="M2.63,56.47 C2.68,56.89 21.81,57.38 21.84,57.24 L21.84,57.48 C21.84,57.33 2.7,56.69 2.62,57.11 z" fill="#2D7174"/>
      </g>
      <g>
        <path d="M136.094,51.778 C137.391,53.256 137.244,55.506 135.766,56.802 C134.288,58.099 132.038,57.952 130.742,56.474 C129.445,54.996 129.592,52.746 131.07,51.45 C132.548,50.153 134.797,50.3 136.094,51.778 z" fill="#2D7174"/>
        <path d="M117.536,37.583 C118.137,38.268 118.068,39.311 117.383,39.912 C116.698,40.513 115.656,40.444 115.055,39.759 C114.454,39.074 114.522,38.032 115.207,37.431 C115.892,36.83 116.935,36.898 117.536,37.583 z" fill="#2D7174"/>
        <path d="M142.772,38.562 C143.373,39.247 143.305,40.29 142.62,40.891 C141.935,41.491 140.892,41.423 140.291,40.738 C139.69,40.053 139.759,39.011 140.444,38.41 C141.129,37.809 142.171,37.877 142.772,38.562 z" fill="#2D7174"/>
        <path d="M121.842,53.24 C122.21,53.659 122.168,54.297 121.749,54.665 C121.33,55.033 120.692,54.991 120.324,54.572 C119.956,54.153 119.998,53.515 120.417,53.147 C120.836,52.779 121.474,52.821 121.842,53.24 z" fill="#2D7174"/>
        <path d="M127.29,23.43 C127.71,23.063 128.348,23.105 128.715,23.525 C129.082,23.945 129.04,24.583 128.62,24.95 C127.77,25.69 127.56,25.28 127.19,24.86 C127.01,24.659 126.919,24.393 126.938,24.124 C126.957,23.855 127.084,23.604 127.29,23.43 z" fill="#2D7174"/>
        <path d="M147.275,53.406 C147.643,53.825 147.601,54.463 147.182,54.831 C146.763,55.199 146.124,55.157 145.757,54.738 C145.389,54.319 145.43,53.68 145.85,53.313 C146.269,52.945 146.907,52.986 147.275,53.406 z" fill="#2D7174"/>
        <path d="M135.94,52.26 C137.5,54.38 145.16,54.01 145.8,53.36 L145.8,54.77 C145.17,54.12 137.51,53.65 135.93,55.77 z" fill="#2D7174"/>
        <path d="M133.77,51.04 C135.52,51.14 140.69,41.36 140.15,40.52 L141.52,41.28 C140.52,41.28 134.97,50.83 135.98,52.28 z" fill="#2D7174"/>
        <path d="M130.83,54.99 C130.33,53.61 122.21,53.89 121.99,54.35 L121.99,53.5 C122.2,53.96 130.32,54.33 130.83,52.96 L130.83,54.96 z" fill="#2D7174"/>
        <path d="M130.92,52.79 C131.4,51.72 117.69,39.79 117.12,40.1 L117.82,39.31 C117.56,39.92 131.08,52.09 132.08,51.48 z" fill="#2D7174"/>
        <path d="M132.47,51.36 C133.02,51.17 128.17,25.19 127.97,25.2 L128.29,25.14 C128.1,25.21 132.75,51.22 133.29,51.2 z" fill="#2D7174"/>
      </g>
      <g>
        <path d="M98.814,45.016 C100.481,46.852 100.345,49.692 98.509,51.359 C96.673,53.026 93.833,52.889 92.166,51.053 C90.499,49.217 90.636,46.378 92.472,44.711 C94.308,43.044 97.147,43.181 98.814,45.016 z" fill="#2D7174"/>
        <path d="M111.13,51.09 C110.77,49.78 99.43,48.09 98.52,49.65 L98.89,46.94 C99.33,48.73 110.72,50.13 111.42,48.94 z" fill="#2D7174"/>
        <path d="M78.597,36.722 C79.369,37.572 79.306,38.888 78.456,39.66 C77.605,40.432 76.29,40.369 75.517,39.518 C74.745,38.668 74.809,37.352 75.659,36.58 C76.51,35.808 77.825,35.871 78.597,36.722 z" fill="#2D7174"/>
        <path d="M56.89,56.43 C56.55,56.098 56.421,55.605 56.557,55.149 C56.692,54.693 57.069,54.35 57.536,54.258 C58.002,54.166 58.481,54.34 58.78,54.71 C59.78,55.76 59.21,56.04 58.69,56.51 C58.17,56.982 57.366,56.946 56.89,56.43 z" fill="#2D7174"/>
        <path d="M96.069,30.659 C96.545,31.182 96.506,31.991 95.982,32.467 C95.459,32.942 94.649,32.903 94.174,32.38 C93.699,31.856 93.738,31.047 94.261,30.571 C94.785,30.096 95.594,30.135 96.069,30.659 z" fill="#2D7174"/>
        <path d="M93.07,44.89 C95.71,42.89 95.07,33.22 94.25,32.43 L96.03,32.43 C95.22,33.24 94.79,42.91 97.48,44.87 z" fill="#2D7174"/>
        <path d="M91.62,47.67 C91.71,45.46 79.25,39.15 78.21,39.84 L79.14,38.1 C79.14,39.35 91.33,46.16 93.14,44.85 z" fill="#2D7174"/>
        <path d="M96.63,51.27 C94.91,51.93 95.43,62.17 96.01,62.43 L94.94,62.43 C95.52,62.16 95.8,51.9 94.07,51.28 z" fill="#2D7174"/>
        <path d="M93.86,51.22 C92.5,50.64 77.72,68.22 78.14,68.91 L77.14,68.04 C77.91,68.35 92.98,51.04 92.19,49.79 z" fill="#2D7174"/>
        <path d="M92.02,49.29 C91.77,48.6 59.1,55.29 59.11,55.53 L59.03,55.12 C59.12,55.36 91.84,48.93 91.8,48.19 z" fill="#2D7174"/>
      </g>
    </g>
  </g>
</svg>
