<?xml version="1.0" encoding="UTF-8"?>
<!DOCTYPE svg PUBLIC "-//W3C//DTD SVG 1.1//EN" "http://www.w3.org/Graphics/SVG/1.1/DTD/svg11.dtd">
<svg version="1.1" xmlns="http://www.w3.org/2000/svg" xmlns:xlink="http://www.w3.org/1999/xlink" x="0" y="0" width="194.49" height="58.07" viewBox="0, 0, 194.49, 58.07">
  <g id="Layer_1">
    <g>
      <g>
        <path d="M192.25,53.19 L192.25,53.19 L190.76,51.4 L190.76,51.4 L191.67,49.5 L193.04,49.18 L193.04,49.18 L194.6,50.47 L194.6,50.47 L194.31,52.6 L194.31,52.6 z M190.87,51.35 L192.29,53.06 L194.22,52.49 L194.5,50.49 L193.01,49.26 L191.75,49.56 z" fill="#5BA5B3"/>
        <path d="M196.62,56.46 L196.46,54.11 L196.46,54.11 L196.82,52.97 C194.43,50.63 194.48,50.49 194.49,50.44 C194.5,50.39 195.13,48.96 195.22,48.76 L194.85,47.91 L194.85,47.91 L196.58,44.97 L194.94,42.8 L194.94,42.8 L195.25,41.6 L194.33,39.6 L195.39,39.02 L194.15,36.43 L192.97,35.84 L192.97,35.84 L192.55,34.05 L190.91,32.84 L192.91,31.53 L193.16,30.88 L192.34,29.65 L191.04,29.27 L191.04,29.27 L191.16,25.94 L192.45,22.8 L192.56,22.8 L191.28,25.93 L191.17,29.18 L192.42,29.55 L192.42,29.55 L193.29,30.85 L193.01,31.59 L193.01,31.59 L191.11,32.82 L192.65,33.95 L193.07,35.75 L194.23,36.33 L194.23,36.33 L195.53,39.04 L194.47,39.62 L195.36,41.56 L195.36,41.56 L195.1,42.74 L196.75,44.93 L196.75,44.93 L195.01,47.93 L195.38,48.78 L195.38,48.78 C195.38,48.78 194.71,50.26 194.64,50.47 C195.362,51.334 196.137,52.152 196.96,52.92 L196.96,52.92 L196.58,54.11 L196.74,56.44 L196.63,56.44 z" fill="#5BA5B3"/>
        <path d="M188.5,36.39 L188.43,36.3 L189.6,35.44 L189.39,33.89 L189.13,32.06 L187.5,29.96 L187.5,29.93 L187.66,27.78 L185.06,28.14 L185.04,28.09 L184.16,25.13 L180.79,23.76 L180.79,23.72 L180.85,20.96 L179.19,18.76 L182.74,18.84 L184.83,18.76 L184.85,18.78 L186.07,20.38 L189.22,18.9 L189.72,20.14 L191.7,20.48 L191.72,20.51 L192.6,22.52 L194.55,24.2 L194.49,24.24 L193.57,24.89 L194.34,25.99 L194.24,26.06 L193.41,24.87 L193.45,24.83 L194.37,24.19 L192.5,22.58 L191.62,20.58 L189.63,20.24 L189.16,19.05 L186.03,20.52 L186,20.49 L184.78,18.88 L182.74,18.96 L179.42,18.88 L180.96,20.93 L180.96,20.95 L180.91,23.69 L184.25,25.05 L185.14,28.01 L187.78,27.64 L187.78,27.71 L187.61,29.92 L189.24,32.01 L189.24,32.03 L189.51,33.87 L189.72,35.49 L188.5,36.39 z" fill="#5BA5B3"/>
        <g>
          <path d="M195.98,61.37 L192.27,56.23 L185.2,52.3 L185.26,52.2 L192.36,56.15 L196.07,61.3 L195.98,61.37 z" fill="#5BA5B3"/>
          <path d="M190.78,51.4 L189.73,47.13 L186.73,46.57 L186.75,46.46 L189.82,47.03 L190.89,51.38 L190.78,51.4 z" fill="#5BA5B3"/>
          <path d="M187.43,49.61 L187.48,49.55 L191.1,44.93 L191.91,45.62 L194.16,45.71 L191.79,40.81 L188.81,38.77 L188.85,38.71 L191.86,40.76 L191.86,40.77 L194.28,45.8 L191.88,45.7 L191.87,45.69 L191.11,45.04 L187.59,49.53 L191.73,49.48 L191.73,49.56 L187.43,49.61 z" fill="#5BA5B3"/>
          <path d="M192.37,56.19 L192.25,56.19 L192.27,53.01 L192.38,53.01 L192.37,56.19 z" fill="#5BA5B3"/>
          <path d="M188.34,43.53 L188.3,43.51 L185.93,42.26 L185.98,42.16 L188.32,43.4 L191.81,40.72 L191.84,40.73 L195.41,41.43 L195.39,41.54 L191.84,40.85 L188.34,43.53 z" fill="#5BA5B3"/>
          <path d="M185.94,42.29 L183.36,41.57 L183.39,41.46 L185.8,42.13 L185.12,37.86 L185.12,37.85 L186.29,33.49 L181.39,34.9 L181.36,34.8 L186.46,33.32 L186.43,33.42 L185.24,37.87 L185.94,42.29 z" fill="#5BA5B3"/>
          <path d="M178.98,27.55 L178.89,27.47 L184.13,21.72 L178.28,22.03 L178.28,21.91 L184.4,21.59 L178.98,27.55 z" fill="#5BA5B3"/>
          <path d="M191.82,40.72 L191.79,40.65 L194.46,39.48 L194.49,39.55 L191.82,40.72 z" fill="#5BA5B3"/>
          <path d="M196.75,37.48 L196.64,37.48 L196.95,31.86 L194.29,28.76 L194.29,28.76 L195.94,18.43 C195.57,18.79 194.4,19.96 193.6,20.78 L193.6,20.78 L187.6,22.78 L189.38,25.33 L189.38,25.33 L187.88,27.66 L187.78,27.6 L189.26,25.3 L187.44,22.69 L187.51,22.69 L193.51,20.69 C193.79,20.4 195.87,18.3 195.97,18.23 L196.08,18.16 L196.08,18.29 L194.41,28.75 L197.06,31.84 L197.06,31.84 z" fill="#5BA5B3"/>
        </g>
        <g>
          <path d="M193.09,35.84 L189.43,35.56 L191.02,32.74 L191.12,32.8 L189.62,35.46 L193.1,35.72 L193.09,35.84 z" fill="#5BA5B3"/>
          <path d="M186.37,33.61 L185.01,27.94 L185.1,28.04 L187.59,29.93 L187.59,29.93 z M185.2,28.22 L186.39,33.22 L187.49,29.98 z" fill="#5BA5B3"/>
          <path d="M185,28.45 L185,28.07 L186,20.29 L187.55,22.69 L187.55,22.69 z M186.09,20.62 L185.21,27.71 L187.44,22.71 z" fill="#5BA5B3"/>
          <path d="M191.1,29.21 L191.1,29.21 L189.22,25.26 L189.3,25.26 L193.54,24.86 L193.54,24.86 L194.41,28.78 L194.35,28.78 z M189.38,25.33 L191.17,29.09 L194.26,28.7 L193.43,24.95 z" fill="#5BA5B3"/>
          <path d="M196.89,53.35 L195.23,48.75 L195.23,48.75 L196.81,44.75 L196.81,45.04 z M195.35,48.75 L196.77,52.68 L196.7,45.35 z" fill="#5BA5B3"/>
          <path d="M186.28,46.54 L195.34,42.65 L195.34,42.78 C194.9,43.96 194.23,45.78 194.21,45.84 L194.21,45.84 L194.21,45.84 z M195.14,42.86 L186.97,46.37 L194.06,45.77 C194.17,45.43 194.9,43.5 195.1,42.85 z" fill="#5BA5B3"/>
        </g>
        <path d="M180.75,18.9 C180.75,19.8 180.02,20.53 179.12,20.53 C178.22,20.53 177.49,19.8 177.49,18.9 C177.49,18 178.22,17.27 179.12,17.27 C180.02,17.27 180.75,18 180.75,18.9 z" fill="#5BA5B3"/>
        <path d="M183.53,18.9 C183.53,19.336 183.176,19.69 182.74,19.69 C182.304,19.69 181.95,19.336 181.95,18.9 C181.95,18.464 182.304,18.11 182.74,18.11 C183.176,18.11 183.53,18.464 183.53,18.9 z" fill="#5BA5B3"/>
        <path d="M186.55,20.45 C186.55,20.726 186.326,20.95 186.05,20.95 C185.774,20.95 185.55,20.726 185.55,20.45 C185.55,20.174 185.774,19.95 186.05,19.95 C186.326,19.95 186.55,20.174 186.55,20.45 z" fill="#5BA5B3"/>
        <path d="M189.69,18.98 C189.69,19.256 189.466,19.48 189.19,19.48 C188.914,19.48 188.69,19.256 188.69,18.98 C188.69,18.704 188.914,18.48 189.19,18.48 C189.466,18.48 189.69,18.704 189.69,18.98 z" fill="#5BA5B3"/>
        <path d="M194.79,26.03 C194.79,26.306 194.566,26.53 194.29,26.53 C194.014,26.53 193.79,26.306 193.79,26.03 C193.79,25.754 194.014,25.53 194.29,25.53 C194.566,25.53 194.79,25.754 194.79,26.03 z" fill="#5BA5B3"/>
        <path d="M195.75,38.93 C195.75,39.079 195.629,39.2 195.48,39.2 C195.331,39.2 195.21,39.079 195.21,38.93 C195.21,38.781 195.331,38.66 195.48,38.66 C195.629,38.66 195.75,38.781 195.75,38.93 z" fill="#5BA5B3"/>
        <path d="M197.22,44.85 C197.22,45.143 196.983,45.38 196.69,45.38 C196.397,45.38 196.16,45.143 196.16,44.85 C196.16,44.557 196.397,44.32 196.69,44.32 C196.983,44.32 197.22,44.557 197.22,44.85 z" fill="#5BA5B3"/>
        <path d="M188.86,43.46 C188.86,43.753 188.623,43.99 188.33,43.99 C188.037,43.99 187.8,43.753 187.8,43.46 C187.8,43.167 188.037,42.93 188.33,42.93 C188.623,42.93 188.86,43.167 188.86,43.46 z" fill="#5BA5B3"/>
        <path d="M197.36,53.02 C197.36,53.313 197.123,53.55 196.83,53.55 C196.537,53.55 196.3,53.313 196.3,53.02 C196.3,52.727 196.537,52.49 196.83,52.49 C197.123,52.49 197.36,52.727 197.36,53.02 z" fill="#5BA5B3"/>
        <path d="M191.79,25.83 C191.79,26.106 191.566,26.33 191.29,26.33 C191.014,26.33 190.79,26.106 190.79,25.83 C190.79,25.554 191.014,25.33 191.29,25.33 C191.566,25.33 191.79,25.554 191.79,25.83 z" fill="#5BA5B3"/>
        <path d="M194.97,36.38 C194.97,36.75 194.67,37.05 194.3,37.05 C193.93,37.05 193.63,36.75 193.63,36.38 C193.63,36.01 193.93,35.71 194.3,35.71 C194.67,35.71 194.97,36.01 194.97,36.38 z" fill="#5BA5B3"/>
        <path d="M185.7,37.89 C185.7,38.26 185.4,38.56 185.03,38.56 C184.66,38.56 184.36,38.26 184.36,37.89 C184.36,37.52 184.66,37.22 185.03,37.22 C185.4,37.22 185.7,37.52 185.7,37.89 z" fill="#5BA5B3"/>
        <path d="M193.65,35.78 C193.65,36.084 193.404,36.33 193.1,36.33 C192.796,36.33 192.55,36.084 192.55,35.78 C192.55,35.476 192.796,35.23 193.1,35.23 C193.404,35.23 193.65,35.476 193.65,35.78 z" fill="#5BA5B3"/>
        <path d="M192.99,33.95 C192.99,34.138 192.838,34.29 192.65,34.29 C192.462,34.29 192.31,34.138 192.31,33.95 C192.31,33.762 192.462,33.61 192.65,33.61 C192.838,33.61 192.99,33.762 192.99,33.95 z" fill="#5BA5B3"/>
        <path d="M193.19,31.47 C193.19,31.58 193.1,31.67 192.99,31.67 C192.88,31.67 192.79,31.58 192.79,31.47 C192.79,31.36 192.88,31.27 192.99,31.27 C193.1,31.27 193.19,31.36 193.19,31.47 z" fill="#5BA5B3"/>
        <path d="M195.69,41.49 C195.69,41.65 195.56,41.78 195.4,41.78 C195.24,41.78 195.11,41.65 195.11,41.49 C195.11,41.33 195.24,41.2 195.4,41.2 C195.56,41.2 195.69,41.33 195.69,41.49 z" fill="#5BA5B3"/>
        <path d="M187.8,49.57 C187.8,49.73 187.67,49.86 187.51,49.86 C187.35,49.86 187.22,49.73 187.22,49.57 C187.22,49.41 187.35,49.28 187.51,49.28 C187.67,49.28 187.8,49.41 187.8,49.57 z" fill="#5BA5B3"/>
        <path d="M183.58,41.54 C183.58,41.7 183.45,41.83 183.29,41.83 C183.13,41.83 183,41.7 183,41.54 C183,41.38 183.13,41.25 183.29,41.25 C183.45,41.25 183.58,41.38 183.58,41.54 z" fill="#5BA5B3"/>
        <path d="M195.58,48.75 C195.58,48.91 195.45,49.04 195.29,49.04 C195.13,49.04 195,48.91 195,48.75 C195,48.59 195.13,48.46 195.29,48.46 C195.45,48.46 195.58,48.59 195.58,48.75 z" fill="#5BA5B3"/>
        <path d="M193.29,49.17 C193.29,49.33 193.16,49.46 193,49.46 C192.84,49.46 192.71,49.33 192.71,49.17 C192.71,49.01 192.84,48.88 193,48.88 C193.16,48.88 193.29,49.01 193.29,49.17 z" fill="#5BA5B3"/>
        <path d="M192.71,53.07 C192.71,53.341 192.491,53.56 192.22,53.56 C191.949,53.56 191.73,53.341 191.73,53.07 C191.73,52.799 191.949,52.58 192.22,52.58 C192.491,52.58 192.71,52.799 192.71,53.07 z" fill="#5BA5B3"/>
        <path d="M181.53,20.95 C181.53,21.298 181.248,21.58 180.9,21.58 C180.552,21.58 180.27,21.298 180.27,20.95 C180.27,20.602 180.552,20.32 180.9,20.32 C181.248,20.32 181.53,20.602 181.53,20.95 z" fill="#5BA5B3"/>
        <path d="M182.29,23.72 C182.29,24.515 181.645,25.16 180.85,25.16 C180.055,25.16 179.41,24.515 179.41,23.72 C179.41,22.925 180.055,22.28 180.85,22.28 C181.645,22.28 182.29,22.925 182.29,23.72 z" fill="#5BA5B3"/>
        <path d="M185.61,18.82 C185.61,19.267 185.247,19.63 184.8,19.63 C184.353,19.63 183.99,19.267 183.99,18.82 C183.99,18.373 184.353,18.01 184.8,18.01 C185.247,18.01 185.61,18.373 185.61,18.82 z" fill="#5BA5B3"/>
        <path d="M192.18,20.53 C192.18,20.817 191.947,21.05 191.66,21.05 C191.373,21.05 191.14,20.817 191.14,20.53 C191.14,20.243 191.373,20.01 191.66,20.01 C191.947,20.01 192.18,20.243 192.18,20.53 z" fill="#5BA5B3"/>
        <path d="M193.85,24.88 C193.85,25.079 193.689,25.24 193.49,25.24 C193.291,25.24 193.13,25.079 193.13,24.88 C193.13,24.681 193.291,24.52 193.49,24.52 C193.689,24.52 193.85,24.681 193.85,24.88 z" fill="#5BA5B3"/>
        <path d="M196.27,18.32 C196.27,18.519 196.109,18.68 195.91,18.68 C195.711,18.68 195.55,18.519 195.55,18.32 C195.55,18.121 195.711,17.96 195.91,17.96 C196.109,17.96 196.27,18.121 196.27,18.32 z" fill="#5BA5B3"/>
        <path d="M192.79,29.46 C192.79,29.67 192.62,29.84 192.41,29.84 C192.2,29.84 192.03,29.67 192.03,29.46 C192.03,29.25 192.2,29.08 192.41,29.08 C192.62,29.08 192.79,29.25 192.79,29.46 z" fill="#5BA5B3"/>
        <path d="M184.89,25.09 C184.89,25.466 184.586,25.77 184.21,25.77 C183.834,25.77 183.53,25.466 183.53,25.09 C183.53,24.714 183.834,24.41 184.21,24.41 C184.586,24.41 184.89,24.714 184.89,25.09 z" fill="#5BA5B3"/>
        <path d="M182.05,34.85 C182.05,35.226 181.746,35.53 181.37,35.53 C180.994,35.53 180.69,35.226 180.69,34.85 C180.69,34.474 180.994,34.17 181.37,34.17 C181.746,34.17 182.05,34.474 182.05,34.85 z" fill="#5BA5B3"/>
        <path d="M185.91,52.25 C185.91,52.626 185.606,52.93 185.23,52.93 C184.854,52.93 184.55,52.626 184.55,52.25 C184.55,51.874 184.854,51.57 185.23,51.57 C185.606,51.57 185.91,51.874 185.91,52.25 z" fill="#5BA5B3"/>
        <path d="M196.62,61.14 C196.62,61.516 196.316,61.82 195.94,61.82 C195.564,61.82 195.26,61.516 195.26,61.14 C195.26,60.764 195.564,60.46 195.94,60.46 C196.316,60.46 196.62,60.764 196.62,61.14 z" fill="#5BA5B3"/>
        <path d="M197.41,56.49 C197.41,56.866 197.106,57.17 196.73,57.17 C196.354,57.17 196.05,56.866 196.05,56.49 C196.05,56.114 196.354,55.81 196.73,55.81 C197.106,55.81 197.41,56.114 197.41,56.49 z" fill="#5BA5B3"/>
        <path d="M185.78,28.08 C185.78,28.456 185.476,28.76 185.1,28.76 C184.724,28.76 184.42,28.456 184.42,28.08 C184.42,27.704 184.724,27.4 185.1,27.4 C185.476,27.4 185.78,27.704 185.78,28.08 z" fill="#5BA5B3"/>
        <path d="M188.19,27.71 C188.19,27.97 187.98,28.18 187.72,28.18 C187.46,28.18 187.25,27.97 187.25,27.71 C187.25,27.45 187.46,27.24 187.72,27.24 C187.98,27.24 188.19,27.45 188.19,27.71 z" fill="#5BA5B3"/>
        <path d="M190.35,20.19 C190.35,20.56 190.05,20.86 189.68,20.86 C189.31,20.86 189.01,20.56 189.01,20.19 C189.01,19.82 189.31,19.52 189.68,19.52 C190.05,19.52 190.35,19.82 190.35,20.19 z" fill="#5BA5B3"/>
        <path d="M197.67,31.84 C197.67,32.21 197.37,32.51 197,32.51 C196.63,32.51 196.33,32.21 196.33,31.84 C196.33,31.47 196.63,31.17 197,31.17 C197.37,31.17 197.67,31.47 197.67,31.84 z" fill="#5BA5B3"/>
        <path d="M191.47,32.77 C191.47,32.991 191.291,33.17 191.07,33.17 C190.849,33.17 190.67,32.991 190.67,32.77 C190.67,32.549 190.849,32.37 191.07,32.37 C191.291,32.37 191.47,32.549 191.47,32.77 z" fill="#5BA5B3"/>
        <path d="M194.95,50.44 C194.95,50.661 194.771,50.84 194.55,50.84 C194.329,50.84 194.15,50.661 194.15,50.44 C194.15,50.219 194.329,50.04 194.55,50.04 C194.771,50.04 194.95,50.219 194.95,50.44 z" fill="#5BA5B3"/>
        <path d="M194.73,24.15 C194.73,24.305 194.605,24.43 194.45,24.43 C194.295,24.43 194.17,24.305 194.17,24.15 C194.17,23.995 194.295,23.87 194.45,23.87 C194.605,23.87 194.73,23.995 194.73,24.15 z" fill="#5BA5B3"/>
        <path d="M184.54,21.65 C184.54,21.805 184.415,21.93 184.26,21.93 C184.105,21.93 183.98,21.805 183.98,21.65 C183.98,21.495 184.105,21.37 184.26,21.37 C184.415,21.37 184.54,21.495 184.54,21.65 z" fill="#5BA5B3"/>
        <path d="M179.11,27.48 C179.11,27.635 178.985,27.76 178.83,27.76 C178.675,27.76 178.55,27.635 178.55,27.48 C178.55,27.325 178.675,27.2 178.83,27.2 C178.985,27.2 179.11,27.325 179.11,27.48 z" fill="#5BA5B3"/>
        <path d="M194.38,45.82 C194.38,45.975 194.255,46.1 194.1,46.1 C193.945,46.1 193.82,45.975 193.82,45.82 C193.82,45.665 193.945,45.54 194.1,45.54 C194.255,45.54 194.38,45.665 194.38,45.82 z" fill="#5BA5B3"/>
        <path d="M192.46,56.21 C192.46,56.365 192.335,56.49 192.18,56.49 C192.025,56.49 191.9,56.365 191.9,56.21 C191.9,56.055 192.025,55.93 192.18,55.93 C192.335,55.93 192.46,56.055 192.46,56.21 z" fill="#5BA5B3"/>
        <path d="M194.62,28.74 C194.62,28.895 194.495,29.02 194.34,29.02 C194.185,29.02 194.06,28.895 194.06,28.74 C194.06,28.585 194.185,28.46 194.34,28.46 C194.495,28.46 194.62,28.585 194.62,28.74 z" fill="#5BA5B3"/>
        <path d="M193.83,20.71 C193.83,20.865 193.705,20.99 193.55,20.99 C193.395,20.99 193.27,20.865 193.27,20.71 C193.27,20.555 193.395,20.43 193.55,20.43 C193.705,20.43 193.83,20.555 193.83,20.71 z" fill="#5BA5B3"/>
        <path d="M189.58,25.28 C189.58,25.435 189.455,25.56 189.3,25.56 C189.145,25.56 189.02,25.435 189.02,25.28 C189.02,25.125 189.145,25 189.3,25 C189.455,25 189.58,25.125 189.58,25.28 z" fill="#5BA5B3"/>
        <path d="M186.9,46.45 C186.9,46.605 186.775,46.73 186.62,46.73 C186.465,46.73 186.34,46.605 186.34,46.45 C186.34,46.295 186.465,46.17 186.62,46.17 C186.775,46.17 186.9,46.295 186.9,46.45 z" fill="#5BA5B3"/>
        <path d="M190.05,47.08 C190.05,47.235 189.925,47.36 189.77,47.36 C189.615,47.36 189.49,47.235 189.49,47.08 C189.49,46.925 189.615,46.8 189.77,46.8 C189.925,46.8 190.05,46.925 190.05,47.08 z" fill="#5BA5B3"/>
        <path d="M189.11,38.74 C189.11,38.895 188.985,39.02 188.83,39.02 C188.675,39.02 188.55,38.895 188.55,38.74 C188.55,38.585 188.675,38.46 188.83,38.46 C188.985,38.46 189.11,38.585 189.11,38.74 z" fill="#5BA5B3"/>
        <path d="M193.05,51.18 C193.05,51.335 192.925,51.46 192.77,51.46 C192.615,51.46 192.49,51.335 192.49,51.18 C192.49,51.025 192.615,50.9 192.77,50.9 C192.925,50.9 193.05,51.025 193.05,51.18 z" fill="#5BA5B3"/>
        <path d="M178.56,21.97 C178.56,22.125 178.435,22.25 178.28,22.25 C178.125,22.25 178,22.125 178,21.97 C178,21.815 178.125,21.69 178.28,21.69 C178.435,21.69 178.56,21.815 178.56,21.97 z" fill="#5BA5B3"/>
        <path d="M188.34,29.94 C188.34,30.371 187.991,30.72 187.56,30.72 C187.129,30.72 186.78,30.371 186.78,29.94 C186.78,29.509 187.129,29.16 187.56,29.16 C187.991,29.16 188.34,29.509 188.34,29.94 z" fill="#5BA5B3"/>
        <path d="M187.16,33.4 C187.16,33.831 186.811,34.18 186.38,34.18 C185.949,34.18 185.6,33.831 185.6,33.4 C185.6,32.969 185.949,32.62 186.38,32.62 C186.811,32.62 187.16,32.969 187.16,33.4 z" fill="#5BA5B3"/>
        <path d="M188.41,22.78 C188.41,23.211 188.061,23.56 187.63,23.56 C187.199,23.56 186.85,23.211 186.85,22.78 C186.85,22.349 187.199,22 187.63,22 C188.061,22 188.41,22.349 188.41,22.78 z" fill="#5BA5B3"/>
        <path d="M193.33,22.56 C193.33,22.991 192.981,23.34 192.55,23.34 C192.119,23.34 191.77,22.991 191.77,22.56 C191.77,22.129 192.119,21.78 192.55,21.78 C192.981,21.78 193.33,22.129 193.33,22.56 z" fill="#5BA5B3"/>
        <path d="M189.53,32.04 C189.53,32.233 189.373,32.39 189.18,32.39 C188.987,32.39 188.83,32.233 188.83,32.04 C188.83,31.847 188.987,31.69 189.18,31.69 C189.373,31.69 189.53,31.847 189.53,32.04 z" fill="#5BA5B3"/>
        <path d="M189.98,33.88 C189.98,34.173 189.743,34.41 189.45,34.41 C189.157,34.41 188.92,34.173 188.92,33.88 C188.92,33.587 189.157,33.35 189.45,33.35 C189.743,33.35 189.98,33.587 189.98,33.88 z" fill="#5BA5B3"/>
        <path d="M195.56,42.75 C195.56,43.043 195.323,43.28 195.03,43.28 C194.737,43.28 194.5,43.043 194.5,42.75 C194.5,42.457 194.737,42.22 195.03,42.22 C195.323,42.22 195.56,42.457 195.56,42.75 z" fill="#5BA5B3"/>
        <path d="M195.36,47.86 C195.36,48.07 195.19,48.24 194.98,48.24 C194.77,48.24 194.6,48.07 194.6,47.86 C194.6,47.65 194.77,47.48 194.98,47.48 C195.19,47.48 195.36,47.65 195.36,47.86 z" fill="#5BA5B3"/>
        <path d="M191.09,51.39 C191.09,51.534 190.974,51.65 190.83,51.65 C190.686,51.65 190.57,51.534 190.57,51.39 C190.57,51.246 190.686,51.13 190.83,51.13 C190.974,51.13 191.09,51.246 191.09,51.39 z" fill="#5BA5B3"/>
        <path d="M194.5,52.53 C194.5,52.663 194.393,52.77 194.26,52.77 C194.127,52.77 194.02,52.663 194.02,52.53 C194.02,52.397 194.127,52.29 194.26,52.29 C194.393,52.29 194.5,52.397 194.5,52.53 z" fill="#5BA5B3"/>
        <path d="M192.12,49.52 C192.12,49.735 191.945,49.91 191.73,49.91 C191.515,49.91 191.34,49.735 191.34,49.52 C191.34,49.305 191.515,49.13 191.73,49.13 C191.945,49.13 192.12,49.305 192.12,49.52 z" fill="#5BA5B3"/>
        <path d="M194.86,39.51 C194.86,39.72 194.69,39.89 194.48,39.89 C194.27,39.89 194.1,39.72 194.1,39.51 C194.1,39.3 194.27,39.13 194.48,39.13 C194.69,39.13 194.86,39.3 194.86,39.51 z" fill="#5BA5B3"/>
        <path d="M191.49,44.98 C191.49,45.19 191.32,45.36 191.11,45.36 C190.9,45.36 190.73,45.19 190.73,44.98 C190.73,44.77 190.9,44.6 191.11,44.6 C191.32,44.6 191.49,44.77 191.49,44.98 z" fill="#5BA5B3"/>
        <path d="M196.84,54.16 C196.84,54.331 196.701,54.47 196.53,54.47 C196.359,54.47 196.22,54.331 196.22,54.16 C196.22,53.989 196.359,53.85 196.53,53.85 C196.701,53.85 196.84,53.989 196.84,54.16 z" fill="#5BA5B3"/>
        <path d="M192.2,45.66 C192.2,45.831 192.061,45.97 191.89,45.97 C191.719,45.97 191.58,45.831 191.58,45.66 C191.58,45.489 191.719,45.35 191.89,45.35 C192.061,45.35 192.2,45.489 192.2,45.66 z" fill="#5BA5B3"/>
        <path d="M190.16,35.51 C190.16,35.858 189.878,36.14 189.53,36.14 C189.182,36.14 188.9,35.858 188.9,35.51 C188.9,35.162 189.182,34.88 189.53,34.88 C189.878,34.88 190.16,35.162 190.16,35.51 z" fill="#5BA5B3"/>
        <path d="M197.32,37.48 C197.32,37.828 197.038,38.11 196.69,38.11 C196.342,38.11 196.06,37.828 196.06,37.48 C196.06,37.132 196.342,36.85 196.69,36.85 C197.038,36.85 197.32,37.132 197.32,37.48 z" fill="#5BA5B3"/>
        <path d="M192.45,40.79 C192.45,41.138 192.168,41.42 191.82,41.42 C191.472,41.42 191.19,41.138 191.19,40.79 C191.19,40.442 191.472,40.16 191.82,40.16 C192.168,40.16 192.45,40.442 192.45,40.79 z" fill="#5BA5B3"/>
        <path d="M188.67,36.35 C188.67,36.466 188.576,36.56 188.46,36.56 C188.344,36.56 188.25,36.466 188.25,36.35 C188.25,36.234 188.344,36.14 188.46,36.14 C188.576,36.14 188.67,36.234 188.67,36.35 z" fill="#5BA5B3"/>
        <path d="M186.08,42.21 C186.08,42.326 185.986,42.42 185.87,42.42 C185.754,42.42 185.66,42.326 185.66,42.21 C185.66,42.094 185.754,42 185.87,42 C185.986,42 186.08,42.094 186.08,42.21 z" fill="#5BA5B3"/>
        <path d="M191.76,29.24 C191.76,29.56 191.5,29.82 191.18,29.82 C190.86,29.82 190.6,29.56 190.6,29.24 C190.6,28.92 190.86,28.66 191.18,28.66 C191.5,28.66 191.76,28.92 191.76,29.24 z" fill="#5BA5B3"/>
      </g>
      <g>
        <path d="M175.31,46.39 L172.31,45.06 L171.78,42.84 L171.78,42.84 L173.87,40.13 L177.61,41 L178.23,44.44 z M172.42,44.92 L175.29,46.18 L178.01,44.31 L177.43,41.11 L173.93,40.3 L171.93,42.88 z" fill="#5BA5B3"/>
        <path d="M133.79,63.61 L133.65,63.49 L137.29,59.33 L142.05,56.73 L143.54,58.33 L145.92,58.62 L146.67,57.79 L147.1,53.92 L150.04,55.42 L152.97,54.72 L152.97,54.72 L154.64,55.97 L159.29,55.89 L159.36,53.89 L162.91,53.77 L164.45,52.41 L164.45,52.41 L168.74,53.2 L171.74,48.51 L173.24,48.43 C173.46,48.16 174.96,46.33 175.14,46.14 C175.32,45.95 178.14,46.86 180.49,47.67 L181.9,46.3 L185.4,44.83 L185.47,45 L182.1,46.53 L180.65,47.94 L180.6,47.94 C178.898,47.315 177.162,46.787 175.4,46.36 L175.4,46.36 C175.16,46.61 173.52,48.63 173.5,48.65 L173.5,48.65 L172.01,48.73 L169.01,53.44 L164.65,52.64 L163.02,54.04 L163.02,54.04 L159.61,54.16 L159.54,56.16 L154.65,56.25 L152.97,54.99 L150.06,55.69 L150.06,55.69 L147.33,54.29 L146.93,57.96 L146.93,57.96 L146.09,58.88 L143.55,58.57 L143.55,58.57 L142.14,57.05 L137.52,59.58 z" fill="#5BA5B3"/>
        <path d="M137.34,65.36 L133.49,63.75 L129.9,63.94 L129.87,63.9 L127.95,61.32 L125.8,61.5 L125.8,61.4 L125.65,55.86 L122.41,55.25 L122.4,55.21 L121.01,52.16 L118.32,47.09 L122.71,47.89 L126.71,45.78 L126.76,45.82 L131.14,49.65 L136.14,48.76 L137.51,52.79 L140.54,50.97 L140.58,50.98 L144.77,51.8 L147.6,50.86 L150,50.03 L150.4,47.71 L150.58,47.74 L150.16,50.17 L147.66,51.04 L144.78,51.99 L144.76,51.99 L140.58,51.17 L137.4,53.07 L137.37,52.96 L136.02,48.97 L131.08,49.85 L131.05,49.82 L126.69,46 L122.74,48.08 L122.7,48.07 L118.66,47.34 L121.18,52.08 L122.54,55.09 L125.83,55.7 L125.98,61.3 L128.04,61.12 L128.07,61.17 L129.99,63.75 L133.53,63.56 L133.55,63.57 L137.2,65.1 L137.47,63.22 L139.81,63.56 L139.78,63.74 L137.63,63.43 L137.34,65.36 z" fill="#5BA5B3"/>
        <g>
          <path d="M192.1,40.61 L181.92,38.96 L171.08,31.58 L171.18,31.42 L182.01,38.79 L192.13,40.42 L192.1,40.61 z" fill="#5BA5B3"/>
          <path d="M166.93,41.93 L163.87,37.9 L164.01,37.79 L167,41.72 L173.94,40.13 L173.98,40.31 L166.93,41.93 z" fill="#5BA5B3"/>
          <path d="M159.33,49.43 L159.32,49.42 L154.18,46.57 L154.24,46.47 L159.36,49.3 L168.17,49.15 L166.4,45.97 L164.81,45.31 L164.84,45.26 L168.92,36.6 L168.98,36.71 L171.97,42.86 L171.85,42.91 L168.92,36.88 L164.98,45.25 L166.49,45.87 L166.5,45.89 L168.37,49.27 L168.27,49.27 L159.33,49.43 z" fill="#5BA5B3"/>
          <path d="M177.342,41.134 L181.923,38.802 L182.009,38.971 L177.428,41.303 z" fill="#5BA5B3"/>
          <path d="M162.88,54.08 L159.25,49.39 L160.58,42.41 L157.09,39.91 L157.2,39.76 L160.78,42.33 L160.77,42.38 L159.45,49.34 L163.03,53.96 L162.88,54.08 z" fill="#5BA5B3"/>
          <path d="M144.65,47.02 L144.62,46.86 L143.08,38.58 L143.26,38.55 L144.77,46.67 L150.27,41.79 L156.92,39.67 L154.19,36.67 L154.33,36.55 L157.25,39.76 L150.34,41.95 L144.65,47.02 z" fill="#5BA5B3"/>
          <path d="M126.19,52.57 L126.1,52.36 L122.21,43.48 L122.38,43.41 L126.18,52.08 L130.7,40.33 L130.87,40.4 L126.19,52.57 z" fill="#5BA5B3"/>
          <path d="M159.37,54.13 L159.12,49.42 L159.24,49.41 L159.49,54.12 L159.37,54.13 z" fill="#5BA5B3"/>
          <path d="M129.69,72.04 L129.69,71.83 C129.69,71.63 131.25,67.1 131.46,66.48 L129.92,56.18 L135.02,56.92 L137.27,53.1 L137.43,53.19 L135.1,57.04 L135.1,57.04 L130.19,56.33 L131.7,66.43 L131.7,66.43 C131.11,68.19 130.26,70.72 130.01,71.52 L143.78,61.61 L143.78,61.61 L150.15,63.19 L158.06,58.66 L158.15,58.82 L150.15,63.38 L150.15,63.38 L143.78,61.8 z" fill="#5BA5B3"/>
        </g>
        <g>
          <path d="M152.95,54.88 L150.05,50.04 L147.29,54.15 L147.13,54.05 L150.06,49.7 L150.13,49.82 L153.11,54.79 L152.95,54.88 z" fill="#5BA5B3"/>
          <path d="M140.58,51.18 L140.52,51.18 L135.81,48.86 L145,46.71 z M136.35,48.9 L140.54,50.96 L144.42,47.01 z" fill="#5BA5B3"/>
          <path d="M130.1,56.35 L125.49,55.85 L125.7,55.71 L136.55,48.45 z M126.02,55.72 L130.02,56.15 L135.63,49.29 z" fill="#5BA5B3"/>
          <path d="M137.5,63.43 L137.5,63.35 L134.98,56.89 L135.1,56.89 L142.1,56.74 L142.1,56.8 L143.86,61.8 z M135.22,57.04 L137.61,63.18 L143.61,61.65 L141.94,56.89 z" fill="#5BA5B3"/>
          <path d="M168.74,53.68 L173.35,48.5 L173.35,48.5 L181.17,47.57 z M173.44,48.68 L169.51,53.11 L180.1,47.87 z" fill="#5BA5B3"/>
          <path d="M164.59,53.1 L164.59,52.88 L163.65,37.16 L168.41,49.04 L168.35,49.04 C168.23,49.14 166.13,51.4 164.75,52.9 z M163.89,38.29 L164.75,52.65 C165.51,51.83 167.75,49.37 168.18,48.97 z" fill="#5BA5B3"/>
        </g>
        <path d="M120.825,45.729 C121.48,47.032 120.954,48.618 119.651,49.273 C118.348,49.927 116.762,49.402 116.107,48.099 C115.453,46.796 115.978,45.209 117.281,44.555 C118.584,43.9 120.171,44.426 120.825,45.729 z" fill="#5BA5B3"/>
        <path d="M122.247,51.558 C122.566,52.194 122.31,52.97 121.673,53.289 C121.036,53.609 120.261,53.352 119.941,52.716 C119.621,52.079 119.878,51.304 120.515,50.984 C121.152,50.664 121.927,50.921 122.247,51.558 z" fill="#5BA5B3"/>
        <path d="M126.457,55.441 C126.655,55.836 126.496,56.317 126.101,56.515 C125.706,56.713 125.225,56.554 125.027,56.159 C124.829,55.764 124.988,55.284 125.383,55.085 C125.778,54.887 126.259,55.046 126.457,55.441 z" fill="#5BA5B3"/>
        <path d="M126.613,61.056 C126.812,61.451 126.652,61.931 126.258,62.13 C125.863,62.328 125.382,62.169 125.184,61.774 C124.985,61.379 125.145,60.898 125.539,60.7 C125.934,60.502 126.415,60.661 126.613,61.056 z" fill="#5BA5B3"/>
        <path d="M140.514,63.307 C140.713,63.702 140.553,64.183 140.159,64.381 C139.764,64.58 139.283,64.42 139.085,64.026 C138.886,63.631 139.046,63.15 139.441,62.952 C139.835,62.753 140.316,62.913 140.514,63.307 z" fill="#5BA5B3"/>
        <path d="M159.717,55.818 C159.826,56.035 159.738,56.299 159.521,56.409 C159.304,56.518 159.039,56.43 158.93,56.213 C158.821,55.996 158.909,55.731 159.126,55.622 C159.343,55.513 159.608,55.601 159.717,55.818 z" fill="#5BA5B3"/>
        <path d="M169.547,53.078 C169.762,53.507 169.589,54.03 169.16,54.246 C168.73,54.462 168.207,54.288 167.992,53.859 C167.776,53.43 167.949,52.907 168.379,52.691 C168.808,52.475 169.331,52.649 169.547,53.078 z" fill="#5BA5B3"/>
        <path d="M161.454,42.008 C161.67,42.437 161.496,42.96 161.067,43.176 C160.638,43.392 160.115,43.218 159.899,42.789 C159.683,42.36 159.857,41.837 160.286,41.621 C160.715,41.405 161.238,41.579 161.454,42.008 z" fill="#5BA5B3"/>
        <path d="M181.457,47.332 C181.673,47.761 181.5,48.284 181.071,48.5 C180.641,48.715 180.118,48.542 179.903,48.113 C179.687,47.683 179.86,47.161 180.29,46.945 C180.719,46.729 181.242,46.902 181.457,47.332 z" fill="#5BA5B3"/>
        <path d="M138.051,59.108 C138.249,59.503 138.09,59.984 137.695,60.182 C137.3,60.381 136.82,60.221 136.621,59.827 C136.423,59.432 136.582,58.951 136.977,58.753 C137.372,58.554 137.853,58.714 138.051,59.108 z" fill="#5BA5B3"/>
        <path d="M155.74,55.667 C156.008,56.2 155.793,56.849 155.26,57.117 C154.727,57.385 154.078,57.169 153.81,56.636 C153.542,56.103 153.757,55.454 154.29,55.187 C154.823,54.919 155.472,55.134 155.74,55.667 z" fill="#5BA5B3"/>
        <path d="M151.187,41.186 C151.455,41.719 151.24,42.369 150.707,42.636 C150.174,42.904 149.524,42.689 149.257,42.156 C148.989,41.623 149.204,40.974 149.737,40.706 C150.27,40.438 150.919,40.653 151.187,41.186 z" fill="#5BA5B3"/>
        <path d="M153.841,54.457 C154.064,54.901 153.885,55.442 153.441,55.665 C152.996,55.888 152.455,55.709 152.232,55.265 C152.009,54.821 152.188,54.28 152.633,54.057 C153.077,53.834 153.618,54.013 153.841,54.457 z" fill="#5BA5B3"/>
        <path d="M150.568,55.29 C150.707,55.567 150.595,55.903 150.319,56.042 C150.043,56.181 149.706,56.069 149.567,55.793 C149.429,55.517 149.54,55.18 149.816,55.041 C150.093,54.903 150.429,55.014 150.568,55.29 z" fill="#5BA5B3"/>
        <path d="M147.017,57.684 C147.096,57.842 147.033,58.034 146.875,58.113 C146.717,58.193 146.524,58.129 146.445,57.971 C146.366,57.813 146.429,57.621 146.587,57.541 C146.745,57.462 146.938,57.526 147.017,57.684 z" fill="#5BA5B3"/>
        <path d="M163.364,53.799 C163.478,54.026 163.387,54.303 163.16,54.417 C162.933,54.531 162.656,54.439 162.542,54.212 C162.428,53.985 162.52,53.709 162.747,53.595 C162.974,53.481 163.25,53.572 163.364,53.799 z" fill="#5BA5B3"/>
        <path d="M169.334,36.562 C169.448,36.79 169.356,37.066 169.129,37.18 C168.902,37.294 168.626,37.202 168.512,36.975 C168.398,36.748 168.489,36.472 168.716,36.358 C168.943,36.244 169.22,36.335 169.334,36.562 z" fill="#5BA5B3"/>
        <path d="M154.647,36.238 C154.761,36.465 154.67,36.741 154.443,36.855 C154.216,36.969 153.939,36.878 153.825,36.651 C153.711,36.424 153.803,36.147 154.03,36.033 C154.257,35.919 154.533,36.011 154.647,36.238 z" fill="#5BA5B3"/>
        <path d="M173.797,48.365 C173.911,48.592 173.82,48.869 173.593,48.983 C173.366,49.097 173.089,49.005 172.975,48.778 C172.861,48.551 172.953,48.275 173.18,48.161 C173.407,48.047 173.683,48.138 173.797,48.365 z" fill="#5BA5B3"/>
        <path d="M172.735,44.766 C172.849,44.993 172.758,45.27 172.531,45.384 C172.304,45.498 172.027,45.406 171.913,45.179 C171.799,44.952 171.891,44.676 172.118,44.562 C172.345,44.448 172.621,44.539 172.735,44.766 z" fill="#5BA5B3"/>
        <path d="M178.103,40.664 C178.299,41.054 178.142,41.529 177.752,41.724 C177.362,41.92 176.887,41.763 176.691,41.373 C176.495,40.983 176.653,40.508 177.043,40.312 C177.432,40.117 177.907,40.274 178.103,40.664 z" fill="#5BA5B3"/>
        <path d="M123.625,47.552 C123.878,48.056 123.675,48.669 123.171,48.922 C122.668,49.174 122.055,48.971 121.802,48.468 C121.549,47.964 121.752,47.351 122.255,47.099 C122.759,46.846 123.372,47.049 123.625,47.552 z" fill="#5BA5B3"/>
        <path d="M128.802,44.851 C129.382,46.006 128.916,47.412 127.761,47.993 C126.606,48.573 125.2,48.107 124.62,46.952 C124.04,45.797 124.506,44.391 125.66,43.81 C126.815,43.23 128.222,43.696 128.802,44.851 z" fill="#5BA5B3"/>
        <path d="M123.647,54.605 C123.971,55.251 123.711,56.039 123.064,56.363 C122.418,56.688 121.63,56.427 121.305,55.781 C120.981,55.134 121.242,54.347 121.888,54.022 C122.535,53.697 123.322,53.958 123.647,54.605 z" fill="#5BA5B3"/>
        <path d="M130.702,63.476 C130.913,63.895 130.744,64.406 130.324,64.617 C129.905,64.828 129.394,64.658 129.183,64.239 C128.973,63.819 129.142,63.309 129.561,63.098 C129.981,62.887 130.492,63.056 130.702,63.476 z" fill="#5BA5B3"/>
        <path d="M138.087,63.072 C138.233,63.363 138.116,63.718 137.825,63.864 C137.533,64.01 137.179,63.893 137.033,63.602 C136.886,63.311 137.004,62.956 137.295,62.81 C137.586,62.664 137.941,62.781 138.087,63.072 z" fill="#5BA5B3"/>
        <path d="M130.356,71.309 C130.502,71.6 130.385,71.955 130.094,72.101 C129.803,72.248 129.448,72.13 129.302,71.839 C129.155,71.548 129.273,71.193 129.564,71.047 C129.855,70.901 130.21,71.018 130.356,71.309 z" fill="#5BA5B3"/>
        <path d="M143.948,58.178 C144.101,58.484 143.978,58.856 143.672,59.01 C143.366,59.164 142.993,59.04 142.84,58.734 C142.686,58.428 142.809,58.056 143.115,57.902 C143.421,57.748 143.794,57.872 143.948,58.178 z" fill="#5BA5B3"/>
        <path d="M132.106,49.263 C132.381,49.811 132.16,50.478 131.612,50.753 C131.064,51.028 130.397,50.807 130.122,50.26 C129.847,49.712 130.068,49.045 130.616,48.769 C131.164,48.494 131.831,48.715 132.106,49.263 z" fill="#5BA5B3"/>
        <path d="M144.161,38.095 C144.436,38.643 144.215,39.31 143.668,39.585 C143.12,39.86 142.453,39.639 142.177,39.091 C141.902,38.544 142.123,37.877 142.671,37.601 C143.219,37.326 143.886,37.547 144.161,38.095 z" fill="#5BA5B3"/>
        <path d="M172.127,31.032 C172.402,31.58 172.181,32.247 171.633,32.522 C171.085,32.797 170.418,32.576 170.143,32.028 C169.868,31.48 170.089,30.813 170.636,30.538 C171.184,30.263 171.851,30.484 172.127,31.032 z" fill="#5BA5B3"/>
        <path d="M192.769,40.038 C193.044,40.586 192.823,41.253 192.276,41.528 C191.728,41.803 191.061,41.582 190.785,41.034 C190.51,40.486 190.731,39.819 191.279,39.544 C191.827,39.269 192.494,39.49 192.769,40.038 z" fill="#5BA5B3"/>
        <path d="M186.617,44.566 C186.892,45.114 186.671,45.781 186.123,46.056 C185.575,46.332 184.908,46.111 184.633,45.563 C184.358,45.015 184.579,44.348 185.127,44.073 C185.675,43.797 186.342,44.018 186.617,44.566 z" fill="#5BA5B3"/>
        <path d="M137.082,48.386 C137.357,48.934 137.136,49.601 136.589,49.876 C136.041,50.151 135.374,49.93 135.098,49.382 C134.823,48.835 135.044,48.167 135.592,47.892 C136.14,47.617 136.807,47.838 137.082,48.386 z" fill="#5BA5B3"/>
        <path d="M138.136,52.586 C138.324,52.961 138.173,53.418 137.798,53.606 C137.423,53.795 136.966,53.644 136.778,53.268 C136.589,52.893 136.741,52.437 137.116,52.248 C137.491,52.06 137.948,52.211 138.136,52.586 z" fill="#5BA5B3"/>
        <path d="M128.959,60.767 C129.227,61.3 129.012,61.949 128.479,62.217 C127.946,62.484 127.297,62.269 127.029,61.736 C126.761,61.203 126.977,60.554 127.51,60.286 C128.043,60.019 128.692,60.234 128.959,60.767 z" fill="#5BA5B3"/>
        <path d="M151.132,62.86 C151.4,63.393 151.185,64.042 150.652,64.31 C150.119,64.578 149.47,64.363 149.202,63.83 C148.934,63.297 149.149,62.647 149.682,62.38 C150.215,62.112 150.865,62.327 151.132,62.86 z" fill="#5BA5B3"/>
        <path d="M147.782,53.782 C147.943,54.103 147.813,54.493 147.493,54.654 C147.172,54.816 146.781,54.686 146.62,54.366 C146.459,54.045 146.588,53.654 146.909,53.493 C147.23,53.332 147.62,53.461 147.782,53.782 z" fill="#5BA5B3"/>
        <path d="M175.874,45.961 C176.035,46.282 175.906,46.672 175.585,46.833 C175.264,46.995 174.874,46.865 174.712,46.544 C174.551,46.224 174.681,45.833 175.001,45.672 C175.322,45.511 175.713,45.64 175.874,45.961 z" fill="#5BA5B3"/>
        <path d="M137.611,65.068 C137.725,65.295 137.633,65.571 137.406,65.685 C137.179,65.799 136.903,65.708 136.789,65.481 C136.675,65.254 136.766,64.977 136.993,64.863 C137.22,64.749 137.497,64.841 137.611,65.068 z" fill="#5BA5B3"/>
        <path d="M126.598,52.133 C126.712,52.36 126.62,52.637 126.393,52.751 C126.166,52.865 125.89,52.773 125.776,52.546 C125.662,52.319 125.753,52.043 125.98,51.929 C126.207,51.815 126.484,51.906 126.598,52.133 z" fill="#5BA5B3"/>
        <path d="M131.084,40.059 C131.198,40.286 131.107,40.562 130.88,40.676 C130.653,40.79 130.376,40.699 130.262,40.472 C130.148,40.245 130.24,39.968 130.467,39.854 C130.694,39.74 130.97,39.832 131.084,40.059 z" fill="#5BA5B3"/>
        <path d="M168.704,48.831 C168.818,49.058 168.726,49.334 168.499,49.448 C168.272,49.562 167.996,49.471 167.882,49.244 C167.768,49.017 167.859,48.74 168.086,48.626 C168.313,48.512 168.59,48.604 168.704,48.831 z" fill="#5BA5B3"/>
        <path d="M182.327,38.502 C182.441,38.729 182.349,39.006 182.122,39.12 C181.895,39.234 181.619,39.142 181.505,38.915 C181.391,38.688 181.483,38.412 181.71,38.297 C181.937,38.183 182.213,38.275 182.327,38.502 z" fill="#5BA5B3"/>
        <path d="M144.167,61.555 C144.281,61.782 144.189,62.058 143.962,62.172 C143.735,62.286 143.458,62.195 143.344,61.968 C143.23,61.741 143.322,61.464 143.549,61.35 C143.776,61.236 144.052,61.328 144.167,61.555 z" fill="#5BA5B3"/>
        <path d="M131.983,66.276 C132.097,66.503 132.005,66.78 131.778,66.894 C131.551,67.008 131.275,66.916 131.161,66.689 C131.047,66.462 131.138,66.186 131.366,66.072 C131.593,65.958 131.869,66.049 131.983,66.276 z" fill="#5BA5B3"/>
        <path d="M135.498,56.784 C135.612,57.011 135.52,57.287 135.293,57.401 C135.066,57.515 134.79,57.424 134.676,57.197 C134.562,56.97 134.653,56.693 134.88,56.579 C135.107,56.465 135.384,56.557 135.498,56.784 z" fill="#5BA5B3"/>
        <path d="M164.186,37.559 C164.3,37.786 164.209,38.062 163.982,38.176 C163.755,38.29 163.478,38.199 163.364,37.972 C163.25,37.745 163.342,37.468 163.569,37.354 C163.796,37.24 164.072,37.332 164.186,37.559 z" fill="#5BA5B3"/>
        <path d="M167.382,41.627 C167.496,41.854 167.404,42.131 167.177,42.245 C166.95,42.359 166.673,42.267 166.559,42.04 C166.445,41.813 166.537,41.537 166.764,41.423 C166.991,41.309 167.267,41.4 167.382,41.627 z" fill="#5BA5B3"/>
        <path d="M154.619,46.345 C154.733,46.572 154.641,46.848 154.414,46.962 C154.187,47.076 153.911,46.985 153.797,46.758 C153.683,46.53 153.774,46.254 154.001,46.14 C154.228,46.026 154.505,46.118 154.619,46.345 z" fill="#5BA5B3"/>
        <path d="M175.467,42.992 C175.581,43.219 175.489,43.496 175.262,43.61 C175.035,43.724 174.759,43.632 174.645,43.405 C174.531,43.178 174.622,42.902 174.849,42.788 C175.076,42.674 175.353,42.765 175.467,42.992 z" fill="#5BA5B3"/>
        <path d="M122.701,43.245 C122.815,43.472 122.724,43.749 122.497,43.863 C122.27,43.977 121.993,43.885 121.879,43.658 C121.765,43.431 121.857,43.155 122.084,43.04 C122.311,42.926 122.587,43.018 122.701,43.245 z" fill="#5BA5B3"/>
        <path d="M141.678,50.518 C141.99,51.14 141.74,51.897 141.118,52.21 C140.496,52.522 139.739,52.271 139.426,51.649 C139.114,51.027 139.365,50.27 139.987,49.958 C140.608,49.645 141.366,49.896 141.678,50.518 z" fill="#5BA5B3"/>
        <path d="M145.841,46.3 C146.154,46.922 145.903,47.679 145.281,47.991 C144.659,48.304 143.902,48.053 143.589,47.431 C143.277,46.809 143.528,46.052 144.15,45.74 C144.772,45.427 145.529,45.678 145.841,46.3 z" fill="#5BA5B3"/>
        <path d="M131.382,55.825 C131.694,56.447 131.443,57.205 130.821,57.517 C130.2,57.829 129.442,57.578 129.13,56.956 C128.818,56.335 129.069,55.577 129.69,55.265 C130.312,54.953 131.07,55.204 131.382,55.825 z" fill="#5BA5B3"/>
        <path d="M134.635,63.114 C134.947,63.736 134.696,64.493 134.074,64.806 C133.453,65.118 132.695,64.867 132.383,64.245 C132.07,63.623 132.321,62.866 132.943,62.554 C133.565,62.241 134.322,62.492 134.635,63.114 z" fill="#5BA5B3"/>
        <path d="M145.285,51.675 C145.426,51.957 145.313,52.299 145.032,52.441 C144.75,52.582 144.408,52.468 144.266,52.187 C144.125,51.906 144.239,51.563 144.52,51.422 C144.801,51.281 145.144,51.394 145.285,51.675 z" fill="#5BA5B3"/>
        <path d="M148.395,50.587 C148.605,51.007 148.436,51.518 148.017,51.728 C147.597,51.939 147.086,51.77 146.875,51.35 C146.665,50.931 146.834,50.42 147.254,50.209 C147.673,49.998 148.184,50.168 148.395,50.587 z" fill="#5BA5B3"/>
        <path d="M165.271,52.199 C165.482,52.619 165.313,53.13 164.893,53.34 C164.474,53.551 163.963,53.382 163.752,52.962 C163.542,52.543 163.711,52.032 164.13,51.821 C164.55,51.61 165.061,51.78 165.271,52.199 z" fill="#5BA5B3"/>
        <path d="M172.422,48.555 C172.575,48.861 172.452,49.233 172.146,49.387 C171.84,49.541 171.467,49.417 171.314,49.111 C171.16,48.805 171.283,48.432 171.589,48.279 C171.895,48.125 172.268,48.249 172.422,48.555 z" fill="#5BA5B3"/>
        <path d="M174.334,40.048 C174.438,40.255 174.354,40.508 174.147,40.612 C173.94,40.716 173.687,40.632 173.583,40.425 C173.479,40.218 173.563,39.965 173.77,39.861 C173.977,39.757 174.23,39.841 174.334,40.048 z" fill="#5BA5B3"/>
        <path d="M178.449,44.149 C178.546,44.342 178.468,44.576 178.276,44.673 C178.083,44.77 177.849,44.692 177.752,44.499 C177.656,44.307 177.733,44.073 177.926,43.976 C178.118,43.879 178.353,43.957 178.449,44.149 z" fill="#5BA5B3"/>
        <path d="M172.464,42.601 C172.62,42.912 172.494,43.29 172.183,43.447 C171.872,43.603 171.494,43.477 171.338,43.166 C171.181,42.855 171.307,42.477 171.618,42.321 C171.929,42.164 172.307,42.29 172.464,42.601 z" fill="#5BA5B3"/>
        <path d="M159.982,53.89 C160.136,54.196 160.012,54.569 159.706,54.722 C159.4,54.876 159.028,54.753 158.874,54.447 C158.72,54.141 158.844,53.768 159.15,53.614 C159.456,53.461 159.828,53.584 159.982,53.89 z" fill="#5BA5B3"/>
        <path d="M165.448,45.016 C165.601,45.322 165.478,45.695 165.172,45.849 C164.866,46.002 164.493,45.879 164.34,45.573 C164.186,45.267 164.309,44.894 164.615,44.741 C164.921,44.587 165.294,44.71 165.448,45.016 z" fill="#5BA5B3"/>
        <path d="M182.555,46.231 C182.679,46.478 182.579,46.778 182.332,46.902 C182.085,47.026 181.785,46.927 181.661,46.68 C181.537,46.433 181.637,46.133 181.883,46.009 C182.13,45.885 182.431,45.984 182.555,46.231 z" fill="#5BA5B3"/>
        <path d="M166.893,45.707 C167.017,45.953 166.917,46.254 166.67,46.378 C166.424,46.502 166.123,46.402 165.999,46.155 C165.875,45.909 165.975,45.608 166.222,45.484 C166.468,45.36 166.769,45.46 166.893,45.707 z" fill="#5BA5B3"/>
        <path d="M150.974,49.44 C151.227,49.943 151.024,50.556 150.521,50.809 C150.017,51.062 149.404,50.859 149.151,50.355 C148.898,49.852 149.102,49.239 149.605,48.986 C150.108,48.733 150.721,48.936 150.974,49.44 z" fill="#5BA5B3"/>
        <path d="M159.016,58.376 C159.269,58.88 159.066,59.493 158.562,59.745 C158.059,59.998 157.446,59.795 157.193,59.292 C156.94,58.788 157.143,58.175 157.647,57.923 C158.15,57.67 158.763,57.873 159.016,58.376 z" fill="#5BA5B3"/>
        <path d="M160.257,48.934 C160.51,49.437 160.307,50.05 159.803,50.303 C159.3,50.556 158.687,50.353 158.434,49.85 C158.181,49.346 158.384,48.733 158.888,48.48 C159.391,48.227 160.004,48.431 160.257,48.934 z" fill="#5BA5B3"/>
        <path d="M150.786,47.57 C150.87,47.738 150.802,47.943 150.635,48.027 C150.467,48.111 150.262,48.043 150.178,47.876 C150.094,47.708 150.162,47.504 150.329,47.419 C150.497,47.335 150.702,47.403 150.786,47.57 z" fill="#5BA5B3"/>
        <path d="M157.388,39.56 C157.473,39.728 157.405,39.932 157.237,40.017 C157.069,40.101 156.865,40.033 156.781,39.866 C156.696,39.698 156.764,39.493 156.932,39.409 C157.1,39.325 157.304,39.392 157.388,39.56 z" fill="#5BA5B3"/>
        <path d="M143.03,56.408 C143.263,56.872 143.075,57.437 142.612,57.67 C142.148,57.903 141.583,57.716 141.35,57.252 C141.117,56.788 141.304,56.223 141.768,55.99 C142.232,55.757 142.797,55.945 143.03,56.408 z" fill="#5BA5B3"/>
      </g>
    </g>
    <g>
      <g>
        <path d="M151.85,35.81 L151.85,35.81 L149.79,35.81 L149.79,35.81 L148.92,33.72 L148.92,33.72 L150.31,32.22 L150.31,32.22 L151.65,32.31 L151.65,32.31 L152.73,33.95 L152.73,33.95 z M149.85,35.68 L151.8,35.68 L152.63,33.88 L151.63,32.31 L150.37,32.23 L149.04,33.67 z" fill="#5BA5B3"/>
        <g>
          <path d="M150.9,44.43 L148.92,38.62 L143.48,32.96 L143.56,32.89 L149.02,38.57 L151.01,44.39 L150.9,44.43 z" fill="#5BA5B3"/>
          <path d="M149.01,33.72 L148.9,33.71 L149.14,29.46 L146.52,28.09 L146.57,27.99 L149.26,29.39 L149.01,33.72 z" fill="#5BA5B3"/>
          <path d="M150.31,32.27 L146.31,31.1 L146.37,31.06 L151.04,27.8 L151.06,27.83 L151.59,28.68 L153.65,29.4 L152.85,24.18 L150.66,21.44 L150.72,21.39 L152.92,24.15 L152.92,24.16 L153.74,29.51 L151.54,28.74 L151.53,28.73 L151.02,27.91 L146.48,31.08 L150.33,32.2 L150.31,32.27 z" fill="#5BA5B3"/>
          <path d="M149.02,38.6 L148.92,38.57 L149.83,35.63 L149.94,35.66 L149.02,38.6 z" fill="#5BA5B3"/>
          <path d="M155.97,25.88 L152.88,24.23 L148.87,25.72 L148.85,25.7 L147,23.86 L147.08,23.78 L148.9,25.59 L152.89,24.11 L152.91,24.12 L156.03,25.78 L155.97,25.88 z" fill="#5BA5B3"/>
          <path d="M147,23.89 L146.93,23.85 L144.81,22.49 L144.87,22.4 L146.91,23.71 L147.5,19.55 L149.83,15.83 L144.88,15.75 L144.88,15.64 L150.03,15.72 L147.61,19.59 L147,23.89 z" fill="#5BA5B3"/>
          <path d="M152.9,24.1 L152.9,24.03 L155.7,23.7 L155.71,23.77 L152.9,24.1 z" fill="#5BA5B3"/>
        </g>
        <g>
          <path d="M155.46,19.94 L152.15,18.65 L152.21,18.58 L154.43,16.48 L154.5,16.56 L152.35,18.6 L155.5,19.83 L155.46,19.94 z" fill="#5BA5B3"/>
          <path d="M149.87,15.96 L150.22,10.31 L152.08,12.89 L152.08,12.89 z M150.31,10.63 L150,15.63 L151.94,12.94 z" fill="#5BA5B3"/>
          <path d="M154.02,37.25 L153.78,32.51 L153.78,32.51 L156.36,29.28 L156.28,29.55 z M153.9,32.55 L154.1,36.55 L156.1,29.74 z" fill="#5BA5B3"/>
          <path d="M153.6,29.54 L153.6,29.54 L146.1,27.93 L155.61,26.93 L155.53,27.03 C154.78,28.03 153.66,29.46 153.61,29.55 z M146.8,27.96 L153.54,29.42 C153.73,29.14 154.96,27.56 155.37,27.03 z" fill="#5BA5B3"/>
        </g>
        <path d="M159.479,10.708 C159.732,10.785 159.875,11.054 159.797,11.307 C159.72,11.561 159.451,11.703 159.198,11.626 C158.944,11.548 158.802,11.28 158.879,11.026 C158.957,10.773 159.225,10.63 159.479,10.708 z" fill="#5BA5B3"/>
        <path d="M156.9,23.248 C157.037,23.29 157.114,23.435 157.072,23.573 C157.03,23.71 156.885,23.787 156.748,23.745 C156.61,23.703 156.533,23.558 156.575,23.42 C156.617,23.283 156.762,23.206 156.9,23.248 z" fill="#5BA5B3"/>
        <path d="M156.426,28.841 C156.7,28.925 156.855,29.216 156.771,29.491 C156.687,29.765 156.396,29.92 156.121,29.836 C155.847,29.752 155.692,29.461 155.776,29.186 C155.86,28.912 156.151,28.757 156.426,28.841 z" fill="#5BA5B3"/>
        <path d="M149.044,25.165 C149.319,25.249 149.474,25.539 149.39,25.814 C149.305,26.089 149.015,26.243 148.74,26.159 C148.466,26.075 148.311,25.784 148.395,25.51 C148.479,25.235 148.77,25.081 149.044,25.165 z" fill="#5BA5B3"/>
        <path d="M154.241,36.456 C154.515,36.54 154.67,36.83 154.586,37.105 C154.502,37.38 154.211,37.534 153.936,37.45 C153.662,37.366 153.507,37.075 153.591,36.801 C153.675,36.526 153.966,36.372 154.241,36.456 z" fill="#5BA5B3"/>
        <path d="M156.241,7.903 C156.496,7.98 156.64,8.248 156.563,8.503 C156.486,8.757 156.217,8.901 155.963,8.824 C155.709,8.747 155.565,8.479 155.641,8.224 C155.718,7.97 155.987,7.826 156.241,7.903 z" fill="#5BA5B3"/>
        <path d="M156.614,20.159 C156.957,20.264 157.15,20.627 157.045,20.971 C156.94,21.314 156.577,21.507 156.233,21.402 C155.89,21.297 155.697,20.934 155.802,20.59 C155.907,20.247 156.27,20.054 156.614,20.159 z" fill="#5BA5B3"/>
        <path d="M147.586,18.921 C147.93,19.026 148.123,19.39 148.018,19.733 C147.913,20.076 147.549,20.269 147.206,20.164 C146.863,20.059 146.67,19.696 146.775,19.353 C146.88,19.009 147.243,18.816 147.586,18.921 z" fill="#5BA5B3"/>
        <path d="M155.623,19.356 C155.909,19.444 156.069,19.745 155.982,20.031 C155.895,20.316 155.593,20.476 155.307,20.389 C155.022,20.302 154.862,20 154.949,19.715 C155.036,19.43 155.338,19.269 155.623,19.356 z" fill="#5BA5B3"/>
        <path d="M155.137,15.919 C155.312,15.971 155.411,16.156 155.358,16.331 C155.305,16.506 155.121,16.605 154.946,16.552 C154.771,16.499 154.672,16.315 154.725,16.14 C154.777,15.965 154.962,15.866 155.137,15.919 z" fill="#5BA5B3"/>
        <path d="M156.655,15.684 C156.755,15.715 156.811,15.821 156.781,15.921 C156.75,16.022 156.644,16.078 156.543,16.047 C156.443,16.017 156.387,15.91 156.417,15.81 C156.448,15.71 156.554,15.653 156.655,15.684 z" fill="#5BA5B3"/>
        <path d="M156.105,25.591 C156.252,25.636 156.336,25.793 156.29,25.941 C156.245,26.089 156.089,26.172 155.941,26.127 C155.793,26.081 155.71,25.925 155.755,25.777 C155.8,25.629 155.957,25.546 156.105,25.591 z" fill="#5BA5B3"/>
        <path d="M146.494,30.83 C146.642,30.875 146.725,31.032 146.68,31.18 C146.635,31.328 146.478,31.411 146.33,31.366 C146.182,31.32 146.099,31.164 146.145,31.016 C146.19,30.868 146.346,30.785 146.494,30.83 z" fill="#5BA5B3"/>
        <path d="M144.863,22.196 C145.011,22.242 145.094,22.398 145.049,22.546 C145.004,22.694 144.847,22.777 144.699,22.732 C144.551,22.687 144.468,22.53 144.513,22.382 C144.559,22.234 144.715,22.151 144.863,22.196 z" fill="#5BA5B3"/>
        <path d="M153.948,32.291 C154.096,32.336 154.18,32.492 154.134,32.64 C154.089,32.788 153.932,32.871 153.785,32.826 C153.637,32.781 153.554,32.624 153.599,32.476 C153.644,32.328 153.801,32.245 153.948,32.291 z" fill="#5BA5B3"/>
        <path d="M151.277,30.218 C151.425,30.263 151.509,30.419 151.465,30.568 C151.42,30.716 151.263,30.8 151.115,30.755 C150.966,30.711 150.882,30.554 150.927,30.405 C150.972,30.257 151.129,30.173 151.277,30.218 z" fill="#5BA5B3"/>
        <path d="M149.889,35.212 C150.137,35.288 150.277,35.551 150.201,35.799 C150.125,36.047 149.862,36.187 149.614,36.111 C149.366,36.035 149.226,35.772 149.302,35.524 C149.378,35.276 149.641,35.136 149.889,35.212 z" fill="#5BA5B3"/>
        <path d="M156.755,13.489 C156.95,13.549 157.06,13.756 157,13.951 C156.941,14.147 156.734,14.257 156.538,14.197 C156.343,14.137 156.233,13.93 156.293,13.735 C156.352,13.539 156.559,13.43 156.755,13.489 z" fill="#5BA5B3"/>
        <path d="M145.048,15.052 C145.397,15.158 145.593,15.527 145.486,15.876 C145.379,16.224 145.01,16.421 144.662,16.314 C144.313,16.207 144.117,15.838 144.224,15.49 C144.33,15.141 144.699,14.945 145.048,15.052 z" fill="#5BA5B3"/>
        <path d="M143.732,32.316 C144.081,32.423 144.277,32.792 144.17,33.141 C144.064,33.489 143.695,33.685 143.346,33.579 C142.997,33.472 142.801,33.103 142.908,32.754 C143.015,32.406 143.384,32.21 143.732,32.316 z" fill="#5BA5B3"/>
        <path d="M151.1,43.56 C151.449,43.666 151.645,44.035 151.538,44.384 C151.432,44.732 151.063,44.928 150.714,44.822 C150.365,44.715 150.169,44.346 150.276,43.998 C150.383,43.649 150.752,43.453 151.1,43.56 z" fill="#5BA5B3"/>
        <path d="M153.152,39.463 C153.5,39.57 153.696,39.939 153.59,40.287 C153.483,40.636 153.114,40.832 152.766,40.725 C152.417,40.619 152.221,40.25 152.328,39.901 C152.434,39.553 152.803,39.357 153.152,39.463 z" fill="#5BA5B3"/>
        <path d="M150.42,9.82 C150.769,9.927 150.965,10.296 150.858,10.644 C150.752,10.993 150.383,11.189 150.034,11.082 C149.685,10.976 149.489,10.607 149.596,10.258 C149.703,9.909 150.072,9.713 150.42,9.82 z" fill="#5BA5B3"/>
        <path d="M152.93,10.459 C153.168,10.532 153.301,10.783 153.229,11.021 C153.156,11.259 152.904,11.392 152.667,11.32 C152.429,11.247 152.295,10.995 152.368,10.758 C152.441,10.52 152.692,10.386 152.93,10.459 z" fill="#5BA5B3"/>
        <path d="M160.433,16.725 C160.777,16.83 160.97,17.193 160.865,17.536 C160.76,17.88 160.396,18.073 160.053,17.968 C159.71,17.862 159.516,17.499 159.622,17.156 C159.727,16.813 160.09,16.619 160.433,16.725 z" fill="#5BA5B3"/>
        <path d="M154.558,16.132 C154.764,16.195 154.88,16.413 154.817,16.619 C154.754,16.825 154.536,16.941 154.33,16.878 C154.124,16.815 154.008,16.597 154.071,16.391 C154.134,16.185 154.352,16.069 154.558,16.132 z" fill="#5BA5B3"/>
        <path d="M152.775,33.515 C152.981,33.578 153.096,33.796 153.033,34.002 C152.97,34.208 152.752,34.324 152.546,34.261 C152.34,34.198 152.225,33.98 152.288,33.774 C152.351,33.568 152.569,33.452 152.775,33.515 z" fill="#5BA5B3"/>
        <path d="M153.651,29.233 C153.793,29.276 153.873,29.427 153.83,29.57 C153.786,29.712 153.635,29.793 153.492,29.749 C153.35,29.705 153.27,29.554 153.313,29.412 C153.357,29.269 153.508,29.189 153.651,29.233 z" fill="#5BA5B3"/>
        <path d="M148.921,38.321 C149.064,38.365 149.144,38.516 149.101,38.658 C149.057,38.801 148.906,38.881 148.763,38.838 C148.621,38.794 148.541,38.643 148.584,38.5 C148.628,38.358 148.779,38.278 148.921,38.321 z" fill="#5BA5B3"/>
        <path d="M158.706,13.447 C158.848,13.491 158.929,13.642 158.885,13.784 C158.841,13.927 158.69,14.007 158.548,13.964 C158.405,13.92 158.325,13.769 158.369,13.627 C158.412,13.484 158.563,13.404 158.706,13.447 z" fill="#5BA5B3"/>
        <path d="M155.038,8.819 C155.181,8.863 155.261,9.013 155.218,9.156 C155.174,9.299 155.023,9.379 154.88,9.335 C154.738,9.292 154.658,9.141 154.701,8.998 C154.745,8.855 154.896,8.775 155.038,8.819 z" fill="#5BA5B3"/>
        <path d="M146.52,27.677 C146.663,27.721 146.743,27.872 146.699,28.015 C146.656,28.157 146.505,28.237 146.362,28.194 C146.22,28.15 146.139,27.999 146.183,27.857 C146.227,27.714 146.378,27.634 146.52,27.677 z" fill="#5BA5B3"/>
        <path d="M149.277,29.17 C149.42,29.214 149.5,29.365 149.456,29.507 C149.413,29.65 149.262,29.73 149.119,29.687 C148.976,29.643 148.896,29.492 148.94,29.349 C148.983,29.207 149.134,29.127 149.277,29.17 z" fill="#5BA5B3"/>
        <path d="M150.783,21.175 C150.925,21.219 151.006,21.37 150.962,21.512 C150.918,21.655 150.767,21.735 150.625,21.691 C150.482,21.648 150.402,21.497 150.446,21.354 C150.489,21.212 150.64,21.131 150.783,21.175 z" fill="#5BA5B3"/>
        <path d="M150.885,33.801 C151.027,33.845 151.107,33.995 151.064,34.138 C151.02,34.281 150.869,34.361 150.727,34.317 C150.584,34.274 150.504,34.123 150.547,33.98 C150.591,33.837 150.742,33.757 150.885,33.801 z" fill="#5BA5B3"/>
        <path d="M152.212,12.171 C152.608,12.293 152.831,12.712 152.71,13.108 C152.589,13.504 152.169,13.727 151.773,13.606 C151.377,13.485 151.154,13.065 151.276,12.669 C151.397,12.273 151.816,12.05 152.212,12.171 z" fill="#5BA5B3"/>
        <path d="M150.128,15.05 C150.524,15.171 150.747,15.59 150.626,15.987 C150.505,16.383 150.085,16.605 149.689,16.484 C149.293,16.363 149.07,15.944 149.192,15.548 C149.313,15.152 149.732,14.929 150.128,15.05 z" fill="#5BA5B3"/>
        <path d="M153.032,14.987 C153.211,15.042 153.312,15.232 153.257,15.411 C153.202,15.591 153.012,15.692 152.833,15.637 C152.653,15.582 152.552,15.392 152.607,15.212 C152.662,15.033 152.852,14.932 153.032,14.987 z" fill="#5BA5B3"/>
        <path d="M152.776,16.585 C153.045,16.667 153.197,16.952 153.114,17.221 C153.032,17.491 152.747,17.642 152.477,17.56 C152.208,17.478 152.057,17.192 152.139,16.923 C152.221,16.654 152.507,16.502 152.776,16.585 z" fill="#5BA5B3"/>
        <path d="M155.422,26.397 C155.692,26.48 155.843,26.765 155.761,27.034 C155.678,27.304 155.393,27.455 155.124,27.373 C154.855,27.29 154.703,27.005 154.786,26.736 C154.868,26.467 155.153,26.315 155.422,26.397 z" fill="#5BA5B3"/>
        <path d="M153.899,31.26 C154.094,31.32 154.204,31.526 154.144,31.722 C154.084,31.917 153.878,32.027 153.682,31.967 C153.487,31.908 153.377,31.701 153.437,31.505 C153.496,31.31 153.703,31.2 153.899,31.26 z" fill="#5BA5B3"/>
        <path d="M149.053,33.497 C149.185,33.537 149.259,33.677 149.219,33.809 C149.178,33.941 149.039,34.015 148.907,33.975 C148.775,33.934 148.7,33.795 148.741,33.663 C148.781,33.531 148.921,33.456 149.053,33.497 z" fill="#5BA5B3"/>
        <path d="M151.888,35.525 C152.015,35.564 152.086,35.698 152.047,35.825 C152.008,35.952 151.874,36.023 151.747,35.984 C151.621,35.945 151.549,35.811 151.588,35.685 C151.627,35.558 151.761,35.486 151.888,35.525 z" fill="#5BA5B3"/>
        <path d="M150.426,31.859 C150.627,31.921 150.74,32.133 150.679,32.334 C150.617,32.535 150.405,32.647 150.204,32.586 C150.003,32.525 149.89,32.312 149.952,32.112 C150.013,31.911 150.226,31.798 150.426,31.859 z" fill="#5BA5B3"/>
        <path d="M155.78,23.365 C155.975,23.425 156.085,23.631 156.025,23.827 C155.965,24.022 155.759,24.132 155.563,24.072 C155.368,24.013 155.258,23.806 155.318,23.61 C155.377,23.415 155.584,23.305 155.78,23.365 z" fill="#5BA5B3"/>
        <path d="M151.133,27.486 C151.329,27.546 151.439,27.752 151.379,27.948 C151.319,28.143 151.112,28.253 150.917,28.193 C150.721,28.134 150.611,27.927 150.671,27.731 C150.731,27.536 150.938,27.426 151.133,27.486 z" fill="#5BA5B3"/>
        <path d="M153.531,37.599 C153.689,37.647 153.779,37.815 153.73,37.973 C153.682,38.132 153.514,38.221 153.356,38.172 C153.197,38.124 153.108,37.956 153.156,37.798 C153.205,37.639 153.373,37.55 153.531,37.599 z" fill="#5BA5B3"/>
        <path d="M151.651,28.425 C151.809,28.473 151.898,28.641 151.85,28.799 C151.801,28.958 151.634,29.047 151.475,28.998 C151.317,28.95 151.227,28.782 151.276,28.624 C151.324,28.465 151.492,28.376 151.651,28.425 z" fill="#5BA5B3"/>
        <path d="M152.411,18.039 C152.733,18.138 152.915,18.479 152.816,18.801 C152.717,19.123 152.376,19.304 152.054,19.206 C151.732,19.107 151.551,18.766 151.649,18.444 C151.748,18.122 152.089,17.94 152.411,18.039 z" fill="#5BA5B3"/>
        <path d="M158.504,21.895 C158.826,21.993 159.007,22.334 158.909,22.656 C158.81,22.979 158.469,23.16 158.147,23.061 C157.825,22.963 157.644,22.622 157.742,22.3 C157.841,21.977 158.182,21.796 158.504,21.895 z" fill="#5BA5B3"/>
        <path d="M153.056,23.578 C153.378,23.676 153.559,24.017 153.461,24.339 C153.362,24.662 153.021,24.843 152.699,24.744 C152.377,24.646 152.196,24.305 152.294,23.983 C152.393,23.66 152.734,23.479 153.056,23.578 z" fill="#5BA5B3"/>
        <path d="M151.104,18.9 C151.215,18.934 151.277,19.052 151.243,19.163 C151.21,19.274 151.092,19.336 150.981,19.302 C150.87,19.268 150.808,19.151 150.842,19.04 C150.876,18.929 150.993,18.866 151.104,18.9 z" fill="#5BA5B3"/>
        <path d="M146.5,21.773 C146.611,21.807 146.674,21.924 146.641,22.036 C146.607,22.147 146.489,22.21 146.378,22.176 C146.267,22.143 146.204,22.025 146.237,21.914 C146.271,21.803 146.389,21.74 146.5,21.773 z" fill="#5BA5B3"/>
        <path d="M155.711,12.72 C156.007,12.81 156.174,13.124 156.083,13.419 C155.993,13.715 155.679,13.881 155.384,13.791 C155.088,13.7 154.922,13.387 155.012,13.092 C155.103,12.796 155.416,12.629 155.711,12.72 z" fill="#5BA5B3"/>
      </g>
      <g>
        <path d="M135.98,24.68 L133.53,22.58 L133.67,20.37 L136.41,18.42 L139.63,20.28 L139.23,23.65 z M133.72,22.5 L136.02,24.5 L139.08,23.5 L139.45,20.37 L136.45,18.62 L133.87,20.45 z" fill="#5BA5B3"/>
        <path d="M139.4,20.55 L139.37,20.37 L144.28,19.51 L144.31,19.69 L139.4,20.55 z" fill="#5BA5B3"/>
        <path d="M127.82,29.57 L133.56,26.07 L133.56,26.07 L141.08,27.42 z M133.6,26.26 L128.7,29.26 L140.05,27.43 z" fill="#5BA5B3"/>
        <path d="M118.869,28.966 C118.909,29.2 118.751,29.422 118.517,29.462 C118.283,29.502 118.061,29.344 118.021,29.11 C117.981,28.876 118.139,28.654 118.373,28.614 C118.607,28.574 118.829,28.731 118.869,28.966 z" fill="#5BA5B3"/>
        <path d="M128.733,29.223 C128.811,29.681 128.503,30.114 128.046,30.192 C127.588,30.27 127.154,29.962 127.077,29.505 C126.999,29.048 127.306,28.614 127.764,28.536 C128.221,28.458 128.655,28.766 128.733,29.223 z" fill="#5BA5B3"/>
        <path d="M141.408,27.275 C141.485,27.732 141.178,28.166 140.72,28.244 C140.263,28.322 139.829,28.014 139.751,27.557 C139.674,27.099 139.981,26.665 140.439,26.588 C140.896,26.51 141.33,26.817 141.408,27.275 z" fill="#5BA5B3"/>
        <path d="M124.627,27.926 C124.669,28.172 124.504,28.405 124.258,28.448 C124.012,28.49 123.778,28.325 123.736,28.079 C123.694,27.833 123.859,27.599 124.105,27.557 C124.351,27.514 124.585,27.68 124.627,27.926 z" fill="#5BA5B3"/>
        <path d="M134.021,26.103 C134.063,26.348 133.898,26.58 133.653,26.622 C133.408,26.663 133.175,26.499 133.134,26.254 C133.092,26.009 133.257,25.776 133.502,25.734 C133.747,25.693 133.979,25.858 134.021,26.103 z" fill="#5BA5B3"/>
        <path d="M135.912,22.16 C135.954,22.406 135.789,22.64 135.543,22.682 C135.297,22.725 135.063,22.559 135.021,22.313 C134.979,22.067 135.144,21.834 135.39,21.791 C135.636,21.749 135.87,21.914 135.912,22.16 z" fill="#5BA5B3"/>
        <path d="M142.06,19.869 C142.131,20.284 141.852,20.679 141.436,20.751 C141.021,20.822 140.626,20.543 140.555,20.127 C140.484,19.712 140.763,19.317 141.178,19.246 C141.594,19.174 141.988,19.453 142.06,19.869 z" fill="#5BA5B3"/>
        <path d="M153.969,23.725 C154.068,24.308 153.676,24.86 153.093,24.96 C152.511,25.059 151.958,24.667 151.859,24.084 C151.76,23.502 152.152,22.949 152.734,22.85 C153.317,22.751 153.869,23.143 153.969,23.725 z" fill="#5BA5B3"/>
        <path d="M146.979,26.173 C147.078,26.756 146.686,27.309 146.104,27.408 C145.521,27.507 144.968,27.115 144.869,26.533 C144.77,25.95 145.162,25.397 145.744,25.298 C146.327,25.199 146.88,25.591 146.979,26.173 z" fill="#5BA5B3"/>
        <path d="M108.877,33.089 C108.973,33.655 108.592,34.192 108.026,34.289 C107.46,34.385 106.923,34.004 106.826,33.438 C106.73,32.872 107.111,32.335 107.677,32.238 C108.243,32.142 108.781,32.523 108.877,33.089 z" fill="#5BA5B3"/>
        <path d="M136.617,24.469 C136.676,24.812 136.445,25.137 136.102,25.196 C135.759,25.254 135.433,25.023 135.375,24.68 C135.317,24.337 135.547,24.012 135.89,23.953 C136.233,23.895 136.559,24.126 136.617,24.469 z" fill="#5BA5B3"/>
        <path d="M129.157,25.06 C129.198,25.3 129.037,25.527 128.797,25.568 C128.558,25.608 128.33,25.447 128.29,25.208 C128.249,24.968 128.41,24.741 128.65,24.7 C128.889,24.659 129.116,24.821 129.157,25.06 z" fill="#5BA5B3"/>
        <path d="M144.741,19.32 C144.782,19.559 144.621,19.787 144.381,19.827 C144.142,19.868 143.914,19.707 143.874,19.468 C143.833,19.228 143.994,19.001 144.234,18.96 C144.473,18.919 144.7,19.08 144.741,19.32 z" fill="#5BA5B3"/>
        <path d="M137.084,21.552 C137.125,21.791 136.963,22.019 136.724,22.06 C136.484,22.1 136.257,21.939 136.216,21.7 C136.176,21.46 136.337,21.233 136.576,21.192 C136.816,21.151 137.043,21.312 137.084,21.552 z" fill="#5BA5B3"/>
        <path d="M125.035,27.193 C125.111,27.645 124.807,28.073 124.356,28.15 C123.904,28.227 123.475,27.923 123.398,27.471 C123.321,27.019 123.625,26.591 124.077,26.514 C124.529,26.437 124.958,26.741 125.035,27.193 z" fill="#5BA5B3"/>
        <path d="M132.707,25.826 C132.763,26.153 132.543,26.462 132.217,26.518 C131.89,26.574 131.58,26.354 131.525,26.027 C131.469,25.701 131.689,25.391 132.015,25.335 C132.342,25.28 132.652,25.499 132.707,25.826 z" fill="#5BA5B3"/>
        <path d="M136.883,18.537 C136.921,18.76 136.771,18.972 136.548,19.01 C136.324,19.048 136.113,18.897 136.075,18.674 C136.037,18.451 136.187,18.239 136.41,18.201 C136.634,18.163 136.845,18.313 136.883,18.537 z" fill="#5BA5B3"/>
        <path d="M139.526,23.543 C139.561,23.75 139.422,23.946 139.215,23.982 C139.008,24.017 138.812,23.878 138.776,23.671 C138.741,23.464 138.88,23.268 139.087,23.232 C139.294,23.197 139.49,23.336 139.526,23.543 z" fill="#5BA5B3"/>
        <path d="M134.437,20.353 C134.494,20.691 134.267,21.011 133.93,21.068 C133.592,21.126 133.272,20.899 133.214,20.561 C133.157,20.224 133.384,19.903 133.722,19.846 C134.059,19.788 134.379,20.015 134.437,20.353 z" fill="#5BA5B3"/>
        <path d="M142.739,26.592 C142.784,26.854 142.608,27.102 142.347,27.146 C142.085,27.191 141.838,27.015 141.793,26.753 C141.749,26.492 141.924,26.244 142.186,26.2 C142.447,26.155 142.695,26.331 142.739,26.592 z" fill="#5BA5B3"/>
        <path d="M128.374,21.614 C128.419,21.875 128.243,22.123 127.982,22.167 C127.72,22.212 127.472,22.036 127.428,21.775 C127.383,21.513 127.559,21.266 127.821,21.221 C128.082,21.177 128.33,21.352 128.374,21.614 z" fill="#5BA5B3"/>
        <path d="M117.476,31.144 C117.568,31.683 117.205,32.194 116.666,32.286 C116.127,32.377 115.616,32.015 115.524,31.476 C115.432,30.937 115.795,30.425 116.334,30.334 C116.873,30.242 117.384,30.605 117.476,31.144 z" fill="#5BA5B3"/>
      </g>
    </g>
    <g>
      <path d="M105.36,50.2 L105.28,50.2 L99.7,49.43 L98.1,43.99 L102.89,39.99 L107.96,42.43 L107.96,42.5 L108.8,46.04 z M99.93,49.2 L105.24,49.93 L108.48,46.02 L107.69,42.7 L102.93,40.41 L98.44,44.14 z" fill="#2D7174"/>
      <path d="M98.76,56.34 L95.63,55.34 L89.52,55.76 L89.52,55.46 L95.68,55.04 L95.68,55.04 L98.68,55.99 C101.44,53.17 104.77,49.88 105.29,49.88 L105.29,49.88 C105.69,50.01 109.18,51.57 109.7,51.81 L111.94,50.81 L112.01,50.81 L119.73,55.36 L125.42,51.05 L128.65,51.89 L133.89,49.48 L135.42,52.27 L142.22,49.01 L143.76,45.93 L148.51,44.81 L151.67,40.5 L155.11,45.8 L156.8,46.45 L160.04,44.29 L161.04,40.88 L169.88,41.2 L178.13,44.58 L178.02,44.86 L169.79,41.5 L161.26,41.2 L160.26,44.49 L156.8,46.79 L154.87,46.05 L154.87,46.05 L151.64,41.05 L148.64,45.1 L143.91,46.21 L142.39,49.26 L135.24,52.69 L133.71,49.9 L128.63,52.23 L125.44,51.4 L119.7,55.74 L119.61,55.69 L111.87,51.13 L109.65,52.13 L109.59,52.13 C109.59,52.13 105.69,50.38 105.17,50.19 C104.66,50.37 100.97,54 98.75,56.28 z" fill="#2D7174"/>
      <path d="M174.15,50.05 L172.34,47.46 L169.45,49.48 L169.28,49.23 L172.41,47.04 L174.18,49.56 L178.41,44.65 L183.65,42.36 L184.56,37.14 L187.66,35.9 L183.8,27.69 L188.13,24.4 L187.91,19.06 L188.11,10.35 L182.75,14.38 L175.5,14.25 L171.94,23.02 L164.15,25.35 L165.12,32.28 L159.14,31.84 L153.65,36.1 L153.61,36.1 L148.78,36.81 L144.53,37.37 L142.16,34.15 L142.4,33.97 L144.66,37.05 L148.74,36.51 L153.53,35.81 L159.05,31.53 L164.77,31.96 L163.82,25.13 L171.71,22.78 L175.3,13.94 L182.65,14.08 L188.42,9.74 L188.21,19.06 L188.43,24.54 L188.37,24.59 L184.18,27.78 L188.07,36.06 L184.82,37.36 L183.91,42.57 L178.56,44.91 L174.15,50.05 z" fill="#2D7174"/>
      <g>
        <path d="M76.81,54.04 L76.63,53.8 L90.11,44.06 L100.43,25.51 L100.69,25.66 L90.31,44.29 L76.81,54.04 z" fill="#2D7174"/>
        <path d="M102.84,40.43 L102.77,40.13 L113.98,37.38 L115.45,29.51 L115.74,29.57 L114.24,37.63 L102.84,40.43 z" fill="#2D7174"/>
        <path d="M117.49,49.33 L117.74,43.03 L117.76,43 L119.48,41.02 L107.68,31.77 L107.82,42.65 L107.62,42.65 L107.47,31.35 L107.64,31.48 L119.77,41 L117.94,43.1 L117.7,49.01 L130.57,42.81 L135.93,34.97 L136.09,35.09 L130.7,42.97 L130.68,42.98 L117.49,49.33 z" fill="#5BA5B3"/>
        <path d="M98.56,44.36 L90.22,44.32 L90.22,44.02 L98.56,44.05 L98.56,44.36 z" fill="#2D7174"/>
        <path d="M128.94,52.29 L128.65,52.23 L130.47,42.93 L123.43,33.74 L123.48,33.65 L126.75,27.41 L127.02,27.55 L123.79,33.71 L130.8,42.85 L130.78,42.92 L128.94,52.29 z" fill="#2D7174"/>
        <path d="M150.23,28.8 L138.29,25.6 L126.68,27.44 L128.58,20.67 L128.87,20.75 L127.1,27.07 L138.3,25.3 L138.33,25.3 L149.79,28.38 L146.07,15.5 L146.36,15.42 L150.23,28.8 z" fill="#2D7174"/>
        <path d="M181,23.4 L180.73,23.16 L165.37,9.17 L165.57,8.95 L180.67,22.69 L179.86,7.36 L180.16,7.34 L181,23.4 z" fill="#2D7174"/>
        <path d="M133.89,49.89 L130.82,42.88 L131,42.8 L134.07,49.81 L133.89,49.89 z" fill="#5BA5B3"/>
        <path d="M154.17,56.61 L154.1,56.61 L139.29,55.8 L139.29,55.5 L154.04,56.3 L162.17,49.3 L162.24,49.3 L189.34,53.63 C188.4,52.63 185.34,49.63 183.18,47.49 L183.18,47.43 L178.03,31.74 L171.35,36.41 L171.27,36.36 L165.15,32.36 L165.31,32.11 L171.31,36.01 L178.16,31.23 L178.22,31.42 L183.43,47.27 C184.18,48.02 189.7,53.46 189.88,53.73 L190.1,54.04 L162.3,49.6 z" fill="#2D7174"/>
      </g>
      <g>
        <path d="M143.92,46.23 L143.62,46.21 L144.34,36.61 L151.74,40.79 L151.59,41.05 L144.6,37.1 L143.92,46.23 z" fill="#2D7174"/>
        <path d="M159.15,31.86 L159.05,31.86 L149.47,28.59 L164.36,25.04 z M150.55,28.61 L159.05,31.51 L163.62,25.51 z" fill="#2D7174"/>
        <path d="M178.1,31.71 L163,24.96 L184.41,27.63 z M164.95,25.51 L178.1,31.37 L183.58,27.83 z" fill="#2D7174"/>
        <path d="M162.1,49.67 L161.01,41.04 L171.46,36.04 L172.53,47.37 z M161.32,41.2 L162.32,49.31 L172.16,47.14 L171.16,36.5 z" fill="#2D7174"/>
        <path d="M97.67,56.18 L109.74,51.82 L109.79,51.82 L120.18,55.95 z M109.73,52.18 L99.43,55.9 L118.65,55.72 z" fill="#2D7174"/>
        <path d="M125.76,52.11 L125.43,51.99 C122.34,50.82 117.65,49.07 117.43,48.99 L117.32,48.99 L117.32,48.88 L115.59,28.33 z M117.56,48.75 C118.44,49.03 123.5,50.94 125.2,51.58 L115.99,30.15 z" fill="#2D7174"/>
      </g>
      <path d="M192.33,9.55 C192.33,11.908 190.418,13.82 188.06,13.82 C185.702,13.82 183.79,11.908 183.79,9.55 C183.79,7.192 185.702,5.28 188.06,5.28 C190.418,5.28 192.33,7.192 192.33,9.55 z" fill="#2D7174"/>
      <path d="M190.14,19.05 C190.14,20.199 189.209,21.13 188.06,21.13 C186.911,21.13 185.98,20.199 185.98,19.05 C185.98,17.901 186.911,16.97 188.06,16.97 C189.209,16.97 190.14,17.901 190.14,19.05 z" fill="#2D7174"/>
      <path d="M185.29,27.73 C185.29,28.448 184.708,29.03 183.99,29.03 C183.272,29.03 182.69,28.448 182.69,27.73 C182.69,27.012 183.272,26.43 183.99,26.43 C184.708,26.43 185.29,27.012 185.29,27.73 z" fill="#2D7174"/>
      <path d="M189.17,35.98 C189.17,36.698 188.588,37.28 187.87,37.28 C187.152,37.28 186.57,36.698 186.57,35.98 C186.57,35.262 187.152,34.68 187.87,34.68 C188.588,34.68 189.17,35.262 189.17,35.98 z" fill="#2D7174"/>
      <path d="M170.67,49.36 C170.67,50.078 170.088,50.66 169.37,50.66 C168.652,50.66 168.07,50.078 168.07,49.36 C168.07,48.642 168.652,48.06 169.37,48.06 C170.088,48.06 170.67,48.642 170.67,49.36 z" fill="#2D7174"/>
      <path d="M136.2,52.48 C136.2,52.872 135.882,53.19 135.49,53.19 C135.098,53.19 134.78,52.872 134.78,52.48 C134.78,52.088 135.098,51.77 135.49,51.77 C135.882,51.77 136.2,52.088 136.2,52.48 z" fill="#2D7174"/>
      <path d="M121.37,55.67 C121.37,56.443 120.743,57.07 119.97,57.07 C119.197,57.07 118.57,56.443 118.57,55.67 C118.57,54.897 119.197,54.27 119.97,54.27 C120.743,54.27 121.37,54.897 121.37,55.67 z" fill="#2D7174"/>
      <path d="M125.01,33.72 C125.01,34.493 124.383,35.12 123.61,35.12 C122.837,35.12 122.21,34.493 122.21,33.72 C122.21,32.947 122.837,32.32 123.61,32.32 C124.383,32.32 125.01,32.947 125.01,33.72 z" fill="#2D7174"/>
      <path d="M99.94,56.03 C99.94,56.803 99.313,57.43 98.54,57.43 C97.767,57.43 97.14,56.803 97.14,56.03 C97.14,55.257 97.767,54.63 98.54,54.63 C99.313,54.63 99.94,55.257 99.94,56.03 z" fill="#2D7174"/>
      <path d="M171.17,41.48 C171.17,42.198 170.588,42.78 169.87,42.78 C169.152,42.78 168.57,42.198 168.57,41.48 C168.57,40.762 169.152,40.18 169.87,40.18 C170.588,40.18 171.17,40.762 171.17,41.48 z" fill="#2D7174"/>
      <path d="M143.95,49.39 C143.95,50.362 143.162,51.15 142.19,51.15 C141.218,51.15 140.43,50.362 140.43,49.39 C140.43,48.418 141.218,47.63 142.19,47.63 C143.162,47.63 143.95,48.418 143.95,49.39 z" fill="#2D7174"/>
      <path d="M139.99,25.05 C139.99,26.022 139.202,26.81 138.23,26.81 C137.258,26.81 136.47,26.022 136.47,25.05 C136.47,24.078 137.258,23.29 138.23,23.29 C139.202,23.29 139.99,24.078 139.99,25.05 z" fill="#2D7174"/>
      <path d="M145.22,46.22 C145.22,47.021 144.571,47.67 143.77,47.67 C142.969,47.67 142.32,47.021 142.32,46.22 C142.32,45.419 142.969,44.77 143.77,44.77 C144.571,44.77 145.22,45.419 145.22,46.22 z" fill="#1F383D"/>
      <path d="M149.46,45.05 C149.46,45.547 149.057,45.95 148.56,45.95 C148.063,45.95 147.66,45.547 147.66,45.05 C147.66,44.553 148.063,44.15 148.56,44.15 C149.057,44.15 149.46,44.553 149.46,45.05 z" fill="#2D7174"/>
      <path d="M155.59,45.95 C155.59,46.237 155.357,46.47 155.07,46.47 C154.783,46.47 154.55,46.237 154.55,45.95 C154.55,45.663 154.783,45.43 155.07,45.43 C155.357,45.43 155.59,45.663 155.59,45.95 z" fill="#2D7174"/>
      <path d="M129.54,52.26 C129.54,52.674 129.204,53.01 128.79,53.01 C128.376,53.01 128.04,52.674 128.04,52.26 C128.04,51.846 128.376,51.51 128.79,51.51 C129.204,51.51 129.54,51.846 129.54,52.26 z" fill="#2D7174"/>
      <path d="M108.33,31.56 C108.33,31.974 107.994,32.31 107.58,32.31 C107.166,32.31 106.83,31.974 106.83,31.56 C106.83,31.146 107.166,30.81 107.58,30.81 C107.994,30.81 108.33,31.146 108.33,31.56 z" fill="#2D7174"/>
      <path d="M129.41,20.49 C129.41,20.904 129.074,21.24 128.66,21.24 C128.246,21.24 127.91,20.904 127.91,20.49 C127.91,20.076 128.246,19.74 128.66,19.74 C129.074,19.74 129.41,20.076 129.41,20.49 z" fill="#2D7174"/>
      <path d="M110.48,51.98 C110.48,52.394 110.144,52.73 109.73,52.73 C109.316,52.73 108.98,52.394 108.98,51.98 C108.98,51.566 109.316,51.23 109.73,51.23 C110.144,51.23 110.48,51.566 110.48,51.98 z" fill="#2D7174"/>
      <path d="M109.38,45.98 C109.38,46.394 109.044,46.73 108.63,46.73 C108.216,46.73 107.88,46.394 107.88,45.98 C107.88,45.566 108.216,45.23 108.63,45.23 C109.044,45.23 109.38,45.566 109.38,45.98 z" fill="#2D7174"/>
      <path d="M99.68,43.93 C99.68,44.637 99.107,45.21 98.4,45.21 C97.693,45.21 97.12,44.637 97.12,43.93 C97.12,43.223 97.693,42.65 98.4,42.65 C99.107,42.65 99.68,43.223 99.68,43.93 z" fill="#2D7174"/>
      <path d="M184.36,14.23 C184.36,15.147 183.617,15.89 182.7,15.89 C181.783,15.89 181.04,15.147 181.04,14.23 C181.04,13.313 181.783,12.57 182.7,12.57 C183.617,12.57 184.36,13.313 184.36,14.23 z" fill="#5BA5B3"/>
      <path d="M179.19,14.09 C179.19,16.183 177.493,17.88 175.4,17.88 C173.307,17.88 171.61,16.183 171.61,14.09 C171.61,11.997 173.307,10.3 175.4,10.3 C177.493,10.3 179.19,11.997 179.19,14.09 z" fill="#2D7174"/>
      <path d="M190.4,24.47 C190.4,25.641 189.451,26.59 188.28,26.59 C187.109,26.59 186.16,25.641 186.16,24.47 C186.16,23.299 187.109,22.35 188.28,22.35 C189.451,22.35 190.4,23.299 190.4,24.47 z" fill="#2D7174"/>
      <path d="M185.15,42.47 C185.15,43.227 184.537,43.84 183.78,43.84 C183.023,43.84 182.41,43.227 182.41,42.47 C182.41,41.713 183.023,41.1 183.78,41.1 C184.537,41.1 185.15,41.713 185.15,42.47 z" fill="#2D7174"/>
      <path d="M173.32,47.25 C173.32,47.775 172.895,48.2 172.37,48.2 C171.845,48.2 171.42,47.775 171.42,47.25 C171.42,46.725 171.845,46.3 172.37,46.3 C172.895,46.3 173.32,46.725 173.32,47.25 z" fill="#1F383D"/>
      <path d="M190.54,53.62 C190.54,54.145 190.115,54.57 189.59,54.57 C189.065,54.57 188.64,54.145 188.64,53.62 C188.64,53.095 189.065,52.67 189.59,52.67 C190.115,52.67 190.54,53.095 190.54,53.62 z" fill="#1F383D"/>
      <path d="M161.35,44.42 C161.35,44.972 160.902,45.42 160.35,45.42 C159.798,45.42 159.35,44.972 159.35,44.42 C159.35,43.868 159.798,43.42 160.35,43.42 C160.902,43.42 161.35,43.868 161.35,44.42 z" fill="#2D7174"/>
      <path d="M173.63,22.9 C173.63,23.894 172.824,24.7 171.83,24.7 C170.836,24.7 170.03,23.894 170.03,22.9 C170.03,21.906 170.836,21.1 171.83,21.1 C172.824,21.1 173.63,21.906 173.63,22.9 z" fill="#5BA5B3"/>
      <path d="M148.01,15.46 C148.01,16.454 147.204,17.26 146.21,17.26 C145.216,17.26 144.41,16.454 144.41,15.46 C144.41,14.466 145.216,13.66 146.21,13.66 C147.204,13.66 148.01,14.466 148.01,15.46 z" fill="#5BA5B3"/>
      <path d="M102.36,25.59 C102.36,26.584 101.554,27.39 100.56,27.39 C99.566,27.39 98.76,26.584 98.76,25.59 C98.76,24.596 99.566,23.79 100.56,23.79 C101.554,23.79 102.36,24.596 102.36,25.59 z" fill="#5BA5B3"/>
      <path d="M79.02,53.68 C79.02,54.674 78.214,55.48 77.22,55.48 C76.226,55.48 75.42,54.674 75.42,53.68 C75.42,52.686 76.226,51.88 77.22,51.88 C78.214,51.88 79.02,52.686 79.02,53.68 z" fill="#5BA5B3"/>
      <path d="M91.23,55.77 C91.23,56.764 90.424,57.57 89.43,57.57 C88.436,57.57 87.63,56.764 87.63,55.77 C87.63,54.776 88.436,53.97 89.43,53.97 C90.424,53.97 91.23,54.776 91.23,55.77 z" fill="#2D7174"/>
      <path d="M165.78,25.24 C165.78,26.234 164.974,27.04 163.98,27.04 C162.986,27.04 162.18,26.234 162.18,25.24 C162.18,24.246 162.986,23.44 163.98,23.44 C164.974,23.44 165.78,24.246 165.78,25.24 z" fill="#2D7174"/>
      <path d="M166.18,32.12 C166.18,32.799 165.629,33.35 164.95,33.35 C164.271,33.35 163.72,32.799 163.72,32.12 C163.72,31.441 164.271,30.89 164.95,30.89 C165.629,30.89 166.18,31.441 166.18,32.12 z" fill="#1F383D"/>
      <path d="M186.44,37.25 C186.44,38.216 185.656,39 184.69,39 C183.723,39 182.94,38.216 182.94,37.25 C182.94,36.284 183.723,35.5 184.69,35.5 C185.656,35.5 186.44,36.284 186.44,37.25 z" fill="#1F383D"/>
      <path d="M155.87,56.46 C155.87,57.426 155.086,58.21 154.12,58.21 C153.153,58.21 152.37,57.426 152.37,56.46 C152.37,55.494 153.153,54.71 154.12,54.71 C155.086,54.71 155.87,55.494 155.87,56.46 z" fill="#1F383D"/>
      <path d="M152.72,40.92 C152.72,41.5 152.25,41.97 151.67,41.97 C151.09,41.97 150.62,41.5 150.62,40.92 C150.62,40.34 151.09,39.87 151.67,39.87 C152.25,39.87 152.72,40.34 152.72,40.92 z" fill="#1F383D"/>
      <path d="M106.34,50.04 C106.34,50.62 105.87,51.09 105.29,51.09 C104.71,51.09 104.24,50.62 104.24,50.04 C104.24,49.46 104.71,48.99 105.29,48.99 C105.87,48.99 106.34,49.46 106.34,50.04 z" fill="#1F383D"/>
      <path d="M175.02,49.77 C175.02,50.179 174.689,50.51 174.28,50.51 C173.871,50.51 173.54,50.179 173.54,49.77 C173.54,49.361 173.871,49.03 174.28,49.03 C174.689,49.03 175.02,49.361 175.02,49.77 z" fill="#1F383D"/>
      <path d="M181.57,23.05 C181.57,23.459 181.239,23.79 180.83,23.79 C180.421,23.79 180.09,23.459 180.09,23.05 C180.09,22.641 180.421,22.31 180.83,22.31 C181.239,22.31 181.57,22.641 181.57,23.05 z" fill="#1F383D"/>
      <path d="M166.29,8.79 C166.29,9.199 165.959,9.53 165.55,9.53 C165.141,9.53 164.81,9.199 164.81,8.79 C164.81,8.381 165.141,8.05 165.55,8.05 C165.959,8.05 166.29,8.381 166.29,8.79 z" fill="#1F383D"/>
      <path d="M118.16,48.87 C118.16,49.279 117.829,49.61 117.42,49.61 C117.011,49.61 116.68,49.279 116.68,48.87 C116.68,48.461 117.011,48.13 117.42,48.13 C117.829,48.13 118.16,48.461 118.16,48.87 z" fill="#1F383D"/>
      <path d="M90.89,43.83 C90.89,44.239 90.559,44.57 90.15,44.57 C89.741,44.57 89.41,44.239 89.41,43.83 C89.41,43.421 89.741,43.09 90.15,43.09 C90.559,43.09 90.89,43.421 90.89,43.83 z" fill="#1F383D"/>
      <path d="M162.98,49.49 C162.98,49.899 162.649,50.23 162.24,50.23 C161.831,50.23 161.5,49.899 161.5,49.49 C161.5,49.081 161.831,48.75 162.24,48.75 C162.649,48.75 162.98,49.081 162.98,49.49 z" fill="#1F383D"/>
      <path d="M184.05,47.42 C184.05,47.829 183.719,48.16 183.31,48.16 C182.901,48.16 182.57,47.829 182.57,47.42 C182.57,47.011 182.901,46.68 183.31,46.68 C183.719,46.68 184.05,47.011 184.05,47.42 z" fill="#1F383D"/>
      <path d="M172.07,36.27 C172.07,36.679 171.739,37.01 171.33,37.01 C170.921,37.01 170.59,36.679 170.59,36.27 C170.59,35.861 170.921,35.53 171.33,35.53 C171.739,35.53 172.07,35.861 172.07,36.27 z" fill="#1F383D"/>
      <path d="M116.5,29.24 C116.5,29.649 116.169,29.98 115.76,29.98 C115.351,29.98 115.02,29.649 115.02,29.24 C115.02,28.831 115.351,28.5 115.76,28.5 C116.169,28.5 116.5,28.831 116.5,29.24 z" fill="#1F383D"/>
      <path d="M114.85,37.51 C114.85,37.919 114.519,38.25 114.11,38.25 C113.701,38.25 113.37,37.919 113.37,37.51 C113.37,37.101 113.701,36.77 114.11,36.77 C114.519,36.77 114.85,37.101 114.85,37.51 z" fill="#1F383D"/>
      <path d="M136.75,35.03 C136.75,35.439 136.419,35.77 136.01,35.77 C135.601,35.77 135.27,35.439 135.27,35.03 C135.27,34.621 135.601,34.29 136.01,34.29 C136.419,34.29 136.75,34.621 136.75,35.03 z" fill="#1F383D"/>
      <path d="M104.11,45.36 C104.11,45.769 103.779,46.1 103.37,46.1 C102.961,46.1 102.63,45.769 102.63,45.36 C102.63,44.951 102.961,44.62 103.37,44.62 C103.779,44.62 104.11,44.951 104.11,45.36 z" fill="#1F383D"/>
      <path d="M180.75,7.35 C180.75,7.759 180.419,8.09 180.01,8.09 C179.601,8.09 179.27,7.759 179.27,7.35 C179.27,6.941 179.601,6.61 180.01,6.61 C180.419,6.61 180.75,6.941 180.75,7.35 z" fill="#1F383D"/>
      <path d="M161.14,31.69 C161.14,32.817 160.227,33.73 159.1,33.73 C157.973,33.73 157.06,32.817 157.06,31.69 C157.06,30.563 157.973,29.65 159.1,29.65 C160.227,29.65 161.14,30.563 161.14,31.69 z" fill="#2D7174"/>
      <path d="M152.05,28.59 C152.05,29.717 151.137,30.63 150.01,30.63 C148.883,30.63 147.97,29.717 147.97,28.59 C147.97,27.463 148.883,26.55 150.01,26.55 C151.137,26.55 152.05,27.463 152.05,28.59 z" fill="#2D7174"/>
      <path d="M179.94,31.9 C179.94,33.027 179.027,33.94 177.9,33.94 C176.773,33.94 175.86,33.027 175.86,31.9 C175.86,30.773 176.773,29.86 177.9,29.86 C179.027,29.86 179.94,30.773 179.94,31.9 z" fill="#2D7174"/>
      <path d="M180.51,44.79 C180.51,45.917 179.597,46.83 178.47,46.83 C177.343,46.83 176.43,45.917 176.43,44.79 C176.43,43.663 177.343,42.75 178.47,42.75 C179.597,42.75 180.51,43.663 180.51,44.79 z" fill="#2D7174"/>
      <path d="M154.52,35.95 C154.52,36.464 154.104,36.88 153.59,36.88 C153.076,36.88 152.66,36.464 152.66,35.95 C152.66,35.436 153.076,35.02 153.59,35.02 C154.104,35.02 154.52,35.436 154.52,35.95 z" fill="#2D7174"/>
      <path d="M150.14,36.66 C150.14,37.422 149.522,38.04 148.76,38.04 C147.998,38.04 147.38,37.422 147.38,36.66 C147.38,35.898 147.998,35.28 148.76,35.28 C149.522,35.28 150.14,35.898 150.14,36.66 z" fill="#2D7174"/>
      <path d="M126.86,51.29 C126.86,52.052 126.242,52.67 125.48,52.67 C124.718,52.67 124.1,52.052 124.1,51.29 C124.1,50.528 124.718,49.91 125.48,49.91 C126.242,49.91 126.86,50.528 126.86,51.29 z" fill="#1F383D"/>
      <path d="M113.07,51.17 C113.07,51.722 112.622,52.17 112.07,52.17 C111.518,52.17 111.07,51.722 111.07,51.17 C111.07,50.618 111.518,50.17 112.07,50.17 C112.622,50.17 113.07,50.618 113.07,51.17 z" fill="#5BA5B3"/>
      <path d="M103.49,40.28 C103.49,40.656 103.186,40.96 102.81,40.96 C102.434,40.96 102.13,40.656 102.13,40.28 C102.13,39.904 102.434,39.6 102.81,39.6 C103.186,39.6 103.49,39.904 103.49,40.28 z" fill="#2D7174"/>
      <path d="M100.44,49.29 C100.44,49.643 100.153,49.93 99.8,49.93 C99.447,49.93 99.16,49.643 99.16,49.29 C99.16,48.937 99.447,48.65 99.8,48.65 C100.153,48.65 100.44,48.937 100.44,49.29 z" fill="#5BA5B3"/>
      <path d="M108.75,42.65 C108.75,43.219 108.289,43.68 107.72,43.68 C107.151,43.68 106.69,43.219 106.69,42.65 C106.69,42.081 107.151,41.62 107.72,41.62 C108.289,41.62 108.75,42.081 108.75,42.65 z" fill="#5BA5B3"/>
      <path d="M134.98,49.85 C134.98,50.402 134.532,50.85 133.98,50.85 C133.428,50.85 132.98,50.402 132.98,49.85 C132.98,49.298 133.428,48.85 133.98,48.85 C134.532,48.85 134.98,49.298 134.98,49.85 z" fill="#5BA5B3"/>
      <path d="M120.63,41.01 C120.63,41.562 120.182,42.01 119.63,42.01 C119.078,42.01 118.63,41.562 118.63,41.01 C118.63,40.458 119.078,40.01 119.63,40.01 C120.182,40.01 120.63,40.458 120.63,41.01 z" fill="#5BA5B3"/>
      <path d="M96.36,55.24 C96.36,55.687 95.997,56.05 95.55,56.05 C95.103,56.05 94.74,55.687 94.74,55.24 C94.74,54.793 95.103,54.43 95.55,54.43 C95.997,54.43 96.36,54.793 96.36,55.24 z" fill="#5BA5B3"/>
      <path d="M118.65,43.06 C118.65,43.507 118.287,43.87 117.84,43.87 C117.393,43.87 117.03,43.507 117.03,43.06 C117.03,42.613 117.393,42.25 117.84,42.25 C118.287,42.25 118.65,42.613 118.65,43.06 z" fill="#5BA5B3"/>
      <path d="M146.12,36.86 C146.12,37.771 145.381,38.51 144.47,38.51 C143.559,38.51 142.82,37.771 142.82,36.86 C142.82,35.949 143.559,35.21 144.47,35.21 C145.381,35.21 146.12,35.949 146.12,36.86 z" fill="#1F383D"/>
      <path d="M140.95,55.65 C140.95,56.561 140.211,57.3 139.3,57.3 C138.389,57.3 137.65,56.561 137.65,55.65 C137.65,54.739 138.389,54 139.3,54 C140.211,54 140.95,54.739 140.95,55.65 z" fill="#1F383D"/>
      <path d="M132.28,42.89 C132.28,43.801 131.541,44.54 130.63,44.54 C129.719,44.54 128.98,43.801 128.98,42.89 C128.98,41.979 129.719,41.24 130.63,41.24 C131.541,41.24 132.28,41.979 132.28,42.89 z" fill="#1F383D"/>
      <path d="M142.84,34.06 C142.84,34.369 142.589,34.62 142.28,34.62 C141.971,34.62 141.72,34.369 141.72,34.06 C141.72,33.751 141.971,33.5 142.28,33.5 C142.589,33.5 142.84,33.751 142.84,34.06 z" fill="#2D7174"/>
      <path d="M127.45,27.26 C127.45,27.569 127.199,27.82 126.89,27.82 C126.581,27.82 126.33,27.569 126.33,27.26 C126.33,26.951 126.581,26.7 126.89,26.7 C127.199,26.7 127.45,26.951 127.45,27.26 z" fill="#2D7174"/>
      <path d="M162.46,41.19 C162.46,42.035 161.775,42.72 160.93,42.72 C160.085,42.72 159.4,42.035 159.4,41.19 C159.4,40.345 160.085,39.66 160.93,39.66 C161.775,39.66 162.46,40.345 162.46,41.19 z" fill="#1F383D"/>
    </g>
  </g>
</svg>
