<?xml version="1.0" encoding="UTF-8"?>
<!DOCTYPE svg PUBLIC "-//W3C//DTD SVG 1.1//EN" "http://www.w3.org/Graphics/SVG/1.1/DTD/svg11.dtd">
<svg version="1.1" xmlns="http://www.w3.org/2000/svg" xmlns:xlink="http://www.w3.org/1999/xlink" x="0" y="0" width="194.49" height="58.07" viewBox="0, 0, 194.49, 58.07">
  <g id="Layer_1">
    <g>
      <path d="M117.28,48.35 C115.091,48.061 113.082,49.599 112.791,51.788 C112.5,53.976 114.037,55.987 116.225,56.28 C118.413,56.573 120.425,55.038 120.72,52.85 C120.862,51.797 120.579,50.73 119.934,49.886 C119.288,49.042 118.334,48.489 117.28,48.35 L117.28,48.35 z" fill="#FFFFFF"/>
      <path d="M85.12,57.57 C84.378,57.471 83.649,57.829 83.274,58.478 C82.899,59.126 82.952,59.937 83.408,60.531 C83.864,61.125 84.634,61.385 85.357,61.19 C86.08,60.995 86.614,60.383 86.71,59.64 C86.84,58.63 86.129,57.705 85.12,57.57 z M85.73,59.51 C85.65,59.973 85.213,60.286 84.749,60.213 C84.285,60.14 83.965,59.708 84.031,59.243 C84.097,58.778 84.524,58.451 84.99,58.51 C85.221,58.542 85.43,58.666 85.567,58.855 C85.705,59.044 85.76,59.28 85.72,59.51 z" fill="#FFFFFF"/>
      <path d="M75.36,51.41 C74.269,51.263 73.198,51.79 72.649,52.744 C72.101,53.698 72.183,54.889 72.858,55.758 C73.533,56.627 74.667,57.002 75.727,56.706 C76.786,56.41 77.562,55.503 77.69,54.41 C77.856,52.943 76.822,51.612 75.36,51.41 z M76.26,54.27 C76.195,54.78 75.828,55.201 75.331,55.335 C74.835,55.469 74.306,55.29 73.993,54.882 C73.68,54.474 73.644,53.917 73.901,53.472 C74.159,53.027 74.66,52.781 75.17,52.85 C75.506,52.895 75.811,53.072 76.016,53.342 C76.22,53.613 76.308,53.954 76.26,54.29 z" fill="#FFFFFF"/>
      <path d="M90.8,42.42 C89.709,42.273 88.638,42.8 88.089,43.754 C87.541,44.708 87.623,45.899 88.298,46.768 C88.973,47.637 90.107,48.012 91.167,47.716 C92.226,47.42 93.002,46.513 93.13,45.42 C93.296,43.953 92.262,42.622 90.8,42.42 z M91.72,45.29 C91.655,45.8 91.288,46.221 90.791,46.355 C90.295,46.489 89.766,46.31 89.453,45.902 C89.14,45.494 89.104,44.937 89.361,44.492 C89.619,44.047 90.12,43.801 90.63,43.87 C91.322,43.963 91.809,44.598 91.72,45.29 z" fill="#FFFFFF"/>
      <path d="M72.01,38.73 C71.043,38.602 70.154,39.28 70.023,40.248 C69.892,41.215 70.569,42.105 71.536,42.238 C72.503,42.371 73.395,41.696 73.53,40.73 C73.595,40.263 73.472,39.789 73.186,39.414 C72.901,39.038 72.478,38.792 72.01,38.73 z M72.59,40.59 C72.546,40.923 72.306,41.197 71.981,41.284 C71.656,41.371 71.311,41.253 71.107,40.986 C70.903,40.719 70.881,40.355 71.05,40.064 C71.219,39.774 71.547,39.614 71.88,39.66 C72.099,39.687 72.298,39.801 72.433,39.975 C72.568,40.15 72.628,40.371 72.6,40.59 z" fill="#FFFFFF"/>
      <path d="M105.862,53.286 C107.236,53.468 108.202,54.73 108.02,56.104 C107.837,57.479 106.575,58.445 105.201,58.262 C103.827,58.08 102.861,56.818 103.043,55.444 C103.226,54.07 104.487,53.104 105.862,53.286 z" fill="#FFFFFF"/>
      <path d="M66.313,54.697 C66.959,54.783 67.413,55.376 67.327,56.022 C67.241,56.668 66.648,57.122 66.002,57.037 C65.356,56.951 64.902,56.357 64.988,55.711 C65.073,55.065 65.667,54.611 66.313,54.697 z" fill="#FFFFFF"/>
      <path d="M96.17,53.717 C96.909,53.815 97.429,54.494 97.331,55.233 C97.233,55.972 96.554,56.492 95.815,56.394 C95.076,56.295 94.556,55.617 94.654,54.878 C94.753,54.139 95.431,53.619 96.17,53.717 z" fill="#FFFFFF"/>
      <path d="M86.02,59.59 L85.64,58.5 L84.66,58.35 L83.73,59.19 L76.94,55.19 L74.93,56.71 L72.93,55.14 L66.18,56.39 L66.07,55.83 L73.08,54.53 L74.94,55.99 L76.9,54.51 L83.66,58.48 L84.48,57.74 L86.07,57.99 L86.36,58.84 L95.83,54.92 L95.89,54.92 L105.14,55.54 L113.61,53.03 L113.77,53.58 L105.2,56.11 L105.15,56.11 L95.92,55.5 L86.02,59.59 z" fill="#FFFFFF"/>
      <path d="M69.29,42.613 C70.029,42.711 70.549,43.39 70.451,44.129 C70.353,44.868 69.674,45.388 68.935,45.29 C68.196,45.191 67.676,44.513 67.774,43.774 C67.873,43.035 68.551,42.515 69.29,42.613 z" fill="#FFFFFF"/>
      <path d="M81.878,45.613 C83.071,45.772 83.91,46.868 83.752,48.061 C83.593,49.255 82.497,50.094 81.303,49.935 C80.11,49.777 79.271,48.681 79.43,47.487 C79.588,46.294 80.684,45.455 81.878,45.613 z" fill="#FFFFFF"/>
      <path d="M76.77,53.44 L75.44,52.54 L73.88,52.75 L68.81,43.89 L71.01,41.19 L71.45,41.55 L69.5,43.94 L74.18,52.14 L75.58,51.94 L76.68,52.69 L81.4,47.46 L88.98,45.29 L89.14,45.83 L81.71,47.97 L76.77,53.44 z" fill="#FFFFFF"/>
    </g>
    <g>
      <path d="M149,7.99 C151.189,8.279 153.198,6.741 153.489,4.552 C153.78,2.364 152.243,0.353 150.055,0.06 C147.867,-0.233 145.855,1.302 145.56,3.49 C145.418,4.543 145.701,5.61 146.346,6.454 C146.992,7.298 147.946,7.851 149,7.99 L149,7.99 z" fill="#FFFFFF"/>
      <path d="M181.16,-1.23 C181.902,-1.131 182.631,-1.489 183.006,-2.138 C183.381,-2.786 183.328,-3.597 182.872,-4.191 C182.416,-4.785 181.646,-5.045 180.923,-4.85 C180.2,-4.655 179.666,-4.043 179.57,-3.3 C179.44,-2.29 180.151,-1.365 181.16,-1.23 z M180.55,-3.17 C180.63,-3.633 181.067,-3.946 181.531,-3.873 C181.995,-3.8 182.315,-3.368 182.249,-2.903 C182.183,-2.438 181.756,-2.111 181.29,-2.17 C181.055,-2.199 180.842,-2.324 180.702,-2.515 C180.562,-2.706 180.507,-2.947 180.55,-3.18 z" fill="#FFFFFF"/>
      <path d="M190.92,4.93 C192.011,5.077 193.082,4.55 193.631,3.596 C194.179,2.642 194.097,1.451 193.422,0.582 C192.747,-0.287 191.613,-0.662 190.553,-0.366 C189.494,-0.07 188.718,0.837 188.59,1.93 C188.424,3.397 189.458,4.728 190.92,4.93 z M190.02,2.07 C190.085,1.56 190.452,1.139 190.949,1.005 C191.445,0.871 191.974,1.05 192.287,1.458 C192.6,1.866 192.636,2.423 192.379,2.868 C192.121,3.313 191.62,3.559 191.11,3.49 C190.418,3.397 189.931,2.762 190.02,2.07 z" fill="#FFFFFF"/>
      <path d="M175.48,13.92 C176.571,14.067 177.642,13.54 178.191,12.586 C178.739,11.632 178.657,10.441 177.982,9.572 C177.307,8.703 176.173,8.328 175.113,8.624 C174.054,8.92 173.278,9.827 173.15,10.92 C172.984,12.387 174.018,13.718 175.48,13.92 z M174.58,11.06 C174.645,10.55 175.012,10.129 175.509,9.995 C176.005,9.861 176.534,10.04 176.847,10.448 C177.16,10.856 177.196,11.413 176.939,11.858 C176.681,12.303 176.18,12.549 175.67,12.48 C174.982,12.382 174.501,11.749 174.59,11.06 z" fill="#FFFFFF"/>
      <path d="M194.27,17.6 C195.237,17.728 196.126,17.05 196.257,16.082 C196.388,15.115 195.711,14.225 194.744,14.092 C193.777,13.959 192.885,14.634 192.75,15.6 C192.685,16.067 192.808,16.541 193.094,16.916 C193.379,17.292 193.802,17.538 194.27,17.6 z M193.72,15.75 C193.764,15.417 194.004,15.143 194.329,15.056 C194.654,14.969 194.999,15.087 195.203,15.354 C195.407,15.621 195.429,15.985 195.26,16.276 C195.091,16.566 194.763,16.726 194.43,16.68 C193.978,16.618 193.661,16.202 193.72,15.75 z" fill="#FFFFFF"/>
      <path d="M161.077,-1.977 C162.451,-1.794 163.418,-0.533 163.235,0.842 C163.053,2.216 161.791,3.182 160.417,3 C159.043,2.817 158.076,1.555 158.259,0.181 C158.441,-1.193 159.703,-2.159 161.077,-1.977 z" fill="#FFFFFF"/>
      <path d="M200.317,-0.658 C200.963,-0.572 201.417,0.021 201.331,0.667 C201.245,1.313 200.652,1.767 200.006,1.681 C199.36,1.596 198.906,1.002 198.992,0.356 C199.077,-0.29 199.671,-0.744 200.317,-0.658 z" fill="#FFFFFF"/>
      <path d="M170.463,-0.108 C171.202,-0.01 171.722,0.669 171.624,1.408 C171.526,2.147 170.847,2.667 170.108,2.569 C169.369,2.47 168.849,1.792 168.947,1.053 C169.046,0.314 169.724,-0.206 170.463,-0.108 z" fill="#FFFFFF"/>
      <path d="M152.69,3.3 L152.52,2.75 L161.09,0.22 L161.14,0.22 L170.37,0.84 L180.27,-3.26 L180.65,-2.17 L181.63,-2.01 L182.56,-2.85 L189.35,1.14 L191.36,-0.38 L193.36,1.2 L200.12,-0.06 L200.22,0.5 L193.21,1.8 L191.35,0.34 L189.39,1.82 L182.64,-2.15 L181.81,-1.41 L180.22,-1.66 L179.93,-2.51 L170.46,1.41 L170.4,1.41 L161.15,0.79 L152.69,3.3 z" fill="#FFFFFF"/>
      <path d="M197.343,10.996 C198.082,11.094 198.602,11.773 198.504,12.512 C198.406,13.251 197.727,13.771 196.988,13.673 C196.249,13.575 195.729,12.896 195.827,12.157 C195.926,11.418 196.604,10.898 197.343,10.996 z" fill="#FFFFFF"/>
      <path d="M184.986,6.399 C186.18,6.557 187.019,7.653 186.86,8.847 C186.702,10.04 185.606,10.879 184.412,10.721 C183.219,10.563 182.38,9.467 182.538,8.273 C182.697,7.08 183.792,6.241 184.986,6.399 z" fill="#FFFFFF"/>
      <path d="M195.28,15.14 L194.84,14.78 L196.79,12.39 L192.11,4.2 L190.72,4.39 L189.61,3.64 L184.89,8.87 L177.31,11.04 L177.15,10.5 L184.58,8.37 L189.52,2.89 L190.85,3.79 L192.41,3.58 L197.48,12.45 L195.28,15.14 z" fill="#FFFFFF"/>
    </g>
    <g>
      <g>
        <path d="M169.15,1.29 C167.357,0.918 165.601,2.063 165.217,3.853 C164.833,5.643 165.967,7.407 167.754,7.802 C169.542,8.197 171.313,7.075 171.72,5.29 C171.919,4.418 171.758,3.503 171.275,2.75 C170.791,1.998 170.026,1.472 169.15,1.29 z M170.49,4.98 C170.249,6.103 169.144,6.818 168.021,6.578 C166.898,6.338 166.182,5.233 166.422,4.11 C166.662,2.987 167.767,2.27 168.89,2.51 C169.435,2.627 169.91,2.957 170.211,3.427 C170.511,3.896 170.612,4.466 170.49,5.01 z" fill="#65B0AB"/>
        <path d="M154.37,26.02 C153.544,25.846 152.733,26.374 152.558,27.199 C152.382,28.025 152.909,28.836 153.734,29.013 C154.559,29.19 155.372,28.665 155.55,27.84 C155.636,27.442 155.56,27.026 155.338,26.685 C155.117,26.343 154.768,26.104 154.37,26.02 z M154.75,27.67 C154.69,27.956 154.464,28.177 154.177,28.231 C153.89,28.284 153.599,28.159 153.441,27.914 C153.282,27.669 153.287,27.353 153.454,27.113 C153.62,26.873 153.915,26.757 154.2,26.82 C154.573,26.918 154.802,27.293 154.72,27.67 z" fill="#65B0AB"/>
        <path d="M155.91,34.51 C154.695,34.25 153.499,35.025 153.239,36.24 C152.98,37.455 153.754,38.651 154.97,38.911 C156.185,39.17 157.381,38.395 157.64,37.18 C157.899,35.965 157.125,34.77 155.91,34.51 z M156.47,36.93 C156.347,37.496 155.79,37.856 155.223,37.734 C154.657,37.613 154.296,37.056 154.417,36.489 C154.537,35.923 155.093,35.561 155.66,35.68 C155.934,35.738 156.173,35.902 156.325,36.137 C156.477,36.371 156.529,36.657 156.47,36.93 z" fill="#65B0AB"/>
        <path d="M158.48,44.43 C157.898,44.305 157.298,44.543 156.961,45.033 C156.623,45.524 156.615,46.169 156.939,46.668 C157.263,47.167 157.856,47.421 158.441,47.312 C159.026,47.203 159.487,46.752 159.61,46.17 C159.777,45.378 159.272,44.6 158.48,44.43 z M158.84,46.01 C158.761,46.376 158.401,46.609 158.035,46.532 C157.668,46.454 157.434,46.096 157.509,45.729 C157.585,45.362 157.943,45.126 158.31,45.2 C158.678,45.275 158.917,45.631 158.85,46 z" fill="#65B0AB"/>
        <path d="M144.83,28.51 C143.371,28.2 141.937,29.131 141.627,30.59 C141.318,32.049 142.25,33.483 143.709,33.792 C145.168,34.102 146.601,33.169 146.91,31.71 C147.219,30.252 146.288,28.82 144.83,28.51 z M146.27,31.58 C146.035,32.688 144.947,33.396 143.84,33.161 C142.732,32.926 142.024,31.838 142.259,30.73 C142.494,29.622 143.582,28.915 144.69,29.15 C145.797,29.385 146.504,30.473 146.27,31.58 z" fill="#65B0AB"/>
        <path d="M143.41,36.8 C142.438,36.596 141.485,37.218 141.279,38.189 C141.074,39.16 141.694,40.115 142.665,40.322 C143.636,40.529 144.591,39.911 144.8,38.94 C144.901,38.472 144.811,37.983 144.55,37.581 C144.289,37.179 143.879,36.898 143.41,36.8 z M144.41,38.8 C144.296,39.343 143.866,39.764 143.32,39.866 C142.774,39.967 142.221,39.73 141.92,39.264 C141.618,38.798 141.627,38.196 141.942,37.74 C142.258,37.283 142.818,37.062 143.36,37.18 C143.719,37.263 144.029,37.487 144.221,37.801 C144.413,38.115 144.47,38.493 144.38,38.85 z" fill="#65B0AB"/>
        <path d="M165.34,41.93 C164.768,41.811 164.207,42.177 164.086,42.749 C163.966,43.321 164.331,43.883 164.903,44.005 C165.475,44.126 166.037,43.762 166.16,43.19 C166.219,42.914 166.166,42.626 166.012,42.389 C165.858,42.153 165.616,41.988 165.34,41.93 z M165.6,43.07 C165.559,43.269 165.401,43.423 165.202,43.46 C165.002,43.496 164.8,43.409 164.69,43.239 C164.58,43.068 164.584,42.848 164.701,42.682 C164.817,42.515 165.022,42.436 165.22,42.48 C165.487,42.54 165.656,42.803 165.6,43.07 z" fill="#65B0AB"/>
        <path d="M163.032,10.314 C164.156,10.553 164.873,11.658 164.634,12.781 C164.394,13.905 163.29,14.622 162.166,14.382 C161.042,14.143 160.326,13.038 160.565,11.915 C160.804,10.791 161.909,10.074 163.032,10.314 z" fill="#65B0AB"/>
        <path d="M151.813,42.209 C152.343,42.322 152.68,42.843 152.567,43.372 C152.455,43.901 151.934,44.239 151.405,44.126 C150.875,44.013 150.538,43.493 150.65,42.963 C150.763,42.434 151.284,42.096 151.813,42.209 z" fill="#65B0AB"/>
        <path d="M149.685,60.089 C150.49,60.26 151.004,61.052 150.832,61.856 C150.661,62.661 149.87,63.175 149.065,63.003 C148.26,62.832 147.746,62.041 147.918,61.236 C148.089,60.431 148.88,59.917 149.685,60.089 z" fill="#65B0AB"/>
        <path d="M146.111,65.201 C146.667,65.319 147.022,65.866 146.904,66.422 C146.785,66.979 146.238,67.334 145.682,67.215 C145.125,67.097 144.77,66.55 144.889,65.993 C145.007,65.437 145.554,65.082 146.111,65.201 z" fill="#65B0AB"/>
        <path d="M149.679,35.278 C150.209,35.391 150.546,35.911 150.434,36.44 C150.321,36.97 149.8,37.308 149.271,37.195 C148.741,37.082 148.404,36.561 148.517,36.032 C148.629,35.503 149.15,35.165 149.679,35.278 z" fill="#65B0AB"/>
        <path d="M160.749,18.912 C161.354,19.041 161.74,19.636 161.611,20.241 C161.483,20.846 160.888,21.232 160.283,21.103 C159.678,20.974 159.292,20.379 159.421,19.774 C159.549,19.169 160.144,18.783 160.749,18.912 z" fill="#65B0AB"/>
        <path d="M151.268,20.857 C151.872,20.986 152.258,21.581 152.129,22.186 C152.001,22.791 151.406,23.176 150.801,23.048 C150.196,22.919 149.81,22.324 149.939,21.719 C150.068,21.114 150.663,20.728 151.268,20.857 z" fill="#65B0AB"/>
        <path d="M151.6,43.22 L151.19,42.98 L154.05,38.05 L153.38,36.04 L155.12,34.9 L153.89,28.48 L154.81,27.99 L154.96,27.17 L154.21,26.57 L160.17,19.97 L162.3,12.51 L166.64,6.55 L167.03,6.83 L162.71,12.75 L160.56,20.25 L154.9,26.52 L155.48,26.98 L155.23,28.29 L154.42,28.73 L155.65,35.12 L153.94,36.24 L154.57,38.1 L151.6,43.22 z" fill="#65B0AB"/>
        <path d="M166.294,27.057 C166.899,27.186 167.285,27.781 167.156,28.386 C167.027,28.991 166.432,29.377 165.827,29.248 C165.222,29.119 164.836,28.524 164.965,27.919 C165.094,27.314 165.689,26.928 166.294,27.057 z" fill="#65B0AB"/>
        <path d="M161.948,43.071 C162.553,43.2 162.939,43.794 162.81,44.399 C162.681,45.004 162.086,45.39 161.481,45.261 C160.876,45.132 160.49,44.538 160.619,43.933 C160.748,43.328 161.343,42.942 161.948,43.071 z" fill="#65B0AB"/>
        <path d="M162.609,31.549 C163.587,31.757 164.211,32.718 164.002,33.696 C163.794,34.674 162.833,35.298 161.855,35.089 C160.877,34.881 160.254,33.92 160.462,32.942 C160.67,31.964 161.631,31.341 162.609,31.549 z" fill="#65B0AB"/>
        <path d="M146.704,49.181 C146.969,49.237 147.138,49.498 147.081,49.762 C147.025,50.027 146.765,50.196 146.5,50.14 C146.235,50.083 146.067,49.823 146.123,49.558 C146.179,49.293 146.44,49.125 146.704,49.181 z" fill="#65B0AB"/>
        <path d="M135.461,32.443 C135.888,32.534 136.16,32.953 136.069,33.38 C135.978,33.807 135.558,34.079 135.132,33.988 C134.705,33.898 134.433,33.478 134.524,33.051 C134.614,32.624 135.034,32.352 135.461,32.443 z" fill="#65B0AB"/>
        <path d="M161.7,44.4 L156.18,37.97 L156.78,36.81 L156.44,35.52 L162.1,33.18 L165.84,27.97 L166.22,28.24 L162.41,33.57 L162.34,33.59 L157,35.79 L157.28,36.87 L156.74,37.9 L161.85,43.85 L164.26,42.99 L164.42,43.43 L161.7,44.4 z" fill="#65B0AB"/>
        <path d="M153.72,36.85 L149.33,36.64 L146.04,33.05 L144.97,33.74 L143.8,33.73 L142.71,33.29 L141.89,32.09 L135.36,33.43 L135.27,32.97 L142.1,31.56 L143.02,32.9 L143.93,33.27 L144.83,33.27 L146.12,32.43 L149.55,36.18 L153.74,36.38 L153.72,36.85 z" fill="#65B0AB"/>
      </g>
      <g>
        <path d="M174.53,5.57 C173.904,6.947 174.513,8.572 175.89,9.198 C177.267,9.824 178.892,9.216 179.518,7.839 C180.145,6.461 179.537,4.837 178.16,4.21 C176.782,3.588 175.16,4.196 174.53,5.57 z M177.74,5.14 C178.604,5.535 178.984,6.555 178.589,7.419 C178.194,8.283 177.174,8.663 176.31,8.269 C175.446,7.874 175.066,6.854 175.46,5.99 C175.854,5.137 176.861,4.758 177.72,5.14 z" fill="#65B0AB"/>
        <path d="M185.23,23.8 C184.945,24.434 185.227,25.179 185.86,25.466 C186.494,25.752 187.24,25.47 187.527,24.837 C187.814,24.204 187.533,23.458 186.9,23.17 C186.595,23.032 186.248,23.02 185.934,23.138 C185.621,23.257 185.367,23.495 185.23,23.8 z M186.63,23.8 C186.847,23.899 186.984,24.119 186.975,24.358 C186.967,24.597 186.815,24.807 186.591,24.89 C186.367,24.973 186.115,24.913 185.953,24.738 C185.791,24.563 185.75,24.307 185.85,24.09 C185.912,23.945 186.029,23.83 186.175,23.772 C186.322,23.714 186.486,23.717 186.63,23.78 z" fill="#65B0AB"/>
        <path d="M192.34,24.05 C192.027,24.735 192.157,25.54 192.67,26.091 C193.183,26.642 193.978,26.83 194.683,26.566 C195.388,26.302 195.865,25.639 195.89,24.887 C195.916,24.135 195.486,23.441 194.8,23.13 C193.867,22.706 192.766,23.118 192.34,24.05 z M194.39,24.05 C194.711,24.195 194.912,24.52 194.9,24.872 C194.888,25.224 194.665,25.534 194.336,25.657 C194.006,25.781 193.634,25.693 193.394,25.435 C193.154,25.177 193.093,24.8 193.24,24.48 C193.332,24.267 193.505,24.1 193.721,24.016 C193.937,23.931 194.178,23.936 194.39,24.03 z" fill="#65B0AB"/>
        <path d="M185.55,31.92 C185.041,33.042 185.538,34.364 186.66,34.873 C187.782,35.381 189.104,34.884 189.612,33.762 C190.12,32.64 189.622,31.318 188.5,30.81 C187.379,30.303 186.059,30.799 185.55,31.92 z M188.28,31.3 C189.129,31.687 189.504,32.688 189.117,33.538 C188.731,34.387 187.73,34.762 186.88,34.377 C186.031,33.991 185.655,32.99 186.04,32.14 C186.223,31.729 186.563,31.409 186.983,31.249 C187.404,31.09 187.87,31.105 188.28,31.29 z" fill="#65B0AB"/>
        <path d="M171.55,20.8 C171.357,21.238 171.555,21.75 171.992,21.945 C172.429,22.14 172.941,21.945 173.139,21.51 C173.336,21.074 173.145,20.56 172.71,20.36 C172.268,20.163 171.75,20.359 171.55,20.8 z M172.55,20.8 C172.702,20.868 172.797,21.022 172.791,21.188 C172.785,21.354 172.68,21.5 172.524,21.558 C172.368,21.616 172.192,21.574 172.08,21.451 C171.967,21.329 171.94,21.151 172.01,21 C172.1,20.809 172.321,20.718 172.52,20.79 z" fill="#65B0AB"/>
        <path d="M176.393,13.149 C177.258,13.542 177.641,14.561 177.249,15.426 C176.857,16.291 175.837,16.675 174.972,16.282 C174.107,15.89 173.724,14.871 174.116,14.006 C174.508,13.14 175.528,12.757 176.393,13.149 z" fill="#65B0AB"/>
        <path d="M198.872,28.296 C199.274,28.478 199.452,28.952 199.27,29.355 C199.087,29.757 198.613,29.935 198.211,29.753 C197.808,29.57 197.63,29.096 197.813,28.694 C197.995,28.292 198.469,28.113 198.872,28.296 z" fill="#65B0AB"/>
        <path d="M192.916,28.8 C193.318,28.983 193.497,29.457 193.314,29.859 C193.132,30.262 192.657,30.44 192.255,30.258 C191.853,30.075 191.674,29.601 191.857,29.199 C192.039,28.796 192.513,28.618 192.916,28.8 z" fill="#65B0AB"/>
        <path d="M181.88,16.922 C182.348,17.134 182.555,17.685 182.343,18.153 C182.131,18.621 181.58,18.828 181.112,18.616 C180.644,18.404 180.437,17.853 180.649,17.385 C180.861,16.917 181.413,16.71 181.88,16.922 z" fill="#65B0AB"/>
        <path d="M198.34,29.35 L194.87,26.18 L193.13,26.36 L192.52,24.76 L187.13,24.61 L186.9,23.79 L186.27,23.52 L185.65,24.02 L181.39,18.05 L175.69,14.99 L176.51,8.71 L176.89,8.76 L176.11,14.78 L181.68,17.79 L185.73,23.46 L186.21,23.07 L187.22,23.5 L187.43,24.23 L192.79,24.37 L193.39,25.94 L195,25.77 L198.6,29.07 L198.34,29.35 z" fill="#65B0AB"/>
        <path d="M189.38,13.921 C189.848,14.134 190.055,14.685 189.843,15.153 C189.631,15.62 189.079,15.828 188.612,15.615 C188.144,15.403 187.937,14.852 188.149,14.384 C188.361,13.916 188.912,13.709 189.38,13.921 z" fill="#65B0AB"/>
        <path d="M173.081,23.245 C173.548,23.457 173.756,24.008 173.544,24.476 C173.331,24.943 172.78,25.151 172.313,24.939 C171.845,24.726 171.637,24.175 171.85,23.708 C172.062,23.24 172.613,23.032 173.081,23.245 z" fill="#65B0AB"/>
        <path d="M193.14,17.377 C193.889,17.717 194.221,18.6 193.882,19.349 C193.542,20.099 192.659,20.431 191.909,20.091 C191.16,19.751 190.828,18.868 191.167,18.118 C191.507,17.369 192.39,17.037 193.14,17.377 z" fill="#65B0AB"/>
        <path d="M187.959,39.822 C188.286,39.971 188.431,40.356 188.283,40.683 C188.135,41.01 187.75,41.155 187.423,41.006 C187.096,40.858 186.951,40.473 187.099,40.146 C187.247,39.819 187.633,39.674 187.959,39.822 z" fill="#65B0AB"/>
        <path d="M193.25,23.8 L192.37,18.83 L188.83,14.9 L189.12,14.64 L192.73,18.65 L193.58,23.4 L194.42,23.37 L194.43,23.76 L193.25,23.8 z" fill="#65B0AB"/>
        <path d="M187.85,40.42 L187.46,40.41 L187.53,34.65 L188.78,34.15 L189.23,33.49 L189.39,32.76 L188.94,31.58 L192.57,29.47 L193.47,26.13 L193.85,26.23 L192.91,29.73 L192.84,29.77 L189.43,31.75 L189.8,32.73 L189.57,33.68 L189.03,34.47 L187.92,34.92 L187.85,40.42 z" fill="#65B0AB"/>
      </g>
      <path d="M172.216,21.832 L172.606,21.82 L172.667,23.829 L172.277,23.841 z" fill="#65B0AB"/>
      <path d="M172.74,20.63 L172.39,20.46 L174.78,15.56 L175.13,15.73 L172.74,20.63 z" fill="#65B0AB"/>
      <path d="M180.981,26.735 C181.731,27.075 182.063,27.958 181.723,28.707 C181.383,29.457 180.5,29.789 179.751,29.449 C179.001,29.109 178.669,28.226 179.009,27.477 C179.349,26.727 180.232,26.395 180.981,26.735 z" fill="#65B0AB"/>
      <path d="M173.861,30.647 C174.253,30.825 174.427,31.287 174.249,31.679 C174.071,32.071 173.608,32.245 173.216,32.067 C172.824,31.889 172.65,31.427 172.828,31.035 C173.006,30.642 173.468,30.469 173.861,30.647 z" fill="#65B0AB"/>
      <path d="M176.18,35.98 C174.381,35.595 172.611,36.741 172.227,38.54 C171.842,40.339 172.989,42.109 174.788,42.493 C176.587,42.877 178.357,41.729 178.74,39.93 C179.123,38.132 177.977,36.365 176.18,35.98 z M177.52,39.67 C177.279,40.793 176.174,41.508 175.051,41.268 C173.928,41.028 173.212,39.923 173.452,38.8 C173.692,37.677 174.797,36.96 175.92,37.2 C177.041,37.445 177.755,38.547 177.52,39.67 z" fill="#65B0AB"/>
      <path d="M150.33,14.87 C149.536,14.685 148.709,15.001 148.24,15.669 C147.771,16.336 147.755,17.221 148.198,17.906 C148.642,18.59 149.457,18.937 150.257,18.781 C151.058,18.626 151.684,18.001 151.84,17.2 C152.046,16.144 151.378,15.114 150.33,14.87 z M151.12,17.05 C150.979,17.714 150.326,18.138 149.662,17.997 C148.998,17.856 148.573,17.204 148.714,16.54 C148.854,15.875 149.506,15.45 150.17,15.59 C150.49,15.657 150.77,15.849 150.948,16.123 C151.126,16.397 151.188,16.73 151.12,17.05 z" fill="#65B0AB"/>
      <path d="M177.8,38.15 L176.59,37.02 L175.33,36.77 L174.24,36.98 L173.3,31.2 L180.01,28.19 L180.17,28.55 L173.74,31.44 L174.56,36.52 L175.33,36.37 L176.77,36.67 L177.87,37.68 L185.85,33.77 L186.03,34.12 L177.8,38.15 z" fill="#65B0AB"/>
      <path d="M163.97,27.18 C163.461,28.302 163.958,29.624 165.08,30.133 C166.202,30.641 167.524,30.144 168.032,29.022 C168.54,27.9 168.042,26.578 166.92,26.07 C165.799,25.563 164.479,26.059 163.97,27.18 z M166.7,26.56 C167.549,26.947 167.924,27.948 167.537,28.798 C167.151,29.647 166.15,30.022 165.3,29.637 C164.451,29.251 164.075,28.25 164.46,27.4 C164.645,26.986 164.989,26.664 165.414,26.506 C165.839,26.348 166.309,26.368 166.72,26.56 z" fill="#65B0AB"/>
      <path d="M167.667,29.124 L167.82,28.765 L173.388,31.131 L173.235,31.49 z" fill="#65B0AB"/>
      <path d="M153.32,49.7 C152.943,50.146 152.998,50.814 153.443,51.192 C153.889,51.57 154.556,51.517 154.936,51.073 C155.315,50.628 155.263,49.961 154.82,49.58 C154.606,49.396 154.327,49.305 154.045,49.328 C153.763,49.35 153.502,49.484 153.32,49.7 z M154.45,50.01 C154.604,50.142 154.664,50.354 154.6,50.546 C154.537,50.739 154.363,50.875 154.161,50.889 C153.959,50.903 153.768,50.794 153.677,50.612 C153.587,50.431 153.616,50.212 153.75,50.06 C153.933,49.858 154.245,49.84 154.45,50.02 z" fill="#65B0AB"/>
      <path d="M162.3,52.39 C161.74,53.044 161.816,54.029 162.47,54.589 C163.125,55.15 164.109,55.074 164.67,54.42 C165.23,53.765 165.154,52.781 164.5,52.22 C163.846,51.659 162.86,51.735 162.3,52.39 z M163.96,52.85 C164.193,53.037 164.288,53.348 164.2,53.634 C164.112,53.919 163.859,54.123 163.561,54.146 C163.262,54.17 162.98,54.01 162.848,53.742 C162.715,53.474 162.76,53.152 162.96,52.93 C163.219,52.642 163.658,52.607 163.96,52.85 z" fill="#65B0AB"/>
      <path d="M154.98,57.15 C154.311,57.936 154.406,59.116 155.192,59.785 C155.978,60.454 157.157,60.36 157.827,59.575 C158.497,58.79 158.404,57.611 157.62,56.94 C157.242,56.617 156.752,56.458 156.256,56.497 C155.761,56.537 155.302,56.771 154.98,57.15 z M157.33,57.29 C157.928,57.798 158,58.695 157.491,59.292 C156.983,59.89 156.086,59.961 155.489,59.452 C154.892,58.944 154.821,58.047 155.33,57.45 C155.838,56.854 156.733,56.783 157.33,57.29 z" fill="#65B0AB"/>
      <path d="M169.94,49.09 C169.733,49.314 169.685,49.642 169.818,49.916 C169.951,50.19 170.239,50.354 170.542,50.33 C170.846,50.306 171.104,50.098 171.192,49.806 C171.28,49.514 171.18,49.198 170.94,49.01 C170.637,48.772 170.202,48.807 169.94,49.09 z M170.72,49.29 C170.817,49.387 170.847,49.533 170.794,49.661 C170.742,49.788 170.618,49.871 170.48,49.871 C170.342,49.871 170.218,49.788 170.166,49.661 C170.113,49.533 170.143,49.387 170.24,49.29 C170.373,49.158 170.587,49.158 170.72,49.29 z" fill="#65B0AB"/>
      <path d="M166.583,57.341 C166.868,57.585 166.902,58.015 166.658,58.3 C166.414,58.586 165.984,58.619 165.699,58.375 C165.414,58.131 165.38,57.702 165.624,57.417 C165.868,57.131 166.297,57.097 166.583,57.341 z" fill="#65B0AB"/>
      <path d="M161.64,56.374 C161.926,56.618 161.96,57.047 161.716,57.332 C161.472,57.618 161.042,57.651 160.757,57.407 C160.471,57.163 160.438,56.734 160.682,56.449 C160.926,56.163 161.355,56.13 161.64,56.374 z" fill="#65B0AB"/>
      <path d="M165.9,58.06 L163.84,54.69 L162.39,54.44 L162.28,53 L154.67,50.81 L154.67,50.08 L154.23,49.72 L153.61,49.98 L151.39,42.99 L157.22,45.31 L157.09,45.61 L151.91,43.55 L153.81,49.54 L154.28,49.35 L155,49.93 L155,50.56 L162.59,52.75 L162.7,54.16 L164.04,54.39 L166.18,57.89 L165.9,58.06 z" fill="#65B0AB"/>
      <path d="M170.586,51.463 C170.913,51.742 170.952,52.235 170.672,52.562 C170.392,52.89 169.9,52.928 169.572,52.648 C169.245,52.369 169.206,51.876 169.486,51.549 C169.766,51.221 170.258,51.183 170.586,51.463 z" fill="#65B0AB"/>
      <path d="M164.496,47.203 C165.02,47.652 165.082,48.441 164.634,48.965 C164.185,49.49 163.396,49.552 162.871,49.103 C162.347,48.655 162.285,47.866 162.733,47.341 C163.182,46.816 163.971,46.754 164.496,47.203 z" fill="#65B0AB"/>
      <path d="M155.067,64.12 C155.298,64.317 155.325,64.664 155.128,64.895 C154.931,65.126 154.583,65.153 154.352,64.956 C154.122,64.759 154.094,64.411 154.292,64.181 C154.489,63.95 154.836,63.922 155.067,64.12 z" fill="#65B0AB"/>
      <path d="M164.5,53.37 L163.99,52.62 L163.09,52.39 L163.54,48.18 L161.6,44.18 L161.89,44.03 L163.87,48.12 L163.45,52.14 L164.19,52.33 L164.64,53 L169.95,51.86 L170.23,50.1 L170.55,50.15 L170.24,52.13 L164.5,53.37 z" fill="#65B0AB"/>
      <path d="M154.85,64.55 L154.53,64.45 L155.94,59.82 L157.06,59.71 L157.58,59.28 L157.88,58.73 L157.8,57.67 L161.22,56.82 L162.72,54.33 L163,54.5 L161.42,57.1 L158.14,57.92 L158.22,58.8 L157.81,59.51 L157.19,60.03 L156.19,60.13 L154.85,64.55 z" fill="#65B0AB"/>
      <path d="M136.35,52.53 L136.04,47.99 L137.03,47.38 L137.04,46.47 L142.17,43.79 L142.89,38.32 L146.95,39.2 L151.72,43.2 L146.93,49.5 L146.67,49.31 L151.27,43.25 L146.78,39.48 L143.17,38.71 L142.47,44 L142.39,44.04 L137.37,46.67 L137.36,47.56 L136.38,48.17 L136.68,52.51 L136.35,52.53 z" fill="#65B0AB"/>
      <path d="M136.582,51.8 C136.987,51.886 137.246,52.285 137.159,52.69 C137.073,53.095 136.675,53.354 136.27,53.267 C135.865,53.181 135.606,52.783 135.692,52.378 C135.779,51.972 136.177,51.714 136.582,51.8 z" fill="#65B0AB"/>
      <path d="M143.211,37.705 C143.654,37.799 143.936,38.235 143.842,38.678 C143.748,39.121 143.312,39.403 142.869,39.309 C142.426,39.215 142.144,38.779 142.238,38.336 C142.332,37.893 142.768,37.611 143.211,37.705 z" fill="#65B0AB"/>
      <path d="M146.983,38.546 C147.426,38.641 147.709,39.076 147.614,39.519 C147.52,39.962 147.084,40.245 146.641,40.15 C146.198,40.056 145.916,39.62 146.01,39.177 C146.105,38.734 146.54,38.452 146.983,38.546 z" fill="#65B0AB"/>
      <path d="M142.541,42.12 C143.518,42.328 144.142,43.29 143.934,44.267 C143.725,45.245 142.764,45.869 141.786,45.66 C140.809,45.452 140.185,44.491 140.393,43.513 C140.602,42.535 141.563,41.912 142.541,42.12 z" fill="#65B0AB"/>
      <path d="M136.56,45.48 C135.978,45.355 135.378,45.593 135.041,46.083 C134.703,46.574 134.695,47.219 135.019,47.718 C135.343,48.217 135.936,48.471 136.521,48.362 C137.106,48.253 137.567,47.802 137.69,47.22 C137.857,46.428 137.352,45.65 136.56,45.48 z M136.92,47.06 C136.841,47.426 136.481,47.659 136.115,47.582 C135.748,47.504 135.514,47.146 135.589,46.779 C135.665,46.412 136.023,46.176 136.39,46.25 C136.754,46.33 136.988,46.684 136.92,47.05 z" fill="#65B0AB"/>
      <path d="M150.71,21.89 L150.04,18.43 L150.5,18.34 L151.18,21.79 L150.71,21.89 z" fill="#65B0AB"/>
      <path d="M151.395,16.071 L162.093,12.249 L162.251,12.692 L151.553,16.514 z" fill="#65B0AB"/>
      <path d="M146.02,66.28 L145.76,66.08 L149.25,61.44 L149.29,61.42 L154.83,59.24 L154.62,58.71 L154.68,57.75 L155.08,57.18 L152.95,55.3 L153.17,55.05 L155.52,57.13 L155,57.86 L154.95,58.66 L155.25,59.43 L149.45,61.71 L146.02,66.28 z" fill="#65B0AB"/>
      <path d="M153.44,54.774 C153.671,54.971 153.699,55.319 153.501,55.549 C153.304,55.78 152.957,55.808 152.726,55.61 C152.495,55.413 152.468,55.066 152.665,54.835 C152.862,54.604 153.21,54.577 153.44,54.774 z" fill="#65B0AB"/>
      <g>
        <path d="M99.36,34.44 C97.73,36.036 97.704,38.651 99.3,40.281 C100.896,41.91 103.511,41.937 105.14,40.341 C106.77,38.744 106.796,36.129 105.2,34.5 C103.604,32.871 100.989,32.844 99.36,34.44 L99.36,34.44 z" fill="#65B0AB"/>
        <path d="M131.55,24.86 C132.292,25.601 133.495,25.6 134.236,24.858 C134.977,24.116 134.977,22.914 134.236,22.172 C133.495,21.43 132.292,21.429 131.55,22.17 C131.193,22.526 130.992,23.01 130.992,23.515 C130.992,24.02 131.193,24.504 131.55,24.86 z M132.29,22.86 C132.638,22.513 133.201,22.513 133.548,22.861 C133.895,23.208 133.895,23.772 133.548,24.119 C133.201,24.467 132.638,24.467 132.29,24.12 C131.958,23.779 131.954,23.237 132.28,22.89 z" fill="#65B0AB"/>
        <path d="M135.77,15.02 C136.869,16.097 138.632,16.085 139.716,14.993 C140.801,13.901 140.801,12.139 139.716,11.047 C138.632,9.955 136.869,9.943 135.77,11.02 C135.232,11.547 134.93,12.267 134.93,13.02 C134.93,13.773 135.232,14.493 135.77,15.02 z M136.85,12.13 C137.361,11.617 138.191,11.617 138.703,12.128 C139.216,12.64 139.216,13.47 138.703,13.982 C138.191,14.493 137.361,14.493 136.85,13.98 C136.603,13.733 136.466,13.397 136.468,13.048 C136.469,12.699 136.611,12.365 136.86,12.12 z" fill="#65B0AB"/>
        <path d="M117.49,17.14 C118.589,18.217 120.352,18.205 121.436,17.113 C122.521,16.021 122.521,14.259 121.436,13.167 C120.352,12.075 118.589,12.063 117.49,13.14 C116.952,13.667 116.65,14.387 116.65,15.14 C116.65,15.893 116.952,16.613 117.49,17.14 z M118.57,14.25 C119.081,13.737 119.911,13.737 120.423,14.248 C120.936,14.76 120.936,15.59 120.423,16.102 C119.911,16.613 119.081,16.613 118.57,16.1 C118.086,15.594 118.086,14.796 118.57,14.29 z" fill="#65B0AB"/>
        <path d="M130.72,1.11 C131.24,1.632 132.023,1.788 132.704,1.507 C133.385,1.226 133.829,0.562 133.829,-0.175 C133.829,-0.912 133.385,-1.576 132.704,-1.857 C132.023,-2.138 131.24,-1.982 130.72,-1.46 C130.012,-0.75 130.012,0.4 130.72,1.11 z M131.42,-0.77 C131.663,-1.014 132.029,-1.087 132.347,-0.956 C132.665,-0.824 132.872,-0.514 132.872,-0.17 C132.872,0.174 132.665,0.484 132.347,0.616 C132.029,0.747 131.663,0.674 131.42,0.43 C131.089,0.098 131.089,-0.438 131.42,-0.77 z" fill="#65B0AB"/>
        <path d="M115.502,31.53 C116.504,32.551 116.487,34.191 115.466,35.192 C114.445,36.194 112.805,36.177 111.803,35.156 C110.802,34.134 110.818,32.494 111.84,31.493 C112.861,30.492 114.501,30.508 115.502,31.53 z" fill="#65B0AB"/>
        <path d="M147.017,8.199 C147.485,8.676 147.478,9.442 147,9.91 C146.523,10.378 145.757,10.37 145.289,9.893 C144.821,9.415 144.829,8.649 145.306,8.182 C145.783,7.714 146.55,7.721 147.017,8.199 z" fill="#65B0AB"/>
        <path d="M122.085,25.829 C122.626,26.381 122.617,27.267 122.065,27.809 C121.513,28.35 120.627,28.341 120.085,27.789 C119.544,27.237 119.553,26.351 120.105,25.809 C120.657,25.268 121.543,25.277 122.085,25.829 z" fill="#65B0AB"/>
        <path d="M105.5,36.58 L105.29,36.03 L113.82,32.86 L121.18,26.58 L131.34,23.98 L131.06,23.1 L132.22,21.91 L133.36,22.02 L136.47,14.56 L139,14.58 L139.63,12.22 L146.21,8.96 L146.47,9.49 L140.13,12.63 L139.45,15.17 L136.86,15.15 L133.73,22.64 L132.45,22.52 L131.73,23.26 L132.09,24.39 L121.4,27.13 L114.07,33.39 L105.5,36.58 z" fill="#65B0AB"/>
        <path d="M137.384,0.101 C137.925,0.653 137.916,1.539 137.364,2.08 C136.812,2.622 135.926,2.613 135.384,2.061 C134.843,1.509 134.852,0.622 135.404,0.081 C135.956,-0.46 136.843,-0.451 137.384,0.101 z" fill="#65B0AB"/>
        <path d="M130.031,10.32 C130.901,11.208 130.887,12.632 130,13.502 C129.112,14.372 127.688,14.358 126.818,13.471 C125.948,12.583 125.962,11.159 126.849,10.289 C127.737,9.419 129.161,9.433 130.031,10.32 z" fill="#65B0AB"/>
        <path d="M121.02,14.97 L120.81,14.43 L128.41,11.54 L128.49,11.55 L135.53,12.93 L135.98,11.63 L137.25,10.93 L136.05,1.28 L132.95,0.51 L133.09,-0.06 L136.58,0.81 L137.88,11.25 L136.46,12.04 L135.92,13.61 L128.46,12.14 L121.02,14.97 z" fill="#65B0AB"/>
      </g>
    </g>
    <g>
      <g>
        <path d="M186.6,8.36 C185.332,6.405 182.72,5.847 180.765,7.114 C178.81,8.381 178.251,10.992 179.516,12.948 C180.782,14.904 183.393,15.465 185.35,14.2 C186.291,13.592 186.951,12.635 187.186,11.539 C187.42,10.444 187.209,9.3 186.6,8.36 z M184.5,12.88 C183.272,13.679 181.63,13.33 180.832,12.102 C180.035,10.874 180.385,9.231 181.614,8.435 C182.843,7.639 184.485,7.99 185.28,9.22 C186.073,10.446 185.724,12.083 184.5,12.88 z" fill="#2D7174"/>
        <path d="M151.16,17.29 C150.731,16.627 149.945,16.287 149.168,16.431 C148.392,16.574 147.778,17.172 147.615,17.944 C147.451,18.717 147.769,19.512 148.421,19.958 C149.073,20.404 149.929,20.412 150.59,19.98 C151.487,19.393 151.742,18.191 151.16,17.29 z M150.02,19.11 C149.598,19.382 149.035,19.261 148.762,18.839 C148.49,18.418 148.61,17.855 149.032,17.582 C149.454,17.309 150.017,17.429 150.29,17.85 C150.546,18.264 150.431,18.805 150.03,19.08 z" fill="#2D7174"/>
        <path d="M144.93,26.29 C144.057,24.983 142.293,24.626 140.98,25.49 C139.667,26.353 139.297,28.115 140.152,29.434 C141.006,30.753 142.765,31.135 144.09,30.29 C144.738,29.876 145.193,29.219 145.351,28.467 C145.509,27.714 145.357,26.929 144.93,26.29 z M143.26,28.97 C142.806,29.267 142.218,29.262 141.77,28.956 C141.322,28.65 141.103,28.104 141.215,27.573 C141.326,27.042 141.747,26.631 142.281,26.532 C142.814,26.433 143.355,26.665 143.65,27.12 C144.031,27.733 143.859,28.537 143.26,28.94 z" fill="#2D7174"/>
        <path d="M138.34,37.48 C137.782,36.617 136.63,36.37 135.767,36.928 C134.905,37.486 134.658,38.638 135.217,39.501 C135.776,40.363 136.928,40.609 137.79,40.05 C138.651,39.492 138.897,38.342 138.34,37.48 z M137.25,39.22 C136.954,39.411 136.572,39.405 136.283,39.205 C135.993,39.005 135.853,38.649 135.927,38.305 C136.002,37.961 136.277,37.696 136.623,37.633 C136.97,37.571 137.32,37.723 137.51,38.02 C137.769,38.423 137.652,38.96 137.25,39.22 z" fill="#2D7174"/>
        <path d="M140.37,10.94 C139.337,9.35 137.211,8.9 135.623,9.934 C134.034,10.968 133.585,13.095 134.621,14.682 C135.656,16.27 137.783,16.717 139.37,15.68 C140.953,14.646 141.4,12.526 140.37,10.94 z M138.91,14.94 C137.704,15.719 136.096,15.373 135.316,14.168 C134.537,12.963 134.881,11.355 136.085,10.574 C137.289,9.794 138.898,10.136 139.68,11.34 C140.072,11.923 140.212,12.64 140.067,13.328 C139.922,14.015 139.504,14.615 138.91,14.99 z" fill="#2D7174"/>
        <path d="M131.66,17.11 C131.157,16.331 130.233,15.933 129.321,16.101 C128.409,16.27 127.689,16.971 127.497,17.878 C127.304,18.785 127.678,19.719 128.443,20.243 C129.208,20.767 130.214,20.777 130.99,20.27 C132.045,19.58 132.344,18.168 131.66,17.11 z M130.66,19.81 C130.07,20.196 129.306,20.187 128.725,19.789 C128.143,19.391 127.86,18.681 128.006,17.992 C128.152,17.303 128.7,16.77 129.393,16.642 C130.086,16.515 130.788,16.818 131.17,17.41 C131.701,18.199 131.5,19.267 130.72,19.81 z" fill="#2D7174"/>
        <path d="M146.72,41.39 C146.425,40.93 145.881,40.693 145.343,40.79 C144.805,40.888 144.379,41.3 144.264,41.835 C144.149,42.369 144.368,42.921 144.818,43.231 C145.269,43.541 145.862,43.548 146.32,43.25 C146.942,42.845 147.12,42.015 146.72,41.39 z M145.93,42.65 C145.637,42.838 145.247,42.753 145.059,42.46 C144.871,42.167 144.957,41.777 145.249,41.59 C145.542,41.402 145.932,41.487 146.12,41.78 C146.311,42.068 146.236,42.456 145.95,42.65 z" fill="#2D7174"/>
        <path d="M173.048,10.943 C173.844,12.171 173.495,13.812 172.267,14.608 C171.04,15.405 169.398,15.056 168.602,13.828 C167.805,12.6 168.155,10.959 169.382,10.162 C170.61,9.366 172.251,9.715 173.048,10.943 z" fill="#2D7174"/>
        <path d="M134.37,29.463 C134.743,30.038 134.579,30.806 134.005,31.178 C133.43,31.551 132.662,31.388 132.289,30.813 C131.917,30.239 132.08,29.471 132.655,29.098 C133.229,28.725 133.997,28.889 134.37,29.463 z" fill="#2D7174"/>
        <path d="M116.343,43.689 C116.911,44.565 116.662,45.735 115.786,46.303 C114.91,46.871 113.74,46.622 113.172,45.746 C112.604,44.871 112.853,43.7 113.729,43.132 C114.605,42.564 115.775,42.813 116.343,43.689 z" fill="#2D7174"/>
        <path d="M108.593,45.011 C108.984,45.613 108.813,46.418 108.21,46.809 C107.608,47.2 106.803,47.028 106.412,46.426 C106.021,45.824 106.193,45.018 106.795,44.628 C107.397,44.237 108.202,44.408 108.593,45.011 z" fill="#2D7174"/>
        <path d="M138.642,21.357 C139.014,21.932 138.851,22.7 138.276,23.073 C137.702,23.445 136.934,23.282 136.561,22.707 C136.188,22.133 136.352,21.365 136.927,20.992 C137.501,20.619 138.269,20.783 138.642,21.357 z" fill="#2D7174"/>
        <path d="M163.25,16.659 C163.68,17.322 163.491,18.207 162.829,18.637 C162.166,19.067 161.281,18.878 160.851,18.216 C160.421,17.553 160.61,16.667 161.272,16.238 C161.935,15.808 162.82,15.997 163.25,16.659 z" fill="#2D7174"/>
        <path d="M153.05,9.787 C153.48,10.449 153.292,11.335 152.629,11.765 C151.967,12.194 151.081,12.006 150.651,11.343 C150.221,10.681 150.41,9.795 151.072,9.365 C151.735,8.936 152.621,9.124 153.05,9.787 z" fill="#2D7174"/>
        <path d="M133.25,30.21 L133.09,29.63 L140.09,27.77 L141.28,25.36 L143.87,25.9 L148.53,19.04 L149.8,19.42 L150.66,18.82 L150.53,17.61 L161.81,17.04 L170.42,12.25 L179.66,10.81 L179.75,11.4 L170.56,12.84 L161.91,17.64 L151.2,18.18 L151.3,19.12 L149.9,20.07 L148.78,19.74 L144.14,26.57 L141.61,26.04 L140.5,28.28 L133.25,30.21 z" fill="#2D7174"/>
        <path d="M160.982,28.84 C161.412,29.503 161.224,30.388 160.561,30.818 C159.899,31.248 159.013,31.06 158.583,30.397 C158.153,29.735 158.342,28.849 159.004,28.419 C159.667,27.989 160.552,28.178 160.982,28.84 z" fill="#2D7174"/>
        <path d="M142.703,39.322 C143.133,39.985 142.944,40.87 142.282,41.3 C141.619,41.73 140.734,41.541 140.304,40.879 C139.874,40.216 140.062,39.331 140.725,38.901 C141.387,38.471 142.273,38.66 142.703,39.322 z" fill="#2D7174"/>
        <path d="M153.597,29.624 C154.288,30.689 153.985,32.114 152.919,32.805 C151.854,33.497 150.429,33.193 149.738,32.128 C149.046,31.062 149.35,29.638 150.415,28.946 C151.481,28.255 152.905,28.558 153.597,29.624 z" fill="#2D7174"/>
        <path d="M123.5,31.166 C123.686,31.453 123.604,31.837 123.317,32.024 C123.03,32.21 122.646,32.128 122.459,31.841 C122.273,31.554 122.355,31.17 122.642,30.983 C122.929,30.797 123.313,30.879 123.5,31.166 z" fill="#2D7174"/>
        <path d="M128.411,6.112 C128.712,6.575 128.58,7.194 128.116,7.495 C127.653,7.795 127.034,7.663 126.733,7.2 C126.433,6.737 126.565,6.117 127.028,5.817 C127.491,5.516 128.111,5.648 128.411,6.112 z" fill="#2D7174"/>
        <path d="M144.56,41.91 L141.25,40.34 L142.06,29.61 L143.64,29.11 L144.51,27.64 L151.68,30.63 L159.71,29.3 L159.81,29.89 L151.61,31.25 L151.53,31.21 L144.76,28.4 L144.05,29.61 L142.63,30.06 L141.88,39.97 L144.82,41.36 L144.56,41.91 z" fill="#2D7174"/>
        <path d="M140.86,26.4 L137.11,22.27 L137.38,16.09 L135.81,15.76 L134.76,14.68 L134.18,13.32 L134.52,11.5 L127.46,6.85 L127.79,6.35 L135.19,11.22 L134.8,13.25 L135.29,14.4 L136.1,15.21 L138,15.61 L137.72,22.05 L141.3,25.99 L140.86,26.4 z" fill="#2D7174"/>
      </g>
      <g>
        <path d="M187.62,17.01 C186.302,17.51 185.416,18.755 185.375,20.164 C185.335,21.573 186.148,22.867 187.435,23.442 C188.722,24.016 190.229,23.758 191.251,22.787 C192.273,21.816 192.608,20.325 192.1,19.01 C191.41,17.225 189.409,16.332 187.62,17.01 z M190.89,19.5 C191.31,20.627 190.737,21.882 189.61,22.303 C188.483,22.724 187.228,22.152 186.806,21.025 C186.383,19.899 186.954,18.643 188.08,18.22 C188.622,18.016 189.223,18.037 189.751,18.277 C190.278,18.517 190.688,18.957 190.89,19.5 z" fill="#2D7174"/>
        <path d="M180.86,42.97 C180.036,43.284 179.621,44.205 179.932,45.03 C180.244,45.855 181.163,46.273 181.989,45.964 C182.815,45.655 183.236,44.737 182.93,43.91 C182.617,43.08 181.691,42.659 180.86,42.97 z M182.13,44.21 C182.266,44.595 182.07,45.018 181.688,45.162 C181.306,45.306 180.879,45.118 180.727,44.739 C180.575,44.36 180.754,43.93 181.13,43.77 C181.319,43.689 181.533,43.689 181.722,43.77 C181.912,43.851 182.059,44.007 182.13,44.2 z" fill="#2D7174"/>
        <path d="M187.02,49.58 C186.117,49.903 185.499,50.741 185.458,51.699 C185.416,52.657 185.958,53.545 186.829,53.946 C187.7,54.347 188.728,54.18 189.428,53.525 C190.128,52.87 190.362,51.856 190.02,50.96 C189.562,49.76 188.229,49.147 187.02,49.58 z M188.88,51.4 C189.094,51.968 188.808,52.602 188.24,52.817 C187.672,53.032 187.037,52.746 186.822,52.178 C186.607,51.61 186.892,50.976 187.46,50.76 C187.733,50.656 188.036,50.665 188.303,50.785 C188.569,50.905 188.777,51.127 188.88,51.4 z" fill="#2D7174"/>
        <path d="M173.87,50.54 C172.405,51.089 171.663,52.721 172.213,54.185 C172.763,55.649 174.397,56.39 175.86,55.839 C177.324,55.287 178.063,53.653 177.51,52.19 C176.959,50.731 175.331,49.993 173.87,50.54 z M176.87,52.43 C177.18,53.244 176.968,54.165 176.333,54.761 C175.699,55.358 174.767,55.513 173.974,55.153 C173.18,54.794 172.682,53.991 172.712,53.121 C172.742,52.25 173.294,51.484 174.11,51.18 C175.22,50.769 176.454,51.332 176.87,52.44 z" fill="#2D7174"/>
        <path d="M171.27,28 C170.696,28.216 170.406,28.855 170.621,29.429 C170.836,30.003 171.476,30.294 172.05,30.078 C172.624,29.863 172.915,29.224 172.7,28.65 C172.597,28.374 172.388,28.15 172.12,28.029 C171.852,27.907 171.546,27.896 171.27,28 z M172.15,28.86 C172.225,29.057 172.175,29.279 172.022,29.424 C171.869,29.569 171.644,29.607 171.452,29.521 C171.26,29.435 171.139,29.241 171.145,29.031 C171.151,28.821 171.283,28.635 171.48,28.56 C171.748,28.458 172.047,28.593 172.15,28.86 z" fill="#2D7174"/>
        <path d="M182.475,25.491 C182.899,26.618 182.329,27.875 181.202,28.299 C180.075,28.723 178.818,28.153 178.394,27.026 C177.971,25.899 178.541,24.642 179.667,24.218 C180.794,23.794 182.051,24.364 182.475,25.491 z" fill="#2D7174"/>
        <path d="M189.035,59.297 C189.233,59.824 188.966,60.412 188.439,60.61 C187.912,60.808 187.324,60.542 187.126,60.014 C186.927,59.487 187.194,58.899 187.721,58.701 C188.249,58.502 188.837,58.769 189.035,59.297 z" fill="#2D7174"/>
        <path d="M183.27,54.348 C183.469,54.875 183.202,55.463 182.675,55.661 C182.147,55.86 181.559,55.593 181.361,55.066 C181.163,54.538 181.429,53.95 181.956,53.752 C182.484,53.554 183.072,53.82 183.27,54.348 z" fill="#2D7174"/>
        <path d="M184.031,33.779 C184.261,34.389 183.952,35.07 183.342,35.299 C182.732,35.529 182.052,35.22 181.822,34.61 C181.593,34 181.902,33.32 182.512,33.09 C183.121,32.861 183.802,33.169 184.031,33.779 z" fill="#2D7174"/>
        <path d="M187.64,59.71 L187.38,53.75 L185.65,52.36 L186.54,50.37 L181.84,45.4 L182.36,44.45 L182.04,43.65 L181.04,43.54 L182.57,34.36 L180.2,26.49 L186.57,21.59 L186.87,21.98 L180.77,26.68 L183.08,34.32 L183.07,34.38 L181.62,43.11 L182.39,43.19 L182.91,44.48 L182.44,45.32 L187.13,50.27 L186.26,52.21 L187.86,53.5 L188.13,59.69 L187.64,59.71 z" fill="#2D7174"/>
        <path d="M193.478,37.786 C193.707,38.396 193.399,39.077 192.789,39.306 C192.179,39.535 191.499,39.227 191.269,38.617 C191.04,38.007 191.348,37.326 191.958,37.097 C192.568,36.868 193.249,37.176 193.478,37.786 z" fill="#2D7174"/>
        <path d="M170.443,31.564 C170.673,32.174 170.364,32.855 169.754,33.084 C169.144,33.314 168.464,33.005 168.234,32.395 C168.005,31.785 168.313,31.105 168.923,30.875 C169.533,30.646 170.214,30.954 170.443,31.564 z" fill="#2D7174"/>
        <path d="M193.738,44.288 C194.108,45.27 193.611,46.366 192.629,46.735 C191.647,47.105 190.551,46.608 190.182,45.626 C189.812,44.643 190.309,43.548 191.291,43.178 C192.273,42.809 193.369,43.306 193.738,44.288 z" fill="#2D7174"/>
        <path d="M168.93,59.779 C169.089,60.203 168.875,60.675 168.451,60.835 C168.027,60.994 167.554,60.78 167.395,60.356 C167.235,59.932 167.45,59.459 167.873,59.3 C168.297,59.14 168.77,59.355 168.93,59.779 z" fill="#2D7174"/>
        <path d="M189.16,51.18 L188.06,50.16 L191.73,44.91 L192.08,38.21 L192.57,38.23 L192.21,45.08 L188.71,50.09 L189.49,50.82 L189.16,51.18 z" fill="#2D7174"/>
        <path d="M168.29,60.23 L167.95,59.87 L173.18,54.77 L174.75,55.44 L175.75,55.25 L176.55,54.74 L177.21,53.28 L182.36,54.64 L186.16,52.46 L186.41,52.89 L182.43,55.17 L177.49,53.86 L176.94,55.08 L175.89,55.73 L174.69,55.96 L173.29,55.36 L168.29,60.23 z" fill="#2D7174"/>
      </g>
      <path d="M169.54,31.72 L169.17,31.37 L170.92,29.52 L171.28,29.86 L169.54,31.72 z" fill="#2D7174"/>
      <path d="M172.301,28.465 L178.855,26.214 L179.017,26.687 L172.463,28.938 z" fill="#2D7174"/>
      <path d="M174.396,41.786 C174.766,42.768 174.269,43.864 173.287,44.233 C172.304,44.602 171.209,44.106 170.839,43.123 C170.47,42.141 170.967,41.045 171.949,40.676 C172.931,40.307 174.027,40.804 174.396,41.786 z" fill="#2D7174"/>
      <path d="M164.546,38.869 C164.74,39.385 164.479,39.962 163.962,40.157 C163.445,40.351 162.868,40.09 162.674,39.573 C162.479,39.056 162.741,38.479 163.258,38.285 C163.775,38.09 164.351,38.352 164.546,38.869 z" fill="#2D7174"/>
      <path d="M161.8,45.78 C160.532,43.825 157.92,43.267 155.965,44.534 C154.01,45.801 153.451,48.412 154.716,50.368 C155.982,52.324 158.593,52.885 160.55,51.62 C161.491,51.012 162.151,50.055 162.386,48.959 C162.62,47.864 162.409,46.72 161.8,45.78 z M159.72,50.29 C158.492,51.089 156.85,50.74 156.052,49.512 C155.255,48.284 155.605,46.641 156.834,45.845 C158.063,45.049 159.705,45.4 160.5,46.63 C161.293,47.856 160.944,49.493 159.72,50.29 z" fill="#2D7174"/>
      <path d="M157.55,3.62 C157.002,2.769 155.995,2.332 155,2.514 C154.004,2.696 153.216,3.46 153.004,4.449 C152.791,5.439 153.197,6.459 154.03,7.033 C154.864,7.607 155.961,7.621 156.81,7.07 C157.965,6.32 158.295,4.778 157.55,3.62 z M156.31,6.29 C155.587,6.758 154.622,6.552 154.153,5.829 C153.685,5.107 153.89,4.141 154.613,3.672 C155.335,3.203 156.301,3.408 156.77,4.13 C156.996,4.477 157.074,4.9 156.988,5.305 C156.902,5.711 156.658,6.065 156.31,6.29 z" fill="#2D7174"/>
      <path d="M172.31,52.94 L161.32,49.18 L161.23,47.07 L160.34,45.72 L159.17,44.93 L163.51,38.91 L172.23,42.22 L172.05,42.69 L163.69,39.5 L159.87,44.81 L160.72,45.4 L161.72,46.92 L161.8,48.82 L172.47,52.47 L172.31,52.94 z" fill="#2D7174"/>
      <path d="M158.72,26.92 C157.255,27.469 156.513,29.101 157.063,30.565 C157.613,32.029 159.247,32.77 160.71,32.219 C162.174,31.667 162.913,30.033 162.36,28.57 C161.809,27.111 160.181,26.373 158.72,26.92 z M161.72,28.81 C162.03,29.624 161.818,30.545 161.183,31.141 C160.549,31.738 159.617,31.893 158.824,31.533 C158.03,31.174 157.532,30.371 157.562,29.501 C157.592,28.63 158.144,27.864 158.96,27.56 C160.067,27.148 161.3,27.706 161.72,28.81 z" fill="#2D7174"/>
      <path d="M160.29,32.029 L160.754,31.842 L163.627,38.964 L163.163,39.151 z" fill="#2D7174"/>
      <path d="M128.98,37.58 C128.236,37.638 127.68,38.287 127.738,39.031 C127.796,39.774 128.446,40.33 129.19,40.272 C129.933,40.214 130.489,39.564 130.43,38.82 C130.372,38.077 129.723,37.523 128.98,37.58 z M129.71,38.88 C129.736,39.226 129.477,39.529 129.131,39.556 C128.785,39.583 128.482,39.325 128.454,38.978 C128.426,38.632 128.684,38.329 129.03,38.3 C129.199,38.283 129.367,38.336 129.497,38.445 C129.627,38.554 129.707,38.711 129.72,38.88 z" fill="#2D7174"/>
      <path d="M134.62,48.04 C133.81,48.096 133.113,48.637 132.859,49.408 C132.604,50.179 132.841,51.028 133.458,51.556 C134.076,52.083 134.952,52.185 135.674,51.813 C136.396,51.441 136.821,50.669 136.75,49.86 C136.654,48.774 135.707,47.965 134.62,48.04 z M135.7,49.94 C135.731,50.315 135.533,50.672 135.198,50.844 C134.863,51.016 134.458,50.97 134.171,50.726 C133.884,50.482 133.772,50.089 133.888,49.731 C134.004,49.373 134.325,49.12 134.7,49.09 C134.95,49.065 135.2,49.142 135.392,49.304 C135.584,49.466 135.702,49.699 135.72,49.95 z" fill="#2D7174"/>
      <path d="M123.78,45.75 C122.819,45.822 121.996,46.467 121.696,47.383 C121.396,48.299 121.679,49.306 122.411,49.932 C123.144,50.559 124.182,50.681 125.041,50.243 C125.899,49.804 126.408,48.891 126.33,47.93 C126.224,46.626 125.085,45.652 123.78,45.75 z M125.78,47.98 C125.836,48.965 125.09,49.811 124.106,49.878 C123.122,49.946 122.267,49.209 122.189,48.225 C122.11,47.242 122.838,46.379 123.82,46.29 C124.809,46.239 125.656,46.992 125.72,47.98 z" fill="#2D7174"/>
      <path d="M144.43,51.94 C143.919,51.98 143.536,52.426 143.575,52.938 C143.614,53.449 144.06,53.833 144.571,53.795 C145.083,53.757 145.467,53.312 145.43,52.8 C145.412,52.553 145.297,52.323 145.109,52.162 C144.921,52.001 144.677,51.921 144.43,51.94 z M144.94,52.84 C144.956,53.018 144.862,53.188 144.704,53.27 C144.545,53.352 144.353,53.33 144.217,53.214 C144.081,53.098 144.028,52.912 144.084,52.742 C144.139,52.572 144.292,52.453 144.47,52.44 C144.71,52.423 144.919,52.601 144.94,52.84 z" fill="#2D7174"/>
      <path d="M134.01,56.346 C134.047,56.819 133.693,57.233 133.22,57.27 C132.746,57.307 132.332,56.953 132.295,56.48 C132.258,56.006 132.612,55.592 133.086,55.555 C133.559,55.518 133.973,55.872 134.01,56.346 z" fill="#2D7174"/>
      <path d="M130.475,51.018 C130.512,51.492 130.159,51.906 129.685,51.943 C129.212,51.98 128.798,51.626 128.761,51.153 C128.724,50.679 129.077,50.265 129.551,50.228 C130.024,50.191 130.438,50.545 130.475,51.018 z" fill="#2D7174"/>
      <path d="M133.16,56.46 L132.75,56.37 L133.94,51.49 L132.87,49.97 L134.05,48.57 L129.19,39.78 L129.84,39.13 L129.77,38.4 L128.98,38.08 L133.26,29.82 L136.42,37.12 L136.03,37.29 L133.23,30.79 L129.56,37.87 L130.15,38.11 L130.28,39.28 L129.7,39.85 L134.55,48.62 L133.39,49.99 L134.39,51.4 L133.16,56.46 z" fill="#2D7174"/>
      <path d="M142.921,54.635 C142.964,55.181 142.556,55.657 142.011,55.7 C141.466,55.742 140.99,55.335 140.947,54.79 C140.904,54.245 141.312,53.769 141.857,53.726 C142.402,53.683 142.878,54.09 142.921,54.635 z" fill="#2D7174"/>
      <path d="M141.244,45.353 C141.313,46.229 140.659,46.994 139.783,47.063 C138.908,47.131 138.143,46.477 138.074,45.602 C138.005,44.726 138.659,43.961 139.535,43.892 C140.41,43.824 141.176,44.478 141.244,45.353 z" fill="#2D7174"/>
      <path d="M117.605,52.07 C117.635,52.45 117.351,52.782 116.971,52.811 C116.591,52.841 116.259,52.557 116.229,52.177 C116.2,51.797 116.483,51.465 116.863,51.436 C117.243,51.406 117.575,51.69 117.605,52.07 z" fill="#2D7174"/>
      <path d="M141.98,54.94 L135.71,50.89 L135.93,49.77 L135.32,48.76 L139.51,45.37 L141.36,40.04 L141.75,40.18 L139.87,45.62 L139.82,45.66 L135.86,48.85 L136.37,49.69 L136.17,50.7 L141.96,54.44 L143.78,53.11 L144.03,53.44 L141.98,54.94 z" fill="#2D7174"/>
      <path d="M117.02,52.27 L116.82,51.9 L122.24,49 L123.34,49.91 L124.2,49.99 L124.97,49.76 L125.84,48.74 L129.67,51.04 L133.26,50.16 L133.36,50.57 L129.61,51.49 L125.93,49.28 L125.2,50.13 L124.25,50.41 L123.18,50.31 L122.19,49.5 L117.02,52.27 z" fill="#2D7174"/>
      <path d="M123.42,31.66 L123.36,31.25 L132.92,29.94 L132.27,22.52 L129.73,18.6 L124.35,22.71 L117.37,20.54 L116.57,21.33 L115.15,20.99 L111.52,25.16 L111.2,24.88 L115,20.53 L116.44,20.87 L117.26,20.07 L124.27,22.25 L129.83,18 L132.68,22.44 L133.36,30.3 L133.17,30.33 L123.42,31.66 z" fill="#2D7174"/>
      <path d="M112.075,24.447 C112.364,24.892 112.237,25.486 111.793,25.775 C111.348,26.064 110.753,25.937 110.465,25.492 C110.176,25.047 110.303,24.453 110.748,24.164 C111.192,23.876 111.787,24.002 112.075,24.447 z" fill="#2D7174"/>
      <path d="M130.647,17.772 C130.959,18.254 130.822,18.898 130.34,19.21 C129.858,19.523 129.214,19.385 128.902,18.904 C128.589,18.422 128.726,17.778 129.208,17.465 C129.69,17.153 130.334,17.29 130.647,17.772 z" fill="#2D7174"/>
      <path d="M133.311,21.828 C133.623,22.31 133.486,22.954 133.004,23.267 C132.522,23.58 131.878,23.442 131.566,22.961 C131.253,22.479 131.39,21.835 131.872,21.522 C132.354,21.209 132.998,21.347 133.311,21.828 z" fill="#2D7174"/>
      <path d="M126.127,21.041 C126.819,22.107 126.515,23.531 125.45,24.222 C124.384,24.914 122.96,24.611 122.268,23.545 C121.577,22.479 121.88,21.055 122.946,20.364 C124.011,19.672 125.436,19.975 126.127,21.041 z" fill="#2D7174"/>
      <path d="M117.72,18.74 C117.162,17.877 116.01,17.63 115.147,18.188 C114.285,18.746 114.038,19.898 114.597,20.761 C115.156,21.623 116.308,21.869 117.17,21.31 C118.031,20.752 118.277,19.602 117.72,18.74 z M116.63,20.48 C116.334,20.671 115.952,20.665 115.663,20.465 C115.373,20.265 115.233,19.909 115.307,19.565 C115.382,19.221 115.657,18.956 116.003,18.893 C116.35,18.831 116.7,18.983 116.89,19.28 C117.149,19.683 117.032,20.22 116.63,20.48 z" fill="#2D7174"/>
      <path d="M151.598,10.251 L154.097,6.545 L154.595,6.881 L152.095,10.587 z" fill="#2D7174"/>
      <path d="M157.171,6.218 L157.427,5.676 L170.457,11.829 L170.201,12.372 z" fill="#2D7174"/>
      <path d="M121.98,48.03 L114.72,44.87 L107.55,45.9 L107.49,45.49 L114.78,44.45 L121.76,47.49 L122.09,46.79 L122.97,46.01 L123.84,45.86 L123.62,42.26 L124.03,42.24 L124.27,46.21 L123.16,46.4 L122.4,47.07 L121.98,48.03 z" fill="#2D7174"/>
      <path d="M124.545,42.218 C124.574,42.598 124.29,42.93 123.911,42.959 C123.531,42.989 123.199,42.705 123.169,42.325 C123.139,41.946 123.423,41.613 123.803,41.584 C124.183,41.554 124.515,41.838 124.545,42.218 z" fill="#2D7174"/>
      <g>
        <path d="M54.77,45.37 C52.476,45.775 50.943,47.962 51.347,50.256 C51.75,52.551 53.936,54.085 56.231,53.683 C58.526,53.281 60.061,51.095 59.66,48.8 C59.467,47.696 58.844,46.714 57.926,46.071 C57.009,45.428 55.873,45.175 54.77,45.37 L54.77,45.37 z" fill="#2D7174"/>
        <path d="M87.44,55.2 C87.574,55.978 88.164,56.599 88.934,56.772 C89.705,56.946 90.504,56.637 90.958,55.99 C91.412,55.344 91.431,54.488 91.006,53.822 C90.582,53.156 89.798,52.812 89.02,52.95 C87.964,53.138 87.258,54.143 87.44,55.2 z M89.2,53.97 C89.563,53.906 89.928,54.068 90.125,54.379 C90.323,54.69 90.313,55.089 90.101,55.391 C89.889,55.692 89.516,55.835 89.156,55.754 C88.797,55.673 88.522,55.383 88.46,55.02 C88.375,54.526 88.706,54.056 89.2,53.97 z" fill="#2D7174"/>
        <path d="M96.72,49.36 C96.992,50.915 98.472,51.957 100.028,51.686 C101.583,51.415 102.625,49.935 102.355,48.379 C102.085,46.824 100.606,45.781 99.05,46.05 C98.302,46.179 97.636,46.601 97.199,47.222 C96.762,47.843 96.589,48.612 96.72,49.36 z M99.31,47.55 C100.039,47.423 100.733,47.911 100.86,48.64 C100.987,49.369 100.499,50.063 99.77,50.19 C99.041,50.317 98.347,49.829 98.22,49.1 C98.092,48.378 98.569,47.687 99.29,47.55 z" fill="#2D7174"/>
        <path d="M80.07,40.56 C80.342,42.115 81.822,43.157 83.378,42.886 C84.933,42.615 85.975,41.135 85.705,39.579 C85.435,38.024 83.956,36.981 82.4,37.25 C81.652,37.379 80.986,37.801 80.549,38.422 C80.112,39.043 79.939,39.812 80.07,40.56 z M82.66,38.75 C83.389,38.623 84.083,39.111 84.21,39.84 C84.337,40.569 83.849,41.263 83.12,41.39 C82.391,41.517 81.697,41.029 81.57,40.3 C81.443,39.571 81.931,38.877 82.66,38.75 z" fill="#2D7174"/>
        <path d="M100.49,34.72 C100.666,35.733 101.63,36.411 102.642,36.234 C103.655,36.058 104.332,35.093 104.155,34.081 C103.977,33.068 103.012,32.392 102,32.57 C100.99,32.748 100.315,33.71 100.49,34.72 z M102.17,33.54 C102.517,33.48 102.866,33.635 103.054,33.933 C103.242,34.232 103.232,34.614 103.028,34.901 C102.824,35.188 102.466,35.324 102.123,35.245 C101.78,35.166 101.518,34.888 101.46,34.54 C101.423,34.312 101.477,34.078 101.612,33.891 C101.748,33.703 101.952,33.577 102.18,33.54 z" fill="#2D7174"/>
        <path d="M70.095,51.507 C70.346,52.949 69.382,54.321 67.94,54.573 C66.498,54.825 65.125,53.861 64.874,52.419 C64.622,50.977 65.586,49.604 67.028,49.352 C68.47,49.101 69.843,50.065 70.095,51.507 z" fill="#2D7174"/>
        <path d="M110.155,50.1 C110.273,50.775 109.821,51.417 109.147,51.535 C108.472,51.653 107.83,51.202 107.712,50.527 C107.594,49.853 108.045,49.21 108.72,49.092 C109.395,48.974 110.037,49.426 110.155,50.1 z" fill="#2D7174"/>
        <path d="M78.902,50.542 C79.038,51.32 78.517,52.06 77.739,52.196 C76.961,52.332 76.221,51.812 76.085,51.034 C75.949,50.256 76.469,49.515 77.247,49.379 C78.025,49.243 78.766,49.764 78.902,50.542 z" fill="#2D7174"/>
        <path d="M88.17,55.12 L77.57,51.23 L67.82,52.28 L67.77,52.26 L58.7,49.97 L58.85,49.39 L67.86,51.67 L77.64,50.62 L87.77,54.34 L88.05,53.44 L89.71,53.11 L90.61,53.85 L97.55,49.38 L99.67,50.86 L101.57,49.24 L109,50.31 L108.91,50.9 L101.75,49.87 L99.71,51.62 L97.54,50.1 L90.56,54.6 L89.54,53.75 L88.52,53.96 L88.17,55.12 z" fill="#2D7174"/>
        <path d="M106.717,37.695 C106.853,38.473 106.333,39.214 105.555,39.35 C104.777,39.486 104.036,38.965 103.9,38.187 C103.764,37.409 104.284,36.669 105.062,36.533 C105.84,36.397 106.581,36.917 106.717,37.695 z" fill="#2D7174"/>
        <path d="M94.612,42.049 C94.831,43.3 93.993,44.492 92.742,44.71 C91.491,44.929 90.299,44.092 90.081,42.84 C89.862,41.589 90.699,40.398 91.95,40.179 C93.202,39.96 94.393,40.798 94.612,42.049 z" fill="#2D7174"/>
        <path d="M97.63,48.25 L92.2,42.7 L84.3,40.77 L84.44,40.19 L92.51,42.16 L97.7,47.46 L98.83,46.63 L100.31,46.77 L104.89,37.94 L102.73,35.51 L103.17,35.11 L105.61,37.86 L100.65,47.4 L99,47.25 L97.63,48.25 z" fill="#2D7174"/>
      </g>
    </g>
  </g>
</svg>
