<?xml version="1.0" encoding="UTF-8"?>
<!DOCTYPE svg PUBLIC "-//W3C//DTD SVG 1.1//EN" "http://www.w3.org/Graphics/SVG/1.1/DTD/svg11.dtd">
<svg version="1.1" xmlns="http://www.w3.org/2000/svg" xmlns:xlink="http://www.w3.org/1999/xlink" x="0" y="0" width="194.49" height="58.07" viewBox="0, 0, 194.49, 58.07">
  <g id="Layer_1">
    <g>
      <g>
        <g>
          <path d="M195.14,1.04 L194.44,1.29 L193.58,1.6 L193.03,1.8 L192.43,2.09 C189.967,3.247 187.716,4.808 185.77,6.71 C182.72,9.659 180.034,12.962 177.77,16.55 C175.08,20.66 172.36,25.55 169.45,30.87 C166.54,36.19 163.5,42.1 159.59,47.97 C157.624,51.02 155.385,53.886 152.9,56.53 C152.28,57.22 151.56,57.84 150.9,58.53 C150.24,59.22 149.45,59.75 148.72,60.36 C147.173,61.547 145.495,62.553 143.72,63.36 C143.27,63.55 142.83,63.76 142.37,63.93 L140.96,64.36 L140.23,64.58 L139.52,64.71 L138.09,64.96 C136.095,65.183 134.081,65.167 132.09,64.91 C128.151,64.301 124.322,63.126 120.72,61.42 C117.032,59.773 113.443,57.913 109.97,55.85 C106.45,53.85 102.97,51.71 99.51,49.6 C96.05,47.49 92.51,45.41 89.03,43.47 C85.563,41.5 81.961,39.779 78.25,38.32 C74.68,36.852 70.878,36.029 67.02,35.89 C66.088,35.871 65.156,35.917 64.23,36.03 C63.772,36.08 63.317,36.16 62.87,36.27 C62.44,36.37 61.93,36.43 61.56,36.56 L60.18,37 L59.49,37.22 L58.88,37.49 L57.72,38.04 C57.31,38.23 56.93,38.48 56.53,38.7 C54.971,39.603 53.525,40.687 52.22,41.93 C50.935,43.169 49.764,44.521 48.72,45.97 C46.716,48.858 44.97,51.917 43.5,55.11 C42.01,58.23 40.71,61.36 39.39,64.37 C38.07,67.38 36.77,70.29 35.39,73.05 C34.01,75.81 32.63,78.39 31.19,80.8 C30.43,81.98 29.73,83.16 28.94,84.23 C28.15,85.3 27.4,86.35 26.62,87.33 C23.958,90.738 20.865,93.786 17.42,96.4 C15.207,98.064 12.866,99.552 10.42,100.85 L7.81,102.17 L7.72,101.98 L10.25,100.53 C12.594,99.12 14.824,97.528 16.92,95.77 C20.173,93.055 23.081,89.952 25.58,86.53 C27.13,84.446 28.565,82.279 29.88,80.04 C31.24,77.65 32.57,75.04 33.88,72.33 C36.43,66.84 38.7,60.66 41.64,54.25 C43.121,50.913 44.922,47.728 47.02,44.74 C48.119,43.169 49.358,41.7 50.72,40.35 C52.156,38.994 53.755,37.821 55.48,36.86 C55.92,36.63 56.34,36.36 56.8,36.15 L58.21,35.55 L58.92,35.25 L59.62,35.04 L61,34.62 C61.504,34.484 62.015,34.374 62.53,34.29 C63.028,34.178 63.532,34.098 64.04,34.05 C65.056,33.941 66.079,33.904 67.1,33.94 C71.178,34.125 75.19,35.047 78.94,36.66 C86.48,39.74 93.33,44.23 100.14,48.66 C103.55,50.87 106.94,53.1 110.39,55.2 C113.818,57.287 117.364,59.174 121.01,60.85 C124.577,62.508 128.378,63.608 132.28,64.11 C134.171,64.34 136.084,64.32 137.97,64.05 L139.39,63.75 L140.1,63.6 L140.74,63.38 L142.06,62.93 C142.49,62.75 142.9,62.53 143.32,62.34 C144.971,61.517 146.524,60.51 147.95,59.34 C148.63,58.72 149.33,58.15 149.95,57.51 C150.57,56.87 151.24,56.24 151.82,55.51 C154.131,52.832 156.246,49.991 158.15,47.01 C160.04,44.11 161.7,41.16 163.34,38.33 L168,30.06 C170.653,25.166 173.564,20.416 176.72,15.83 C179.125,12.239 181.978,8.969 185.21,6.1 C187.304,4.251 189.698,2.773 192.29,1.73 L192.92,1.47 L193.49,1.31 L194.37,1.06 L195.09,0.86 z" fill="#FFFFFF"/>
          <path d="M-4.96,53.66 L-2.13,53.04 C-1.19,52.9 -0.03,52.74 1.34,52.61 L3.56,52.53 C4.35,52.53 5.19,52.59 6.07,52.62 C10.337,52.953 14.523,53.966 18.47,55.62 C20.901,56.606 23.272,57.734 25.57,59 C27.99,60.35 30.47,61.87 33,63.54 C38.07,66.87 43.31,70.83 49.09,74.62 C52.028,76.581 55.11,78.316 58.31,79.81 C61.608,81.371 65.193,82.236 68.84,82.35 C69.298,82.363 69.755,82.343 70.21,82.29 C70.67,82.29 71.13,82.29 71.58,82.16 L72.94,81.89 C73.15,81.89 73.43,81.8 73.59,81.75 L74.27,81.53 L75.64,81.08 L76.89,80.5 C77.748,80.068 78.576,79.581 79.37,79.04 C82.56,76.837 85.376,74.136 87.71,71.04 C92.57,64.86 96.38,57.72 100.24,50.65 C104.1,43.58 107.89,36.37 112.78,29.95 C115.188,26.698 118.078,23.832 121.35,21.45 C124.65,19.097 128.553,17.734 132.6,17.52 C136.46,17.432 140.301,18.077 143.92,19.42 C147.325,20.626 150.623,22.114 153.78,23.87 C159.93,27.22 165.4,30.87 170.5,34.12 C175.6,37.37 180.26,40.35 184.61,42.59 C188.307,44.61 192.232,46.184 196.3,47.28 C198.906,47.978 201.61,48.235 204.3,48.04 C204.713,48.031 205.125,47.984 205.53,47.9 L206.42,47.75 L207.15,47.62 L207.2,47.82 L206.47,47.98 L205.58,48.18 C205.174,48.284 204.759,48.351 204.34,48.38 C201.594,48.709 198.811,48.574 196.11,47.98 C195.23,47.84 194.33,47.55 193.37,47.32 C192.41,47.09 191.45,46.72 190.43,46.38 C188.43,45.62 186.27,44.74 184.05,43.64 C179.59,41.49 174.77,38.64 169.61,35.5 C164.45,32.36 158.93,28.79 152.83,25.61 C149.735,23.968 146.523,22.558 143.22,21.39 C139.858,20.167 136.296,19.587 132.72,19.68 C129.046,19.846 125.496,21.06 122.49,23.18 C119.372,25.425 116.605,28.121 114.28,31.18 C109.45,37.36 105.59,44.46 101.65,51.49 C97.71,58.52 93.82,65.68 88.79,71.97 C86.333,75.147 83.383,77.909 80.05,80.15 C79.202,80.684 78.32,81.161 77.41,81.58 L76.03,82.2 L74.65,82.64 L73.96,82.86 C73.71,82.926 73.456,82.979 73.2,83.02 L71.75,83.3 C71.27,83.39 70.75,83.38 70.28,83.43 C69.795,83.481 69.307,83.498 68.82,83.48 C65.003,83.336 61.258,82.403 57.82,80.74 C54.581,79.196 51.468,77.401 48.51,75.37 C42.73,71.48 37.51,67.46 32.51,64.08 C30.01,62.38 27.51,60.85 25.18,59.48 C22.916,58.197 20.579,57.048 18.18,56.04 C14.293,54.369 10.165,53.329 5.95,52.96 C5.07,52.96 4.24,52.82 3.46,52.84 L1.26,52.9 C-0.1,53.01 -1.25,53.15 -2.18,53.28 L-5.02,53.86 z" fill="#FFFFFF"/>
        </g>
        <path d="M45.08,48.7 L45.49,49.91 C45.73,50.69 46.12,51.78 46.49,53.12 C46.86,54.46 47.37,56.01 47.84,57.68 C48.31,59.35 48.79,61.15 49.26,62.94 C49.73,64.73 50.17,66.54 50.57,68.23 C50.97,69.92 51.3,71.52 51.57,72.87 C51.84,74.22 52.07,75.38 52.23,76.17 L52.45,77.43 L52.03,76.22 C51.79,75.44 51.4,74.35 51.03,73.01 C50.66,71.67 50.15,70.12 49.68,68.45 C49.21,66.78 48.73,64.98 48.26,63.19 C47.79,61.4 47.35,59.59 46.95,57.9 C46.55,56.21 46.22,54.61 45.95,53.26 C45.68,51.91 45.45,50.75 45.29,49.96 z" fill="#FFFFFF"/>
        <path d="M54.51,38.31 L55.09,40.18 C55.44,41.37 55.98,43.07 56.56,45.12 C57.14,47.17 57.85,49.56 58.56,52.12 L60.72,60.19 L62.72,68.29 C63.37,70.87 63.9,73.29 64.4,75.38 C64.9,77.47 65.24,79.2 65.51,80.38 L65.9,82.3 L65.32,80.43 C64.97,79.24 64.43,77.54 63.85,75.49 C63.27,73.44 62.56,71.05 61.85,68.49 L59.72,60.45 L57.72,52.35 C57.07,49.77 56.54,47.35 56.05,45.26 C55.56,43.17 55.21,41.44 54.94,40.26 z" fill="#FFFFFF"/>
        <path d="M69.77,35.92 L70.34,37.72 C70.68,38.87 71.21,40.51 71.77,42.5 C72.33,44.49 73.01,46.79 73.69,49.28 C74.37,51.77 75.07,54.42 75.77,57.08 C76.47,59.74 77.13,62.4 77.77,64.91 C78.41,67.42 78.9,69.76 79.38,71.77 C79.86,73.78 80.19,75.46 80.45,76.64 L80.83,78.49 L80.26,76.69 C79.92,75.54 79.39,73.9 78.83,71.92 C78.27,69.94 77.58,67.63 76.91,65.14 C76.24,62.65 75.53,60 74.83,57.34 C74.13,54.68 73.47,52.02 72.83,49.51 C72.19,47 71.72,44.65 71.22,42.64 C70.72,40.63 70.41,38.95 70.15,37.77 z" fill="#FFFFFF"/>
        <path d="M87.13,41.61 C87.13,41.61 87.27,41.96 87.48,42.61 C87.69,43.26 88,44.09 88.33,45.15 C89.01,47.26 89.83,50.09 90.57,52.94 C91.31,55.79 91.96,58.66 92.39,60.83 C92.61,61.91 92.75,62.83 92.87,63.46 C92.99,64.09 93.03,64.46 93.03,64.46 C93.03,64.46 92.89,64.11 92.68,63.46 C92.47,62.81 92.16,61.98 91.83,60.92 C91.15,58.81 90.33,55.98 89.59,53.13 C88.85,50.28 88.2,47.41 87.77,45.24 C87.55,44.16 87.41,43.24 87.29,42.61 C87.17,41.98 87.13,41.61 87.13,41.61 z" fill="#FFFFFF"/>
        <path d="M110.88,34.72 C110.88,34.72 111.02,35.1 111.25,35.72 C111.48,36.34 111.81,37.33 112.16,38.48 C112.51,39.63 112.94,40.97 113.34,42.41 C113.74,43.85 114.17,45.41 114.58,46.95 C114.99,48.49 115.37,50.05 115.7,51.52 C116.03,52.99 116.31,54.36 116.57,55.52 C116.83,56.68 116.98,57.69 117.12,58.38 C117.26,59.07 117.3,59.47 117.3,59.47 C117.3,59.47 117.16,59.09 116.93,58.47 C116.7,57.85 116.37,56.86 116.02,55.71 C115.67,54.56 115.24,53.22 114.84,51.78 C114.44,50.34 114.02,48.78 113.6,47.24 C113.18,45.7 112.82,44.14 112.48,42.67 C112.14,41.2 111.87,39.83 111.61,38.67 C111.35,37.51 111.2,36.5 111.06,35.81 C110.92,35.12 110.88,34.72 110.88,34.72 z" fill="#FFFFFF"/>
        <path d="M120.85,23.47 L121.36,25.19 C121.67,26.29 122.14,27.85 122.64,29.74 C123.14,31.63 123.75,33.83 124.36,36.2 C124.97,38.57 125.59,41.1 126.21,43.64 C126.83,46.18 127.41,48.72 127.94,51.1 C128.47,53.48 128.94,55.72 129.34,57.64 C129.74,59.56 130.04,61.16 130.26,62.28 L130.58,64.05 L130.07,62.33 C129.76,61.23 129.29,59.67 128.79,57.78 C128.29,55.89 127.67,53.69 127.07,51.32 C126.47,48.95 125.84,46.42 125.22,43.88 C124.6,41.34 124.02,38.8 123.49,36.41 C122.96,34.02 122.49,31.79 122.09,29.87 C121.69,27.95 121.39,26.35 121.17,25.23 z" fill="#FFFFFF"/>
        <path d="M134.84,19.04 L135.41,20.84 C135.75,21.99 136.28,23.63 136.84,25.62 C137.4,27.61 138.08,29.91 138.76,32.4 C139.44,34.89 140.14,37.54 140.84,40.2 C141.54,42.86 142.2,45.52 142.84,48.03 C143.48,50.54 143.97,52.88 144.45,54.89 C144.93,56.9 145.26,58.58 145.52,59.76 L145.9,61.61 L145.33,59.81 C144.99,58.66 144.46,57.02 143.9,55.03 C143.34,53.04 142.65,50.74 141.98,48.25 C141.31,45.76 140.6,43.11 139.9,40.45 C139.2,37.79 138.54,35.13 137.9,32.62 C137.26,30.11 136.77,27.77 136.29,25.76 C135.81,23.75 135.48,22.07 135.22,20.89 z" fill="#FFFFFF"/>
        <path d="M152.02,24.13 C152.02,24.13 152.16,24.5 152.39,25.13 C152.62,25.76 152.94,26.72 153.28,27.85 C153.62,28.98 154.05,30.3 154.45,31.72 C154.85,33.14 155.26,34.66 155.67,36.18 C156.08,37.7 156.44,39.23 156.77,40.68 C157.1,42.13 157.37,43.47 157.63,44.63 C157.89,45.79 158.03,46.76 158.16,47.44 C158.29,48.12 158.34,48.51 158.34,48.51 C158.34,48.51 158.2,48.14 157.97,47.51 C157.74,46.88 157.41,45.93 157.07,44.79 C156.73,43.65 156.3,42.34 155.9,40.92 C155.5,39.5 155.09,37.98 154.68,36.46 C154.27,34.94 153.91,33.41 153.58,31.96 C153.25,30.51 152.98,29.17 152.72,28.01 C152.46,26.85 152.32,25.88 152.18,25.2 C152.04,24.52 152.02,24.13 152.02,24.13 z" fill="#FFFFFF"/>
        <g>
          <path d="M176.86,16.67 C176.86,16.67 177.01,17.06 177.24,17.75 C177.47,18.44 177.82,19.42 178.17,20.62 C178.52,21.82 178.97,23.2 179.39,24.7 C179.81,26.2 180.24,27.8 180.67,29.4 C181.1,31 181.48,32.62 181.83,34.13 C182.18,35.64 182.47,37.07 182.74,38.29 C183.01,39.51 183.17,40.54 183.31,41.29 C183.45,42.04 183.5,42.42 183.5,42.42 C183.5,42.42 183.35,42.03 183.12,41.34 C182.89,40.65 182.54,39.67 182.19,38.47 C181.84,37.27 181.39,35.89 180.97,34.39 C180.55,32.89 180.12,31.29 179.69,29.69 C179.26,28.09 178.88,26.47 178.53,24.95 C178.18,23.43 177.89,22.01 177.62,20.79 C177.35,19.57 177.19,18.54 177.05,17.79 C176.91,17.04 176.86,16.67 176.86,16.67 z" fill="#FFFFFF"/>
          <path d="M186.17,5.8 L186.73,7.59 C187.07,8.73 187.59,10.35 188.14,12.32 C188.69,14.29 189.37,16.57 190.04,19.03 C190.71,21.49 191.41,24.12 192.1,26.75 C192.79,29.38 193.45,32.02 194.04,34.5 C194.63,36.98 195.16,39.3 195.63,41.29 C196.1,43.28 196.43,44.95 196.68,46.11 L197.05,47.94 L196.49,46.15 C196.15,45.01 195.63,43.39 195.07,41.42 C194.51,39.45 193.84,37.17 193.17,34.71 C192.5,32.25 191.8,29.62 191.11,26.99 C190.42,24.36 189.77,21.72 189.17,19.24 C188.57,16.76 188.05,14.44 187.58,12.45 C187.11,10.46 186.78,8.79 186.53,7.63 z" fill="#FFFFFF"/>
        </g>
        <g>
          <path d="M29.24,82.89 C29.24,82.89 29.1,82.51 28.87,81.83 C28.64,81.15 28.31,80.19 27.97,79.02 C27.63,77.85 27.2,76.49 26.79,75.02 C26.38,73.55 25.97,72.02 25.56,70.41 C25.15,68.8 24.78,67.26 24.45,65.77 C24.12,64.28 23.84,62.89 23.58,61.69 C23.32,60.49 23.17,59.49 23.04,58.79 C22.91,58.09 22.86,57.68 22.86,57.68 C22.86,57.68 23,58.06 23.23,58.74 C23.46,59.42 23.79,60.38 24.13,61.55 C24.47,62.72 24.91,64.08 25.31,65.55 C25.71,67.02 26.13,68.55 26.54,70.16 C26.95,71.77 27.32,73.31 27.65,74.8 C27.98,76.29 28.26,77.68 28.52,78.88 C28.78,80.08 28.93,81.08 29.06,81.78 C29.19,82.48 29.24,82.89 29.24,82.89 z" fill="#FFFFFF"/>
          <path d="M19.93,93.76 L19.39,92.04 C19.07,90.94 18.57,89.37 18.03,87.48 C17.49,85.59 16.85,83.38 16.21,81 C15.57,78.62 14.9,76.09 14.21,73.55 C13.52,71.01 12.93,68.46 12.36,66.07 C11.79,63.68 11.3,61.43 10.85,59.51 C10.4,57.59 10.1,55.98 9.85,54.85 L9.55,53.04 L10.09,54.76 C10.41,55.86 10.92,57.43 11.45,59.32 C11.98,61.21 12.63,63.42 13.27,65.8 C13.91,68.18 14.58,70.71 15.27,73.25 C15.96,75.79 16.55,78.34 17.12,80.74 C17.69,83.14 18.18,85.38 18.63,87.3 C19.08,89.22 19.38,90.83 19.63,91.95 z" fill="#FFFFFF"/>
        </g>
      </g>
      <path d="M56.864,35.149 C58.966,36.718 59.397,39.695 57.828,41.797 C56.258,43.899 53.282,44.33 51.18,42.76 C49.078,41.191 48.646,38.214 50.216,36.112 C51.785,34.011 54.762,33.579 56.864,35.149 z" fill="#FFFFFF"/>
      <path d="M148.515,57.828 C150.617,59.397 151.048,62.374 149.479,64.476 C147.909,66.578 144.933,67.009 142.831,65.44 C140.729,63.87 140.297,60.894 141.867,58.792 C143.436,56.69 146.413,56.258 148.515,57.828 z" fill="#FFFFFF"/>
      <path d="M95.325,61.706 C96.307,62.44 96.509,63.831 95.776,64.813 C95.042,65.796 93.651,65.998 92.669,65.264 C91.686,64.531 91.484,63.14 92.218,62.157 C92.951,61.175 94.342,60.973 95.325,61.706 z" fill="#FFFFFF"/>
      <path d="M24.356,56.213 C25.338,56.946 25.54,58.337 24.806,59.32 C24.073,60.302 22.682,60.504 21.699,59.77 C20.717,59.037 20.515,57.646 21.249,56.663 C21.982,55.681 23.373,55.479 24.356,56.213 z" fill="#FFFFFF"/>
      <path d="M20.797,91.735 C21.779,92.468 21.981,93.859 21.248,94.842 C20.514,95.824 19.123,96.026 18.141,95.293 C17.158,94.559 16.956,93.168 17.69,92.186 C18.423,91.203 19.814,91.001 20.797,91.735 z" fill="#FFFFFF"/>
      <path d="M136.667,15.484 C138.22,16.644 138.538,18.844 137.378,20.397 C136.218,21.95 134.018,22.268 132.465,21.108 C130.912,19.948 130.594,17.749 131.754,16.196 C132.914,14.643 135.114,14.324 136.667,15.484 z" fill="#FFFFFF"/>
      <path d="M185.299,39.432 C186.852,40.592 187.171,42.791 186.011,44.344 C184.851,45.897 182.651,46.216 181.098,45.056 C179.545,43.895 179.227,41.696 180.387,40.143 C181.547,38.59 183.746,38.271 185.299,39.432 z" fill="#FFFFFF"/>
      <path d="M121.848,21.206 C123.081,22.131 123.331,23.879 122.406,25.112 C121.481,26.345 119.733,26.595 118.5,25.67 C117.267,24.745 117.017,22.997 117.942,21.764 C118.867,20.531 120.615,20.281 121.848,21.206 z" fill="#FFFFFF"/>
      <path d="M66.999,80.326 C68.233,81.248 68.487,82.996 67.565,84.231 C66.643,85.465 64.895,85.719 63.66,84.797 C62.425,83.875 62.172,82.127 63.094,80.892 C64.016,79.657 65.764,79.404 66.999,80.326 z" fill="#FFFFFF"/>
      <path d="M46.185,47.889 C47.778,49.078 48.105,51.334 46.916,52.927 C45.726,54.52 43.47,54.847 41.877,53.658 C40.284,52.468 39.957,50.212 41.147,48.619 C42.336,47.026 44.592,46.699 46.185,47.889 z" fill="#FFFFFF"/>
      <path d="M89.119,38.237 C90.712,39.427 91.039,41.682 89.85,43.276 C88.66,44.869 86.404,45.196 84.811,44.006 C83.218,42.816 82.891,40.561 84.081,38.968 C85.27,37.375 87.526,37.047 89.119,38.237 z" fill="#FFFFFF"/>
      <path d="M153.524,23.059 C154.32,23.654 154.484,24.782 153.889,25.578 C153.294,26.375 152.166,26.538 151.37,25.944 C150.573,25.349 150.41,24.221 151.004,23.424 C151.599,22.628 152.727,22.464 153.524,23.059 z" fill="#FFFFFF"/>
      <path d="M187.902,3.684 C189.493,4.877 189.815,7.133 188.622,8.724 C187.429,10.315 185.173,10.637 183.582,9.444 C181.991,8.251 181.669,5.995 182.862,4.404 C184.055,2.813 186.311,2.491 187.902,3.684 z" fill="#FFFFFF"/>
      <path d="M200.018,42.963 C202.416,44.754 202.909,48.15 201.118,50.548 C199.327,52.947 195.931,53.439 193.532,51.648 C191.134,49.857 190.641,46.461 192.432,44.063 C194.223,41.664 197.619,41.172 200.018,42.963 z" fill="#FFFFFF"/>
      <path d="M31.515,78.857 C33.108,80.047 33.435,82.303 32.245,83.896 C31.056,85.489 28.8,85.816 27.207,84.626 C25.614,83.437 25.287,81.181 26.476,79.588 C27.666,77.995 29.922,77.668 31.515,78.857 z" fill="#FFFFFF"/>
      <path d="M118.272,57.237 C119.321,58.02 119.536,59.505 118.753,60.554 C117.97,61.603 116.485,61.818 115.436,61.035 C114.387,60.252 114.172,58.767 114.955,57.718 C115.738,56.669 117.223,56.454 118.272,57.237 z" fill="#FFFFFF"/>
      <path d="M111.812,32.926 C112.728,33.61 112.916,34.907 112.232,35.823 C111.548,36.739 110.251,36.928 109.335,36.244 C108.419,35.56 108.231,34.262 108.915,33.346 C109.599,32.43 110.896,32.242 111.812,32.926 z" fill="#FFFFFF"/>
      <path d="M159.744,45.716 C160.793,46.499 161.008,47.985 160.225,49.033 C159.442,50.082 157.957,50.297 156.908,49.514 C155.859,48.731 155.644,47.246 156.427,46.197 C157.21,45.148 158.695,44.933 159.744,45.716 z" fill="#FFFFFF"/>
      <path d="M54.291,74.396 C55.875,75.579 56.2,77.822 55.017,79.407 C53.834,80.991 51.591,81.316 50.007,80.133 C48.423,78.95 48.097,76.707 49.28,75.123 C50.463,73.538 52.707,73.213 54.291,74.396 z" fill="#FFFFFF"/>
      <path d="M82.208,76.594 C83.257,77.377 83.473,78.862 82.689,79.911 C81.906,80.96 80.421,81.175 79.372,80.392 C78.324,79.609 78.108,78.123 78.891,77.075 C79.675,76.026 81.16,75.811 82.208,76.594 z" fill="#FFFFFF"/>
      <path d="M10.93,51.214 C11.979,51.997 12.194,53.482 11.411,54.531 C10.628,55.579 9.143,55.795 8.094,55.012 C7.045,54.228 6.83,52.743 7.613,51.695 C8.396,50.646 9.881,50.43 10.93,51.214 z" fill="#FFFFFF"/>
      <path d="M72.379,31.448 C74.282,32.869 74.672,35.564 73.252,37.466 C71.831,39.369 69.136,39.76 67.233,38.339 C65.331,36.918 64.94,34.224 66.361,32.321 C67.782,30.418 70.476,30.027 72.379,31.448 z" fill="#FFFFFF"/>
      <path d="M132.152,61.367 C133.643,62.48 133.95,64.592 132.836,66.083 C131.722,67.575 129.611,67.881 128.119,66.767 C126.628,65.654 126.322,63.542 127.435,62.051 C128.549,60.559 130.661,60.253 132.152,61.367 z" fill="#FFFFFF"/>
      <path d="M178.585,14.437 C180.077,15.551 180.383,17.662 179.269,19.154 C178.156,20.645 176.044,20.951 174.553,19.838 C173.061,18.724 172.755,16.612 173.869,15.121 C174.982,13.63 177.094,13.324 178.585,14.437 z" fill="#FFFFFF"/>
    </g>
    <g>
      <g>
        <path d="M66.48,-5.4 L66.77,-5.15 C67.044,-4.9 67.334,-4.669 67.64,-4.46 C68.784,-3.654 70.055,-3.045 71.4,-2.66 C73.493,-2.072 75.648,-1.737 77.82,-1.66 C80.34,-1.51 83.2,-1.53 86.33,-1.59 C89.46,-1.65 92.86,-1.8 96.48,-1.59 C98.344,-1.488 100.195,-1.217 102.01,-0.78 C103.934,-0.355 105.753,0.451 107.36,1.59 C108.175,2.186 108.899,2.896 109.51,3.7 C110.111,4.528 110.611,5.424 111,6.37 C111.749,8.292 112.214,10.314 112.38,12.37 C112.584,14.437 112.667,16.514 112.63,18.59 C112.63,20.67 112.56,22.77 112.5,24.85 C112.278,28.973 112.405,33.108 112.88,37.21 C113.133,39.177 113.732,41.083 114.65,42.84 C115.104,43.672 115.673,44.437 116.34,45.11 C117.013,45.78 117.769,46.362 118.59,46.84 C120.198,47.755 121.986,48.312 123.83,48.47 C125.629,48.637 127.441,48.637 129.24,48.47 C132.78,48.17 136.16,47.69 139.31,47.47 C142.181,47.243 145.069,47.337 147.92,47.75 C150.119,48.072 152.267,48.677 154.31,49.55 C155.617,50.117 156.878,50.786 158.08,51.55 L159.33,52.38 L159.27,52.47 L157.98,51.71 C154.844,49.955 151.39,48.84 147.82,48.43 C145.011,48.144 142.179,48.144 139.37,48.43 C136.27,48.69 132.93,49.25 129.32,49.56 C127.454,49.733 125.576,49.733 123.71,49.56 C121.708,49.403 119.769,48.791 118.04,47.77 C117.16,47.24 116.351,46.601 115.63,45.87 C114.891,45.114 114.264,44.255 113.77,43.32 C112.812,41.445 112.202,39.412 111.97,37.32 C111.575,33.156 111.575,28.964 111.97,24.8 C112.333,20.67 112.377,16.517 112.1,12.38 C111.93,10.365 111.451,8.389 110.68,6.52 C110.3,5.615 109.803,4.765 109.2,3.99 C108.589,3.239 107.872,2.582 107.07,2.04 C105.492,1.008 103.724,0.301 101.87,-0.04 C100.085,-0.389 98.277,-0.61 96.46,-0.7 C92.9,-0.87 89.52,-0.79 86.38,-0.78 C83.518,-0.708 80.654,-0.789 77.8,-1.02 C75.583,-1.178 73.395,-1.618 71.29,-2.33 C69.932,-2.795 68.664,-3.488 67.54,-4.38 C67.252,-4.588 66.978,-4.816 66.72,-5.06 L66.45,-5.33 z" fill="#71CCDE"/>
        <path d="M140.95,70.55 L139.95,69.44 C139.051,68.352 138.285,67.16 137.67,65.89 C136.726,63.905 136.104,61.781 135.83,59.6 C135.485,56.776 135.428,53.925 135.66,51.09 C135.86,47.98 136.29,44.63 136.51,41.09 C136.647,39.279 136.647,37.461 136.51,35.65 C136.367,33.779 135.839,31.958 134.96,30.3 C133.993,28.633 132.562,27.285 130.84,26.42 C129.049,25.557 127.131,24.987 125.16,24.73 C121.078,24.26 116.964,24.126 112.86,24.33 C108.711,24.534 104.552,24.424 100.42,24 C98.347,23.755 96.324,23.196 94.42,22.34 C92.533,21.47 90.931,20.083 89.8,18.34 C88.79,16.636 88.111,14.756 87.8,12.8 C87.469,10.971 87.292,9.118 87.27,7.26 C87.2,3.66 87.44,0.26 87.59,-2.82 C87.74,-5.9 87.88,-8.77 87.78,-11.28 C87.742,-13.447 87.446,-15.602 86.9,-17.7 C86.546,-19.047 85.968,-20.325 85.19,-21.48 C84.987,-21.785 84.763,-22.076 84.52,-22.35 L84.28,-22.64 L84.35,-22.71 L84.61,-22.43 C84.869,-22.163 85.109,-21.879 85.33,-21.58 C86.178,-20.437 86.827,-19.159 87.25,-17.8 C87.91,-15.695 88.294,-13.514 88.39,-11.31 C88.56,-8.77 88.54,-5.9 88.39,-2.79 C88.24,0.32 88.12,3.69 88.25,7.21 C88.304,9.011 88.491,10.806 88.81,12.58 C89.117,14.402 89.765,16.149 90.72,17.73 C91.73,19.33 93.177,20.607 94.89,21.41 C96.676,22.228 98.573,22.777 100.52,23.04 C104.599,23.502 108.708,23.656 112.81,23.5 C116.958,23.336 121.112,23.513 125.23,24.03 C127.275,24.318 129.26,24.932 131.11,25.85 C131.564,26.091 132.001,26.362 132.42,26.66 L133.05,27.12 L133.6,27.62 C134.341,28.315 134.968,29.121 135.46,30.01 C136.362,31.745 136.897,33.648 137.03,35.6 C137.174,37.437 137.174,39.283 137.03,41.12 C136.76,44.69 136.29,48.03 136.03,51.12 C135.763,53.931 135.783,56.763 136.09,59.57 C136.333,61.733 136.921,63.843 137.83,65.82 C138.422,67.088 139.164,68.279 140.04,69.37 L141.04,70.49 z" fill="#71CCDE"/>
      </g>
      <path d="M125.98,49.47 C125.98,49.47 126.61,48.75 127.59,47.7 C128.09,47.19 128.65,46.57 129.29,45.94 L131.29,43.94 L133.29,42.01 C133.94,41.39 134.57,40.85 135.1,40.36 C136.17,39.36 136.91,38.8 136.91,38.8 C136.91,38.8 136.28,39.53 135.3,40.57 C134.8,41.08 134.24,41.7 133.6,42.33 L131.6,44.33 L129.6,46.26 C128.95,46.88 128.32,47.42 127.79,47.91 C126.72,48.86 125.98,49.47 125.98,49.47 z" fill="#71CCDE"/>
      <path d="M118.94,47.9 C118.94,47.9 119.94,46.82 121.46,45.25 C122.23,44.47 123.11,43.54 124.09,42.58 L127.14,39.58 L130.24,36.58 C131.24,35.63 132.18,34.77 132.98,34.03 C134.59,32.55 135.7,31.59 135.7,31.59 C135.7,31.59 134.7,32.67 133.18,34.24 C132.41,35.02 131.53,35.95 130.55,36.91 L127.5,39.91 L124.4,42.91 C123.4,43.86 122.46,44.72 121.66,45.46 C120.04,46.94 118.94,47.9 118.94,47.9 z" fill="#71CCDE"/>
      <path d="M113.98,41.7 C113.98,41.7 114.98,40.7 116.41,39.13 C117.15,38.38 118.01,37.48 118.95,36.55 L121.95,33.63 L124.95,30.76 C125.95,29.84 126.83,29.02 127.6,28.29 C129.16,26.86 130.23,25.93 130.23,25.93 C130.23,25.93 129.23,26.93 127.8,28.5 C127.06,29.25 126.2,30.15 125.26,31.08 L122.26,34 L119.26,36.87 C118.26,37.79 117.38,38.61 116.61,39.34 C115.05,40.77 113.98,41.7 113.98,41.7 z" fill="#71CCDE"/>
      <path d="M112.11,32.5 C112.11,32.5 112.59,31.91 113.36,31.08 C114.13,30.25 115.18,29.15 116.26,28.08 C117.34,27.01 118.47,26.01 119.32,25.26 C120.17,24.51 120.78,24.05 120.78,24.05 C120.78,24.05 120.3,24.64 119.53,25.47 C118.76,26.3 117.71,27.4 116.62,28.47 C115.53,29.54 114.41,30.54 113.56,31.29 C112.71,32.04 112.11,32.5 112.11,32.5 z" fill="#71CCDE"/>
      <path d="M102.98,23.65 C102.98,23.65 103.51,23.02 104.35,22.11 C105.19,21.2 106.35,20.02 107.51,18.87 C108.67,17.72 109.91,16.61 110.83,15.8 C111.75,14.99 112.41,14.47 112.41,14.47 C112.41,14.47 111.88,15.1 111.04,16.01 C110.2,16.92 109.04,18.1 107.88,19.25 C106.72,20.4 105.48,21.51 104.56,22.32 C103.64,23.13 102.98,23.65 102.98,23.65 z" fill="#71CCDE"/>
      <path d="M95.41,22.04 C95.41,22.04 96.33,21.04 97.75,19.64 C98.47,18.94 99.29,18.1 100.2,17.23 L103.05,14.51 L105.95,11.84 C106.87,10.99 107.76,10.22 108.51,9.55 C110.02,8.22 111.05,7.36 111.05,7.36 C111.05,7.36 110.13,8.36 108.71,9.76 C107.99,10.46 107.17,11.3 106.26,12.17 L103.41,14.89 L100.51,17.56 C99.59,18.41 98.7,19.18 97.95,19.85 C96.45,21.2 95.41,22.04 95.41,22.04 z" fill="#71CCDE"/>
      <path d="M89.89,16.93 C89.89,16.93 90.89,15.93 92.32,14.36 C93.06,13.61 93.92,12.71 94.86,11.78 L97.86,8.86 L100.86,5.99 C101.86,5.07 102.74,4.25 103.51,3.52 C105.07,2.09 106.14,1.16 106.14,1.16 C106.14,1.16 105.14,2.16 103.71,3.73 C102.97,4.48 102.11,5.38 101.17,6.31 L98.17,9.23 L95.17,12.1 C94.17,13.02 93.29,13.84 92.52,14.57 C90.96,16.04 89.89,16.93 89.89,16.93 z" fill="#71CCDE"/>
      <path d="M87.72,7.97 C87.72,7.97 88.24,7.35 89.07,6.45 C89.9,5.55 91.07,4.39 92.18,3.26 C93.29,2.13 94.54,1.04 95.45,0.26 C96.36,-0.52 97,-1.05 97,-1.05 C97,-1.05 96.48,-0.43 95.65,0.47 C94.82,1.37 93.65,2.53 92.54,3.66 C91.43,4.79 90.18,5.88 89.27,6.66 C88.36,7.44 87.72,7.97 87.72,7.97 z" fill="#71CCDE"/>
      <g>
        <path d="M78.11,-1.22 C78.11,-1.22 78.66,-1.87 79.54,-2.81 C80.42,-3.75 81.6,-4.98 82.82,-6.16 C84.04,-7.34 85.3,-8.5 86.26,-9.35 C87.22,-10.2 87.89,-10.73 87.89,-10.73 C87.89,-10.73 87.34,-10.07 86.46,-9.14 C85.58,-8.21 84.4,-6.97 83.18,-5.79 C81.96,-4.61 80.72,-3.45 79.72,-2.6 C78.72,-1.75 78.11,-1.22 78.11,-1.22 z" fill="#71CCDE"/>
        <path d="M70.89,-2.61 C70.89,-2.61 71.83,-3.61 73.29,-5.15 C74.03,-5.9 74.87,-6.78 75.8,-7.71 L78.72,-10.59 L81.72,-13.43 C82.67,-14.34 83.58,-15.16 84.34,-15.87 C85.89,-17.29 86.95,-18.2 86.95,-18.2 C86.95,-18.2 86.01,-17.2 84.55,-15.66 C83.81,-14.91 82.97,-14.03 82.04,-13.1 L79.12,-10.21 L76.12,-7.37 C75.17,-6.46 74.26,-5.64 73.5,-4.93 C71.95,-3.52 70.89,-2.61 70.89,-2.61 z" fill="#71CCDE"/>
      </g>
      <g>
        <path d="M145.29,47.83 C145.29,47.83 144.75,48.47 143.89,49.38 C143.03,50.29 141.89,51.49 140.66,52.65 C139.43,53.81 138.22,54.93 137.27,55.76 C136.32,56.59 135.66,57.1 135.66,57.1 C135.66,57.1 136.2,56.46 137.06,55.55 C137.92,54.64 139.06,53.44 140.29,52.28 C141.52,51.12 142.72,50.04 143.72,49.17 C144.72,48.3 145.29,47.83 145.29,47.83 z" fill="#71CCDE"/>
        <path d="M152.51,49.22 C152.51,49.22 151.6,50.22 150.19,51.67 C149.48,52.39 148.66,53.24 147.76,54.13 L144.93,56.91 L142.06,59.64 C141.14,60.51 140.26,61.3 139.52,61.99 C138.02,63.35 136.99,64.23 136.99,64.23 C136.99,64.23 137.9,63.23 139.31,61.78 C140.02,61.06 140.84,60.21 141.74,59.32 L144.57,56.54 L147.44,53.81 C148.36,52.94 149.24,52.15 149.98,51.46 C151.48,50.1 152.51,49.22 152.51,49.22 z" fill="#71CCDE"/>
      </g>
    </g>
    <g>
      <g>
        <path d="M161.09,61.88 L161.09,61.66 C161.079,61.442 161.052,61.225 161.01,61.01 C160.858,60.204 160.57,59.43 160.16,58.72 C159.527,57.614 158.765,56.587 157.89,55.66 C156.89,54.57 155.69,53.4 154.35,52.15 C153.01,50.9 151.53,49.57 150.11,47.98 C149.366,47.176 148.696,46.306 148.11,45.38 C147.475,44.416 147.04,43.335 146.83,42.2 C146.642,41.019 146.791,39.81 147.26,38.71 C147.73,37.603 148.356,36.569 149.12,35.64 C150.679,33.765 152.366,32.001 154.17,30.36 C155.959,28.73 157.599,26.943 159.07,25.02 C159.768,24.09 160.296,23.044 160.63,21.93 C160.78,21.396 160.854,20.844 160.85,20.29 C160.841,19.732 160.76,19.177 160.61,18.64 C160.03,16.5 158.38,14.92 156.81,13.64 C155.24,12.36 153.59,11.14 152.2,9.93 C150.911,8.844 149.741,7.624 148.71,6.29 C147.899,5.263 147.226,4.133 146.71,2.93 C146.392,2.161 146.134,1.369 145.94,0.56 L145.75,-0.3 L145.81,-0.3 L146.04,0.55 C146.641,2.565 147.63,4.443 148.95,6.08 C150,7.359 151.183,8.522 152.48,9.55 C153.89,10.7 155.48,11.83 157.16,13.18 C158.015,13.866 158.805,14.629 159.52,15.46 C160.297,16.344 160.862,17.394 161.17,18.53 C161.321,19.111 161.398,19.709 161.4,20.31 C161.402,20.929 161.314,21.546 161.14,22.14 C160.777,23.313 160.205,24.411 159.45,25.38 C157.911,27.286 156.204,29.05 154.35,30.65 C152.522,32.249 150.808,33.973 149.22,35.81 C147.75,37.65 146.58,39.95 147.1,42.2 C147.62,44.45 149.1,46.15 150.43,47.69 C151.76,49.23 153.31,50.57 154.63,51.84 C155.86,52.981 157.028,54.186 158.13,55.45 C158.994,56.422 159.73,57.501 160.32,58.66 C160.696,59.41 160.943,60.218 161.05,61.05 C161.065,61.266 161.065,61.484 161.05,61.7 L161.05,61.92 L160.99,61.92 z" fill="#71CCDE"/>
        <path d="M160.89,-0.42 L160.89,0.45 C160.821,1.274 160.653,2.086 160.39,2.87 C159.974,4.089 159.367,5.233 158.59,6.26 C157.58,7.586 156.437,8.806 155.18,9.9 C153.83,11.12 152.27,12.35 150.73,13.75 C149.19,15.15 147.58,16.75 146.99,18.92 C146.717,20.014 146.769,21.165 147.14,22.23 C147.541,23.313 148.111,24.326 148.83,25.23 C150.352,27.094 152.024,28.83 153.83,30.42 C155.653,32.029 157.351,33.774 158.91,35.64 C159.674,36.587 160.288,37.646 160.73,38.78 C161.16,39.919 161.257,41.158 161.01,42.35 C160.746,43.479 160.271,44.548 159.61,45.5 C159.018,46.403 158.349,47.253 157.61,48.04 C156.17,49.58 154.68,50.89 153.35,52.13 C152.02,53.37 150.8,54.51 149.82,55.61 C148.954,56.54 148.199,57.567 147.57,58.67 C147.151,59.405 146.863,60.207 146.72,61.04 C146.682,61.251 146.659,61.465 146.65,61.68 L146.65,61.9 L146.59,61.9 L146.59,61.64 C146.575,61.424 146.575,61.206 146.59,60.99 C146.702,60.164 146.952,59.363 147.33,58.62 C147.912,57.468 148.645,56.399 149.51,55.44 C150.51,54.3 151.67,53.12 152.98,51.86 C154.29,50.6 155.74,49.25 157.12,47.71 C158.645,46.204 159.769,44.341 160.39,42.29 C160.616,41.204 160.526,40.076 160.13,39.04 C159.71,37.962 159.134,36.951 158.42,36.04 C156.888,34.176 155.216,32.431 153.42,30.82 C151.611,29.194 149.938,27.421 148.42,25.52 C147.681,24.565 147.101,23.499 146.7,22.36 C146.318,21.223 146.277,20 146.58,18.84 C147.24,16.55 148.95,14.94 150.47,13.55 C151.99,12.16 153.6,10.96 154.97,9.75 C156.232,8.68 157.381,7.483 158.4,6.18 C159.179,5.174 159.794,4.05 160.22,2.85 C160.488,2.077 160.663,1.275 160.74,0.46 L160.74,-0.41 L160.8,-0.41 z" fill="#71CCDE"/>
      </g>
      <path d="M158.55,14.54 C158.55,14.54 157.99,14.54 157.15,14.62 C156.31,14.7 155.15,14.67 154.08,14.68 C153.01,14.69 151.84,14.68 151.01,14.61 C150.18,14.54 149.61,14.52 149.61,14.52 C149.61,14.52 150.17,14.52 151.01,14.44 C151.85,14.36 153.01,14.39 154.08,14.38 C155.15,14.37 156.32,14.38 157.15,14.45 C157.98,14.52 158.55,14.54 158.55,14.54 z" fill="#71CCDE"/>
      <path d="M160.87,18.04 L158.73,18.12 C157.45,18.12 155.73,18.17 154.02,18.18 C152.31,18.19 150.6,18.18 149.31,18.11 L147.17,18.02 L149.31,17.94 C150.59,17.94 152.31,17.89 154.02,17.88 C155.73,17.87 157.44,17.88 158.73,17.95 z" fill="#71CCDE"/>
      <path d="M160.41,22.71 L158.34,22.79 C157.1,22.79 155.44,22.84 153.79,22.85 C152.14,22.86 150.48,22.85 149.24,22.78 L147.17,22.69 L149.24,22.61 C150.48,22.61 152.14,22.56 153.79,22.55 C155.44,22.54 157.1,22.55 158.34,22.62 z" fill="#71CCDE"/>
      <path d="M157.44,27.33 C157.44,27.33 157,27.33 156.33,27.41 C155.66,27.49 154.78,27.46 153.89,27.47 C153,27.48 152.12,27.47 151.45,27.4 C150.78,27.33 150.34,27.31 150.34,27.31 C150.34,27.31 150.78,27.31 151.45,27.23 C152.12,27.15 153,27.18 153.89,27.17 C154.78,27.16 155.66,27.17 156.33,27.24 C157,27.31 157.44,27.33 157.44,27.33 z" fill="#71CCDE"/>
      <path d="M157.65,34.78 C157.65,34.78 157.17,34.78 156.45,34.86 C155.73,34.94 154.76,34.91 153.8,34.92 C152.84,34.93 151.87,34.92 151.15,34.85 C150.43,34.78 149.95,34.76 149.95,34.76 C149.95,34.76 150.43,34.76 151.15,34.68 C151.87,34.6 152.84,34.63 153.8,34.62 C154.76,34.61 155.73,34.62 156.45,34.69 z" fill="#71CCDE"/>
      <path d="M160.18,38.53 L158.18,38.53 C157,38.53 155.43,38.53 153.86,38.53 C152.29,38.53 150.72,38.45 149.54,38.38 L147.54,38.26 L149.54,38.26 C150.72,38.26 152.29,38.26 153.86,38.26 C155.43,38.26 157,38.34 158.18,38.41 z" fill="#71CCDE"/>
      <path d="M160.4,42.94 L158.33,43.02 C157.09,43.02 155.43,43.07 153.78,43.08 C152.13,43.09 150.47,43.08 149.23,43.01 L147.16,42.92 L149.23,42.84 C150.47,42.84 152.13,42.79 153.78,42.78 C155.43,42.77 157.09,42.78 158.33,42.85 z" fill="#71CCDE"/>
      <path d="M157.63,47.57 C157.63,47.57 157.16,47.57 156.44,47.65 C155.72,47.73 154.78,47.7 153.83,47.71 C152.88,47.72 151.93,47.71 151.22,47.64 C150.51,47.57 150.03,47.55 150.03,47.55 C150.03,47.55 150.5,47.55 151.22,47.47 C151.94,47.39 152.88,47.42 153.83,47.41 C154.78,47.4 155.73,47.41 156.44,47.48 z" fill="#71CCDE"/>
      <g>
        <path d="M157.92,55.37 L156.67,55.45 C155.92,55.45 154.92,55.5 153.92,55.51 C152.92,55.52 151.92,55.51 151.17,55.44 C150.42,55.37 149.92,55.35 149.92,55.35 C149.92,55.35 150.42,55.35 151.17,55.27 C151.92,55.19 152.92,55.22 153.92,55.21 C154.92,55.2 155.92,55.21 156.67,55.28 C157.42,55.35 157.92,55.37 157.92,55.37 z" fill="#71CCDE"/>
        <path d="M160.38,58.9 L158.38,58.98 C157.15,58.98 155.51,59.03 153.88,59.04 C152.25,59.05 150.6,59.04 149.38,58.97 L147.38,58.88 L149.38,58.8 C150.61,58.8 152.25,58.75 153.88,58.74 C155.51,58.73 157.16,58.74 158.38,58.81 z" fill="#71CCDE"/>
      </g>
      <g>
        <path d="M149.79,7.34 C149.79,7.34 150.28,7.34 151.01,7.26 C151.74,7.18 152.72,7.26 153.7,7.21 C154.68,7.16 155.7,7.21 156.39,7.29 C157.08,7.37 157.61,7.38 157.61,7.38 C157.61,7.38 157.12,7.38 156.39,7.46 C155.66,7.54 154.68,7.46 153.7,7.51 C152.72,7.56 151.7,7.51 151.01,7.43 C150.32,7.35 149.79,7.34 149.79,7.34 z" fill="#71CCDE"/>
        <path d="M147.32,3.81 L149.32,3.73 C150.51,3.73 152.09,3.73 153.67,3.73 C155.25,3.73 156.83,3.73 158.02,3.81 L160.02,3.9 L158.02,3.98 C156.83,3.98 155.25,3.98 153.67,3.98 C152.09,3.98 150.51,3.98 149.32,3.9 z" fill="#71CCDE"/>
      </g>
    </g>
    <g>
      <g>
        <g>
          <path d="M109.56,95.72 L109.66,95.29 C109.77,94.873 109.85,94.448 109.9,94.02 C110.093,92.408 110.012,90.775 109.66,89.19 C109.125,86.724 108.299,84.331 107.2,82.06 C105.97,79.4 104.38,76.49 102.59,73.33 C100.8,70.17 98.79,66.77 97.07,62.95 C96.151,60.995 95.411,58.959 94.86,56.87 C94.236,54.671 94.06,52.369 94.34,50.1 C94.509,48.941 94.846,47.812 95.34,46.75 C95.855,45.678 96.497,44.671 97.25,43.75 C98.797,41.936 100.599,40.356 102.6,39.06 C104.597,37.718 106.671,36.492 108.81,35.39 C110.94,34.25 113.11,33.17 115.27,32.08 C119.616,30.065 123.772,27.666 127.69,24.91 C129.56,23.568 131.178,21.905 132.47,20 C133.073,19.071 133.541,18.061 133.86,17 C134.175,15.944 134.353,14.852 134.39,13.75 C134.444,11.604 134.031,9.471 133.18,7.5 C132.353,5.568 131.349,3.717 130.18,1.97 C127.92,-1.48 125.58,-4.66 123.66,-7.77 C121.853,-10.576 120.364,-13.575 119.22,-16.71 C118.342,-19.131 117.78,-21.655 117.55,-24.22 C117.421,-25.864 117.421,-27.516 117.55,-29.16 L117.71,-30.9 L117.83,-30.9 L117.72,-29.12 C117.648,-24.96 118.403,-20.827 119.94,-16.96 C121.176,-13.928 122.718,-11.03 124.54,-8.31 C126.54,-5.31 128.92,-2.18 131.21,1.33 C132.421,3.133 133.462,5.045 134.32,7.04 C135.26,9.169 135.702,11.485 135.61,13.81 C135.553,14.998 135.349,16.173 135,17.31 C134.635,18.48 134.103,19.592 133.42,20.61 C132.038,22.613 130.303,24.348 128.3,25.73 C124.262,28.414 119.992,30.73 115.54,32.65 C111.124,34.548 106.861,36.785 102.79,39.34 C100.824,40.62 99.067,42.195 97.58,44.01 C96.865,44.895 96.27,45.87 95.81,46.91 C95.38,47.944 95.104,49.036 94.99,50.15 C94.802,52.327 95.05,54.52 95.72,56.6 C96.342,58.612 97.107,60.577 98.01,62.48 C99.78,66.21 101.73,69.62 103.46,72.81 C105.103,75.693 106.591,78.66 107.92,81.7 C108.976,84.051 109.726,86.528 110.15,89.07 C110.435,90.724 110.435,92.416 110.15,94.07 C110.076,94.497 109.972,94.918 109.84,95.33 L109.72,95.76 z" fill="#6FAAAF"/>
          <path d="M146.22,-22.01 L145.64,-20.38 C145.021,-18.863 144.222,-17.426 143.26,-16.1 C141.752,-14.047 139.926,-12.247 137.85,-10.77 C135.158,-8.869 132.28,-7.248 129.26,-5.93 C125.97,-4.42 122.31,-3.02 118.57,-1.3 C116.65,-0.441 114.798,0.562 113.03,1.7 C111.199,2.874 109.63,4.412 108.42,6.22 C107.252,8.124 106.665,10.327 106.73,12.56 C106.831,14.863 107.3,17.135 108.12,19.29 C109.881,23.706 112.002,27.97 114.46,32.04 C116.949,36.163 119.122,40.469 120.96,44.92 C121.843,47.158 122.376,49.519 122.54,51.92 C122.677,54.328 122.125,56.724 120.95,58.83 C119.78,60.807 118.247,62.544 116.43,63.95 C114.749,65.298 112.956,66.499 111.07,67.54 C107.43,69.59 103.86,71.2 100.61,72.75 C97.36,74.3 94.38,75.75 91.87,77.2 C89.679,78.428 87.641,79.912 85.8,81.62 C84.619,82.724 83.631,84.018 82.88,85.45 C82.681,85.824 82.507,86.212 82.36,86.61 L82.19,87.02 L82.08,87.02 L82.23,86.6 C82.363,86.19 82.523,85.789 82.71,85.4 C83.417,83.919 84.367,82.567 85.52,81.4 C87.307,79.573 89.323,77.986 91.52,76.68 C94.02,75.11 96.96,73.56 100.2,71.96 C103.44,70.36 106.97,68.68 110.5,66.61 C112.324,65.548 114.069,64.355 115.72,63.04 C117.418,61.731 118.853,60.113 119.95,58.27 C121.025,56.355 121.528,54.172 121.4,51.98 C121.245,49.698 120.756,47.451 119.95,45.31 C118.185,40.892 116.089,36.613 113.68,32.51 C111.233,28.357 109.133,24.008 107.4,19.51 C106.572,17.265 106.109,14.902 106.03,12.51 C106.027,11.912 106.064,11.314 106.14,10.72 L106.27,9.83 L106.48,9 L106.59,8.58 C106.636,8.434 106.69,8.291 106.75,8.15 L107.07,7.33 C107.315,6.8 107.592,6.286 107.9,5.79 C109.178,3.916 110.829,2.326 112.75,1.12 C114.552,-0.026 116.441,-1.029 118.4,-1.88 C122.19,-3.57 125.86,-4.88 129.15,-6.38 C132.165,-7.651 135.044,-9.226 137.74,-11.08 C139.813,-12.517 141.642,-14.276 143.16,-16.29 C144.129,-17.592 144.938,-19.005 145.57,-20.5 L146.17,-22.12 z" fill="#6FAAAF"/>
        </g>
        <path d="M132.91,4.84 C132.91,4.84 131.83,4.6 130.22,4.17 C129.42,3.94 128.48,3.71 127.49,3.4 L124.38,2.46 L121.29,1.46 C120.29,1.14 119.4,0.79 118.61,0.52 C117.05,-0.05 116.02,-0.48 116.02,-0.48 C116.02,-0.48 117.1,-0.24 118.71,0.19 C119.51,0.42 120.45,0.65 121.44,0.96 L124.55,1.9 L127.64,2.9 C128.64,3.22 129.53,3.57 130.32,3.84 C131.89,4.42 132.91,4.84 132.91,4.84 z" fill="#6FAAAF"/>
        <path d="M135.18,12.89 C135.18,12.89 133.54,12.47 131.09,11.78 C129.87,11.42 128.44,11.03 126.92,10.56 L122.16,9.1 L117.43,7.56 C115.92,7.07 114.52,6.56 113.32,6.17 C110.92,5.34 109.32,4.73 109.32,4.73 C109.32,4.73 110.96,5.15 113.41,5.84 C114.63,6.2 116.06,6.59 117.58,7.06 L122.34,8.52 L127.07,10.06 C128.58,10.55 129.98,11.06 131.18,11.45 C133.6,12.29 135.18,12.89 135.18,12.89 z" fill="#6FAAAF"/>
        <path d="M131.57,21.36 C131.57,21.36 129.98,20.96 127.57,20.29 C126.39,19.94 125.01,19.57 123.57,19.11 L118.97,17.7 L114.39,16.21 C112.93,15.74 111.58,15.21 110.39,14.86 C108.07,14.05 106.54,13.47 106.54,13.47 C106.54,13.47 108.13,13.87 110.54,14.54 C111.72,14.89 113.1,15.26 114.54,15.72 L119.14,17.13 L123.72,18.62 C125.18,19.09 126.53,19.62 127.72,19.97 C130.03,20.77 131.57,21.36 131.57,21.36 z" fill="#6FAAAF"/>
        <path d="M123.21,28.33 C123.21,28.33 122.34,28.16 121.07,27.83 C119.8,27.5 118.07,27.03 116.43,26.5 C114.79,25.97 113.1,25.39 111.87,24.92 C110.64,24.45 109.87,24.1 109.87,24.1 C109.87,24.1 110.74,24.27 112.01,24.6 C113.28,24.93 115.01,25.4 116.65,25.93 C118.29,26.46 119.98,27.05 121.21,27.51 C122.44,27.97 123.21,28.33 123.21,28.33 z" fill="#6FAAAF"/>
        <path d="M119.18,42.51 C119.18,42.51 118.24,42.31 116.85,41.95 C116.16,41.76 115.35,41.56 114.49,41.3 L111.81,40.49 L109.15,39.61 C108.3,39.33 107.52,39.03 106.85,38.79 C105.51,38.29 104.63,37.91 104.63,37.91 C104.63,37.91 105.57,38.1 106.96,38.47 C107.65,38.66 108.46,38.86 109.32,39.12 L112,39.93 L114.66,40.81 C115.51,41.09 116.29,41.39 116.96,41.63 C118.3,42.13 119.18,42.51 119.18,42.51 z" fill="#6FAAAF"/>
        <path d="M121.72,51.1 C121.72,51.1 120.22,50.7 117.98,50.02 C116.87,49.67 115.56,49.29 114.17,48.84 L109.83,47.43 L105.51,45.94 C104.13,45.47 102.86,44.94 101.76,44.59 C99.57,43.78 98.13,43.19 98.13,43.19 C98.13,43.19 99.63,43.59 101.87,44.26 C102.98,44.61 104.29,44.99 105.68,45.44 L110.02,46.85 L114.34,48.34 C115.72,48.81 116.99,49.34 118.09,49.69 C120.27,50.52 121.72,51.1 121.72,51.1 z" fill="#6FAAAF"/>
        <path d="M119.51,59.55 C119.51,59.55 117.92,59.15 115.51,58.48 C114.33,58.13 112.95,57.76 111.51,57.3 L106.91,55.89 L102.33,54.4 C100.87,53.93 99.52,53.4 98.33,53.05 C96.01,52.24 94.48,51.66 94.48,51.66 C94.48,51.66 96.07,52.06 98.48,52.73 C99.66,53.08 101.04,53.45 102.48,53.91 L107.08,55.32 L111.66,56.81 C113.12,57.28 114.47,57.81 115.66,58.16 C117.97,58.97 119.51,59.55 119.51,59.55 z" fill="#6FAAAF"/>
        <path d="M111.53,66.64 C111.53,66.64 110.61,66.45 109.24,66.09 C108.56,65.9 107.76,65.71 106.92,65.45 L104.28,64.66 L101.66,63.79 C100.82,63.52 100.06,63.21 99.39,62.98 C98.07,62.49 97.2,62.11 97.2,62.11 C97.2,62.11 98.12,62.3 99.49,62.65 C100.17,62.84 100.97,63.03 101.81,63.29 L104.45,64.08 L107.07,64.95 C107.91,65.23 108.67,65.53 109.34,65.76 C110.66,66.27 111.53,66.64 111.53,66.64 z" fill="#6FAAAF"/>
        <g>
          <path d="M107.44,81.55 C107.44,81.55 106.44,81.34 105.03,80.97 C104.32,80.77 103.47,80.56 102.59,80.29 L99.81,79.45 L97.05,78.54 C96.17,78.25 95.36,77.94 94.66,77.69 C93.27,77.17 92.35,76.78 92.35,76.78 C92.35,76.78 93.35,76.99 94.76,77.36 C95.47,77.56 96.32,77.77 97.2,78.04 L99.98,78.88 L102.74,79.79 C103.62,80.08 104.43,80.39 105.13,80.64 C106.53,81.16 107.44,81.55 107.44,81.55 z" fill="#6FAAAF"/>
          <path d="M109.99,89.68 C109.99,89.68 108.42,89.28 106.08,88.62 C104.91,88.28 103.54,87.9 102.08,87.46 L97.53,86.06 L93,84.59 C91.55,84.12 90.22,83.64 89.07,83.25 C86.77,82.45 85.26,81.87 85.26,81.87 C85.26,81.87 86.83,82.27 89.18,82.93 C90.35,83.27 91.72,83.64 93.18,84.09 L97.73,85.49 L102.26,86.96 C103.71,87.43 105.04,87.91 106.19,88.3 C108.48,89.1 109.99,89.68 109.99,89.68 z" fill="#6FAAAF"/>
        </g>
        <g>
          <path d="M120.64,-13.96 C120.64,-13.96 121.64,-13.76 123,-13.38 C123.7,-13.18 124.52,-12.98 125.39,-12.71 L128.11,-11.88 L130.81,-10.97 C131.67,-10.68 132.46,-10.37 133.14,-10.12 C134.5,-9.61 135.39,-9.22 135.39,-9.22 C135.39,-9.22 134.39,-9.42 133.03,-9.8 C132.33,-10 131.51,-10.2 130.64,-10.47 L127.92,-11.3 L125.22,-12.21 C124.36,-12.5 123.57,-12.81 122.89,-13.06 C121.54,-13.58 120.64,-13.96 120.64,-13.96 z" fill="#6FAAAF"/>
          <path d="M118.09,-22.11 C118.09,-22.11 119.61,-21.73 121.87,-21.11 C123,-20.78 124.32,-20.41 125.72,-19.98 L130.11,-18.62 L134.47,-17.18 C135.86,-16.72 137.15,-16.25 138.26,-15.87 C140.47,-15.09 141.93,-14.52 141.93,-14.52 C141.93,-14.52 140.41,-14.9 138.15,-15.52 C137.03,-15.85 135.7,-16.22 134.3,-16.65 L129.91,-18.01 L125.55,-19.45 C124.16,-19.91 122.87,-20.38 121.76,-20.76 C119.55,-21.54 118.09,-22.11 118.09,-22.11 z" fill="#6FAAAF"/>
        </g>
      </g>
      <path d="M137.671,11.398 C138.237,12.855 137.514,14.495 136.057,15.061 C134.6,15.627 132.961,14.904 132.395,13.448 C131.829,11.991 132.551,10.351 134.008,9.785 C135.465,9.219 137.105,9.941 137.671,11.398 z" fill="#6FAAAF"/>
      <path d="M97.215,50.577 C97.78,52.034 97.058,53.673 95.601,54.239 C94.144,54.805 92.504,54.082 91.938,52.625 C91.373,51.168 92.095,49.529 93.552,48.963 C95.009,48.397 96.649,49.12 97.215,50.577 z" fill="#6FAAAF"/>
      <path d="M111.217,24.398 C111.481,25.077 111.144,25.842 110.465,26.106 C109.785,26.37 109.02,26.033 108.756,25.354 C108.492,24.674 108.829,23.909 109.509,23.645 C110.188,23.381 110.953,23.718 111.217,24.398 z" fill="#6FAAAF"/>
      <path d="M136.434,-9.72 C136.698,-9.04 136.361,-8.275 135.681,-8.011 C135.002,-7.747 134.237,-8.084 133.973,-8.764 C133.709,-9.443 134.046,-10.208 134.725,-10.472 C135.405,-10.736 136.17,-10.399 136.434,-9.72 z" fill="#6FAAAF"/>
      <path d="M119.605,-22.757 C119.869,-22.077 119.532,-21.312 118.852,-21.048 C118.173,-20.784 117.408,-21.121 117.144,-21.801 C116.88,-22.48 117.217,-23.245 117.896,-23.509 C118.576,-23.773 119.341,-23.436 119.605,-22.757 z" fill="#6FAAAF"/>
      <path d="M121.97,58.899 C122.388,59.975 121.854,61.186 120.778,61.604 C119.702,62.021 118.491,61.488 118.073,60.412 C117.656,59.336 118.189,58.125 119.265,57.707 C120.341,57.289 121.552,57.823 121.97,58.899 z" fill="#6FAAAF"/>
      <path d="M94.505,75.905 C94.923,76.981 94.389,78.192 93.313,78.61 C92.237,79.028 91.026,78.494 90.608,77.418 C90.191,76.342 90.724,75.131 91.8,74.713 C92.876,74.296 94.087,74.829 94.505,75.905 z" fill="#6FAAAF"/>
      <path d="M122.961,50.102 C123.291,50.954 122.867,51.913 122.015,52.243 C121.162,52.573 120.203,52.149 119.873,51.297 C119.543,50.444 119.967,49.485 120.819,49.155 C121.672,48.825 122.631,49.249 122.961,50.102 z" fill="#6FAAAF"/>
      <path d="M110.942,3.781 C111.274,4.635 110.85,5.597 109.995,5.929 C109.141,6.261 108.179,5.837 107.847,4.982 C107.515,4.128 107.939,3.166 108.794,2.834 C109.648,2.502 110.61,2.926 110.942,3.781 z" fill="#6FAAAF"/>
      <path d="M134.219,2.871 C134.649,3.978 134.1,5.224 132.993,5.654 C131.886,6.084 130.641,5.535 130.211,4.428 C129.781,3.322 130.329,2.076 131.436,1.646 C132.543,1.216 133.789,1.764 134.219,2.871 z" fill="#6FAAAF"/>
      <path d="M125.527,27.609 C125.957,28.716 125.408,29.962 124.302,30.392 C123.195,30.822 121.949,30.273 121.519,29.166 C121.089,28.059 121.638,26.813 122.745,26.384 C123.851,25.954 125.097,26.502 125.527,27.609 z" fill="#6FAAAF"/>
      <path d="M112.191,66.354 C112.405,66.905 112.132,67.525 111.581,67.739 C111.03,67.953 110.41,67.68 110.196,67.129 C109.982,66.578 110.256,65.958 110.806,65.744 C111.357,65.53 111.977,65.804 112.191,66.354 z" fill="#6FAAAF"/>
      <path d="M112.069,88.597 C112.499,89.704 111.95,90.95 110.843,91.38 C109.736,91.81 108.491,91.261 108.061,90.154 C107.631,89.047 108.18,87.801 109.287,87.371 C110.394,86.942 111.639,87.491 112.069,88.597 z" fill="#6FAAAF"/>
      <path d="M88.687,80.763 C89.333,82.426 88.508,84.297 86.846,84.943 C85.183,85.588 83.311,84.764 82.665,83.101 C82.02,81.438 82.844,79.566 84.507,78.921 C86.17,78.275 88.042,79.1 88.687,80.763 z" fill="#6FAAAF"/>
      <path d="M123.191,-14.291 C123.62,-13.184 123.071,-11.938 121.965,-11.508 C120.858,-11.078 119.612,-11.627 119.182,-12.734 C118.752,-13.841 119.301,-15.087 120.408,-15.517 C121.515,-15.946 122.761,-15.397 123.191,-14.291 z" fill="#6FAAAF"/>
      <path d="M106.273,37.317 C106.555,38.043 106.195,38.86 105.469,39.142 C104.743,39.424 103.926,39.064 103.644,38.338 C103.362,37.612 103.722,36.795 104.448,36.513 C105.174,36.231 105.991,36.591 106.273,37.317 z" fill="#3D6E78"/>
      <path d="M119.719,41.715 C119.964,42.347 119.65,43.057 119.018,43.302 C118.387,43.546 117.676,43.233 117.432,42.601 C117.187,41.969 117.501,41.259 118.133,41.014 C118.764,40.77 119.475,41.083 119.719,41.715 z" fill="#3D6E78"/>
      <path d="M98.978,61.909 C99.259,62.634 98.899,63.451 98.174,63.733 C97.448,64.015 96.631,63.655 96.349,62.929 C96.067,62.203 96.427,61.386 97.153,61.104 C97.879,60.823 98.696,61.183 98.978,61.909 z" fill="#3D6E78"/>
      <path d="M118.233,-1.361 C118.659,-0.265 118.115,0.97 117.019,1.395 C115.922,1.821 114.688,1.277 114.262,0.181 C113.836,-0.916 114.38,-2.15 115.477,-2.576 C116.573,-3.002 117.807,-2.458 118.233,-1.361 z" fill="#417680"/>
      <path d="M107.884,12.975 C108.166,13.701 107.806,14.518 107.08,14.799 C106.354,15.081 105.537,14.721 105.255,13.995 C104.973,13.27 105.333,12.453 106.059,12.171 C106.785,11.889 107.602,12.249 107.884,12.975 z" fill="#3D6E78"/>
      <path d="M143.236,-15.012 C143.518,-14.286 143.158,-13.47 142.432,-13.188 C141.706,-12.906 140.889,-13.266 140.607,-13.992 C140.326,-14.718 140.685,-15.535 141.411,-15.816 C142.137,-16.098 142.954,-15.738 143.236,-15.012 z" fill="#3D6E78"/>
      <path d="M134.465,20.787 C134.979,22.11 134.323,23.599 133,24.113 C131.677,24.627 130.187,23.971 129.674,22.648 C129.16,21.324 129.816,19.835 131.139,19.322 C132.462,18.808 133.951,19.464 134.465,20.787 z" fill="#3D6E78"/>
      <path d="M100.141,42.246 C100.542,43.281 100.029,44.445 98.994,44.847 C97.96,45.249 96.795,44.736 96.393,43.701 C95.991,42.666 96.505,41.501 97.539,41.1 C98.574,40.698 99.739,41.211 100.141,42.246 z" fill="#3D6E78"/>
      <path d="M109.167,80.531 C109.569,81.566 109.056,82.731 108.021,83.133 C106.986,83.534 105.822,83.021 105.42,81.986 C105.018,80.952 105.531,79.787 106.566,79.385 C107.601,78.983 108.766,79.496 109.167,80.531 z" fill="#3D6E78"/>
    </g>
    <g>
      <g>
        <path d="M171.95,2.98 L172,3.18 C172.046,3.377 172.107,3.571 172.18,3.76 C172.447,4.487 172.836,5.164 173.33,5.76 C174.089,6.683 174.955,7.512 175.91,8.23 C177,9.08 178.3,9.96 179.74,10.9 C181.18,11.84 182.74,12.84 184.31,14.07 C185.121,14.694 185.875,15.39 186.56,16.15 C187.296,16.939 187.867,17.867 188.24,18.88 C188.599,19.94 188.655,21.08 188.4,22.17 C188.143,23.27 187.729,24.328 187.17,25.31 C186.03,27.29 184.754,29.188 183.35,30.99 C181.959,32.78 180.731,34.691 179.68,36.7 C179.183,37.669 178.862,38.719 178.73,39.8 C178.677,40.31 178.698,40.825 178.79,41.33 L179.01,42.11 C179.062,42.367 179.157,42.614 179.29,42.84 C180.288,44.572 181.782,45.965 183.58,46.84 C185.28,47.84 186.95,48.64 188.43,49.54 C189.18,49.97 189.85,50.46 190.51,50.9 C191.111,51.346 191.685,51.827 192.23,52.34 L192.97,53.05 C193.2,53.29 193.39,53.55 193.58,53.78 L194.14,54.46 C194.31,54.68 194.43,54.92 194.57,55.13 C194.82,55.57 195.09,55.93 195.25,56.29 L195.65,57.2 L195.98,57.95 L195.93,57.95 L195.56,57.22 L195.11,56.34 C194.93,56 194.65,55.65 194.38,55.23 C194.24,55.03 194.1,54.8 193.93,54.59 L193.36,53.94 C193.16,53.72 192.97,53.47 192.74,53.25 L192,52.57 C191.453,52.084 190.879,51.63 190.28,51.21 C189.62,50.79 188.95,50.33 188.2,49.93 C186.72,49.08 185.03,48.3 183.31,47.32 C181.371,46.408 179.765,44.911 178.72,43.04 C178.584,42.796 178.486,42.533 178.43,42.26 L178.22,41.47 C178.116,40.896 178.099,40.309 178.17,39.73 C178.304,38.592 178.643,37.488 179.17,36.47 C180.288,34.465 181.583,32.564 183.04,30.79 C184.472,29.023 185.778,27.159 186.95,25.21 C188.01,23.28 188.73,20.97 187.89,18.97 C187.05,16.97 185.44,15.64 183.95,14.43 C182.46,13.22 180.84,12.23 179.42,11.26 C178.105,10.404 176.837,9.48 175.62,8.49 C174.668,7.729 173.818,6.848 173.09,5.87 C172.622,5.238 172.263,4.531 172.03,3.78 C171.969,3.583 171.923,3.383 171.89,3.18 L171.89,2.97 L171.95,2.97 z" fill="#5BA5B3"/>
        <path d="M182.03,60.47 L181.92,59.66 C181.85,58.887 181.874,58.108 181.99,57.34 C182.179,56.148 182.557,54.993 183.11,53.92 C183.846,52.541 184.72,51.241 185.72,50.04 C186.78,48.69 188.01,47.31 189.21,45.78 C190.569,44.268 191.483,42.41 191.85,40.41 C191.923,39.367 191.694,38.326 191.19,37.41 C190.661,36.466 189.986,35.612 189.19,34.88 C187.489,33.4 185.67,32.062 183.75,30.88 C181.808,29.688 179.96,28.351 178.22,26.88 C177.364,26.127 176.628,25.247 176.04,24.27 C175.46,23.288 175.172,22.16 175.21,21.02 C175.272,19.933 175.54,18.867 176,17.88 C176.414,16.948 176.909,16.055 177.48,15.21 C178.57,13.56 179.73,12.12 180.76,10.76 C181.79,9.4 182.76,8.16 183.46,6.99 C184.111,5.995 184.644,4.928 185.05,3.81 C185.308,3.091 185.443,2.334 185.45,1.57 C185.464,1.37 185.464,1.17 185.45,0.97 L185.45,0.76 L185.51,0.76 L185.51,0.97 C185.544,1.172 185.564,1.376 185.57,1.58 C185.595,2.359 185.491,3.136 185.26,3.88 C184.904,5.036 184.397,6.139 183.75,7.16 C183.04,8.36 182.12,9.64 181.11,11.02 C180.1,12.4 178.98,13.87 177.95,15.51 C176.778,17.143 176.035,19.045 175.79,21.04 C175.745,22.091 176.005,23.134 176.54,24.04 C177.101,24.966 177.795,25.805 178.6,26.53 C180.3,27.997 182.109,29.334 184.01,30.53 C185.936,31.745 187.759,33.116 189.46,34.63 C190.294,35.396 191,36.291 191.55,37.28 C192.082,38.269 192.315,39.391 192.22,40.51 C191.839,42.568 190.886,44.478 189.47,46.02 C188.24,47.55 186.99,48.91 185.92,50.24 C184.925,51.428 184.054,52.715 183.32,54.08 C182.76,55.135 182.371,56.273 182.17,57.45 C182.045,58.207 182.012,58.975 182.07,59.74 L182.17,60.55 L182.11,60.55 z" fill="#5BA5B3"/>
      </g>
      <path d="M181.81,46.29 L183.09,45.99 C183.86,45.82 184.89,45.63 185.92,45.44 C186.95,45.25 187.99,45.11 188.77,45.01 L190.07,44.87 C190.07,44.87 189.56,45 188.79,45.17 C188.02,45.34 186.99,45.53 185.96,45.72 C184.93,45.91 183.89,46.05 183.11,46.14 z" fill="#5BA5B3"/>
      <path d="M179.11,43.39 L181.11,42.97 C182.29,42.73 183.87,42.44 185.45,42.16 C187.03,41.88 188.62,41.64 189.81,41.48 L191.81,41.22 L189.81,41.64 C188.63,41.88 187.05,42.17 185.47,42.45 C183.89,42.73 182.3,42.97 181.11,43.13 z" fill="#5BA5B3"/>
      <path d="M178.8,39.04 L180.7,38.63 C181.84,38.4 183.37,38.12 184.89,37.85 C186.41,37.58 187.95,37.35 189.1,37.19 L191.02,36.94 L189.12,37.35 C187.98,37.58 186.45,37.86 184.93,38.13 C183.41,38.4 181.87,38.63 180.72,38.79 z" fill="#5BA5B3"/>
      <path d="M180.81,34.3 L181.81,34.05 C182.42,33.91 183.23,33.75 184.05,33.6 C184.87,33.45 185.69,33.34 186.31,33.28 L187.31,33.18 C187.31,33.18 186.91,33.29 186.31,33.43 C185.71,33.57 184.89,33.73 184.07,33.88 C183.25,34.03 182.43,34.14 181.81,34.2 z" fill="#5BA5B3"/>
      <path d="M179.43,27.46 L180.53,27.19 C181.19,27.04 182.08,26.87 182.97,26.71 C183.86,26.55 184.75,26.43 185.43,26.35 L186.56,26.24 C186.56,26.24 186.12,26.36 185.46,26.51 C184.8,26.66 183.91,26.83 183.02,26.99 C182.13,27.15 181.24,27.27 180.56,27.35 z" fill="#5BA5B3"/>
      <path d="M176.5,24.39 L178.31,24.03 C179.4,23.82 180.85,23.59 182.31,23.36 C183.77,23.13 185.22,22.94 186.31,22.81 L188.14,22.61 L186.33,22.97 C185.24,23.18 183.79,23.41 182.33,23.64 C180.87,23.87 179.42,24.06 178.33,24.19 z" fill="#5BA5B3"/>
      <path d="M175.6,20.36 L177.5,19.95 C178.64,19.72 180.17,19.44 181.69,19.17 C183.21,18.9 184.75,18.67 185.9,18.51 L187.82,18.26 L185.92,18.67 C184.78,18.9 183.25,19.18 181.73,19.45 C180.21,19.72 178.67,19.95 177.52,20.11 z" fill="#5BA5B3"/>
      <path d="M177.42,15.65 L178.5,15.38 C179.15,15.23 180.02,15.07 180.9,14.91 C181.78,14.75 182.66,14.63 183.32,14.56 L184.43,14.45 C184.43,14.45 184,14.57 183.35,14.72 C182.7,14.87 181.83,15.03 180.95,15.19 C180.07,15.35 179.19,15.47 178.53,15.54 z" fill="#5BA5B3"/>
      <g>
        <path d="M175.91,8.49 L177.05,8.21 C177.74,8.05 178.66,7.88 179.58,7.71 C180.5,7.54 181.43,7.42 182.13,7.34 L183.3,7.22 C183.3,7.22 182.85,7.34 182.16,7.5 C181.47,7.66 180.55,7.83 179.63,8 C178.71,8.17 177.78,8.29 177.08,8.37 z" fill="#5BA5B3"/>
        <path d="M173.07,5.62 L174.95,5.22 C176.08,4.99 177.59,4.71 179.1,4.45 C180.61,4.19 182.1,3.95 183.27,3.8 L185.17,3.56 L183.29,3.96 C182.16,4.19 180.65,4.47 179.14,4.73 C177.63,4.99 176.14,5.23 174.97,5.38 z" fill="#5BA5B3"/>
      </g>
      <g>
        <path d="M191.05,51.54 L189.93,51.81 C189.26,51.96 188.36,52.13 187.45,52.29 C186.54,52.45 185.64,52.57 184.95,52.64 L183.81,52.75 C183.81,52.75 184.26,52.63 184.93,52.48 C185.6,52.33 186.5,52.16 187.41,52 C188.32,51.84 189.22,51.72 189.91,51.65 z" fill="#5BA5B3"/>
        <path d="M193.89,54.42 L192.08,54.81 C190.99,55.03 189.53,55.29 188.08,55.55 C186.63,55.81 185.16,56.02 184.08,56.16 L182.24,56.39 L184.05,56 C185.14,55.78 186.6,55.52 188.05,55.26 C189.5,55 190.97,54.79 192.05,54.65 z" fill="#5BA5B3"/>
      </g>
    </g>
    <g>
      <g>
        <g>
          <path d="M116.84,66.69 L117.03,66.45 C117.22,66.222 117.394,65.982 117.55,65.73 C118.147,64.779 118.58,63.735 118.83,62.64 C119.225,60.939 119.416,59.196 119.4,57.45 C119.4,55.45 119.28,53.13 119.1,50.63 C118.92,48.13 118.66,45.41 118.71,42.5 C118.711,41.004 118.848,39.511 119.12,38.04 C119.381,36.479 119.952,34.986 120.8,33.65 C121.243,32.972 121.782,32.363 122.4,31.84 C123.039,31.322 123.737,30.883 124.48,30.53 C125.982,29.85 127.576,29.391 129.21,29.17 C132.527,28.756 135.867,28.549 139.21,28.55 C142.525,28.572 145.834,28.298 149.1,27.73 C150.661,27.431 152.157,26.859 153.52,26.04 C154.169,25.642 154.758,25.153 155.27,24.59 C155.778,24.024 156.211,23.396 156.56,22.72 C157.97,20.04 157.77,16.91 157.42,14.12 C157.07,11.33 156.5,8.61 156.22,6.12 C155.917,3.829 155.87,1.511 156.08,-0.79 C156.244,-2.567 156.637,-4.314 157.25,-5.99 C157.648,-7.059 158.13,-8.096 158.69,-9.09 L159.3,-10.09 L159.37,-10.09 L158.82,-9.02 C157.546,-6.436 156.799,-3.625 156.62,-0.75 C156.497,1.512 156.604,3.78 156.94,6.02 C157.28,8.49 157.87,11.15 158.26,14.02 C158.482,15.509 158.566,17.015 158.51,18.52 C158.471,20.131 158.064,21.711 157.32,23.14 C156.932,23.863 156.455,24.535 155.9,25.14 C155.315,25.768 154.641,26.307 153.9,26.74 C152.442,27.585 150.843,28.157 149.18,28.43 C145.87,28.915 142.523,29.102 139.18,28.99 C135.841,28.871 132.497,29.011 129.18,29.41 C127.572,29.629 126.007,30.095 124.54,30.79 C123.819,31.13 123.147,31.563 122.54,32.08 C121.965,32.602 121.47,33.205 121.07,33.87 C120.341,35.19 119.882,36.641 119.72,38.14 C119.516,39.584 119.416,41.041 119.42,42.5 C119.42,45.36 119.64,48.07 119.78,50.58 C119.955,52.869 120.008,55.165 119.94,57.46 C119.907,59.243 119.645,61.014 119.16,62.73 C118.842,63.837 118.338,64.882 117.67,65.82 C117.497,66.066 117.306,66.3 117.1,66.52 L116.9,66.75 z" fill="#2D7174"/>
          <path d="M174.55,3.84 C174.55,3.84 174.25,4.19 173.61,4.77 C172.683,5.611 171.647,6.324 170.53,6.89 C168.784,7.749 166.909,8.316 164.98,8.57 C162.483,8.885 159.963,8.976 157.45,8.84 C154.69,8.76 151.71,8.5 148.57,8.69 C146.97,8.769 145.392,9.107 143.9,9.69 C142.364,10.3 141.063,11.387 140.19,12.79 C139.329,14.275 138.787,15.924 138.6,17.63 C138.382,19.394 138.309,21.174 138.38,22.95 C138.48,26.55 138.9,30.21 139.02,33.95 C139.104,35.806 139.037,37.665 138.82,39.51 C138.627,41.39 138.019,43.203 137.04,44.82 C135.999,46.398 134.488,47.609 132.72,48.28 C131.036,48.897 129.271,49.265 127.48,49.37 C124,49.64 120.67,49.45 117.48,49.55 C114.533,49.578 111.595,49.896 108.71,50.5 C106.269,51.023 103.913,51.885 101.71,53.06 C100.019,53.976 98.43,55.068 96.97,56.32 C96.03,57.131 95.142,57.999 94.31,58.92 L93.44,59.92 L93.38,59.87 L94.22,58.87 C95.026,57.914 95.891,57.009 96.81,56.16 C98.241,54.839 99.818,53.685 101.51,52.72 C103.704,51.478 106.06,50.546 108.51,49.95 C111.428,49.28 114.407,48.911 117.4,48.85 C120.57,48.72 123.91,48.85 127.31,48.57 C129.016,48.482 130.701,48.145 132.31,47.57 C133.921,46.964 135.3,45.865 136.25,44.43 C137.16,42.902 137.733,41.197 137.93,39.43 C138.163,37.63 138.25,35.814 138.19,34 C138.11,30.34 137.73,26.68 137.66,23 C137.606,21.192 137.7,19.383 137.94,17.59 C138.161,15.822 138.746,14.119 139.66,12.59 C140.609,11.103 142.012,9.96 143.66,9.33 C145.205,8.759 146.833,8.441 148.48,8.39 C151.66,8.24 154.64,8.54 157.39,8.65 C159.887,8.814 162.394,8.754 164.88,8.47 C166.795,8.241 168.66,7.701 170.4,6.87 C171.514,6.324 172.55,5.631 173.48,4.81 C174.12,4.24 174.42,3.89 174.42,3.89 z" fill="#2D7174"/>
        </g>
        <path d="M158.29,16.72 C158.29,16.72 157.68,16.25 156.81,15.51 C156.38,15.13 155.81,14.71 155.33,14.22 L153.66,12.71 C152.55,11.66 151.44,10.61 150.66,9.78 C149.88,8.95 149.34,8.39 149.34,8.39 C149.34,8.39 149.95,8.86 150.82,9.6 C151.69,10.34 152.82,11.36 153.97,12.39 L155.6,13.94 C156.12,14.43 156.6,14.94 157,15.32 C157.78,16.15 158.29,16.72 158.29,16.72 z" fill="#2D7174"/>
        <path d="M157.34,22.43 C157.34,22.43 156.44,21.68 155.11,20.53 L152.86,18.53 L150.31,16.21 C148.6,14.61 146.89,13 145.64,11.76 C144.39,10.52 143.57,9.68 143.57,9.68 C143.57,9.68 144.47,10.43 145.8,11.58 C147.13,12.73 148.86,14.31 150.59,15.89 L153.1,18.25 L155.26,20.34 C156.52,21.59 157.34,22.43 157.34,22.43 z" fill="#2D7174"/>
        <path d="M152.57,26.66 C152.57,26.66 151.7,25.93 150.41,24.82 L148.24,22.89 L145.78,20.65 C144.13,19.1 142.48,17.55 141.27,16.35 C140.06,15.15 139.27,14.35 139.27,14.35 C139.27,14.35 140.14,15.07 141.43,16.19 C142.72,17.31 144.43,18.83 146.07,20.36 L148.49,22.64 L150.58,24.64 C151.78,25.84 152.57,26.66 152.57,26.66 z" fill="#2D7174"/>
        <path d="M145.28,28.55 C145.28,28.55 144.79,28.19 144.09,27.6 C143.74,27.3 143.33,26.97 142.9,26.6 L141.57,25.41 C140.69,24.57 139.81,23.74 139.18,23.07 C138.55,22.4 138.18,21.95 138.18,21.95 C138.18,21.95 138.67,22.31 139.37,22.9 C140.07,23.49 140.98,24.29 141.88,25.1 L143.17,26.33 C143.58,26.72 143.95,27.11 144.27,27.43 C144.88,28.04 145.28,28.55 145.28,28.55 z" fill="#2D7174"/>
        <path d="M138.57,36.23 C138.57,36.23 138.04,35.83 137.28,35.23 C136.91,34.91 136.45,34.54 136,34.13 L134.56,32.83 C133.56,31.92 132.65,31.01 131.96,30.3 C131.27,29.59 130.82,29.04 130.82,29.04 C130.82,29.04 131.35,29.44 132.11,30.04 C132.87,30.64 133.86,31.55 134.84,32.44 L136.24,33.78 C136.69,34.21 137.09,34.63 137.44,34.98 C138.14,35.74 138.57,36.23 138.57,36.23 z" fill="#2D7174"/>
        <path d="M137.62,42.36 C137.62,42.36 136.8,41.66 135.62,40.58 L133.62,38.72 L131.32,36.55 C129.78,35.05 128.24,33.55 127.11,32.39 C125.98,31.23 125.25,30.44 125.25,30.44 C125.25,30.44 126.07,31.14 127.25,32.22 C128.43,33.3 130.02,34.77 131.58,36.22 L133.84,38.43 L135.79,40.43 C136.89,41.57 137.62,42.36 137.62,42.36 z" fill="#2D7174"/>
        <path d="M133.72,47.04 C133.72,47.04 132.85,46.31 131.56,45.2 L129.39,43.27 L126.95,41.04 C125.3,39.49 123.65,37.94 122.44,36.74 C121.23,35.54 120.44,34.74 120.44,34.74 C120.44,34.74 121.31,35.46 122.6,36.58 C123.89,37.7 125.6,39.22 127.24,40.75 L129.66,43.03 L131.75,45.03 C132.95,46.18 133.72,47.04 133.72,47.04 z" fill="#2D7174"/>
        <path d="M126.66,49.04 C126.66,49.04 126.14,48.65 125.39,48.04 C125.02,47.72 124.58,47.36 124.13,46.96 L122.72,45.7 C121.78,44.81 120.84,43.91 120.16,43.21 C119.48,42.51 119.05,42.02 119.05,42.02 C119.05,42.02 119.57,42.41 120.32,43.02 C121.07,43.63 122.04,44.51 123,45.38 L124.38,46.7 C124.82,47.12 125.21,47.53 125.56,47.88 C126.23,48.59 126.66,49.04 126.66,49.04 z" fill="#2D7174"/>
        <g>
          <path d="M119.72,57.2 C119.72,57.2 119.17,56.78 118.38,56.12 C117.99,55.78 117.53,55.41 117.05,54.98 L115.56,53.63 C114.56,52.69 113.56,51.75 112.86,51.01 C112.16,50.27 111.68,49.76 111.68,49.76 C111.68,49.76 112.23,50.18 113.02,50.84 C113.81,51.5 114.83,52.41 115.84,53.33 L117.3,54.72 C117.77,55.16 118.18,55.6 118.54,55.96 C119.24,56.68 119.72,57.2 119.72,57.2 z" fill="#2D7174"/>
          <path d="M118.89,63.04 C118.89,63.04 118.03,62.32 116.75,61.22 L114.6,59.31 L112.16,57.09 C110.52,55.56 108.89,54.02 107.69,52.83 C106.49,51.64 105.69,50.83 105.69,50.83 C105.69,50.83 106.55,51.55 107.83,52.65 C109.11,53.75 110.76,55.26 112.42,56.77 L114.82,59.03 L116.89,61.03 C118.11,62.24 118.89,63.04 118.89,63.04 z" fill="#2D7174"/>
        </g>
        <g>
          <path d="M156.17,1.32 C156.17,1.32 156.71,1.73 157.47,2.38 C157.85,2.71 158.3,3.08 158.77,3.51 L160.23,4.83 C161.23,5.76 162.17,6.69 162.86,7.41 C163.55,8.13 164,8.64 164,8.64 C164,8.64 163.46,8.23 162.7,7.58 C161.94,6.93 160.93,6.03 159.95,5.13 L158.53,3.77 C158.08,3.34 157.67,2.91 157.32,2.55 C156.62,1.83 156.17,1.32 156.17,1.32 z" fill="#2D7174"/>
          <path d="M156.98,-4.52 C156.98,-4.52 157.81,-3.83 159.04,-2.76 L161.11,-0.92 L163.45,1.23 C165.02,2.72 166.59,4.23 167.74,5.35 C168.89,6.47 169.64,7.28 169.64,7.28 C169.64,7.28 168.81,6.59 167.58,5.52 C166.35,4.45 164.76,2.99 163.16,1.52 L160.85,-0.67 L158.85,-2.61 C157.72,-3.74 156.98,-4.52 156.98,-4.52 z" fill="#2D7174"/>
        </g>
      </g>
      <path d="M157.512,20.137 C158.592,20.213 159.405,21.15 159.329,22.23 C159.253,23.31 158.315,24.123 157.236,24.047 C156.156,23.971 155.342,23.034 155.419,21.954 C155.495,20.874 156.432,20.061 157.512,20.137 z" fill="#2D7174"/>
      <path d="M120.644,32.689 C121.723,32.766 122.537,33.703 122.461,34.783 C122.384,35.862 121.447,36.676 120.367,36.6 C119.288,36.523 118.474,35.586 118.55,34.506 C118.627,33.427 119.564,32.613 120.644,32.689 z" fill="#2D7174"/>
      <path d="M138.094,21.593 C138.595,21.628 138.973,22.063 138.937,22.565 C138.902,23.066 138.467,23.444 137.965,23.408 C137.464,23.373 137.086,22.938 137.122,22.436 C137.157,21.935 137.592,21.557 138.094,21.593 z" fill="#2D7174"/>
      <path d="M163.95,7.689 C164.451,7.724 164.829,8.159 164.794,8.66 C164.758,9.162 164.323,9.539 163.822,9.504 C163.32,9.469 162.943,9.033 162.978,8.532 C163.014,8.031 163.449,7.653 163.95,7.689 z" fill="#2D7174"/>
      <path d="M157.261,-5.444 C157.763,-5.408 158.14,-4.973 158.105,-4.472 C158.07,-3.971 157.634,-3.593 157.133,-3.628 C156.632,-3.664 156.254,-4.099 156.289,-4.6 C156.325,-5.102 156.76,-5.479 157.261,-5.444 z" fill="#2D7174"/>
      <path d="M134.122,45.771 C134.921,45.827 135.523,46.521 135.466,47.32 C135.41,48.118 134.716,48.72 133.917,48.664 C133.119,48.607 132.517,47.914 132.573,47.115 C132.63,46.316 133.323,45.714 134.122,45.771 z" fill="#2D7174"/>
      <path d="M111.907,48.304 C112.706,48.361 113.308,49.054 113.251,49.853 C113.195,50.652 112.501,51.253 111.703,51.197 C110.904,51.14 110.302,50.447 110.359,49.648 C110.415,48.849 111.109,48.247 111.907,48.304 z" fill="#2D7174"/>
      <path d="M138.568,40.757 C139.203,40.801 139.682,41.352 139.638,41.987 C139.593,42.622 139.042,43.101 138.407,43.057 C137.772,43.012 137.293,42.461 137.338,41.826 C137.382,41.191 137.933,40.712 138.568,40.757 z" fill="#2D7174"/>
      <path d="M143.794,8.322 C144.428,8.366 144.905,8.916 144.86,9.55 C144.816,10.183 144.266,10.661 143.632,10.616 C142.999,10.571 142.521,10.021 142.566,9.388 C142.611,8.754 143.161,8.277 143.794,8.322 z" fill="#2D7174"/>
      <path d="M158.302,14.292 C159.117,14.349 159.732,15.057 159.674,15.872 C159.617,16.688 158.909,17.302 158.094,17.244 C157.278,17.187 156.664,16.479 156.722,15.664 C156.779,14.848 157.487,14.234 158.302,14.292 z" fill="#2D7174"/>
      <path d="M145.552,27.21 C146.367,27.267 146.981,27.975 146.924,28.79 C146.866,29.605 146.159,30.22 145.343,30.162 C144.528,30.105 143.914,29.397 143.971,28.582 C144.029,27.766 144.736,27.152 145.552,27.21 z" fill="#2D7174"/>
      <path d="M126.492,48.309 C126.899,48.338 127.206,48.692 127.177,49.1 C127.149,49.507 126.795,49.814 126.387,49.786 C125.979,49.757 125.672,49.403 125.701,48.995 C125.73,48.588 126.084,48.28 126.492,48.309 z" fill="#2D7174"/>
      <path d="M119.126,61.363 C119.947,61.421 120.565,62.133 120.507,62.954 C120.449,63.775 119.737,64.393 118.916,64.335 C118.095,64.277 117.477,63.565 117.535,62.744 C117.593,61.923 118.305,61.305 119.126,61.363 z" fill="#2D7174"/>
      <path d="M106.107,48.756 C107.336,48.843 108.261,49.909 108.174,51.137 C108.088,52.366 107.021,53.291 105.793,53.205 C104.564,53.118 103.639,52.052 103.725,50.823 C103.812,49.595 104.878,48.669 106.107,48.756 z" fill="#2D7174"/>
      <path d="M156.489,0.29 C157.304,0.348 157.918,1.055 157.861,1.871 C157.803,2.686 157.096,3.3 156.28,3.243 C155.465,3.185 154.851,2.478 154.908,1.662 C154.966,0.847 155.673,0.233 156.489,0.29 z" fill="#2D7174"/>
      <path d="M131.132,28.102 C131.672,28.14 132.079,28.609 132.041,29.149 C132.003,29.689 131.534,30.095 130.994,30.057 C130.454,30.019 130.048,29.551 130.086,29.011 C130.124,28.471 130.592,28.064 131.132,28.102 z" fill="#1F383D"/>
      <path d="M138.764,35.352 C139.232,35.385 139.585,35.791 139.552,36.26 C139.519,36.728 139.112,37.081 138.644,37.048 C138.176,37.014 137.823,36.608 137.856,36.14 C137.889,35.671 138.296,35.319 138.764,35.352 z" fill="#1F383D"/>
      <path d="M119.306,41.355 C119.846,41.393 120.253,41.862 120.215,42.401 C120.176,42.941 119.708,43.348 119.168,43.31 C118.628,43.272 118.221,42.803 118.259,42.263 C118.298,41.723 118.766,41.317 119.306,41.355 z" fill="#1F383D"/>
      <path d="M150.017,6.385 C150.834,6.442 151.45,7.151 151.393,7.968 C151.336,8.785 150.627,9.402 149.81,9.345 C148.992,9.287 148.376,8.578 148.433,7.761 C148.49,6.944 149.199,6.327 150.017,6.385 z" fill="#231F20"/>
      <path d="M139.327,13.353 C139.867,13.391 140.273,13.859 140.235,14.399 C140.197,14.939 139.729,15.346 139.189,15.308 C138.649,15.27 138.242,14.801 138.28,14.261 C138.318,13.721 138.787,13.315 139.327,13.353 z" fill="#1F383D"/>
      <path d="M169.715,6.28 C170.255,6.318 170.661,6.787 170.623,7.327 C170.585,7.867 170.117,8.273 169.577,8.235 C169.037,8.197 168.63,7.728 168.668,7.189 C168.706,6.649 169.175,6.242 169.715,6.28 z" fill="#1F383D"/>
      <path d="M152.904,25.242 C153.885,25.311 154.624,26.162 154.554,27.143 C154.485,28.123 153.634,28.862 152.653,28.793 C151.673,28.723 150.934,27.872 151.003,26.892 C151.072,25.911 151.924,25.172 152.904,25.242 z" fill="#1F383D"/>
      <path d="M125.455,28.946 C126.221,29 126.798,29.665 126.744,30.431 C126.69,31.197 126.025,31.774 125.259,31.719 C124.494,31.665 123.917,31.001 123.971,30.235 C124.025,29.469 124.689,28.892 125.455,28.946 z" fill="#1F383D"/>
      <path d="M119.791,55.558 C120.557,55.613 121.134,56.277 121.08,57.043 C121.025,57.809 120.361,58.386 119.595,58.332 C118.829,58.277 118.252,57.613 118.306,56.847 C118.361,56.081 119.025,55.504 119.791,55.558 z" fill="#1F383D"/>
    </g>
    <g opacity="0.3">
      <g>
        <g>
          <path d="M193.33,58.19 L193.23,57.96 C193.142,57.736 193.038,57.519 192.92,57.31 C192.473,56.521 191.894,55.815 191.21,55.22 C190.145,54.291 188.974,53.492 187.72,52.84 C186.29,52.05 184.61,51.27 182.72,50.45 C180.83,49.63 178.84,48.76 176.8,47.62 C175.742,47.045 174.737,46.376 173.8,45.62 C172.79,44.839 171.947,43.863 171.32,42.75 C171.009,42.176 170.784,41.559 170.65,40.92 C170.526,40.261 170.483,39.589 170.52,38.92 C170.614,37.592 170.9,36.285 171.37,35.04 C172.344,32.526 173.472,30.074 174.75,27.7 C176.034,25.354 177.104,22.897 177.95,20.36 C178.345,19.137 178.521,17.854 178.47,16.57 C178.435,15.959 178.313,15.357 178.11,14.78 C177.901,14.2 177.619,13.648 177.27,13.14 C175.9,11.14 173.61,10.06 171.49,9.24 C169.37,8.42 167.23,7.78 165.33,7.02 C163.577,6.354 161.901,5.503 160.33,4.48 C159.128,3.689 158.036,2.745 157.08,1.67 C156.473,0.978 155.921,0.239 155.43,-0.54 L154.93,-1.37 L154.99,-1.37 L155.54,-0.57 C156.884,1.319 158.582,2.929 160.54,4.17 C162.098,5.13 163.754,5.921 165.48,6.53 C167.37,7.23 169.48,7.82 171.68,8.64 C172.822,9.051 173.923,9.566 174.97,10.18 C176.097,10.827 177.062,11.723 177.79,12.8 C178.155,13.351 178.451,13.946 178.67,14.57 C178.892,15.215 179.02,15.889 179.05,16.57 C179.094,17.929 178.891,19.284 178.45,20.57 C177.525,23.115 176.374,25.571 175.01,27.91 C173.655,30.229 172.481,32.65 171.5,35.15 C170.63,37.6 170.23,40.42 171.58,42.59 C172.218,43.632 173.058,44.537 174.05,45.25 C175.004,45.948 176.006,46.576 177.05,47.13 C179.05,48.21 181.05,49.13 182.93,49.96 C184.64,50.707 186.309,51.545 187.93,52.47 C189.186,53.175 190.345,54.039 191.38,55.04 C192.046,55.689 192.597,56.446 193.01,57.28 C193.119,57.497 193.212,57.72 193.29,57.95 L193.38,58.18 z" fill="#73E3E3"/>
          <path d="M170.72,-6.85 L171,-5.93 C171.225,-5.044 171.342,-4.134 171.35,-3.22 C171.355,-1.797 171.132,-0.383 170.69,0.97 C170.108,2.709 169.351,4.384 168.43,5.97 C167.43,7.74 166.27,9.58 165.17,11.59 C164.07,13.6 162.96,15.86 163.11,18.34 C163.215,19.583 163.681,20.768 164.45,21.75 C165.26,22.751 166.225,23.616 167.31,24.31 C169.566,25.715 171.934,26.932 174.39,27.95 C176.875,28.977 179.278,30.19 181.58,31.58 C182.709,32.298 183.72,33.185 184.58,34.21 C185.441,35.245 185.989,36.505 186.16,37.84 C186.291,39.116 186.179,40.406 185.83,41.64 C185.56,42.803 185.188,43.941 184.72,45.04 C183.72,47.16 182.72,49.04 181.72,50.84 C180.72,52.64 179.91,54.24 179.28,55.74 C178.711,57.021 178.291,58.363 178.03,59.74 C177.878,60.63 177.878,61.54 178.03,62.43 C178.064,62.666 178.114,62.9 178.18,63.13 L178.24,63.37 L178.18,63.37 L178.11,63.13 C178.031,62.901 177.967,62.667 177.92,62.43 C177.74,61.528 177.713,60.601 177.84,59.69 C178.036,58.275 178.419,56.893 178.98,55.58 C179.58,54.05 180.41,52.38 181.32,50.58 C182.23,48.78 183.26,46.86 184.16,44.75 C185.06,42.64 185.91,40.32 185.63,37.91 C185.475,36.695 184.975,35.55 184.19,34.61 C183.365,33.635 182.401,32.786 181.33,32.09 C179.072,30.691 176.712,29.464 174.27,28.42 C171.798,27.371 169.417,26.12 167.15,24.68 C166.032,23.947 165.04,23.038 164.21,21.99 C163.402,20.938 162.919,19.673 162.82,18.35 C162.69,15.72 163.89,13.42 164.99,11.42 C166.09,9.42 167.33,7.58 168.33,5.84 C169.265,4.256 170.036,2.581 170.63,0.84 C171.086,-0.493 171.325,-1.891 171.34,-3.3 C171.345,-4.206 171.241,-5.109 171.03,-5.99 L170.76,-6.92 z" fill="#73E3E3"/>
        </g>
        <path d="M173.72,9.63 C173.72,9.63 173.15,9.88 172.29,10.22 C171.43,10.56 170.29,10.98 169.1,11.39 C167.91,11.8 166.75,12.16 165.86,12.39 C164.97,12.62 164.37,12.8 164.37,12.8 C164.37,12.8 164.94,12.55 165.8,12.21 C166.66,11.87 167.8,11.45 168.99,11.04 C170.18,10.63 171.34,10.27 172.23,10.04 C173.12,9.81 173.72,9.63 173.72,9.63 z" fill="#73E3E3"/>
        <path d="M177.38,12.49 L175.17,13.35 C173.84,13.85 172.06,14.48 170.27,15.11 C168.48,15.74 166.68,16.31 165.33,16.73 L163.06,17.41 L165.27,16.55 C166.6,16.05 168.38,15.42 170.17,14.79 C171.96,14.16 173.76,13.59 175.11,13.17 z" fill="#73E3E3"/>
        <path d="M178.56,17.49 C178.56,17.49 177.71,17.84 176.43,18.32 C175.15,18.8 173.43,19.42 171.7,20.02 C169.97,20.62 168.23,21.18 166.92,21.58 C165.61,21.98 164.73,22.23 164.73,22.23 C164.73,22.23 165.58,21.88 166.86,21.4 C168.14,20.92 169.86,20.3 171.59,19.7 C173.32,19.1 175.06,18.54 176.37,18.14 C177.68,17.74 178.56,17.49 178.56,17.49 z" fill="#73E3E3"/>
        <path d="M177.12,23.39 C177.12,23.39 176.67,23.6 175.99,23.88 C175.31,24.16 174.39,24.49 173.46,24.82 C172.53,25.15 171.6,25.43 170.89,25.62 C170.18,25.81 169.7,25.93 169.7,25.93 C169.7,25.93 170.15,25.72 170.83,25.44 C171.51,25.16 172.43,24.83 173.36,24.5 C174.29,24.17 175.22,23.89 175.93,23.7 C176.64,23.51 177.12,23.39 177.12,23.39 z" fill="#73E3E3"/>
        <path d="M180.01,31.1 C180.01,31.1 179.52,31.32 178.78,31.62 C178.04,31.92 177.04,32.28 176.03,32.62 C175.02,32.96 174.03,33.28 173.24,33.5 C172.45,33.72 171.95,33.84 171.95,33.84 C171.95,33.84 172.44,33.62 173.18,33.32 C173.92,33.02 174.92,32.66 175.93,32.32 C176.94,31.98 177.93,31.66 178.72,31.44 C179.51,31.22 180.01,31.1 180.01,31.1 z" fill="#73E3E3"/>
        <path d="M184,34.12 C184,34.12 183.19,34.44 182,34.88 C180.81,35.32 179.13,35.88 177.48,36.42 C175.83,36.96 174.17,37.42 172.92,37.82 C171.67,38.22 170.83,38.4 170.83,38.4 C170.83,38.4 171.64,38.08 172.83,37.64 C174.02,37.2 175.7,36.64 177.35,36.1 C179,35.56 180.66,35.1 181.92,34.7 C183.18,34.3 184,34.12 184,34.12 z" fill="#73E3E3"/>
        <path d="M185.81,38.65 C185.81,38.65 184.96,39 183.68,39.48 C182.4,39.96 180.68,40.58 178.95,41.18 C177.22,41.78 175.48,42.34 174.17,42.74 C172.86,43.14 171.98,43.39 171.98,43.39 C171.98,43.39 172.83,43.04 174.11,42.56 C175.39,42.08 177.11,41.46 178.84,40.86 C180.57,40.26 182.31,39.7 183.62,39.3 C184.93,38.9 185.81,38.65 185.81,38.65 z" fill="#73E3E3"/>
        <path d="M184.58,44.48 C184.58,44.48 184.1,44.7 183.37,44.99 C182.64,45.28 181.65,45.64 180.67,45.99 C179.69,46.34 178.67,46.64 177.92,46.86 C177.17,47.08 176.65,47.2 176.65,47.2 C176.65,47.2 177.13,46.98 177.86,46.69 C178.59,46.4 179.58,46.04 180.56,45.69 C181.54,45.34 182.56,45.04 183.31,44.83 C184.06,44.62 184.58,44.48 184.58,44.48 z" fill="#73E3E3"/>
        <g>
          <path d="M187.72,52.52 C187.72,52.52 187.22,52.75 186.44,53.06 C185.66,53.37 184.63,53.75 183.59,54.11 C182.55,54.47 181.49,54.8 180.69,55.03 C179.89,55.26 179.35,55.39 179.35,55.39 C179.35,55.39 179.85,55.16 180.63,54.85 C181.41,54.54 182.44,54.16 183.48,53.8 C184.52,53.44 185.58,53.11 186.38,52.89 C187.18,52.67 187.72,52.52 187.72,52.52 z" fill="#73E3E3"/>
          <path d="M191.53,55.33 C191.53,55.33 190.69,55.67 189.42,56.15 C188.15,56.63 186.42,57.24 184.74,57.83 C183.06,58.42 181.31,58.98 180.01,59.37 C178.71,59.76 177.84,60.01 177.84,60.01 C177.84,60.01 178.68,59.67 179.95,59.19 C181.22,58.71 182.95,58.1 184.63,57.51 C186.31,56.92 188.06,56.36 189.36,55.97 C190.66,55.58 191.53,55.33 191.53,55.33 z" fill="#73E3E3"/>
        </g>
        <g>
          <path d="M161.94,5.25 C161.94,5.25 162.44,5.03 163.19,4.73 C163.94,4.43 164.96,4.07 165.98,3.73 C167,3.39 168.04,3.06 168.82,2.85 C169.6,2.64 170.13,2.51 170.13,2.51 C170.13,2.51 169.63,2.73 168.88,3.03 C168.13,3.33 167.11,3.69 166.09,4.03 C165.07,4.37 164.03,4.69 163.25,4.91 C162.47,5.13 161.94,5.25 161.94,5.25 z" fill="#73E3E3"/>
          <path d="M158.1,2.44 C158.1,2.44 158.91,2.11 160.1,1.65 C161.29,1.19 162.97,0.65 164.62,0.04 C166.27,-0.57 167.94,-1.06 169.19,-1.43 C170.44,-1.8 171.29,-2.04 171.29,-2.04 C171.29,-2.04 170.48,-1.71 169.29,-1.25 C168.1,-0.79 166.42,-0.25 164.76,0.36 C163.1,0.97 161.44,1.45 160.19,1.83 C158.94,2.21 158.1,2.44 158.1,2.44 z" fill="#73E3E3"/>
        </g>
      </g>
      <path d="M178.01,11.024 C178.747,11.49 178.966,12.467 178.499,13.204 C178.032,13.941 177.056,14.16 176.319,13.693 C175.582,13.227 175.363,12.251 175.829,11.513 C176.296,10.776 177.272,10.557 178.01,11.024 z" fill="#73E3E3"/>
      <path d="M170.709,41.778 C171.442,42.241 171.661,43.21 171.199,43.943 C170.736,44.676 169.767,44.895 169.034,44.433 C168.301,43.97 168.082,43.001 168.544,42.268 C169.007,41.535 169.976,41.316 170.709,41.778 z" fill="#73E3E3"/>
      <path d="M170.424,25.587 C170.77,25.806 170.872,26.263 170.654,26.608 C170.435,26.954 169.978,27.056 169.633,26.838 C169.287,26.619 169.185,26.162 169.403,25.817 C169.622,25.471 170.079,25.369 170.424,25.587 z" fill="#73E3E3"/>
      <path d="M170.446,1.906 C170.791,2.125 170.894,2.582 170.675,2.927 C170.457,3.273 170,3.376 169.654,3.157 C169.309,2.938 169.206,2.481 169.425,2.136 C169.643,1.791 170.1,1.688 170.446,1.906 z" fill="#73E3E3"/>
      <path d="M158.55,1.634 C158.896,1.852 158.999,2.309 158.78,2.655 C158.561,3 158.104,3.103 157.759,2.884 C157.414,2.666 157.311,2.208 157.529,1.863 C157.748,1.518 158.205,1.415 158.55,1.634 z" fill="#73E3E3"/>
      <path d="M186.703,37.576 C187.249,37.922 187.411,38.645 187.065,39.191 C186.719,39.736 185.997,39.899 185.451,39.553 C184.905,39.207 184.743,38.484 185.088,37.938 C185.434,37.393 186.157,37.23 186.703,37.576 z" fill="#73E3E3"/>
      <path d="M180.008,54.329 C180.554,54.675 180.716,55.398 180.37,55.943 C180.025,56.489 179.302,56.652 178.756,56.306 C178.21,55.96 178.048,55.237 178.394,54.691 C178.739,54.145 179.462,53.983 180.008,54.329 z" fill="#73E3E3"/>
      <path d="M184.669,33.118 C185.103,33.393 185.232,33.967 184.957,34.401 C184.683,34.835 184.108,34.964 183.674,34.69 C183.24,34.415 183.111,33.84 183.386,33.406 C183.661,32.972 184.235,32.843 184.669,33.118 z" fill="#73E3E3"/>
      <path d="M163.476,16.427 C163.91,16.702 164.039,17.276 163.764,17.71 C163.489,18.144 162.915,18.273 162.481,17.998 C162.047,17.724 161.918,17.149 162.192,16.715 C162.467,16.281 163.042,16.152 163.476,16.427 z" fill="#73E3E3"/>
      <path d="M173.627,8.336 C174.187,8.691 174.354,9.432 173.999,9.992 C173.645,10.552 172.903,10.718 172.343,10.364 C171.783,10.009 171.617,9.268 171.971,8.708 C172.326,8.148 173.067,7.982 173.627,8.336 z" fill="#73E3E3"/>
      <path d="M177.926,22.342 C178.486,22.697 178.652,23.438 178.298,23.998 C177.943,24.558 177.202,24.725 176.642,24.37 C176.082,24.016 175.915,23.274 176.27,22.714 C176.625,22.154 177.366,21.988 177.926,22.342 z" fill="#73E3E3"/>
      <path d="M184.783,44.102 C185.063,44.279 185.147,44.65 184.969,44.93 C184.792,45.21 184.421,45.293 184.141,45.116 C183.862,44.938 183.778,44.568 183.956,44.288 C184.133,44.008 184.503,43.925 184.783,44.102 z" fill="#73E3E3"/>
      <path d="M192.103,54.154 C192.662,54.509 192.829,55.25 192.474,55.81 C192.12,56.37 191.379,56.537 190.819,56.182 C190.259,55.828 190.092,55.086 190.447,54.526 C190.801,53.966 191.543,53.8 192.103,54.154 z" fill="#73E3E3"/>
      <path d="M179.002,58.405 C179.842,58.937 180.092,60.049 179.56,60.889 C179.029,61.729 177.917,61.979 177.077,61.447 C176.237,60.915 175.987,59.803 176.519,58.963 C177.051,58.123 178.163,57.873 179.002,58.405 z" fill="#73E3E3"/>
      <path d="M162.981,4.267 C163.541,4.622 163.708,5.363 163.353,5.923 C162.999,6.483 162.257,6.649 161.697,6.295 C161.137,5.94 160.971,5.199 161.325,4.639 C161.68,4.079 162.421,3.912 162.981,4.267 z" fill="#73E3E3"/>
      <path d="M172.491,33.048 C172.86,33.281 172.969,33.769 172.736,34.138 C172.502,34.507 172.014,34.616 171.646,34.383 C171.277,34.149 171.167,33.661 171.401,33.293 C171.634,32.924 172.122,32.815 172.491,33.048 z" fill="#FFFFFF"/>
      <path d="M180.417,30.411 C180.739,30.614 180.834,31.041 180.63,31.363 C180.427,31.685 180,31.78 179.678,31.576 C179.356,31.373 179.261,30.946 179.465,30.624 C179.668,30.302 180.095,30.207 180.417,30.411 z" fill="#FFFFFF"/>
      <path d="M177.374,46.515 C177.742,46.749 177.852,47.237 177.619,47.605 C177.385,47.974 176.897,48.084 176.528,47.85 C176.16,47.617 176.05,47.129 176.284,46.76 C176.517,46.391 177.005,46.282 177.374,46.515 z" fill="#FFFFFF"/>
      <path d="M165.039,11.707 C165.595,12.058 165.76,12.793 165.408,13.349 C165.056,13.904 164.321,14.069 163.766,13.717 C163.211,13.366 163.046,12.631 163.397,12.075 C163.749,11.52 164.484,11.355 165.039,11.707 z" fill="#FFFFFF"/>
      <path d="M165.148,21.582 C165.517,21.816 165.627,22.304 165.393,22.672 C165.16,23.041 164.672,23.15 164.303,22.917 C163.934,22.684 163.825,22.196 164.058,21.827 C164.292,21.458 164.78,21.349 165.148,21.582 z" fill="#FFFFFF"/>
      <path d="M171.747,-2.708 C172.115,-2.475 172.225,-1.986 171.991,-1.618 C171.758,-1.249 171.27,-1.14 170.901,-1.373 C170.533,-1.606 170.423,-2.094 170.656,-2.463 C170.89,-2.832 171.378,-2.941 171.747,-2.708 z" fill="#FFFFFF"/>
      <path d="M179.678,16.281 C180.345,16.704 180.544,17.587 180.121,18.255 C179.699,18.922 178.816,19.12 178.148,18.698 C177.481,18.275 177.283,17.392 177.705,16.725 C178.128,16.057 179.011,15.859 179.678,16.281 z" fill="#FFFFFF"/>
      <path d="M171.378,37.296 C171.9,37.627 172.056,38.319 171.725,38.842 C171.394,39.364 170.702,39.52 170.18,39.189 C169.657,38.858 169.502,38.166 169.832,37.643 C170.163,37.121 170.855,36.965 171.378,37.296 z" fill="#FFFFFF"/>
      <path d="M188.126,51.51 C188.648,51.841 188.804,52.533 188.473,53.056 C188.142,53.578 187.45,53.734 186.927,53.403 C186.405,53.072 186.249,52.38 186.58,51.858 C186.911,51.335 187.603,51.18 188.126,51.51 z" fill="#FFFFFF"/>
    </g>
    <g>
      <g>
        <g>
          <path d="M195.52,-11.38 L195.39,-10.22 C195.39,-9.84 195.2,-9.38 195.08,-8.83 C194.897,-8.214 194.676,-7.61 194.42,-7.02 C193.702,-5.436 192.773,-3.956 191.66,-2.62 C190.238,-0.885 188.669,0.725 186.97,2.19 C185.14,3.82 183.08,5.5 180.84,7.19 C178.6,8.88 176.2,10.57 173.84,12.44 C171.346,14.315 169.071,16.465 167.06,18.85 C166.063,20.08 165.214,21.422 164.53,22.85 C163.902,24.311 163.563,25.88 163.53,27.47 C163.483,30.641 164.501,33.736 166.42,36.26 C168.272,38.738 170.373,41.02 172.69,43.07 C174.91,45.15 177.1,47.14 179.04,49.18 C180.894,51.084 182.583,53.141 184.09,55.33 C185.368,57.181 186.447,59.162 187.31,61.24 C187.972,62.837 188.491,64.491 188.86,66.18 C189.086,67.264 189.252,68.358 189.36,69.46 L189.48,70.63 L189.36,70.63 L189.15,69.48 C188.958,68.401 188.707,67.332 188.4,66.28 C187.925,64.655 187.323,63.07 186.6,61.54 C185.65,59.568 184.522,57.687 183.23,55.92 C181.675,53.842 179.974,51.877 178.14,50.04 C176.19,48.04 174.03,46.04 171.83,43.96 C169.49,41.813 167.382,39.427 165.54,36.84 C164.611,35.464 163.884,33.962 163.38,32.38 C162.906,30.758 162.733,29.064 162.87,27.38 C163.212,24.088 164.584,20.987 166.79,18.52 C168.817,16.109 171.045,13.874 173.45,11.84 C175.76,9.84 178.06,7.97 180.25,6.25 C182.44,4.53 184.53,2.92 186.37,1.35 C188.045,-0.068 189.625,-1.594 191.1,-3.22 C192.235,-4.466 193.212,-5.846 194.01,-7.33 C194.277,-7.859 194.515,-8.404 194.72,-8.96 C194.88,-9.48 195.05,-9.91 195.13,-10.28 L195.38,-11.42 z" fill="#2D7174"/>
          <path d="M159.58,67.82 L159.74,66.67 C159.791,66.208 159.874,65.75 159.99,65.3 C160.113,64.68 160.277,64.069 160.48,63.47 C160.993,61.842 161.712,60.286 162.62,58.84 C163.791,56.962 165.181,55.23 166.76,53.68 C168.635,51.854 170.641,50.166 172.76,48.63 C174.98,46.97 177.42,45.35 179.89,43.63 C182.452,41.917 184.861,39.987 187.09,37.86 C189.26,35.67 191.09,32.94 191.43,29.86 C191.626,26.747 190.858,23.65 189.23,20.99 C187.706,18.332 185.942,15.818 183.96,13.48 C182.08,11.14 180.14,8.96 178.37,6.84 C176.6,4.72 174.92,2.69 173.47,0.73 C170.58,-3.17 168.68,-6.88 168.13,-9.7 C167.996,-10.32 167.899,-10.948 167.84,-11.58 C167.84,-12.13 167.78,-12.58 167.84,-12.98 L167.93,-14.14 L168.05,-14.14 L168.05,-12.99 C168.05,-12.62 168.13,-12.16 168.17,-11.62 C168.268,-11.009 168.401,-10.405 168.57,-9.81 C169.052,-8.206 169.723,-6.665 170.57,-5.22 C171.672,-3.343 172.909,-1.549 174.27,0.15 C175.74,2.04 177.45,4.01 179.27,6.08 C181.09,8.15 183.03,10.34 184.96,12.69 C186.973,15.103 188.748,17.705 190.26,20.46 C191.045,21.9 191.649,23.432 192.06,25.02 C192.489,26.65 192.608,28.346 192.41,30.02 C192.199,31.683 191.637,33.282 190.76,34.71 C189.904,36.1 188.875,37.377 187.7,38.51 C185.408,40.64 182.935,42.567 180.31,44.27 C177.81,45.97 175.36,47.56 173.12,49.16 C171.005,50.643 169,52.278 167.12,54.05 C165.531,55.545 164.124,57.224 162.93,59.05 C162.007,60.46 161.268,61.983 160.73,63.58 C160.518,64.165 160.344,64.763 160.21,65.37 C160.088,65.816 159.997,66.271 159.94,66.73 L159.72,67.83 z" fill="#2D7174"/>
        </g>
        <path d="M167.16,38.74 C167.16,38.74 168.27,38.74 169.94,38.85 C170.77,38.91 171.74,38.95 172.78,39.04 L176.03,39.33 L179.27,39.7 C180.27,39.81 181.27,39.97 182.09,40.08 C183.74,40.32 184.83,40.53 184.83,40.53 C184.83,40.53 183.72,40.53 182.05,40.42 C181.22,40.36 180.25,40.32 179.21,40.23 L175.96,39.94 L172.72,39.57 C171.72,39.45 170.72,39.3 169.9,39.19 C168.25,38.95 167.16,38.74 167.16,38.74 z" fill="#2D7174"/>
        <path d="M163.29,31.3 C163.29,31.3 164.99,31.37 167.53,31.56 C168.8,31.66 170.28,31.76 171.87,31.91 L176.87,32.37 L181.87,32.91 C183.45,33.08 184.93,33.29 186.19,33.44 C188.72,33.77 190.4,34.04 190.4,34.04 C190.4,34.04 188.7,33.97 186.16,33.78 C184.89,33.68 183.41,33.58 181.82,33.43 L176.82,32.97 L171.82,32.43 C170.24,32.26 168.76,32.05 167.5,31.9 C164.97,31.57 163.29,31.3 163.29,31.3 z" fill="#2D7174"/>
        <path d="M165.11,22.26 C165.11,22.26 166.75,22.33 169.21,22.5 C170.44,22.6 171.87,22.69 173.4,22.83 L178.2,23.27 L182.99,23.79 C184.52,23.95 185.99,24.16 187.17,24.3 C189.61,24.62 191.24,24.88 191.24,24.88 C191.24,24.88 189.6,24.81 187.14,24.64 C185.91,24.54 184.48,24.45 182.95,24.31 L178.15,23.86 L173.36,23.34 C171.83,23.17 170.36,22.97 169.18,22.83 C166.72,22.52 165.11,22.26 165.11,22.26 z" fill="#2D7174"/>
        <path d="M171.89,13.71 C171.89,13.71 172.77,13.71 174.1,13.76 C175.43,13.81 177.18,13.93 178.93,14.11 C180.68,14.29 182.43,14.52 183.73,14.73 C185.03,14.94 185.9,15.12 185.9,15.12 C185.9,15.12 185.01,15.12 183.69,15.07 C182.37,15.02 180.61,14.9 178.86,14.71 C177.11,14.52 175.36,14.3 174.06,14.09 C172.76,13.88 171.89,13.71 171.89,13.71 z" fill="#2D7174"/>
        <path d="M172.95,-1.03 C172.95,-1.03 173.95,-1.03 175.35,-0.96 C176.07,-0.96 176.9,-0.88 177.8,-0.81 L180.6,-0.57 L183.39,-0.25 C184.28,-0.15 185.11,-0.01 185.82,0.09 C187.24,0.31 188.18,0.5 188.18,0.5 C188.18,0.5 187.18,0.5 185.78,0.43 C185.06,0.43 184.23,0.36 183.33,0.28 L180.53,0.04 L177.74,-0.28 C176.85,-0.38 176.02,-0.52 175.31,-0.62 C173.89,-0.84 172.95,-1.03 172.95,-1.03 z" fill="#2D7174"/>
        <g>
          <path d="M183.04,54.7 C183.04,54.7 182.04,54.7 180.61,54.61 C179.88,54.56 179.03,54.52 178.13,54.44 L175.29,54.18 L172.46,53.84 C171.56,53.73 170.72,53.59 170,53.49 C168.56,53.26 167.6,53.06 167.6,53.06 C167.6,53.06 168.6,53.06 170.03,53.15 C170.76,53.2 171.61,53.23 172.51,53.32 L175.35,53.58 L178.18,53.92 C179.08,54.03 179.92,54.17 180.64,54.27 C182.08,54.5 183.04,54.7 183.04,54.7 z" fill="#2D7174"/>
          <path d="M187.2,62.17 C187.2,62.17 185.63,62.1 183.28,61.93 C182.11,61.83 180.74,61.75 179.28,61.6 L174.69,61.16 L170.11,60.64 C168.65,60.48 167.29,60.28 166.11,60.13 C163.78,59.81 162.23,59.55 162.23,59.55 C162.23,59.55 163.8,59.62 166.15,59.79 C167.32,59.89 168.69,59.97 170.15,60.12 L174.74,60.56 L179.32,61.08 C180.78,61.24 182.14,61.44 183.32,61.59 C185.65,61.91 187.2,62.17 187.2,62.17 z" fill="#2D7174"/>
        </g>
      </g>
      <path d="M165.156,31.216 C166.003,32.534 165.622,34.289 164.304,35.136 C162.987,35.983 161.232,35.601 160.385,34.284 C159.538,32.966 159.919,31.211 161.237,30.364 C162.555,29.517 164.309,29.899 165.156,31.216 z" fill="#2D7174"/>
      <path d="M186.698,13.666 C187.098,14.282 186.922,15.105 186.306,15.505 C185.69,15.905 184.866,15.73 184.467,15.114 C184.067,14.497 184.242,13.674 184.858,13.274 C185.474,12.874 186.298,13.049 186.698,13.666 z" fill="#2D7174"/>
      <path d="M168.913,52.295 C169.313,52.911 169.137,53.734 168.521,54.134 C167.905,54.534 167.081,54.359 166.681,53.743 C166.281,53.126 166.457,52.303 167.073,51.903 C167.689,51.503 168.513,51.678 168.913,52.295 z" fill="#2D7174"/>
      <path d="M188.105,61.64 C188.505,62.257 188.33,63.08 187.714,63.48 C187.098,63.88 186.274,63.705 185.874,63.088 C185.474,62.472 185.65,61.649 186.266,61.249 C186.882,60.849 187.706,61.024 188.105,61.64 z" fill="#2D7174"/>
      <path d="M191.732,33.512 C192.234,34.285 192.013,35.32 191.24,35.822 C190.466,36.323 189.432,36.103 188.93,35.329 C188.428,34.556 188.648,33.521 189.422,33.019 C190.196,32.517 191.23,32.738 191.732,33.512 z" fill="#2D7174"/>
      <path d="M169.907,38.568 C170.553,39.564 170.27,40.895 169.274,41.542 C168.278,42.188 166.946,41.905 166.3,40.909 C165.654,39.913 165.937,38.581 166.933,37.935 C167.929,37.288 169.261,37.572 169.907,38.568 z" fill="#2D7174"/>
      <path d="M173.391,12.503 C174.037,13.499 173.754,14.83 172.757,15.477 C171.761,16.123 170.43,15.84 169.784,14.844 C169.137,13.847 169.421,12.516 170.417,11.87 C171.413,11.223 172.744,11.507 173.391,12.503 z" fill="#2D7174"/>
      <path d="M184.225,53.191 C184.871,54.187 184.588,55.518 183.592,56.165 C182.596,56.811 181.264,56.528 180.618,55.532 C179.972,54.535 180.255,53.204 181.251,52.558 C182.247,51.911 183.579,52.195 184.225,53.191 z" fill="#2D7174"/>
      <path d="M189.063,-0.115 C189.49,0.543 189.303,1.422 188.645,1.849 C187.987,2.276 187.108,2.089 186.681,1.431 C186.254,0.773 186.441,-0.107 187.099,-0.534 C187.757,-0.96 188.636,-0.773 189.063,-0.115 z" fill="#1F383D"/>
      <path d="M173.844,-1.54 C174.214,-0.97 174.051,-0.208 173.481,0.162 C172.912,0.531 172.15,0.369 171.78,-0.201 C171.41,-0.771 171.573,-1.532 172.143,-1.902 C172.713,-2.272 173.474,-2.11 173.844,-1.54 z" fill="#1F383D"/>
      <path d="M186.428,39.509 C187.072,40.501 186.79,41.826 185.798,42.469 C184.807,43.113 183.481,42.831 182.838,41.839 C182.195,40.848 182.477,39.522 183.468,38.879 C184.46,38.236 185.785,38.518 186.428,39.509 z" fill="#231F20"/>
      <path d="M192.442,24.112 C192.869,24.77 192.682,25.649 192.024,26.076 C191.366,26.503 190.487,26.316 190.06,25.658 C189.633,25 189.82,24.121 190.478,23.694 C191.136,23.267 192.016,23.454 192.442,24.112 z" fill="#1F383D"/>
      <path d="M163.46,58.799 C163.887,59.457 163.7,60.336 163.042,60.763 C162.384,61.19 161.505,61.003 161.078,60.345 C160.651,59.687 160.838,58.808 161.496,58.381 C162.154,57.954 163.033,58.141 163.46,58.799 z" fill="#1F383D"/>
      <path d="M166.693,20.61 C167.466,21.8 167.127,23.392 165.937,24.164 C164.746,24.937 163.154,24.598 162.382,23.408 C161.609,22.217 161.948,20.625 163.139,19.853 C164.329,19.08 165.921,19.419 166.693,20.61 z" fill="#1F383D"/>
    </g>
  </g>
</svg>
