<?xml version="1.0" encoding="UTF-8"?>
<!DOCTYPE svg PUBLIC "-//W3C//DTD SVG 1.1//EN" "http://www.w3.org/Graphics/SVG/1.1/DTD/svg11.dtd">
<svg version="1.1" xmlns="http://www.w3.org/2000/svg" xmlns:xlink="http://www.w3.org/1999/xlink" x="0" y="0" width="194.49" height="58.07" viewBox="0, 0, 194.49, 58.07">
  <g id="Layer_1">
    <g>
      <path d="M163.66,49.36 L145.17,30.22 L145.37,30.22 L178.89,26.82 L178.77,26.99 z M145.59,30.36 L163.59,49.03 L178.45,27.03 z" fill="#FFFFFF"/>
      <path d="M119.31,32.25 L131.7,19.25 L131.7,19.25 L164.41,18.41 L163.72,18.62 z M131.77,19.45 L119.96,31.85 L162.96,18.65 z" fill="#FFFFFF"/>
      <path d="M179.41,57.8 L179.1,57.68 L132.7,39.92 L132.78,39.81 L150.32,17.5 L150.4,17.61 z M133.02,39.8 L178.86,57.35 L150.32,17.8 z" fill="#FFFFFF"/>
      <path d="M119.6,63.25 L119.65,63.06 L132.11,18.98 L132.23,19.1 L159.86,47.1 L159.72,47.16 z M132.21,19.35 L119.9,62.91 L159.52,47.04 z" fill="#FFFFFF"/>
      <path d="M163.51,77.2 L163.37,77.2 L138.51,73.29 L138.51,73.19 L150.31,17.19 z M138.77,73.1 L163.28,76.96 L150.35,18.13 z" fill="#FFFFFF"/>
      <path d="M131.63,34.97 L131.91,34.75 L165.49,8.35 L165.55,8.41 L187.33,28.33 L187.12,28.33 z M165.48,8.62 L132.31,34.7 L186.88,28.2 z" fill="#FFFFFF"/>
      <path d="M105.72,55.68 L106.21,55.48 L158.91,34.4 L158.91,34.4 L196,54.93 L195.62,54.93 z M158.9,34.62 L106.77,55.47 L195.29,54.76 z" fill="#FFFFFF"/>
      <path d="M163.66,77.71 L163.66,77.33 L163.66,18.33 L186.45,36.33 L186.45,36.4 z M163.83,18.71 L163.83,76.92 L186.14,36.33 z" fill="#FFFFFF"/>
      <path d="M195.77,54.99 L195.63,54.99 L159.11,47.04 L159.23,46.91 L189.77,13.55 L189.77,13.76 z M159.49,46.99 L195.49,54.78 L189.61,14.04 z" fill="#FFFFFF"/>
      <path d="M106,55.7 L106.16,55.51 L145.37,11.14 L145.44,11.23 L176.09,49.54 L175.91,49.54 z M145.37,11.46 L106.48,55.46 L175.71,49.38 z" fill="#FFFFFF"/>
      <g>
        <path d="M155.7,26.88 L155.7,26.81 L150.18,17.97 L150.18,17.89 L155.07,8.69 L165.57,8.33 L165.57,8.4 L171.09,17.24 L171.09,17.32 L166.2,26.52 z M150.48,17.96 L155.86,26.58 L166.02,26.23 L170.79,17.23 L165.41,8.61 L155.25,8.96 z" fill="#73E3E3"/>
        <path d="M175.97,49.62 L175.89,49.62 L159.23,47.17 L159.23,47.09 L153.02,31.44 L153.07,31.37 L163.52,18.17 L163.6,18.17 L180.26,20.62 L180.26,20.7 L186.47,36.35 L186.42,36.42 z M159.44,46.89 L175.84,49.3 L186.13,36.3 L180.02,20.89 L163.62,18.48 L153.33,31.48 z" fill="#73E3E3"/>
        <path d="M145.53,42.54 L145.45,42.54 L131.77,34.8 L131.62,19.04 L145.19,11.04 L145.27,11.04 L158.94,18.74 L159.11,34.51 z M132.08,34.62 L145.52,42.19 L158.77,34.34 L158.61,18.91 L145.17,11.34 L131.89,19.19 z" fill="#73E3E3"/>
        <path d="M187.19,28.55 L178.58,27.05 L175.58,18.84 L175.63,18.77 L181.18,12.13 L181.26,12.13 L189.77,13.64 L192.77,21.85 L192.72,21.92 z M178.77,26.78 L187.04,28.22 L192.43,21.78 L189.55,13.89 L181.28,12.45 L175.89,18.89 z" fill="#73E3E3"/>
        <path d="M163.45,77.24 L163.37,77.24 L138.53,73.33 L138.53,73.25 L129.53,49.78 L129.58,49.71 L145.39,30.15 L145.47,30.15 L170.24,34.04 L170.24,34.12 L179.24,57.59 L179.19,57.66 z M138.77,73.04 L163.36,76.91 L179.01,57.55 L170.07,34.32 L145.48,30.45 L129.77,49.82 z" fill="#73E3E3"/>
        <path d="M185.23,67.55 L168.96,64.71 L168.96,64.63 L163.32,49.2 L163.37,49.13 L173.91,36.53 L190.18,39.37 L190.18,39.45 L195.82,54.88 L195.77,54.95 z M169.23,64.44 L185.16,67.22 L195.53,54.82 L189.98,39.63 L174.05,36.85 L163.68,49.25 z" fill="#73E3E3"/>
        <path d="M155.418,8.045 C155.956,8.139 156.317,8.652 156.222,9.191 C156.128,9.729 155.615,10.09 155.077,9.996 C154.538,9.901 154.178,9.389 154.272,8.85 C154.366,8.311 154.879,7.951 155.418,8.045 z" fill="#73E3E3"/>
        <path d="M155.953,25.749 C156.492,25.843 156.852,26.356 156.758,26.895 C156.664,27.433 156.151,27.794 155.612,27.699 C155.074,27.605 154.713,27.092 154.807,26.554 C154.902,26.015 155.414,25.655 155.953,25.749 z" fill="#73E3E3"/>
        <path d="M153.397,30.835 C153.935,30.929 154.296,31.442 154.201,31.981 C154.107,32.519 153.594,32.88 153.056,32.786 C152.517,32.691 152.157,32.179 152.251,31.64 C152.345,31.101 152.858,30.741 153.397,30.835 z" fill="#73E3E3"/>
        <path d="M145.898,29.066 C146.665,29.2 147.178,29.931 147.044,30.698 C146.91,31.465 146.18,31.978 145.413,31.844 C144.646,31.71 144.132,30.98 144.266,30.213 C144.4,29.445 145.131,28.932 145.898,29.066 z" fill="#73E3E3"/>
        <path d="M170.334,33.009 C171.101,33.143 171.614,33.873 171.48,34.64 C171.346,35.408 170.615,35.921 169.848,35.787 C169.081,35.653 168.568,34.922 168.702,34.155 C168.836,33.388 169.567,32.875 170.334,33.009 z" fill="#73E3E3"/>
        <path d="M130.135,48.421 C130.902,48.555 131.416,49.286 131.282,50.053 C131.148,50.82 130.417,51.333 129.65,51.199 C128.883,51.065 128.37,50.334 128.504,49.567 C128.638,48.8 129.368,48.287 130.135,48.421 z" fill="#73E3E3"/>
        <path d="M179.375,56.185 C180.142,56.319 180.655,57.049 180.521,57.816 C180.387,58.584 179.657,59.097 178.89,58.963 C178.123,58.829 177.609,58.098 177.743,57.331 C177.878,56.564 178.608,56.051 179.375,56.185 z" fill="#73E3E3"/>
        <path d="M190.179,38.528 C190.751,38.628 191.133,39.172 191.033,39.743 C190.933,40.315 190.389,40.697 189.818,40.597 C189.247,40.497 188.865,39.953 188.964,39.382 C189.064,38.811 189.608,38.429 190.179,38.528 z" fill="#73E3E3"/>
        <path d="M159.487,45.973 C160.058,46.072 160.44,46.616 160.34,47.188 C160.24,47.759 159.696,48.141 159.125,48.041 C158.554,47.941 158.172,47.397 158.272,46.826 C158.371,46.255 158.915,45.873 159.487,45.973 z" fill="#73E3E3"/>
        <path d="M176.087,48.432 C176.658,48.532 177.04,49.076 176.94,49.647 C176.841,50.218 176.297,50.6 175.725,50.501 C175.154,50.401 174.772,49.857 174.872,49.286 C174.972,48.714 175.516,48.332 176.087,48.432 z" fill="#73E3E3"/>
        <path d="M163.778,48.421 C164.213,48.497 164.504,48.911 164.428,49.346 C164.352,49.782 163.938,50.073 163.502,49.997 C163.067,49.921 162.776,49.506 162.852,49.071 C162.928,48.636 163.343,48.345 163.778,48.421 z" fill="#73E3E3"/>
        <path d="M173.99,36.009 C174.425,36.085 174.716,36.499 174.64,36.935 C174.564,37.37 174.15,37.661 173.715,37.585 C173.279,37.509 172.988,37.094 173.064,36.659 C173.14,36.224 173.555,35.933 173.99,36.009 z" fill="#73E3E3"/>
        <path d="M186.44,35.544 C186.875,35.62 187.166,36.034 187.09,36.469 C187.014,36.905 186.599,37.196 186.164,37.12 C185.729,37.044 185.438,36.629 185.514,36.194 C185.59,35.759 186.004,35.468 186.44,35.544 z" fill="#73E3E3"/>
        <path d="M166.242,25.588 C166.677,25.664 166.968,26.079 166.892,26.514 C166.816,26.949 166.402,27.24 165.966,27.164 C165.531,27.088 165.24,26.674 165.316,26.239 C165.392,25.803 165.807,25.512 166.242,25.588 z" fill="#73E3E3"/>
        <path d="M171.104,16.461 C171.539,16.537 171.831,16.952 171.755,17.387 C171.679,17.822 171.264,18.113 170.829,18.037 C170.394,17.961 170.102,17.547 170.179,17.112 C170.255,16.676 170.669,16.385 171.104,16.461 z" fill="#73E3E3"/>
        <path d="M150.466,16.884 C150.901,16.96 151.192,17.374 151.116,17.809 C151.04,18.245 150.626,18.536 150.191,18.46 C149.755,18.384 149.464,17.969 149.54,17.534 C149.616,17.099 150.031,16.808 150.466,16.884 z" fill="#73E3E3"/>
        <path d="M158.767,18.074 C159.202,18.15 159.493,18.565 159.417,19 C159.341,19.435 158.926,19.726 158.491,19.65 C158.056,19.574 157.765,19.16 157.841,18.724 C157.917,18.289 158.331,17.998 158.767,18.074 z" fill="#73E3E3"/>
        <path d="M165.808,4.877 C166.475,4.992 166.923,5.625 166.809,6.292 C166.694,6.959 166.061,7.407 165.394,7.293 C164.727,7.178 164.279,6.545 164.393,5.878 C164.508,5.211 165.141,4.763 165.808,4.877 z" fill="#73E3E3"/>
        <path d="M163.765,17.123 C164.429,17.239 164.873,17.871 164.757,18.534 C164.641,19.198 164.009,19.642 163.345,19.526 C162.681,19.41 162.237,18.778 162.353,18.115 C162.469,17.451 163.101,17.007 163.765,17.123 z" fill="#73E3E3"/>
        <path d="M180.401,19.656 C181.065,19.772 181.509,20.404 181.393,21.068 C181.277,21.732 180.645,22.176 179.981,22.06 C179.318,21.944 178.873,21.312 178.989,20.648 C179.105,19.985 179.737,19.54 180.401,19.656 z" fill="#73E3E3"/>
        <path d="M178.893,25.705 C179.556,25.821 180.001,26.453 179.885,27.117 C179.769,27.781 179.137,28.225 178.473,28.109 C177.809,27.993 177.365,27.361 177.481,26.697 C177.597,26.033 178.229,25.589 178.893,25.705 z" fill="#73E3E3"/>
        <path d="M145.581,10.102 C146.245,10.218 146.689,10.85 146.573,11.513 C146.457,12.177 145.825,12.621 145.161,12.505 C144.498,12.389 144.054,11.757 144.169,11.093 C144.285,10.43 144.918,9.986 145.581,10.102 z" fill="#73E3E3"/>
        <path d="M132.184,33.621 C132.848,33.737 133.292,34.369 133.176,35.033 C133.06,35.697 132.428,36.141 131.764,36.025 C131.1,35.909 130.656,35.277 130.772,34.613 C130.888,33.949 131.52,33.505 132.184,33.621 z" fill="#73E3E3"/>
        <path d="M159.113,33.308 C159.777,33.424 160.221,34.056 160.105,34.72 C159.989,35.383 159.357,35.827 158.694,35.712 C158.03,35.596 157.586,34.964 157.702,34.3 C157.818,33.636 158.45,33.192 159.113,33.308 z" fill="#73E3E3"/>
        <path d="M145.615,41.47 C146.088,41.553 146.405,42.003 146.322,42.477 C146.24,42.95 145.789,43.267 145.316,43.184 C144.842,43.101 144.526,42.65 144.608,42.177 C144.691,41.704 145.142,41.387 145.615,41.47 z" fill="#73E3E3"/>
        <path d="M132.412,16.031 C132.888,16.113 133.207,16.565 133.126,17.04 C133.044,17.516 132.592,17.835 132.117,17.754 C131.641,17.672 131.322,17.22 131.403,16.745 C131.485,16.269 131.937,15.95 132.412,16.031 z" fill="#73E3E3"/>
        <path d="M175.978,18.169 C176.451,18.252 176.768,18.703 176.685,19.176 C176.603,19.65 176.152,19.966 175.679,19.884 C175.205,19.801 174.889,19.35 174.971,18.877 C175.054,18.403 175.505,18.087 175.978,18.169 z" fill="#73E3E3"/>
        <path d="M181.529,11.603 C182.003,11.686 182.319,12.137 182.237,12.61 C182.154,13.083 181.703,13.4 181.23,13.317 C180.757,13.234 180.44,12.784 180.523,12.31 C180.605,11.837 181.056,11.52 181.529,11.603 z" fill="#73E3E3"/>
        <path d="M192.826,20.676 C193.457,20.786 193.879,21.387 193.769,22.019 C193.659,22.65 193.058,23.072 192.426,22.962 C191.795,22.851 191.373,22.25 191.483,21.619 C191.594,20.988 192.195,20.566 192.826,20.676 z" fill="#73E3E3"/>
        <path d="M189.775,12.981 C190.275,13.069 190.61,13.545 190.523,14.046 C190.435,14.546 189.959,14.881 189.458,14.794 C188.958,14.706 188.623,14.23 188.71,13.729 C188.798,13.229 189.274,12.894 189.775,12.981 z" fill="#73E3E3"/>
        <path d="M187.258,27.359 C187.759,27.446 188.094,27.923 188.006,28.423 C187.919,28.924 187.442,29.259 186.942,29.171 C186.441,29.084 186.106,28.607 186.194,28.107 C186.281,27.606 186.758,27.271 187.258,27.359 z" fill="#73E3E3"/>
        <path d="M119.77,63.29 L119.69,63.29 L106.02,55.59 L105.85,39.82 L119.42,31.82 L119.5,31.82 L133.17,39.52 L133.34,55.29 z M106.32,55.38 L119.77,62.94 L133.08,55.04 L132.92,39.61 L119.47,32.04 L106.19,39.89 z" fill="#73E3E3"/>
        <path d="M133.019,38.811 C133.454,38.887 133.745,39.302 133.669,39.737 C133.593,40.172 133.179,40.463 132.743,40.387 C132.308,40.311 132.017,39.897 132.093,39.462 C132.169,39.026 132.584,38.735 133.019,38.811 z" fill="#73E3E3"/>
        <path d="M119.853,30.849 C120.517,30.965 120.961,31.597 120.845,32.261 C120.729,32.924 120.097,33.368 119.434,33.252 C118.77,33.136 118.326,32.504 118.442,31.841 C118.558,31.177 119.19,30.733 119.853,30.849 z" fill="#73E3E3"/>
        <path d="M106.456,54.378 C107.12,54.494 107.564,55.126 107.448,55.79 C107.332,56.454 106.7,56.898 106.036,56.782 C105.373,56.666 104.929,56.034 105.044,55.37 C105.16,54.706 105.793,54.262 106.456,54.378 z" fill="#73E3E3"/>
        <path d="M133.386,54.055 C134.049,54.171 134.494,54.803 134.378,55.467 C134.262,56.131 133.63,56.575 132.966,56.459 C132.302,56.343 131.858,55.711 131.974,55.047 C132.09,54.383 132.722,53.939 133.386,54.055 z" fill="#73E3E3"/>
        <path d="M196.07,51.298 C196.545,51.379 196.865,51.831 196.783,52.307 C196.701,52.783 196.249,53.102 195.774,53.02 C195.298,52.939 194.979,52.487 195.06,52.011 C195.142,51.536 195.594,51.216 196.07,51.298 z" fill="#73E3E3"/>
        <path d="M106.841,36.86 C107.317,36.941 107.636,37.393 107.554,37.869 C107.473,38.345 107.021,38.664 106.545,38.582 C106.069,38.501 105.75,38.049 105.832,37.573 C105.913,37.097 106.365,36.778 106.841,36.86 z" fill="#73E3E3"/>
      </g>
      <path d="M167.089,37.885 C167.628,37.979 167.988,38.492 167.894,39.03 C167.8,39.569 167.287,39.929 166.748,39.835 C166.21,39.741 165.849,39.228 165.943,38.689 C166.038,38.151 166.55,37.79 167.089,37.885 z" fill="#FFFFFF"/>
      <path d="M143.375,51.454 C143.913,51.548 144.273,52.061 144.179,52.6 C144.085,53.139 143.572,53.499 143.034,53.405 C142.495,53.311 142.135,52.798 142.229,52.259 C142.323,51.721 142.836,51.36 143.375,51.454 z" fill="#FFFFFF"/>
      <path d="M145.258,23.544 C145.622,23.607 145.866,23.955 145.802,24.319 C145.739,24.684 145.392,24.927 145.027,24.864 C144.663,24.8 144.419,24.453 144.482,24.088 C144.546,23.724 144.893,23.48 145.258,23.544 z" fill="#FFFFFF"/>
      <path d="M180.922,45.845 C181.286,45.909 181.53,46.256 181.467,46.621 C181.403,46.985 181.056,47.229 180.691,47.165 C180.327,47.102 180.083,46.755 180.147,46.39 C180.21,46.026 180.557,45.782 180.922,45.845 z" fill="#FFFFFF"/>
      <path d="M158.825,54.571 C159.19,54.635 159.434,54.982 159.37,55.346 C159.306,55.711 158.959,55.955 158.595,55.891 C158.23,55.827 157.986,55.48 158.05,55.116 C158.114,54.751 158.461,54.507 158.825,54.571 z" fill="#FFFFFF"/>
      <path d="M164.036,27.597 C164.401,27.661 164.645,28.008 164.581,28.373 C164.517,28.737 164.17,28.981 163.806,28.917 C163.441,28.854 163.197,28.507 163.261,28.142 C163.325,27.777 163.672,27.534 164.036,27.597 z" fill="#FFFFFF"/>
      <path d="M123.794,48.071 C124.158,48.135 124.402,48.482 124.338,48.847 C124.275,49.211 123.927,49.455 123.563,49.391 C123.198,49.328 122.955,48.981 123.018,48.616 C123.082,48.252 123.429,48.008 123.794,48.071 z" fill="#FFFFFF"/>
      <path d="M129.727,27.714 C130.38,27.828 130.817,28.45 130.703,29.102 C130.589,29.755 129.967,30.192 129.314,30.078 C128.662,29.964 128.225,29.342 128.339,28.689 C128.453,28.037 129.075,27.6 129.727,27.714 z" fill="#FFFFFF"/>
      <path d="M172.542,54.255 C172.939,54.325 173.205,54.703 173.136,55.1 C173.066,55.497 172.688,55.763 172.291,55.694 C171.894,55.624 171.628,55.246 171.698,54.849 C171.767,54.452 172.145,54.186 172.542,54.255 z" fill="#FFFFFF"/>
      <path d="M177.266,28.709 C177.663,28.778 177.929,29.156 177.859,29.553 C177.79,29.951 177.412,30.216 177.015,30.147 C176.617,30.077 176.352,29.699 176.421,29.302 C176.49,28.905 176.869,28.639 177.266,28.709 z" fill="#FFFFFF"/>
      <path d="M150.719,37.021 C151.116,37.09 151.382,37.468 151.313,37.865 C151.243,38.263 150.865,38.528 150.468,38.459 C150.071,38.39 149.805,38.011 149.874,37.614 C149.944,37.217 150.322,36.951 150.719,37.021 z" fill="#FFFFFF"/>
      <path d="M155.844,47.82 C156.241,47.889 156.507,48.267 156.438,48.664 C156.368,49.062 155.99,49.327 155.593,49.258 C155.196,49.188 154.93,48.81 154.999,48.413 C155.069,48.016 155.447,47.75 155.844,47.82 z" fill="#FFFFFF"/>
      <path d="M135.692,21.735 C136.09,21.805 136.355,22.183 136.286,22.58 C136.216,22.977 135.838,23.243 135.441,23.173 C135.044,23.104 134.778,22.726 134.848,22.329 C134.917,21.931 135.295,21.666 135.692,21.735 z" fill="#FFFFFF"/>
      <path d="M141.05,26.301 C141.888,26.447 142.448,27.245 142.302,28.083 C142.156,28.921 141.358,29.481 140.52,29.335 C139.682,29.189 139.121,28.391 139.268,27.553 C139.414,26.715 140.212,26.155 141.05,26.301 z" fill="#FFFFFF"/>
      <path d="M139.484,40.85 C140.322,40.996 140.883,41.794 140.736,42.632 C140.59,43.47 139.792,44.03 138.954,43.884 C138.117,43.738 137.556,42.94 137.702,42.102 C137.849,41.264 138.647,40.704 139.484,40.85 z" fill="#FFFFFF"/>
      <path d="M161.497,49.244 C162.335,49.391 162.895,50.188 162.749,51.026 C162.603,51.864 161.805,52.425 160.967,52.278 C160.129,52.132 159.569,51.334 159.715,50.496 C159.861,49.658 160.659,49.098 161.497,49.244 z" fill="#FFFFFF"/>
      <path d="M175.186,25.565 C176.024,25.711 176.585,26.509 176.438,27.347 C176.292,28.185 175.494,28.745 174.656,28.599 C173.818,28.452 173.258,27.655 173.404,26.817 C173.551,25.979 174.348,25.418 175.186,25.565 z" fill="#FFFFFF"/>
    </g>
    <path d="M162.58,28.18 L147,28.18 L146.91,28.03 L139.2,14.68 L146.99,1.18 L162.57,1.18 L162.66,1.33 L170.37,14.68 z M147.34,27.59 L162.24,27.59 L169.69,14.69 L162.24,1.79 L147.34,1.79 L139.89,14.69 z" fill="#FFFFFF"/>
    <path d="M185.44,14.98 L169.86,14.98 L169.77,14.84 L162.06,1.49 L169.86,-11.96 L185.44,-11.96 L185.53,-11.81 L193.24,1.54 z M170.2,14.39 L185.1,14.39 L192.55,1.49 L185.1,-11.41 L170.2,-11.41 L162.77,1.49 z" fill="#FFFFFF"/>
    <g>
      <path d="M135.27,31.33 L127.43,31.33 L127.43,31.33 L123.54,24.59 L123.54,24.59 L127.43,17.85 L135.27,17.85 L135.27,17.9 L139.16,24.64 L139.16,24.64 z M127.55,31.13 L135.16,31.13 L138.96,24.54 L135.16,17.95 L127.55,17.95 L123.77,24.54 z" fill="#1F383D"/>
      <path d="M146.88,38.04 L138.99,38.04 L138.99,37.96 L135.09,31.2 L135.09,31.12 L138.99,24.36 L146.88,24.36 L150.83,31.2 L150.83,31.28 z M139.16,37.74 L146.71,37.74 L150.48,31.2 L146.71,24.66 L139.16,24.66 L135.39,31.2 z" fill="#5BA5B3"/>
      <path d="M139.06,24.54 L135.21,17.85 L139.06,11.17 L146.79,11.17 L150.65,17.85 L146.79,24.54 L139.06,24.54 z" fill="#2D7174"/>
      <path d="M158.46,31.38 L150.57,31.38 L150.57,31.3 L146.67,24.54 L146.67,24.46 L150.57,17.7 L158.46,17.7 L162.41,24.54 L162.41,24.62 z M150.77,31.04 L158.32,31.04 L162.09,24.5 L158.28,18.04 L150.77,18.04 L147,24.58 z" fill="#1F383D"/>
      <path d="M135.27,44.7 L127.43,44.7 L127.43,44.7 L123.54,37.96 L123.54,37.96 L127.43,31.22 L135.27,31.22 L135.27,31.22 L139.16,37.96 L139.16,37.96 z M127.55,44.5 L135.16,44.5 L138.96,37.91 L135.16,31.32 L127.55,31.32 L123.75,37.91 z" fill="#1F383D"/>
      <path d="M146.88,51.44 L138.99,51.44 L138.99,51.36 L135.09,44.6 L135.09,44.52 L138.99,37.76 L146.88,37.76 L146.88,37.84 L150.78,44.6 L150.78,44.68 z M139.16,51.14 L146.71,51.14 L150.48,44.6 L146.7,38.04 L139.15,38.04 L135.38,44.58 z" fill="#5BA5B3"/>
      <path d="M158.46,44.75 L150.57,44.75 L150.57,44.67 L146.67,37.91 L146.67,37.83 L150.57,31.07 L158.46,31.07 L158.46,31.15 L162.36,37.91 L162.36,37.99 z M150.74,44.45 L158.29,44.45 L162.06,37.91 L158.29,31.37 L150.77,31.37 L147,37.91 z" fill="#2D7174"/>
      <path d="M170.04,24.69 L162.15,24.69 L158.2,17.85 L158.2,17.77 L162.1,11.01 L169.99,11.01 L173.94,17.85 L173.94,17.93 z M162.32,24.39 L169.87,24.39 L173.64,17.85 L169.87,11.31 L162.32,11.31 L158.55,17.85 z" fill="#1F383D"/>
      <path d="M181.59,31.33 L173.77,31.33 L173.77,31.33 L169.88,24.59 L169.88,24.59 L173.77,17.85 L181.61,17.85 L181.61,17.9 L185.5,24.64 L185.5,24.64 z M173.87,31.13 L181.48,31.13 L185.28,24.54 L181.48,17.95 L173.87,17.95 L170.07,24.54 z" fill="#1F383D"/>
      <path d="M181.62,18.04 L173.77,18.04 L169.77,11.17 L169.77,11.09 L173.67,4.33 L181.56,4.33 L185.51,11.17 L185.51,11.25 z M173.9,17.74 L181.45,17.74 L185.22,11.2 L181.45,4.66 L173.9,4.66 L170.13,11.2 z" fill="#1F383D"/>
      <path d="M185.39,24.54 L181.53,17.85 L185.39,11.17 L193.11,11.17 L196.97,17.85 L193.11,24.54 L185.39,24.54 z" fill="#5BA5B3"/>
      <path d="M170.04,38.04 L162.15,38.04 L162.15,37.96 L158.25,31.2 L158.25,31.12 L162.15,24.36 L170.04,24.36 L173.99,31.2 L173.99,31.28 z M162.32,37.74 L169.87,37.74 L173.64,31.2 L169.87,24.66 L162.32,24.66 L158.55,31.2 z" fill="#2D7174"/>
      <path d="M158.46,4.63 L150.57,4.63 L146.62,-2.21 L146.62,-2.29 L150.52,-9.05 L158.41,-9.05 L162.36,-2.21 L162.36,-2.13 z M150.74,4.33 L158.29,4.33 L162.06,-2.21 L158.29,-8.75 L150.77,-8.75 L147,-2.21 z" fill="#1F383D"/>
      <path d="M146.88,11.32 L138.99,11.32 L135.04,4.48 L135.04,4.4 L138.94,-2.36 L146.83,-2.36 L150.78,4.48 L150.78,4.56 z M139.16,11.02 L146.71,11.02 L150.48,4.48 L146.71,-2.06 L139.16,-2.06 L135.39,4.48 z" fill="#2D7174"/>
      <path d="M123.68,24.64 L115.84,24.64 L115.84,24.59 L111.95,17.85 L111.95,17.85 L115.84,11.11 L123.68,11.11 L123.68,11.16 L127.57,17.9 L127.57,17.9 z M115.96,24.44 L123.57,24.44 L127.37,17.85 L123.57,11.26 L115.96,11.26 L112.16,17.85 z" fill="#1F383D"/>
      <path d="M112.1,44.7 L104.27,44.7 L104.27,44.7 L100.38,37.96 L100.38,37.96 L104.27,31.22 L112.11,31.22 L112.11,31.22 L116,37.96 L116,37.96 z M104.38,44.5 L111.99,44.5 L115.79,37.91 L111.99,31.32 L104.38,31.32 L100.58,37.91 z" fill="#1F383D"/>
      <path d="M123.71,51.44 L115.77,51.44 L115.77,51.36 L111.87,44.6 L111.87,44.52 L115.77,37.76 L123.66,37.76 L123.66,37.84 L127.56,44.6 L127.56,44.68 z M115.99,51.14 L123.54,51.14 L127.31,44.6 L123.54,38.04 L115.99,38.04 L112.22,44.58 z" fill="#5BA5B3"/>
      <path d="M135.29,4.63 L127.4,4.63 L123.45,-2.21 L123.45,-2.29 L127.35,-9.05 L135.24,-9.05 L139.19,-2.21 L139.19,-2.13 z M127.57,4.33 L135.12,4.33 L138.89,-2.21 L135.12,-8.75 L127.57,-8.75 L123.77,-2.2 z" fill="#2D7174"/>
      <path d="M115.9,11.17 L112.04,4.48 L115.9,-2.21 L123.62,-2.21 L127.48,4.48 L123.62,11.17 L115.9,11.17 z" fill="#1F383D"/>
      <path d="M127.48,17.85 L123.62,11.17 L127.48,4.48 L135.21,4.48 L139.06,11.17 L135.21,17.85 L127.48,17.85 z" fill="#5BA5B3"/>
      <path d="M92.74,11.17 L88.88,4.48 L92.74,-2.21 L100.46,-2.21 L104.32,4.48 L100.46,11.17 L92.74,11.17 z" fill="#5BA5B3"/>
      <path d="M162.23,11.17 L158.37,4.48 L162.23,-2.21 L169.95,-2.21 L173.81,4.48 L169.95,11.17 L162.23,11.17 z" fill="#2D7174"/>
      <path d="M181.62,4.63 L173.77,4.63 L169.77,-2.2 L169.77,-2.28 L173.67,-9.04 L181.56,-9.04 L185.51,-2.2 L185.51,-2.12 z M173.9,4.33 L181.45,4.33 L185.22,-2.21 L181.45,-8.75 L173.9,-8.75 L170.13,-2.21 z" fill="#1F383D"/>
      <path d="M193.2,11.32 L185.31,11.32 L181.36,4.48 L181.36,4.4 L185.26,-2.36 L193.15,-2.36 L197.1,4.48 L197.1,4.56 z M185.48,11.02 L193.03,11.02 L196.8,4.48 L193.03,-2.06 L185.48,-2.06 L181.71,4.48 z" fill="#2D7174"/>
      <path d="M193.2,38.04 L185.31,38.04 L185.31,37.96 L181.41,31.2 L181.41,31.12 L185.31,24.36 L193.2,24.36 L197.15,31.2 L197.15,31.28 z M185.48,37.74 L193.03,37.74 L196.8,31.2 L193.03,24.66 L185.48,24.66 L181.71,31.2 z" fill="#1F383D"/>
      <path d="M135.29,58.12 L127.4,58.12 L127.4,58.04 L123.5,51.28 L123.5,51.2 L127.4,44.44 L135.29,44.44 L135.29,44.52 L139.19,51.28 L139.19,51.36 z M127.57,57.82 L135.12,57.82 L138.89,51.28 L135.12,44.74 L127.57,44.74 L123.77,51.29 z" fill="#5BA5B3"/>
      <path d="M173.81,57.97 L169.95,51.28 L173.81,44.6 L181.53,44.6 L185.39,51.28 L181.53,57.97 L173.81,57.97 z" fill="#2D7174"/>
      <path d="M193.2,51.44 L185.31,51.44 L185.31,51.36 L181.41,44.6 L181.41,44.52 L185.31,37.76 L193.2,37.76 L193.2,37.84 L197.1,44.6 L197.1,44.68 z M185.48,51.14 L193.03,51.14 L196.8,44.6 L193.03,38.04 L185.48,38.04 L181.71,44.58 z" fill="#1F383D"/>
      <path d="M112.13,58.12 L104.24,58.12 L104.24,58.04 L100.34,51.28 L100.34,51.2 L104.24,44.44 L112.13,44.44 L112.13,44.52 L116.03,51.28 L116.03,51.36 z M104.41,57.82 L111.96,57.82 L115.73,51.28 L111.96,44.74 L104.41,44.74 L100.64,51.28 z" fill="#5BA5B3"/>
      <path d="M92.74,64.66 L88.88,57.97 L92.74,51.28 L100.46,51.28 L104.32,57.97 L100.46,64.66 L92.74,64.66 z" fill="#2D7174"/>
      <path d="M193.2,64.81 L185.31,64.81 L185.31,64.73 L181.41,57.97 L181.41,57.89 L185.31,51.13 L193.2,51.13 L193.2,51.21 L197.1,57.97 L197.1,58.05 z M185.48,64.51 L193.03,64.51 L196.8,57.97 L193.03,51.43 L185.48,51.43 L181.71,57.97 z" fill="#2D7174"/>
      <path d="M128.22,17.85 C128.22,18.259 127.889,18.59 127.48,18.59 C127.071,18.59 126.74,18.259 126.74,17.85 C126.74,17.441 127.071,17.11 127.48,17.11 C127.889,17.11 128.22,17.441 128.22,17.85 z" fill="#1F383D"/>
      <path d="M151.39,31.22 C151.39,31.629 151.059,31.96 150.65,31.96 C150.241,31.96 149.91,31.629 149.91,31.22 C149.91,30.811 150.241,30.48 150.65,30.48 C151.059,30.48 151.39,30.811 151.39,31.22 z" fill="#1F383D"/>
      <path d="M162.97,24.54 C162.97,24.949 162.639,25.28 162.23,25.28 C161.821,25.28 161.49,24.949 161.49,24.54 C161.49,24.131 161.821,23.8 162.23,23.8 C162.639,23.8 162.97,24.131 162.97,24.54 z" fill="#1F383D"/>
      <path d="M170.69,24.54 C170.69,24.949 170.359,25.28 169.95,25.28 C169.541,25.28 169.21,24.949 169.21,24.54 C169.21,24.131 169.541,23.8 169.95,23.8 C170.359,23.8 170.69,24.131 170.69,24.54 z" fill="#1F383D"/>
      <path d="M182.01,17.87 C182.01,18.279 181.679,18.61 181.27,18.61 C180.861,18.61 180.53,18.279 180.53,17.87 C180.53,17.461 180.861,17.13 181.27,17.13 C181.679,17.13 182.01,17.461 182.01,17.87 z" fill="#1F383D"/>
      <path d="M182.27,4.48 C182.27,4.889 181.939,5.22 181.53,5.22 C181.121,5.22 180.79,4.889 180.79,4.48 C180.79,4.071 181.121,3.74 181.53,3.74 C181.939,3.74 182.27,4.071 182.27,4.48 z" fill="#1F383D"/>
      <path d="M151.39,4.48 C151.39,4.889 151.059,5.22 150.65,5.22 C150.241,5.22 149.91,4.889 149.91,4.48 C149.91,4.071 150.241,3.74 150.65,3.74 C151.059,3.74 151.39,4.071 151.39,4.48 z" fill="#1F383D"/>
      <path d="M135.94,4.48 C135.94,4.889 135.609,5.22 135.2,5.22 C134.791,5.22 134.46,4.889 134.46,4.48 C134.46,4.071 134.791,3.74 135.2,3.74 C135.609,3.74 135.94,4.071 135.94,4.48 z" fill="#2D7174"/>
      <path d="M171.01,37.95 C171.01,38.359 170.679,38.69 170.27,38.69 C169.861,38.69 169.53,38.359 169.53,37.95 C169.53,37.541 169.861,37.21 170.27,37.21 C170.679,37.21 171.01,37.541 171.01,37.95 z" fill="#2D7174"/>
      <path d="M186.13,11.16 C186.13,11.569 185.799,11.9 185.39,11.9 C184.981,11.9 184.65,11.569 184.65,11.16 C184.65,10.751 184.981,10.42 185.39,10.42 C185.799,10.42 186.13,10.751 186.13,11.16 z" fill="#2D7174"/>
      <path d="M171.3,51.37 C171.3,51.939 170.839,52.4 170.27,52.4 C169.701,52.4 169.24,51.939 169.24,51.37 C169.24,50.801 169.701,50.34 170.27,50.34 C170.839,50.34 171.3,50.801 171.3,51.37 z" fill="#2D7174"/>
      <path d="M159.4,31.22 C159.4,31.789 158.939,32.25 158.37,32.25 C157.801,32.25 157.34,31.789 157.34,31.22 C157.34,30.651 157.801,30.19 158.37,30.19 C158.939,30.19 159.4,30.651 159.4,31.22 z" fill="#2D7174"/>
      <path d="M140.96,51.28 C140.96,52.329 140.109,53.18 139.06,53.18 C138.011,53.18 137.16,52.329 137.16,51.28 C137.16,50.231 138.011,49.38 139.06,49.38 C140.109,49.38 140.96,50.231 140.96,51.28 z" fill="#5BA5B3"/>
      <path d="M135.94,31.22 C135.94,31.629 135.609,31.96 135.2,31.96 C134.791,31.96 134.46,31.629 134.46,31.22 C134.46,30.811 134.791,30.48 135.2,30.48 C135.609,30.48 135.94,30.811 135.94,31.22 z" fill="#1F383D"/>
      <path d="M139.8,37.91 C139.8,38.319 139.469,38.65 139.06,38.65 C138.651,38.65 138.32,38.319 138.32,37.91 C138.32,37.501 138.651,37.17 139.06,37.17 C139.469,37.17 139.8,37.501 139.8,37.91 z" fill="#1F383D"/>
      <path d="M124.36,37.91 C124.36,38.319 124.029,38.65 123.62,38.65 C123.211,38.65 122.88,38.319 122.88,37.91 C122.88,37.501 123.211,37.17 123.62,37.17 C124.029,37.17 124.36,37.501 124.36,37.91 z" fill="#1F383D"/>
      <path d="M116.64,37.91 C116.64,38.319 116.309,38.65 115.9,38.65 C115.491,38.65 115.16,38.319 115.16,37.91 C115.16,37.501 115.491,37.17 115.9,37.17 C116.309,37.17 116.64,37.501 116.64,37.91 z" fill="#1F383D"/>
      <path d="M105.17,44.61 C105.17,45.019 104.839,45.35 104.43,45.35 C104.021,45.35 103.69,45.019 103.69,44.61 C103.69,44.201 104.021,43.87 104.43,43.87 C104.839,43.87 105.17,44.201 105.17,44.61 z" fill="#1F383D"/>
    </g>
    <g>
      <path d="M40.4,60.36 L34.06,60.36 L34.06,60.3 L30.92,54.87 L34.09,49.38 L40.43,49.38 L40.43,49.44 L43.57,54.87 L43.57,54.93 z M34.19,60.12 L40.26,60.12 L43.26,54.87 L40.26,49.62 L34.19,49.62 L31.19,54.87 z" fill="#FFFFFF"/>
      <path d="M49.68,54.95 L43.38,54.95 L43.38,54.95 L40.26,49.54 L40.26,49.54 L43.38,44.13 L49.68,44.13 L49.68,44.13 L52.8,49.54 L52.8,49.54 z M43.47,54.79 L49.58,54.79 L52.64,49.5 L49.58,44.21 L43.47,44.21 L40.41,49.5 z" fill="#FFFFFF"/>
      <path d="M40.4,49.62 L34.06,49.62 L34.06,49.56 L30.92,44.13 L34.09,38.64 L40.43,38.64 L40.43,38.7 L43.57,44.13 L43.57,44.19 z M34.19,49.38 L40.26,49.38 L43.26,44.13 L40.26,38.88 L34.19,38.88 L31.19,44.13 z" fill="#FFFFFF"/>
      <path d="M31.09,54.99 L24.77,54.99 L24.77,54.93 L21.63,49.5 L24.77,44.04 L31.11,44.04 L31.11,44.1 L34.25,49.53 z M24.89,54.75 L30.96,54.75 L33.96,49.5 L30.96,44.25 L24.89,44.25 L21.89,49.5 z" fill="#FFFFFF"/>
      <path d="M21.77,60.36 L15.43,60.36 L15.43,60.3 L12.29,54.87 L15.46,49.38 L21.77,49.38 L21.77,49.44 L24.91,54.87 z M15.57,60.12 L21.64,60.12 L24.64,54.87 L21.64,49.62 L15.57,49.62 L12.57,54.87 z" fill="#FFFFFF"/>
      <path d="M68.29,54.95 L61.99,54.95 L61.99,54.95 L58.87,49.54 L58.87,49.54 L62,44.13 L68.3,44.13 L68.3,44.13 L71.43,49.54 L71.43,49.54 z M62.09,54.79 L68.2,54.79 L71.26,49.5 L68.2,44.21 L62.09,44.21 L59.03,49.5 z" fill="#FFFFFF"/>
      <path d="M59.01,49.62 L52.67,49.62 L52.67,49.56 L49.53,44.13 L49.53,44.07 L52.67,38.64 L59.01,38.64 L59.01,38.7 L62.15,44.13 z M52.8,49.38 L58.87,49.38 L61.87,44.13 L58.87,38.88 L52.77,38.88 L49.77,44.13 z" fill="#FFFFFF"/>
      <path d="M49.7,44.24 L43.36,44.24 L43.36,44.18 L40.22,38.75 L40.22,38.69 L43.36,33.26 L49.7,33.26 L49.7,33.32 L52.84,38.75 L52.84,38.81 z M43.49,44 L49.56,44 L52.56,38.75 L49.56,33.5 L43.49,33.5 L40.49,38.75 z" fill="#FFFFFF"/>
      <path d="M12.4,33.37 L15.51,38.75 L12.4,44.12 L6.2,44.12 L3.1,38.75 L6.2,33.37 L12.4,33.37 z" fill="#FFFFFF"/>
      <path d="M3.17,49.62 L-3.17,49.62 L-3.17,49.56 L-6.31,44.13 L-6.31,44.07 L-3.17,38.64 L3.17,38.64 L3.17,38.7 L6.31,44.13 z M-3.03,49.38 L3.04,49.38 L6.04,44.13 L3.04,38.88 L-3.03,38.88 L-6.03,44.13 z" fill="#FFFFFF"/>
      <path d="M68.32,44.24 L61.97,44.24 L61.97,44.18 L58.77,38.75 L58.77,38.69 L61.91,33.26 L68.25,33.26 L68.25,33.32 L71.39,38.75 z M62.12,44 L68.19,44 L71.19,38.75 L68.19,33.5 L62.12,33.5 L59.12,38.75 z" fill="#FFFFFF"/>
      <path d="M77.55,28 L80.65,33.37 L77.55,38.75 L71.35,38.75 L68.24,33.37 L71.35,28 L77.55,28 z" fill="#FFFFFF"/>
      <path d="M31.62,54.87 C31.62,55.201 31.351,55.47 31.02,55.47 C30.689,55.47 30.42,55.201 30.42,54.87 C30.42,54.539 30.689,54.27 31.02,54.27 C31.351,54.27 31.62,54.539 31.62,54.87 z" fill="#FFFFFF"/>
      <path d="M22.31,60.24 C22.31,60.571 22.041,60.84 21.71,60.84 C21.379,60.84 21.11,60.571 21.11,60.24 C21.11,59.909 21.379,59.64 21.71,59.64 C22.041,59.64 22.31,59.909 22.31,60.24 z" fill="#FFFFFF"/>
      <path d="M16.11,60.24 C16.11,60.571 15.841,60.84 15.51,60.84 C15.179,60.84 14.91,60.571 14.91,60.24 C14.91,59.909 15.179,59.64 15.51,59.64 C15.841,59.64 16.11,59.909 16.11,60.24 z" fill="#FFFFFF"/>
      <path d="M15.85,49.46 C15.85,49.791 15.581,50.06 15.25,50.06 C14.919,50.06 14.65,49.791 14.65,49.46 C14.65,49.129 14.919,48.86 15.25,48.86 C15.581,48.86 15.85,49.129 15.85,49.46 z" fill="#FFFFFF"/>
      <path d="M16.08,38.68 C16.08,39.138 15.708,39.51 15.25,39.51 C14.792,39.51 14.42,39.138 14.42,38.68 C14.42,38.222 14.792,37.85 15.25,37.85 C15.708,37.85 16.08,38.222 16.08,38.68 z" fill="#FFFFFF"/>
      <path d="M25.64,54.87 C25.64,55.328 25.268,55.7 24.81,55.7 C24.352,55.7 23.98,55.328 23.98,54.87 C23.98,54.412 24.352,54.04 24.81,54.04 C25.268,54.04 25.64,54.412 25.64,54.87 z" fill="#FFFFFF"/>
      <path d="M41.85,38.75 C41.85,39.595 41.165,40.28 40.32,40.28 C39.475,40.28 38.79,39.595 38.79,38.75 C38.79,37.905 39.475,37.22 40.32,37.22 C41.165,37.22 41.85,37.905 41.85,38.75 z" fill="#FFFFFF"/>
      <path d="M44.03,54.87 C44.03,55.201 43.761,55.47 43.43,55.47 C43.099,55.47 42.83,55.201 42.83,54.87 C42.83,54.539 43.099,54.27 43.43,54.27 C43.761,54.27 44.03,54.539 44.03,54.87 z" fill="#FFFFFF"/>
      <path d="M40.92,49.49 C40.92,49.821 40.651,50.09 40.32,50.09 C39.989,50.09 39.72,49.821 39.72,49.49 C39.72,49.159 39.989,48.89 40.32,48.89 C40.651,48.89 40.92,49.159 40.92,49.49 z" fill="#FFFFFF"/>
      <path d="M53.33,49.49 C53.33,49.821 53.061,50.09 52.73,50.09 C52.399,50.09 52.13,49.821 52.13,49.49 C52.13,49.159 52.399,48.89 52.73,48.89 C53.061,48.89 53.33,49.159 53.33,49.49 z" fill="#FFFFFF"/>
      <path d="M59.54,49.49 C59.54,49.821 59.271,50.09 58.94,50.09 C58.609,50.09 58.34,49.821 58.34,49.49 C58.34,49.159 58.609,48.89 58.94,48.89 C59.271,48.89 59.54,49.159 59.54,49.49 z" fill="#FFFFFF"/>
      <path d="M68.75,44.11 C68.75,44.441 68.481,44.71 68.15,44.71 C67.819,44.71 67.55,44.441 67.55,44.11 C67.55,43.779 67.819,43.51 68.15,43.51 C68.481,43.51 68.75,43.779 68.75,44.11 z" fill="#FFFFFF"/>
    </g>
    <g>
      <path d="M104.77,47.62 L99.28,44.45 L99.28,38.11 L99.34,38.11 L104.77,34.97 L110.26,38.14 L110.26,44.48 L110.2,44.48 z M99.52,44.31 L104.77,47.31 L110.02,44.31 L110.02,38.24 L104.77,35.24 L99.52,38.24 L99.52,44.31 z" fill="#FFFFFF"/>
      <path d="M99.36,38.26 L99.36,38.26 L93.95,35.14 L93.95,28.84 L93.95,28.84 L99.36,25.71 L99.36,25.71 L104.77,28.84 L104.77,35.14 L104.77,35.14 z M94.06,35.04 L99.35,38.1 L104.64,35.04 L104.64,28.93 L99.35,25.87 L94.06,28.93 L94.06,35.04 z" fill="#FFFFFF"/>
      <path d="M93.98,47.62 L93.92,47.62 L88.49,44.48 L88.49,38.14 L88.55,38.14 L93.98,35 L99.47,38.17 L99.47,44.51 L99.41,44.51 z M88.77,44.31 L94.02,47.31 L99.27,44.31 L99.27,38.24 L94.02,35.24 L88.77,38.24 L88.77,44.31 z" fill="#FFFFFF"/>
      <path d="M99.36,56.92 L93.87,53.75 L93.87,47.41 L93.93,47.41 L99.36,44.27 L104.85,47.44 L104.85,53.78 L104.79,53.78 z M94.11,53.61 L99.36,56.61 L104.61,53.61 L104.61,47.54 L99.36,44.54 L94.11,47.54 L94.11,53.61 z" fill="#FFFFFF"/>
      <path d="M104.77,66.23 L99.24,63.04 L99.24,56.7 L99.3,56.7 L104.77,53.54 L110.26,56.71 L110.26,63.04 L110.2,63.04 z M99.52,62.92 L104.77,65.92 L110.02,62.92 L110.02,56.85 L104.77,53.85 L99.52,56.85 L99.52,62.92 z" fill="#FFFFFF"/>
      <path d="M99.36,19.65 L99.36,19.65 L93.95,16.52 L93.95,10.22 L93.95,10.22 L99.36,7.1 L99.36,7.1 L104.77,10.23 L104.77,16.53 L104.77,16.53 z M94.07,16.41 L99.36,19.47 L104.65,16.41 L104.65,10.3 L99.36,7.24 L94.07,10.3 L94.07,16.41 z" fill="#FFFFFF"/>
      <path d="M93.98,29.04 L93.92,29.04 L88.49,25.9 L88.49,19.56 L88.55,19.56 L93.98,16.42 L94.04,16.42 L99.47,19.56 L99.47,25.9 L99.41,25.9 z M88.77,25.69 L94.02,28.69 L99.27,25.69 L99.27,19.63 L94.02,16.63 L88.77,19.63 L88.77,25.69 z" fill="#FFFFFF"/>
      <path d="M88.61,38.31 L83.12,35.14 L83.12,28.8 L83.18,28.8 L88.61,25.66 L88.67,25.66 L94.1,28.8 L94.1,35.14 L94.04,35.14 z M83.36,35.04 L88.61,38.04 L93.86,35.04 L93.86,28.97 L88.61,25.97 L83.36,28.97 L83.36,35.04 z" fill="#FFFFFF"/>
      <path d="M88.61,19.7 L88.55,19.7 L83.12,16.56 L83.12,10.22 L83.18,10.22 L88.61,7.08 L88.67,7.08 L94.1,10.22 L94.1,16.56 L94.04,16.56 z M83.36,16.39 L88.61,19.39 L93.86,16.39 L93.86,10.33 L88.61,7.33 L83.36,10.33 L83.36,16.39 z" fill="#FFFFFF"/>
      <path d="M77.86,0.94 L83.23,-2.16 L88.61,0.94 L88.61,7.14 L83.23,10.25 L77.86,7.14 L77.86,0.94 z" fill="#FFFFFF"/>
      <path d="M105.33,47.47 C105.33,47.801 105.061,48.07 104.73,48.07 C104.399,48.07 104.13,47.801 104.13,47.47 C104.13,47.139 104.399,46.87 104.73,46.87 C105.061,46.87 105.33,47.139 105.33,47.47 z" fill="#FFFFFF"/>
      <path d="M110.7,56.78 C110.7,57.111 110.431,57.38 110.1,57.38 C109.769,57.38 109.5,57.111 109.5,56.78 C109.5,56.449 109.769,56.18 110.1,56.18 C110.431,56.18 110.7,56.449 110.7,56.78 z" fill="#FFFFFF"/>
      <path d="M110.7,62.98 C110.7,63.311 110.431,63.58 110.1,63.58 C109.769,63.58 109.5,63.311 109.5,62.98 C109.5,62.649 109.769,62.38 110.1,62.38 C110.431,62.38 110.7,62.649 110.7,62.98 z" fill="#FFFFFF"/>
      <path d="M99.93,63.24 C99.93,63.571 99.661,63.84 99.33,63.84 C98.999,63.84 98.73,63.571 98.73,63.24 C98.73,62.909 98.999,62.64 99.33,62.64 C99.661,62.64 99.93,62.909 99.93,63.24 z" fill="#FFFFFF"/>
      <path d="M89.37,63.24 C89.37,63.698 88.998,64.07 88.54,64.07 C88.082,64.07 87.71,63.698 87.71,63.24 C87.71,62.782 88.082,62.41 88.54,62.41 C88.998,62.41 89.37,62.782 89.37,63.24 z" fill="#FFFFFF"/>
      <path d="M105.56,53.68 C105.56,54.138 105.188,54.51 104.73,54.51 C104.272,54.51 103.9,54.138 103.9,53.68 C103.9,53.222 104.272,52.85 104.73,52.85 C105.188,52.85 105.56,53.222 105.56,53.68 z" fill="#FFFFFF"/>
      <path d="M90.14,38.17 C90.14,39.015 89.455,39.7 88.61,39.7 C87.765,39.7 87.08,39.015 87.08,38.17 C87.08,37.325 87.765,36.64 88.61,36.64 C89.455,36.64 90.14,37.325 90.14,38.17 z" fill="#FFFFFF"/>
      <path d="M105.33,35.06 C105.33,35.391 105.061,35.66 104.73,35.66 C104.399,35.66 104.13,35.391 104.13,35.06 C104.13,34.729 104.399,34.46 104.73,34.46 C105.061,34.46 105.33,34.729 105.33,35.06 z" fill="#FFFFFF"/>
      <path d="M99.95,38.17 C99.95,38.501 99.681,38.77 99.35,38.77 C99.019,38.77 98.75,38.501 98.75,38.17 C98.75,37.839 99.019,37.57 99.35,37.57 C99.681,37.57 99.95,37.839 99.95,38.17 z" fill="#FFFFFF"/>
      <path d="M99.95,25.76 C99.95,26.091 99.681,26.36 99.35,26.36 C99.019,26.36 98.75,26.091 98.75,25.76 C98.75,25.429 99.019,25.16 99.35,25.16 C99.681,25.16 99.95,25.429 99.95,25.76 z" fill="#FFFFFF"/>
      <path d="M99.95,19.55 C99.95,19.881 99.681,20.15 99.35,20.15 C99.019,20.15 98.75,19.881 98.75,19.55 C98.75,19.219 99.019,18.95 99.35,18.95 C99.681,18.95 99.95,19.219 99.95,19.55 z" fill="#FFFFFF"/>
      <path d="M94.57,10.34 C94.57,10.671 94.301,10.94 93.97,10.94 C93.639,10.94 93.37,10.671 93.37,10.34 C93.37,10.009 93.639,9.74 93.97,9.74 C94.301,9.74 94.57,10.009 94.57,10.34 z" fill="#FFFFFF"/>
    </g>
  </g>
</svg>
