<?xml version="1.0" encoding="UTF-8"?>
<!DOCTYPE svg PUBLIC "-//W3C//DTD SVG 1.1//EN" "http://www.w3.org/Graphics/SVG/1.1/DTD/svg11.dtd">
<svg version="1.1" xmlns="http://www.w3.org/2000/svg" xmlns:xlink="http://www.w3.org/1999/xlink" x="0" y="0" width="194.49" height="58.07" viewBox="0, 0, 194.49, 58.07">
  <g id="Layer_1">
    <g>
      <path d="M109.15,10.31 C109.15,11.365 108.295,12.22 107.24,12.22 C106.185,12.22 105.33,11.365 105.33,10.31 C105.33,9.255 106.185,8.4 107.24,8.4 C108.295,8.4 109.15,9.255 109.15,10.31 z" fill="#5BA5B3"/>
      <path d="M167.71,4.57 C167.71,5.625 166.855,6.48 165.8,6.48 C164.745,6.48 163.89,5.625 163.89,4.57 C163.89,3.515 164.745,2.66 165.8,2.66 C166.855,2.66 167.71,3.515 167.71,4.57 z" fill="#5BA5B3"/>
      <path d="M161.23,-4.79 C161.23,-4.166 160.724,-3.66 160.1,-3.66 C159.476,-3.66 158.97,-4.166 158.97,-4.79 C158.97,-5.414 159.476,-5.92 160.1,-5.92 C160.724,-5.92 161.23,-5.414 161.23,-4.79 z" fill="#5BA5B3"/>
      <path d="M192.73,-6.12 C192.73,-5.496 192.224,-4.99 191.6,-4.99 C190.976,-4.99 190.47,-5.496 190.47,-6.12 C190.47,-6.744 190.976,-7.25 191.6,-7.25 C192.224,-7.25 192.73,-6.744 192.73,-6.12 z" fill="#5BA5B3"/>
      <path d="M200.06,20.04 C200.06,20.664 199.554,21.17 198.93,21.17 C198.306,21.17 197.8,20.664 197.8,20.04 C197.8,19.416 198.306,18.91 198.93,18.91 C199.554,18.91 200.06,19.416 200.06,20.04 z" fill="#5BA5B3"/>
      <path d="M197.9,45.04 C197.9,45.664 197.394,46.17 196.77,46.17 C196.146,46.17 195.64,45.664 195.64,45.04 C195.64,44.416 196.146,43.91 196.77,43.91 C197.394,43.91 197.9,44.416 197.9,45.04 z" fill="#5BA5B3"/>
      <path d="M182.56,61.88 C182.56,62.504 182.054,63.01 181.43,63.01 C180.806,63.01 180.3,62.504 180.3,61.88 C180.3,61.256 180.806,60.75 181.43,60.75 C182.054,60.75 182.56,61.256 182.56,61.88 z" fill="#5BA5B3"/>
      <path d="M148.52,60.71 C148.52,61.334 148.014,61.84 147.39,61.84 C146.766,61.84 146.26,61.334 146.26,60.71 C146.26,60.086 146.766,59.58 147.39,59.58 C148.014,59.58 148.52,60.086 148.52,60.71 z" fill="#5BA5B3"/>
      <path d="M116.02,61.04 C116.02,61.664 115.514,62.17 114.89,62.17 C114.266,62.17 113.76,61.664 113.76,61.04 C113.76,60.416 114.266,59.91 114.89,59.91 C115.514,59.91 116.02,60.416 116.02,61.04 z" fill="#5BA5B3"/>
      <path d="M139.01,42.46 C139.01,43.515 138.155,44.37 137.1,44.37 C136.045,44.37 135.19,43.515 135.19,42.46 C135.19,41.405 136.045,40.55 137.1,40.55 C138.155,40.55 139.01,41.405 139.01,42.46 z" fill="#5BA5B3"/>
      <path d="M181.79,31.74 C181.79,32.535 181.145,33.18 180.35,33.18 C179.555,33.18 178.91,32.535 178.91,31.74 C178.91,30.945 179.555,30.3 180.35,30.3 C181.145,30.3 181.79,30.945 181.79,31.74 z" fill="#5BA5B3"/>
      <path d="M146.28,15.29 C146.28,16.345 145.425,17.2 144.37,17.2 C143.315,17.2 142.46,16.345 142.46,15.29 C142.46,14.235 143.315,13.38 144.37,13.38 C145.425,13.38 146.28,14.235 146.28,15.29 z" fill="#5BA5B3"/>
      <path d="M117.55,50.14 C117.55,50.968 116.878,51.64 116.05,51.64 C115.222,51.64 114.55,50.968 114.55,50.14 C114.55,49.312 115.222,48.64 116.05,48.64 C116.878,48.64 117.55,49.312 117.55,50.14 z" fill="#5BA5B3"/>
      <path d="M178.05,52.03 C178.05,53.085 177.195,53.94 176.14,53.94 C175.085,53.94 174.23,53.085 174.23,52.03 C174.23,50.975 175.085,50.12 176.14,50.12 C177.195,50.12 178.05,50.975 178.05,52.03 z" fill="#5BA5B3"/>
      <path d="M189.15,6.48 C189.15,7.535 188.295,8.39 187.24,8.39 C186.185,8.39 185.33,7.535 185.33,6.48 C185.33,5.425 186.185,4.57 187.24,4.57 C188.295,4.57 189.15,5.425 189.15,6.48 z" fill="#5BA5B3"/>
      <path d="M152.15,30.98 C152.15,31.472 151.752,31.87 151.26,31.87 C150.768,31.87 150.37,31.472 150.37,30.98 C150.37,30.488 150.768,30.09 151.26,30.09 C151.752,30.09 152.15,30.488 152.15,30.98 z" fill="#5BA5B3"/>
      <path d="M111.92,29.45 C111.92,30.129 111.369,30.68 110.69,30.68 C110.011,30.68 109.46,30.129 109.46,29.45 C109.46,28.771 110.011,28.22 110.69,28.22 C111.369,28.22 111.92,28.771 111.92,29.45 z" fill="#5BA5B3"/>
      <path d="M91.17,34.04 C91.17,35.095 90.315,35.95 89.26,35.95 C88.205,35.95 87.35,35.095 87.35,34.04 C87.35,32.985 88.205,32.13 89.26,32.13 C90.315,32.13 91.17,32.985 91.17,34.04 z" fill="#5BA5B3"/>
      <path d="M133.27,2.66 C133.27,3.715 132.415,4.57 131.36,4.57 C130.305,4.57 129.45,3.715 129.45,2.66 C129.45,1.605 130.305,0.75 131.36,0.75 C132.415,0.75 133.27,1.605 133.27,2.66 z" fill="#5BA5B3"/>
      <path d="M154.7,54.32 C154.7,55.375 153.845,56.23 152.79,56.23 C151.735,56.23 150.88,55.375 150.88,54.32 C150.88,53.265 151.735,52.41 152.79,52.41 C153.845,52.41 154.7,53.265 154.7,54.32 z" fill="#5BA5B3"/>
      <path d="M105.97,50.25 L105.97,50.1 L114.47,5.44 L114.6,5.66 L137.25,42.52 L137.12,42.52 z M114.57,5.99 L106.23,49.99 L136.95,42.41 z" fill="#5BA5B3"/>
      <path d="M136.69,42.66 L137.04,42.38 L151.23,30.87 L181.09,31.66 z M151.29,31.04 L137.51,42.25 L179.61,31.82 z" fill="#5BA5B3"/>
      <path d="M152.5,55.19 L152.64,54.67 L165.77,4.46 L165.77,4.46 L187.38,6.39 L187.28,6.53 z M165.88,4.67 L152.97,54.2 L187.06,6.57 z" fill="#5BA5B3"/>
      <path d="M115.51,50.47 L115.67,49.98 L131.31,2.47 L131.43,2.58 L144.77,15.66 L144.71,15.73 z M131.4,2.84 L116.03,49.54 L144.46,15.67 z" fill="#5BA5B3"/>
      <path d="M180.58,31.96 L180.31,31.83 L144.23,14.98 L144.42,14.89 L165.85,4.44 L165.85,4.52 z M144.69,14.96 L180.12,31.51 L165.77,4.7 z" fill="#5BA5B3"/>
      <path d="M152.89,54.51 L152.49,54.38 L88.77,34.09 L88.86,33.98 L107.28,10.16 L107.36,10.24 z M89.06,33.99 L152.15,54.04 L107.26,10.46 z" fill="#5BA5B3"/>
      <path d="M115.93,50.22 L115.77,50.09 L89,33.87 L110.77,29.33 L110.77,29.42 z M89.54,33.96 L115.62,49.79 L110.62,29.56 z" fill="#5BA5B3"/>
      <path d="M176.66,52.46 L176.08,52.11 L107.01,10.28 L107.22,10.21 L131.55,2.21 L131.55,2.21 z M107.48,10.33 L175.61,51.59 L131.49,2.41 z" fill="#5BA5B3"/>
      <path d="M152.64,54.81 L152.64,54.7 L151.15,30.7 L151.33,30.85 L176.38,52.05 L176.15,52.05 z M151.38,31.21 L152.83,54.59 L175.9,51.96 z" fill="#5BA5B3"/>
      <path d="M176.2,52.24 L131,1.86 L180.46,31.69 L180.46,31.76 z M132.04,2.72 L176.04,51.81 L180.2,31.81 z" fill="#5BA5B3"/>
      <path d="M151.41,31.04 L151.25,31.04 L110.25,29.49 L110.66,29.32 L144.52,14.81 L144.52,14.9 z M111.14,29.32 L151.14,30.83 L144.44,15.07 z" fill="#5BA5B3"/>
      <path d="M150.91,31.16 L151.19,30.9 L191.65,-6.31 L191.65,-6.15 L199.01,20.12 L198.91,20.12 z M191.55,-5.96 L151.61,30.79 L198.77,19.97 z" fill="#5BA5B3"/>
      <path d="M197.32,46.04 L197.02,45.63 L159.77,-5.02 L187.28,6.41 L187.28,6.41 z M160.4,-4.56 L196.88,45.04 L187.15,6.52 z" fill="#5BA5B3"/>
      <path d="M180.94,62.69 L181.17,62.16 L199.77,20.37 L199.71,20.99 L197.25,45.59 L197.25,45.59 z M199.4,21.58 L181.6,61.71 L197.01,45.49 z" fill="#5BA5B3"/>
      <path d="M114.09,61.54 L114.38,61.3 L137.1,42.3 L137.16,42.3 L152.97,54.76 L152.75,54.76 z M137.09,42.54 L114.77,61.21 L152.48,54.63 z" fill="#5BA5B3"/>
      <path d="M147.6,60.81 L115.43,50.43 L116.1,50.43 L176.83,51.5 z M116.77,50.65 L147.6,60.6 L175.6,51.69 z" fill="#5BA5B3"/>
    </g>
    <g>
      <path d="M174.18,19.5 C174.18,19.898 173.858,20.22 173.46,20.22 C173.062,20.22 172.74,19.898 172.74,19.5 C172.74,19.102 173.062,18.78 173.46,18.78 C173.858,18.78 174.18,19.102 174.18,19.5 z" fill="#2D7174"/>
      <path d="M108.36,25.04 C108.36,25.642 107.872,26.13 107.27,26.13 C106.668,26.13 106.18,25.642 106.18,25.04 C106.18,24.438 106.668,23.95 107.27,23.95 C107.872,23.95 108.36,24.438 108.36,25.04 z" fill="#2D7174"/>
      <path d="M116.88,5.72 C116.88,7.023 115.823,8.08 114.52,8.08 C113.217,8.08 112.16,7.023 112.16,5.72 C112.16,4.417 113.217,3.36 114.52,3.36 C115.823,3.36 116.88,4.417 116.88,5.72 z" fill="#2D7174"/>
      <path d="M107.94,50.11 C107.94,51.126 107.116,51.95 106.1,51.95 C105.084,51.95 104.26,51.126 104.26,50.11 C104.26,49.094 105.084,48.27 106.1,48.27 C107.116,48.27 107.94,49.094 107.94,50.11 z" fill="#2D7174"/>
      <path d="M192.63,55.29 C192.63,56.013 192.043,56.6 191.32,56.6 C190.596,56.6 190.01,56.013 190.01,55.29 C190.01,54.567 190.596,53.98 191.32,53.98 C192.043,53.98 192.63,54.567 192.63,55.29 z" fill="#2D7174"/>
      <path d="M142.59,26.79 C142.59,27.657 141.887,28.36 141.02,28.36 C140.153,28.36 139.45,27.657 139.45,26.79 C139.45,25.923 140.153,25.22 141.02,25.22 C141.887,25.22 142.59,25.923 142.59,26.79 z" fill="#2D7174"/>
      <path d="M162.91,10.54 C162.91,11.308 162.288,11.93 161.52,11.93 C160.752,11.93 160.13,11.308 160.13,10.54 C160.13,9.772 160.752,9.15 161.52,9.15 C162.288,9.15 162.91,9.772 162.91,10.54 z" fill="#2D7174"/>
      <path d="M184.73,35.5 C184.73,36.582 183.852,37.46 182.77,37.46 C181.688,37.46 180.81,36.582 180.81,35.5 C180.81,34.418 181.688,33.54 182.77,33.54 C183.852,33.54 184.73,34.418 184.73,35.5 z" fill="#2D7174"/>
      <path d="M158.69,51.04 C158.69,51.802 158.072,52.42 157.31,52.42 C156.548,52.42 155.93,51.802 155.93,51.04 C155.93,50.278 156.548,49.66 157.31,49.66 C158.072,49.66 158.69,50.278 158.69,51.04 z" fill="#2D7174"/>
      <path d="M141.33,26.91 L107.13,25.14 L107.13,25.01 L114.43,5.56 L114.54,5.65 z M107.42,24.91 L140.72,26.64 L114.57,5.84 z" fill="#2D7174"/>
      <path d="M105.77,50.63 L105.67,50.46 L161.57,10.52 L161.63,10.52 L173.63,19.52 z M161.57,10.76 L106.68,50.04 L173.26,19.5 z" fill="#2D7174"/>
      <path d="M191.83,55.64 L191.55,55.46 L114.55,5.46 L114.65,5.28 L183.02,35.8 z M115.77,5.99 L191.37,55.11 L182.86,35.95 z" fill="#2D7174"/>
      <path d="M157.39,51.2 L157.26,51.13 L107,25.04 L107.25,24.97 L162.06,10.27 z M107.54,25.04 L157.22,50.85 L161.81,10.47 z" fill="#2D7174"/>
    </g>
    <g>
      <path d="M185.66,10.04 C185.66,10.808 185.038,11.43 184.27,11.43 C183.502,11.43 182.88,10.808 182.88,10.04 C182.88,9.272 183.502,8.65 184.27,8.65 C185.038,8.65 185.66,9.272 185.66,10.04 z" fill="#1F383D"/>
      <path d="M174.61,35.04 C174.61,35.642 174.122,36.13 173.52,36.13 C172.918,36.13 172.43,35.642 172.43,35.04 C172.43,34.438 172.918,33.95 173.52,33.95 C174.122,33.95 174.61,34.438 174.61,35.04 z" fill="#1F383D"/>
      <path d="M151.11,8.79 C151.11,9.392 150.622,9.88 150.02,9.88 C149.418,9.88 148.93,9.392 148.93,8.79 C148.93,8.188 149.418,7.7 150.02,7.7 C150.622,7.7 151.11,8.188 151.11,8.79 z" fill="#1F383D"/>
      <path d="M148.86,40.38 C148.86,40.982 148.372,41.47 147.77,41.47 C147.168,41.47 146.68,40.982 146.68,40.38 C146.68,39.778 147.168,39.29 147.77,39.29 C148.372,39.29 148.86,39.778 148.86,40.38 z" fill="#1F383D"/>
      <path d="M103.11,36.13 C103.11,36.732 102.622,37.22 102.02,37.22 C101.418,37.22 100.93,36.732 100.93,36.13 C100.93,35.528 101.418,35.04 102.02,35.04 C102.622,35.04 103.11,35.528 103.11,36.13 z" fill="#1F383D"/>
      <path d="M84.74,49.67 C84.74,50.554 84.024,51.27 83.14,51.27 C82.256,51.27 81.54,50.554 81.54,49.67 C81.54,48.786 82.256,48.07 83.14,48.07 C84.024,48.07 84.74,48.786 84.74,49.67 z" fill="#1F383D"/>
      <path d="M86.67,41.29 C86.67,41.649 86.379,41.94 86.02,41.94 C85.661,41.94 85.37,41.649 85.37,41.29 C85.37,40.931 85.661,40.64 86.02,40.64 C86.379,40.64 86.67,40.931 86.67,41.29 z" fill="#1F383D"/>
      <path d="M112.92,54.04 C112.92,54.399 112.629,54.69 112.27,54.69 C111.911,54.69 111.62,54.399 111.62,54.04 C111.62,53.681 111.911,53.39 112.27,53.39 C112.629,53.39 112.92,53.681 112.92,54.04 z" fill="#1F383D"/>
      <path d="M45.51,53.54 C45.51,53.811 45.291,54.03 45.02,54.03 C44.749,54.03 44.53,53.811 44.53,53.54 C44.53,53.269 44.749,53.05 45.02,53.05 C45.291,53.05 45.51,53.269 45.51,53.54 z" fill="#1F383D"/>
      <path d="M133.77,54.04 C133.77,54.642 133.282,55.13 132.68,55.13 C132.078,55.13 131.59,54.642 131.59,54.04 C131.59,53.438 132.078,52.95 132.68,52.95 C133.282,52.95 133.77,53.438 133.77,54.04 z" fill="#1F383D"/>
      <path d="M112.37,54.11 L112.26,54.09 L83.13,49.72 L45.02,53.59 L45.01,53.49 L83.14,49.62 L112.17,53.98 L101.46,36.54 L101.55,36.48 L112.37,54.11 z" fill="#1F383D"/>
      <path d="M83.19,49.68 L83.1,49.65 L85.98,41.25 L86,41.24 L102.01,36.08 L102.02,36.08 L147.93,39.99 L173.51,34.99 L173.53,35.09 L147.94,40.09 L147.93,40.09 L102.02,36.18 L86.06,41.33 L83.19,49.68 z" fill="#1F383D"/>
      <path d="M132.7,54.11 L132.65,54.11 L101.92,36.11 L102,36.11 L150.12,8.7 L150.12,8.83 z M102.12,36.11 L132.65,53.95 L149.92,8.89 z" fill="#1F383D"/>
      <path d="M173.53,35.13 L173.48,35.04 L149.9,8.74 L150.02,8.74 L184.35,10.04 L184.35,10.11 z M150.14,8.84 L173.51,34.94 L184.19,10.04 z" fill="#1F383D"/>
    </g>
  </g>
</svg>
