<?xml version="1.0" encoding="UTF-8"?>
<!DOCTYPE svg PUBLIC "-//W3C//DTD SVG 1.1//EN" "http://www.w3.org/Graphics/SVG/1.1/DTD/svg11.dtd">
<svg version="1.1" xmlns="http://www.w3.org/2000/svg" xmlns:xlink="http://www.w3.org/1999/xlink" x="0" y="0" width="194.49" height="58.07" viewBox="0, 0, 194.49, 58.07">
  <g id="Layer_1">
    <g>
      <g>
        <path d="M188.88,51.28 L187.34,50.89 C186.85,50.78 186.25,50.59 185.57,50.38 C184.89,50.17 184.13,49.89 183.31,49.57 C182.89,49.43 182.5,49.18 182.06,48.98 C181.613,48.773 181.185,48.529 180.78,48.25 L180.13,47.83 L179.52,47.32 C179.32,47.14 179.1,46.99 178.91,46.79 L178.36,46.17 C177.985,45.745 177.65,45.287 177.36,44.8 L176.9,44.12 C176.734,43.923 176.55,43.742 176.35,43.58 C175.421,42.959 174.345,42.593 173.23,42.52 C172.1,42.37 170.94,42.34 169.8,42.18 C169.228,42.111 168.665,41.984 168.12,41.8 C167.57,41.61 167.12,41.3 166.6,41.13 C165.63,40.832 164.609,40.733 163.6,40.84 C162.677,40.926 161.769,41.135 160.9,41.46 C160.165,41.74 159.47,42.113 158.83,42.57 C158.54,42.76 158.31,43 158.07,43.19 L157.51,43.81 C157.269,44.121 157.062,44.456 156.89,44.81 L156.71,45.18 L156.89,44.8 C157.055,44.447 157.256,44.112 157.49,43.8 L158.04,43.17 C158.27,42.97 158.5,42.73 158.79,42.53 C159.428,42.056 160.123,41.667 160.86,41.37 C161.735,41.02 162.653,40.788 163.59,40.68 C164.645,40.541 165.718,40.623 166.74,40.92 C167.27,41.09 167.74,41.39 168.26,41.55 C168.787,41.718 169.33,41.832 169.88,41.89 C171,42.02 172.16,42.03 173.32,42.16 C174.512,42.218 175.668,42.59 176.67,43.24 C176.914,43.427 177.139,43.638 177.34,43.87 L177.83,44.57 C178.122,45.027 178.457,45.456 178.83,45.85 L179.36,46.42 C179.54,46.61 179.76,46.75 179.95,46.91 L180.54,47.38 L181.17,47.76 C181.563,48.022 181.978,48.25 182.41,48.44 C182.83,48.62 183.21,48.85 183.62,48.98 C184.42,49.27 185.15,49.55 185.83,49.72 C186.51,49.89 187.07,50.08 187.57,50.19 L189.12,50.55 z" fill="#FFFFFF"/>
        <path d="M195.11,32.48 L195.23,33.05 L195.38,33.74 C195.423,34.072 195.44,34.406 195.43,34.74 L195.43,35.31 L195.34,35.93 L195.24,36.6 L195.03,37.3 C194.709,38.387 194.148,39.388 193.39,40.23 C193.179,40.474 192.941,40.692 192.68,40.88 L192.58,40.96 L192.58,40.96 L192.58,40.96 L192.58,40.96 C192.518,41.011 192.461,41.067 192.41,41.13 C192.41,41.19 192.41,41.24 192.35,41.3 L192.35,41.51 C192.555,42.149 192.802,42.774 193.09,43.38 C193.37,44.074 193.45,44.833 193.32,45.57 C193.15,46.319 192.784,47.009 192.26,47.57 L189.07,51.07 C187.99,52.26 186.88,53.47 185.66,54.58 C185.039,55.144 184.369,55.652 183.66,56.1 C182.964,56.564 182.17,56.862 181.34,56.97 C179.802,57.242 178.302,57.695 176.87,58.32 C175.53,58.905 174.261,59.644 173.09,60.52 C172.05,61.318 171.11,62.238 170.29,63.26 C169.923,63.709 169.589,64.183 169.29,64.68 C168.989,65.112 168.721,65.567 168.49,66.04 C168.103,66.8 167.769,67.585 167.49,68.39 C167.25,69.06 167.13,69.61 167.01,69.98 L166.85,70.54 L167,69.97 C167.1,69.6 167.21,69.05 167.43,68.37 C167.708,67.551 168.042,66.753 168.43,65.98 C168.647,65.494 168.901,65.026 169.19,64.58 C169.485,64.071 169.819,63.586 170.19,63.13 C171.011,62.084 171.954,61.141 173,60.32 C174.182,59.419 175.463,58.657 176.82,58.05 C178.272,57.399 179.796,56.922 181.36,56.63 C182.925,56.282 184.346,55.462 185.43,54.28 C186.64,53.2 187.75,52 188.85,50.83 L192.06,47.37 C192.558,46.838 192.904,46.182 193.06,45.47 C193.178,44.798 193.109,44.106 192.86,43.47 C192.57,42.842 192.326,42.194 192.13,41.53 L192.13,41.25 C192.161,41.153 192.201,41.059 192.25,40.97 C192.304,40.908 192.365,40.851 192.43,40.8 L192.54,40.71 L192.63,40.64 C192.88,40.464 193.108,40.259 193.31,40.03 C194.054,39.213 194.62,38.249 194.97,37.2 L195.2,36.52 L195.32,35.86 L195.43,35.25 L195.43,34.69 C195.454,34.374 195.454,34.056 195.43,33.74 L195.3,33.05 z" fill="#FFFFFF"/>
        <path d="M202.87,54.1 L202.52,54.3 C202.199,54.496 201.865,54.669 201.52,54.82 C200.979,55.062 200.421,55.262 199.85,55.42 C199.107,55.633 198.342,55.757 197.57,55.79 C197.15,55.79 196.7,55.79 196.25,55.79 C195.778,55.743 195.31,55.663 194.85,55.55 C193.854,55.31 192.905,54.908 192.04,54.36 C191.588,54.06 191.16,53.726 190.76,53.36 L190.16,52.8 L189.62,52.16 C188.902,51.289 188.291,50.336 187.8,49.32 C187.315,48.305 186.917,47.252 186.61,46.17 C186.321,45.123 186.104,44.057 185.96,42.98 C185.84,41.98 185.75,40.91 185.72,39.98 C185.69,39.05 185.65,38.1 185.6,37.27 C185.573,36.511 185.449,35.758 185.23,35.03 C185.135,34.73 184.993,34.446 184.81,34.19 C184.638,33.985 184.444,33.801 184.23,33.64 L183.64,33.36 C183.46,33.31 183.3,33.29 183.17,33.26 L182.78,33.18 L183.18,33.25 L183.66,33.34 L184.26,33.61 C184.483,33.766 184.688,33.947 184.87,34.15 C185.066,34.408 185.222,34.695 185.33,35 C185.587,35.731 185.735,36.496 185.77,37.27 C185.84,38.11 185.87,39.02 185.92,39.98 C185.97,40.94 186.06,41.98 186.2,42.98 C186.355,44.044 186.582,45.097 186.88,46.13 C187.194,47.191 187.595,48.225 188.08,49.22 C188.55,50.22 189.137,51.16 189.83,52.02 L190.35,52.65 L190.93,53.21 C191.314,53.574 191.725,53.909 192.16,54.21 C192.999,54.754 193.921,55.156 194.89,55.4 C195.34,55.516 195.798,55.599 196.26,55.65 C196.71,55.65 197.14,55.71 197.56,55.65 C198.322,55.623 199.079,55.519 199.82,55.34 C200.144,55.263 200.461,55.163 200.77,55.04 C201.029,54.962 201.282,54.868 201.53,54.76 C201.874,54.622 202.208,54.462 202.53,54.28 z" fill="#FFFFFF"/>
        <path d="M119,62.87 L119.84,62.78 C120.627,62.68 121.406,62.523 122.17,62.31 C123.356,61.982 124.521,61.585 125.66,61.12 C126.98,60.59 128.45,59.93 130.07,59.24 C130.88,58.89 131.73,58.54 132.63,58.24 C133.581,57.841 134.599,57.627 135.63,57.61 C137.716,57.714 139.808,57.6 141.87,57.27 C144.071,57.023 146.202,56.344 148.14,55.27 C148.38,55.09 148.52,54.97 148.84,54.75 C148.9,54.705 148.964,54.665 149.03,54.63 L149.32,54.52 C149.496,54.472 149.677,54.445 149.86,54.44 C150.5,54.489 151.123,54.67 151.69,54.97 C152.725,55.524 153.727,56.138 154.69,56.81 C156.521,58.185 158.542,59.287 160.69,60.08 C161.717,60.41 162.823,60.41 163.85,60.08 C164.344,59.907 164.804,59.65 165.21,59.32 L166.4,58.2 C168.007,56.765 169.838,55.603 171.82,54.76 C173.567,53.995 175.368,53.363 177.21,52.87 C179.962,52.159 182.758,51.635 185.58,51.3 C187.58,51.04 188.78,50.93 188.78,50.93 C188.78,50.93 187.62,51.09 185.6,51.44 C182.81,51.904 180.048,52.528 177.33,53.31 C175.525,53.843 173.764,54.511 172.06,55.31 C170.17,56.177 168.424,57.327 166.88,58.72 L165.66,59.88 C165.192,60.265 164.661,60.566 164.09,60.77 C162.922,61.144 161.668,61.144 160.5,60.77 C158.261,59.978 156.152,58.859 154.24,57.45 C153.297,56.789 152.315,56.185 151.3,55.64 C150.835,55.389 150.325,55.233 149.8,55.18 C149.694,55.17 149.586,55.17 149.48,55.18 L149.36,55.18 C149.3,55.211 149.243,55.248 149.19,55.29 C149.03,55.39 148.72,55.64 148.49,55.8 C146.452,56.898 144.215,57.578 141.91,57.8 C139.793,58.123 137.645,58.2 135.51,58.03 C134.569,58.038 133.637,58.217 132.76,58.56 C131.87,58.86 131.02,59.2 130.21,59.56 C128.58,60.22 127.08,60.82 125.73,61.29 C124.565,61.71 123.376,62.06 122.17,62.34 C121.394,62.524 120.605,62.651 119.81,62.72 z" fill="#FFFFFF"/>
        <path d="M181.29,68.67 L181.29,68.14 L181.29,67.5 L181.43,66.64 C181.594,65.872 181.842,65.124 182.17,64.41 C182.595,63.488 183.093,62.602 183.66,61.76 C185.126,59.739 186.402,57.587 187.47,55.33 C188.036,54.066 188.375,52.712 188.47,51.33 C188.51,50.611 188.51,49.889 188.47,49.17 C188.47,48.45 188.4,47.73 188.33,47 C188.21,45.55 187.93,44.11 187.82,42.62 C187.771,41.863 187.845,41.103 188.04,40.37 C188.251,39.662 188.564,38.988 188.97,38.37 C189.72,37.15 190.76,36.24 191.38,35.21 C192.028,34.244 192.499,33.171 192.77,32.04 C193.168,30.324 193.064,28.529 192.47,26.87 C192.31,26.402 192.035,25.983 191.67,25.65 C191.539,25.531 191.367,25.466 191.19,25.47 C191.372,25.448 191.555,25.498 191.7,25.61 C192.107,25.918 192.425,26.329 192.62,26.8 C193.35,28.473 193.559,30.327 193.22,32.12 C193.01,33.325 192.586,34.483 191.97,35.54 C191.31,36.71 190.34,37.63 189.64,38.77 C189.28,39.334 189.004,39.947 188.82,40.59 C188.656,41.243 188.599,41.919 188.65,42.59 C188.76,43.99 189.07,45.45 189.21,46.94 Q189.31,48.05 189.33,49.18 C189.351,49.921 189.331,50.662 189.27,51.4 C189.167,52.858 188.808,54.286 188.21,55.62 C187.057,57.898 185.67,60.05 184.07,62.04 C183.488,62.849 182.957,63.694 182.48,64.57 C182.116,65.246 181.828,65.961 181.62,66.7 L181.42,67.53 L181.35,68.16 z" fill="#FFFFFF"/>
        <path d="M191.338,50.682 C191.489,52.038 190.511,53.259 189.156,53.409 C187.8,53.56 186.579,52.582 186.428,51.227 C186.278,49.871 187.255,48.65 188.611,48.499 C189.967,48.349 191.188,49.326 191.338,50.682 z" fill="#FFFFFF"/>
        <path d="M172.873,55.248 C172.974,56.148 172.325,56.959 171.425,57.059 C170.525,57.16 169.714,56.511 169.614,55.611 C169.513,54.711 170.162,53.9 171.062,53.8 C171.962,53.699 172.773,54.348 172.873,55.248 z" fill="#FFFFFF"/>
        <path d="M184.294,63.651 C184.394,64.551 183.746,65.362 182.845,65.463 C181.945,65.563 181.134,64.915 181.034,64.014 C180.933,63.114 181.582,62.303 182.482,62.203 C183.382,62.103 184.193,62.751 184.294,63.651 z" fill="#FFFFFF"/>
        <path d="M169.076,57.357 C169.156,58.076 168.638,58.724 167.919,58.804 C167.2,58.884 166.552,58.366 166.472,57.647 C166.392,56.928 166.91,56.28 167.629,56.2 C168.348,56.12 168.996,56.638 169.076,57.357 z" fill="#FFFFFF"/>
        <path d="M167.124,40.706 C167.204,41.425 166.686,42.073 165.967,42.153 C165.248,42.233 164.6,41.715 164.52,40.996 C164.44,40.277 164.958,39.629 165.677,39.549 C166.396,39.469 167.044,39.987 167.124,40.706 z" fill="#FFFFFF"/>
        <path d="M148.843,43.314 C148.923,44.033 148.405,44.68 147.686,44.761 C146.967,44.841 146.319,44.323 146.239,43.604 C146.159,42.885 146.677,42.237 147.396,42.157 C148.115,42.077 148.763,42.595 148.843,43.314 z" fill="#FFFFFF"/>
        <path d="M186.644,59.577 C186.724,60.296 186.206,60.944 185.487,61.024 C184.768,61.104 184.12,60.586 184.04,59.867 C183.96,59.148 184.478,58.5 185.197,58.42 C185.916,58.34 186.564,58.858 186.644,59.577 z" fill="#FFFFFF"/>
        <path d="M175.054,59.759 C175.134,60.478 174.616,61.126 173.897,61.206 C173.178,61.286 172.53,60.768 172.45,60.049 C172.37,59.33 172.888,58.682 173.607,58.602 C174.326,58.522 174.974,59.04 175.054,59.759 z" fill="#FFFFFF"/>
        <path d="M203.791,53.922 C203.872,54.641 203.354,55.289 202.635,55.369 C201.916,55.449 201.268,54.931 201.188,54.212 C201.107,53.493 201.625,52.846 202.344,52.765 C203.063,52.685 203.711,53.203 203.791,53.922 z" fill="#FFFFFF"/>
        <path d="M192.411,35.962 C192.491,36.681 191.973,37.329 191.254,37.409 C190.535,37.489 189.887,36.972 189.807,36.253 C189.727,35.533 190.245,34.886 190.964,34.805 C191.683,34.725 192.331,35.243 192.411,35.962 z" fill="#FFFFFF"/>
        <path d="M184.731,33.369 C184.811,34.088 184.293,34.736 183.574,34.816 C182.855,34.896 182.207,34.378 182.127,33.659 C182.047,32.94 182.565,32.292 183.284,32.212 C184.003,32.132 184.651,32.65 184.731,33.369 z" fill="#FFFFFF"/>
        <path d="M136.458,57.746 C136.538,58.465 136.02,59.113 135.301,59.193 C134.582,59.273 133.934,58.755 133.854,58.036 C133.774,57.317 134.292,56.669 135.011,56.589 C135.73,56.509 136.378,57.027 136.458,57.746 z" fill="#FFFFFF"/>
        <path d="M135.447,47.571 C135.528,48.29 135.01,48.938 134.291,49.018 C133.572,49.098 132.924,48.58 132.844,47.861 C132.763,47.142 133.281,46.494 134,46.414 C134.719,46.334 135.367,46.852 135.447,47.571 z" fill="#FFFFFF"/>
        <path d="M143.925,72.192 C144.005,72.911 143.487,73.559 142.768,73.639 C142.049,73.719 141.401,73.201 141.321,72.482 C141.241,71.763 141.759,71.115 142.478,71.035 C143.197,70.955 143.845,71.473 143.925,72.192 z" fill="#FFFFFF"/>
        <path d="M141.478,75.331 C141.527,75.77 141.21,76.166 140.771,76.215 C140.332,76.264 139.936,75.947 139.887,75.508 C139.839,75.069 140.155,74.674 140.594,74.625 C141.033,74.576 141.429,74.892 141.478,75.331 z" fill="#FFFFFF"/>
        <path d="M125.728,61.395 C125.796,61.998 125.361,62.542 124.757,62.61 C124.153,62.677 123.609,62.242 123.542,61.638 C123.474,61.034 123.909,60.49 124.513,60.423 C125.117,60.356 125.661,60.791 125.728,61.395 z" fill="#FFFFFF"/>
        <path d="M140.568,57.703 C140.635,58.307 140.201,58.851 139.597,58.918 C138.993,58.986 138.449,58.551 138.382,57.947 C138.314,57.343 138.749,56.799 139.353,56.732 C139.957,56.665 140.501,57.1 140.568,57.703 z" fill="#FFFFFF"/>
        <path d="M145.617,52.466 C145.684,53.07 145.249,53.614 144.645,53.681 C144.041,53.749 143.497,53.314 143.43,52.71 C143.363,52.106 143.798,51.562 144.402,51.495 C145.005,51.427 145.549,51.862 145.617,52.466 z" fill="#FFFFFF"/>
        <path d="M138.555,49.079 C138.622,49.683 138.187,50.227 137.583,50.294 C136.979,50.361 136.435,49.927 136.368,49.323 C136.301,48.719 136.736,48.175 137.339,48.108 C137.943,48.04 138.487,48.475 138.555,49.079 z" fill="#FFFFFF"/>
        <path d="M120.382,62.749 C120.447,63.336 120.024,63.865 119.437,63.931 C118.85,63.996 118.32,63.573 118.255,62.986 C118.19,62.399 118.613,61.869 119.2,61.804 C119.787,61.738 120.316,62.161 120.382,62.749 z" fill="#FFFFFF"/>
        <path d="M150.861,54.641 C150.957,55.503 150.337,56.279 149.475,56.375 C148.613,56.471 147.837,55.85 147.741,54.989 C147.645,54.127 148.265,53.35 149.127,53.254 C149.989,53.158 150.765,53.779 150.861,54.641 z" fill="#FFFFFF"/>
        <path d="M192.845,25.5 C192.941,26.362 192.32,27.138 191.459,27.234 C190.597,27.33 189.82,26.709 189.724,25.848 C189.628,24.986 190.249,24.209 191.111,24.113 C191.972,24.017 192.749,24.638 192.845,25.5 z" fill="#FFFFFF"/>
        <path d="M183.795,51.908 C183.94,53.209 183.003,54.381 181.702,54.526 C180.401,54.671 179.229,53.734 179.084,52.433 C178.939,51.132 179.876,49.96 181.177,49.815 C182.478,49.67 183.65,50.607 183.795,51.908 z" fill="#FFFFFF"/>
        <path d="M195.023,44.809 C195.135,45.814 194.411,46.719 193.407,46.831 C192.402,46.943 191.497,46.219 191.385,45.215 C191.273,44.21 191.997,43.305 193.001,43.193 C194.006,43.081 194.911,43.805 195.023,44.809 z" fill="#FFFFFF"/>
        <path d="M159.759,59.692 C159.831,60.334 159.368,60.913 158.726,60.984 C158.084,61.056 157.505,60.594 157.433,59.952 C157.362,59.31 157.824,58.731 158.466,58.659 C159.108,58.587 159.687,59.05 159.759,59.692 z" fill="#FFFFFF"/>
        <path d="M144.514,68.442 C144.586,69.084 144.124,69.663 143.482,69.735 C142.839,69.807 142.26,69.345 142.189,68.703 C142.117,68.061 142.579,67.482 143.221,67.41 C143.863,67.338 144.442,67.8 144.514,68.442 z" fill="#FFFFFF"/>
        <path d="M166.323,60.181 C166.477,61.564 165.481,62.81 164.098,62.964 C162.714,63.118 161.468,62.122 161.314,60.738 C161.16,59.355 162.157,58.109 163.54,57.955 C164.923,57.801 166.169,58.798 166.323,60.181 z" fill="#FFFFFF"/>
        <path d="M151.363,61.885 C151.517,63.268 150.521,64.514 149.137,64.668 C147.754,64.822 146.508,63.826 146.354,62.442 C146.2,61.059 147.197,59.813 148.58,59.659 C149.963,59.505 151.209,60.502 151.363,61.885 z" fill="#FFFFFF"/>
        <path d="M179.112,43.348 C179.266,44.732 178.27,45.978 176.887,46.132 C175.503,46.286 174.257,45.289 174.103,43.906 C173.949,42.523 174.946,41.277 176.329,41.123 C177.712,40.969 178.958,41.965 179.112,43.348 z" fill="#FFFFFF"/>
        <path d="M183.845,56.432 C183.944,57.327 183.299,58.133 182.404,58.232 C181.509,58.331 180.704,57.687 180.604,56.792 C180.505,55.897 181.15,55.091 182.045,54.992 C182.939,54.893 183.745,55.538 183.845,56.432 z" fill="#FFFFFF"/>
        <path d="M171.601,63.656 C171.732,64.842 170.878,65.91 169.692,66.041 C168.506,66.173 167.438,65.318 167.307,64.133 C167.175,62.947 168.03,61.879 169.216,61.748 C170.401,61.616 171.469,62.471 171.601,63.656 z" fill="#FFFFFF"/>
        <path d="M168.627,69.599 C168.726,70.494 168.081,71.3 167.187,71.399 C166.292,71.498 165.486,70.853 165.387,69.959 C165.288,69.064 165.933,68.258 166.827,68.159 C167.722,68.06 168.528,68.704 168.627,69.599 z" fill="#FFFFFF"/>
        <path d="M196.041,55.105 C196.162,56.187 195.383,57.161 194.301,57.281 C193.22,57.401 192.246,56.622 192.126,55.541 C192.005,54.46 192.784,53.486 193.866,53.365 C194.947,53.245 195.921,54.024 196.041,55.105 z" fill="#FFFFFF"/>
        <path d="M202.659,46.824 C202.799,48.081 201.894,49.213 200.637,49.353 C199.38,49.493 198.247,48.587 198.108,47.33 C197.968,46.073 198.873,44.941 200.13,44.801 C201.387,44.661 202.52,45.567 202.659,46.824 z" fill="#FFFFFF"/>
        <path d="M196.974,32.68 C197.085,33.679 196.365,34.579 195.366,34.69 C194.367,34.801 193.467,34.082 193.356,33.083 C193.245,32.084 193.965,31.184 194.964,31.073 C195.963,30.961 196.863,31.681 196.974,32.68 z" fill="#FFFFFF"/>
        <path d="M146.572,56.647 C146.717,57.953 145.776,59.13 144.47,59.276 C143.163,59.421 141.987,58.48 141.841,57.173 C141.696,55.867 142.637,54.69 143.943,54.545 C145.25,54.399 146.427,55.341 146.572,56.647 z" fill="#FFFFFF"/>
        <path d="M177.15,53.526 C177.261,54.52 176.545,55.415 175.552,55.526 C174.558,55.636 173.663,54.921 173.552,53.927 C173.442,52.934 174.157,52.039 175.151,51.928 C176.144,51.817 177.039,52.533 177.15,53.526 z" fill="#FFFFFF"/>
        <path d="M196.533,49.107 C196.644,50.1 195.928,50.995 194.935,51.106 C193.941,51.217 193.046,50.501 192.936,49.508 C192.825,48.514 193.54,47.619 194.534,47.508 C195.527,47.397 196.423,48.113 196.533,49.107 z" fill="#FFFFFF"/>
        <path d="M172.3,42.105 C172.384,42.857 171.843,43.535 171.091,43.619 C170.339,43.702 169.661,43.161 169.577,42.409 C169.493,41.657 170.035,40.979 170.787,40.895 C171.539,40.812 172.217,41.353 172.3,42.105 z" fill="#FFFFFF"/>
        <path d="M181.686,47.562 C181.766,48.275 181.252,48.918 180.538,48.998 C179.825,49.077 179.182,48.563 179.102,47.85 C179.023,47.136 179.537,46.493 180.25,46.414 C180.964,46.334 181.607,46.848 181.686,47.562 z" fill="#FFFFFF"/>
        <path d="M196.112,37.853 C196.191,38.566 195.677,39.209 194.964,39.289 C194.25,39.368 193.607,38.854 193.528,38.141 C193.448,37.427 193.962,36.784 194.676,36.705 C195.389,36.625 196.032,37.139 196.112,37.853 z" fill="#FFFFFF"/>
        <path d="M200.032,55.49 C200.111,56.204 199.597,56.846 198.884,56.926 C198.17,57.006 197.527,56.492 197.448,55.778 C197.368,55.064 197.882,54.422 198.596,54.342 C199.309,54.262 199.952,54.776 200.032,55.49 z" fill="#FFFFFF"/>
        <path d="M193.388,41.095 C193.467,41.809 192.953,42.452 192.24,42.531 C191.526,42.611 190.883,42.097 190.804,41.383 C190.724,40.67 191.238,40.027 191.952,39.947 C192.665,39.868 193.308,40.382 193.388,41.095 z" fill="#FFFFFF"/>
        <path d="M179.365,57.627 C179.445,58.34 178.931,58.983 178.217,59.063 C177.503,59.142 176.861,58.628 176.781,57.915 C176.701,57.201 177.215,56.558 177.929,56.479 C178.643,56.399 179.285,56.913 179.365,57.627 z" fill="#FFFFFF"/>
        <path d="M189.825,45.275 C189.904,45.988 189.39,46.631 188.677,46.711 C187.963,46.79 187.32,46.276 187.241,45.563 C187.161,44.849 187.675,44.206 188.389,44.127 C189.102,44.047 189.745,44.561 189.825,45.275 z" fill="#FFFFFF"/>
        <path d="M187.314,42.986 C187.394,43.7 186.88,44.342 186.166,44.422 C185.453,44.502 184.81,43.988 184.73,43.274 C184.651,42.56 185.165,41.918 185.878,41.838 C186.592,41.759 187.235,42.272 187.314,42.986 z" fill="#FFFFFF"/>
        <path d="M207.163,45.243 C207.242,45.957 206.728,46.6 206.015,46.679 C205.301,46.759 204.658,46.245 204.579,45.531 C204.499,44.818 205.013,44.175 205.727,44.095 C206.44,44.016 207.083,44.53 207.163,45.243 z" fill="#FFFFFF"/>
        <path d="M194.338,30.655 C194.417,31.369 193.903,32.012 193.19,32.091 C192.476,32.171 191.833,31.657 191.754,30.943 C191.674,30.23 192.188,29.587 192.902,29.507 C193.615,29.428 194.258,29.942 194.338,30.655 z" fill="#FFFFFF"/>
        <path d="M163.314,41.224 C163.431,42.272 162.675,43.217 161.627,43.334 C160.579,43.451 159.634,42.696 159.517,41.647 C159.4,40.599 160.155,39.654 161.204,39.537 C162.252,39.42 163.197,40.176 163.314,41.224 z" fill="#FFFFFF"/>
        <path d="M157.677,38.595 C157.794,39.643 157.039,40.588 155.99,40.705 C154.942,40.822 153.997,40.066 153.881,39.018 C153.764,37.97 154.519,37.025 155.567,36.908 C156.616,36.791 157.56,37.547 157.677,38.595 z" fill="#FFFFFF"/>
        <path d="M158.31,44.598 C158.392,45.333 157.862,45.996 157.127,46.078 C156.391,46.16 155.728,45.63 155.646,44.894 C155.564,44.159 156.094,43.496 156.83,43.414 C157.565,43.332 158.228,43.862 158.31,44.598 z" fill="#FFFFFF"/>
        <path d="M150.424,39.842 C150.506,40.577 149.976,41.24 149.24,41.322 C148.505,41.404 147.842,40.874 147.76,40.139 C147.678,39.403 148.208,38.741 148.943,38.659 C149.679,38.577 150.342,39.106 150.424,39.842 z" fill="#FFFFFF"/>
        <path d="M142.087,51.801 C142.169,52.537 141.64,53.199 140.904,53.281 C140.169,53.363 139.506,52.834 139.424,52.098 C139.342,51.362 139.872,50.7 140.607,50.618 C141.343,50.536 142.005,51.066 142.087,51.801 z" fill="#FFFFFF"/>
        <path d="M154.992,64.186 C155.074,64.921 154.544,65.584 153.808,65.666 C153.073,65.748 152.41,65.218 152.328,64.483 C152.246,63.747 152.776,63.084 153.511,63.002 C154.247,62.921 154.91,63.45 154.992,64.186 z" fill="#FFFFFF"/>
        <path d="M154.653,68.478 C154.696,68.857 154.423,69.198 154.044,69.241 C153.665,69.283 153.324,69.01 153.282,68.631 C153.24,68.253 153.513,67.911 153.891,67.869 C154.27,67.827 154.611,68.1 154.653,68.478 z" fill="#FFFFFF"/>
        <path d="M189.38,56.195 C189.491,57.189 188.776,58.084 187.782,58.194 C186.789,58.305 185.893,57.59 185.783,56.596 C185.672,55.603 186.388,54.707 187.381,54.597 C188.375,54.486 189.27,55.202 189.38,56.195 z" fill="#FFFFFF"/>
        <path d="M190.296,39.934 C190.407,40.928 189.691,41.823 188.698,41.934 C187.704,42.044 186.809,41.329 186.698,40.335 C186.587,39.342 187.303,38.447 188.297,38.336 C189.29,38.225 190.185,38.941 190.296,39.934 z" fill="#FFFFFF"/>
        <path d="M187.459,36.211 C187.57,37.204 186.854,38.099 185.861,38.21 C184.867,38.321 183.972,37.605 183.861,36.612 C183.751,35.618 184.466,34.723 185.46,34.612 C186.453,34.502 187.348,35.217 187.459,36.211 z" fill="#FFFFFF"/>
        <path d="M131.587,59.367 C131.698,60.361 130.982,61.256 129.989,61.367 C128.995,61.477 128.1,60.762 127.99,59.768 C127.879,58.775 128.594,57.88 129.588,57.769 C130.581,57.658 131.477,58.374 131.587,59.367 z" fill="#FFFFFF"/>
        <path d="M155.698,56.545 C155.808,57.538 155.093,58.434 154.099,58.544 C153.106,58.655 152.211,57.939 152.1,56.946 C151.989,55.952 152.705,55.057 153.698,54.947 C154.692,54.836 155.587,55.551 155.698,56.545 z" fill="#FFFFFF"/>
        <path d="M148.894,47.822 C149.004,48.815 148.289,49.71 147.295,49.821 C146.302,49.932 145.407,49.216 145.296,48.223 C145.185,47.229 145.901,46.334 146.894,46.224 C147.888,46.113 148.783,46.828 148.894,47.822 z" fill="#FFFFFF"/>
        <path d="M144.359,62.872 C144.469,63.866 143.754,64.761 142.76,64.872 C141.767,64.982 140.872,64.267 140.761,63.273 C140.65,62.28 141.366,61.385 142.359,61.274 C143.353,61.163 144.248,61.879 144.359,62.872 z" fill="#FFFFFF"/>
      </g>
      <path d="M140.63,75.57 L141.79,73.38 C142.177,72.662 142.511,71.917 142.79,71.15 C142.927,70.779 143.021,70.393 143.07,70 C143.126,69.615 143.126,69.225 143.07,68.84 C142.97,68.45 142.85,68.15 142.73,67.69 C142.592,67.294 142.494,66.886 142.44,66.47 C142.374,66.043 142.334,65.612 142.32,65.18 L142.32,63.92 C142.38,63.09 142.41,62.25 142.55,61.42 C142.62,61.01 142.65,60.59 142.75,60.18 L143.01,58.95 L143.38,57.73 C143.53,57.33 143.75,56.93 143.93,56.54 L144.24,55.88 L144.62,56.57 C144.92,57.204 145.254,57.822 145.62,58.42 C145.797,58.723 145.994,59.014 146.21,59.29 C146.413,59.57 146.634,59.837 146.87,60.09 C147.101,60.346 147.352,60.583 147.62,60.8 C147.878,61.02 148.16,61.212 148.46,61.37 C148.748,61.539 149.053,61.676 149.37,61.78 C149.7,61.86 150.034,61.923 150.37,61.97 C150.748,62.043 151.117,62.157 151.47,62.31 C151.82,62.454 152.154,62.632 152.47,62.84 C152.789,63.039 153.084,63.274 153.35,63.54 C153.625,63.797 153.861,64.094 154.05,64.42 C154.243,64.73 154.388,65.067 154.48,65.42 C154.57,65.78 154.61,66.15 154.6,66.52 C154.581,66.886 154.517,67.249 154.41,67.6 C154.303,67.943 154.169,68.278 154.01,68.6 C154.132,68.275 154.229,67.94 154.3,67.6 C154.373,67.255 154.407,66.903 154.4,66.55 C154.381,66.21 154.317,65.873 154.21,65.55 C154.103,65.221 153.944,64.91 153.74,64.63 C153.547,64.346 153.318,64.087 153.06,63.86 C152.807,63.626 152.529,63.422 152.23,63.25 C151.643,62.899 150.995,62.661 150.32,62.55 C149.947,62.516 149.577,62.463 149.21,62.39 C148.837,62.292 148.477,62.148 148.14,61.96 C147.801,61.785 147.483,61.574 147.19,61.33 C146.894,61.099 146.616,60.845 146.36,60.57 C146.103,60.302 145.862,60.018 145.64,59.72 C145.407,59.431 145.193,59.127 145,58.81 C144.602,58.19 144.238,57.549 143.91,56.89 L144.59,56.89 C144.44,57.25 144.26,57.58 144.12,57.95 L143.77,59.16 L143.5,60.34 C143.4,60.73 143.36,61.14 143.29,61.54 C143.14,62.34 143.1,63.15 143.03,63.96 L143.03,65.17 C143.03,65.58 143.08,65.95 143.1,66.34 C143.13,66.743 143.204,67.142 143.32,67.53 C143.39,67.87 143.55,68.35 143.62,68.76 C143.666,69.193 143.649,69.631 143.57,70.06 C143.498,70.482 143.377,70.895 143.21,71.29 C142.868,72.05 142.467,72.783 142.01,73.48 Q141.32,74.54 140.63,75.57 z" fill="#FFFFFF"/>
      <path d="M130.54,46.58 C132.022,46.672 133.479,47.01 134.85,47.58 C135.537,47.872 136.205,48.206 136.85,48.58 C137.5,48.951 138.131,49.355 138.74,49.79 L139.63,50.48 C139.93,50.7 140.19,50.97 140.48,51.22 C140.765,51.464 141.035,51.724 141.29,52 C141.54,52.28 141.82,52.54 142.05,52.83 C142.535,53.403 142.986,54.004 143.4,54.63 C143.85,55.24 144.17,55.92 144.56,56.56 L143.86,56.68 C143.99,55.68 144.11,54.6 144.19,53.55 C144.25,53.02 144.27,52.5 144.37,51.96 C144.441,51.409 144.569,50.866 144.75,50.34 L145.15,49.56 L145.72,48.9 C146.125,48.611 146.51,48.294 146.87,47.95 C147.079,47.53 147.191,47.069 147.2,46.6 C147.2,46.09 147.2,45.6 147.2,45.04 C147.183,43.958 147.308,42.879 147.57,41.83 C147.856,40.73 148.578,39.795 149.57,39.24 C150.054,38.982 150.578,38.806 151.12,38.72 C151.648,38.629 152.184,38.589 152.72,38.6 C153.78,38.627 154.835,38.758 155.87,38.99 C154.829,38.857 153.779,38.807 152.73,38.84 C152.211,38.864 151.695,38.938 151.19,39.06 C150.696,39.174 150.221,39.359 149.78,39.61 C148.928,40.137 148.328,40.99 148.12,41.97 C147.92,42.98 147.842,44.011 147.89,45.04 C147.89,45.57 147.89,46.1 147.89,46.64 C147.881,47.229 147.734,47.808 147.46,48.33 C147.366,48.472 147.251,48.601 147.12,48.71 L146.79,48.97 C146.6,49.12 146.39,49.26 146.21,49.42 L145.77,50.04 L145.46,50.68 C145.305,51.155 145.198,51.644 145.14,52.14 C145.06,52.64 145.03,53.14 144.97,53.69 C144.87,54.74 144.74,55.8 144.59,56.85 L144.44,57.9 L143.89,56.97 C143.52,56.35 143.22,55.68 142.79,55.09 C142.399,54.478 141.971,53.891 141.51,53.33 C141.29,53.04 141.03,52.79 140.79,52.51 C140.556,52.232 140.306,51.968 140.04,51.72 C139.77,51.47 139.53,51.2 139.25,50.97 L138.41,50.27 C137.835,49.823 137.237,49.406 136.62,49.02 Q135.68,48.45 134.7,47.96 C134.051,47.643 133.383,47.365 132.7,47.13 C132.001,46.872 131.277,46.688 130.54,46.58 z" fill="#FFFFFF"/>
    </g>
    <g>
      <path d="M113.57,38.39 C113.554,37.431 114.118,36.556 114.998,36.175 C115.879,35.794 116.902,35.981 117.591,36.65 C118.279,37.318 118.496,38.335 118.142,39.227 C117.787,40.118 116.929,40.708 115.97,40.72 C114.667,40.731 113.597,39.693 113.57,38.39 z" fill="#FFFFFF"/>
      <path d="M104.61,20.83 C104.594,19.871 105.158,18.996 106.038,18.615 C106.919,18.234 107.942,18.421 108.631,19.09 C109.319,19.758 109.536,20.775 109.182,21.667 C108.827,22.558 107.969,23.148 107.01,23.16 C105.707,23.171 104.637,22.133 104.61,20.83 z" fill="#FFFFFF"/>
      <path d="M75.5,21.26 C75.484,20.301 76.048,19.426 76.928,19.045 C77.809,18.664 78.832,18.851 79.521,19.52 C80.209,20.188 80.426,21.205 80.072,22.097 C79.717,22.988 78.859,23.578 77.9,23.59 C76.597,23.601 75.527,22.563 75.5,21.26 z" fill="#FFFFFF"/>
      <path d="M78.24,28.637 C78.253,29.438 77.614,30.097 76.813,30.11 C76.013,30.123 75.353,29.484 75.341,28.683 C75.328,27.882 75.967,27.223 76.767,27.21 C77.568,27.198 78.227,27.836 78.24,28.637 z" fill="#FFFFFF"/>
      <path d="M74.201,34.321 C74.221,35.558 73.234,36.576 71.997,36.596 C70.76,36.616 69.741,35.629 69.722,34.392 C69.702,33.155 70.689,32.136 71.926,32.116 C73.163,32.097 74.182,33.084 74.201,34.321 z" fill="#FFFFFF"/>
      <path d="M75.748,31.324 C75.757,31.937 75.267,32.441 74.654,32.449 C74.041,32.458 73.537,31.968 73.528,31.355 C73.52,30.742 74.01,30.238 74.623,30.23 C75.236,30.221 75.74,30.711 75.748,31.324 z" fill="#FFFFFF"/>
      <path d="M92.832,21.656 C92.846,22.678 92.029,23.518 91.008,23.532 C89.986,23.546 89.146,22.73 89.132,21.708 C89.118,20.686 89.934,19.847 90.956,19.832 C91.978,19.818 92.817,20.635 92.832,21.656 z" fill="#FFFFFF"/>
      <path d="M106.72,26.622 C106.734,27.644 105.917,28.483 104.896,28.498 C103.874,28.512 103.034,27.695 103.02,26.674 C103.006,25.652 103.822,24.812 104.844,24.798 C105.866,24.784 106.705,25.6 106.72,26.622 z" fill="#FFFFFF"/>
      <path d="M103.555,34.915 C103.565,35.622 103,36.203 102.293,36.213 C101.586,36.223 101.005,35.658 100.995,34.951 C100.986,34.244 101.551,33.663 102.257,33.653 C102.964,33.643 103.545,34.208 103.555,34.915 z" fill="#FFFFFF"/>
      <path d="M106.004,34.113 C106.011,34.538 105.672,34.889 105.246,34.896 C104.821,34.903 104.471,34.564 104.464,34.139 C104.457,33.713 104.796,33.363 105.221,33.356 C105.646,33.349 105.997,33.688 106.004,34.113 z" fill="#FFFFFF"/>
      <path d="M114.235,24.217 C114.251,25.393 113.311,26.36 112.135,26.377 C110.959,26.393 109.992,25.453 109.975,24.277 C109.959,23.1 110.899,22.133 112.075,22.117 C113.252,22.101 114.219,23.041 114.235,24.217 z" fill="#FFFFFF"/>
      <path d="M105.712,15.337 C105.722,16.093 105.117,16.715 104.361,16.726 C103.604,16.736 102.982,16.132 102.972,15.375 C102.961,14.619 103.566,13.997 104.323,13.986 C105.079,13.976 105.701,14.58 105.712,15.337 z" fill="#FFFFFF"/>
      <path d="M98.442,7.52 C98.447,7.868 98.169,8.154 97.821,8.159 C97.473,8.164 97.187,7.886 97.182,7.538 C97.177,7.19 97.456,6.904 97.803,6.899 C98.151,6.894 98.437,7.172 98.442,7.52 z" fill="#FFFFFF"/>
      <path d="M103.349,10.1 C103.37,11.608 102.165,12.847 100.657,12.868 C99.15,12.889 97.911,11.684 97.889,10.177 C97.868,8.669 99.074,7.43 100.581,7.409 C102.089,7.388 103.328,8.593 103.349,10.1 z" fill="#FFFFFF"/>
      <path d="M124.231,36.896 C124.245,37.901 123.442,38.727 122.436,38.741 C121.431,38.755 120.605,37.952 120.591,36.947 C120.577,35.942 121.381,35.116 122.386,35.102 C123.391,35.088 124.217,35.891 124.231,36.896 z" fill="#FFFFFF"/>
      <path d="M130.927,42.668 C130.935,43.286 130.441,43.795 129.822,43.804 C129.204,43.812 128.696,43.318 128.687,42.7 C128.678,42.081 129.172,41.573 129.791,41.564 C130.409,41.555 130.918,42.049 130.927,42.668 z" fill="#FFFFFF"/>
      <path d="M128.247,39.816 C128.259,40.667 127.579,41.366 126.729,41.378 C125.878,41.39 125.179,40.71 125.167,39.86 C125.155,39.009 125.835,38.31 126.685,38.298 C127.535,38.286 128.235,38.966 128.247,39.816 z" fill="#FFFFFF"/>
      <path d="M129.85,43.04 C129.314,42.999 128.804,42.793 128.39,42.45 C127.988,42.095 127.635,41.688 127.34,41.24 C126.792,40.346 126.187,39.488 125.53,38.67 C125.201,38.282 124.817,37.945 124.39,37.67 C123.966,37.421 123.497,37.258 123.01,37.19 C122.513,37.116 122.007,37.116 121.51,37.19 C121.009,37.258 120.516,37.379 120.04,37.55 C119.065,37.93 118.11,38.361 117.18,38.84 C116.912,38.967 116.63,39.061 116.34,39.12 L116.08,39.12 L115.77,39.12 C115.575,39.059 115.396,38.953 115.25,38.81 L114.09,37.73 L109.47,33.39 L109.24,33.17 L109.36,32.87 C109.83,31.63 110.26,30.37 110.67,29.11 C111.1,27.874 111.435,26.607 111.67,25.32 C111.707,25.035 111.707,24.745 111.67,24.46 C111.674,24.423 111.674,24.387 111.67,24.35 C111.666,24.313 111.67,24.35 111.67,24.35 C111.67,24.35 111.67,24.35 111.67,24.35 C111.67,24.35 111.4,24.17 111.27,24.1 C110.72,23.78 110.11,23.48 109.52,23.18 C108.93,22.88 108.33,22.56 107.74,22.18 C107.438,21.999 107.147,21.798 106.87,21.58 C106.717,21.461 106.577,21.327 106.45,21.18 C106.37,21.097 106.302,21.003 106.25,20.9 C106.197,20.802 106.156,20.698 106.13,20.59 C105.809,19.312 105.387,18.062 104.87,16.85 C104.61,16.24 104.34,15.64 104.02,15.06 C103.7,14.48 103.38,13.9 103.02,13.34 C102.66,12.78 102.3,12.23 101.9,11.7 C101.5,11.17 101.09,10.7 100.64,10.16 C100.197,9.664 99.726,9.193 99.23,8.75 C98.76,8.27 98.23,7.89 97.71,7.45 C98.25,7.84 98.84,8.18 99.34,8.62 C99.868,9.038 100.372,9.485 100.85,9.96 C101.33,10.43 101.79,10.96 102.23,11.44 C102.669,11.954 103.08,12.491 103.46,13.05 C104.987,15.294 106.152,17.764 106.91,20.37 C107.211,20.846 107.646,21.221 108.16,21.45 C108.72,21.78 109.31,22.08 109.9,22.38 C110.49,22.68 111.09,22.97 111.71,23.31 C111.87,23.4 112.03,23.5 112.16,23.59 C112.297,23.679 112.408,23.803 112.48,23.95 C112.538,24.067 112.578,24.191 112.6,24.32 C112.653,24.698 112.653,25.082 112.6,25.46 C112.372,26.818 112.038,28.155 111.6,29.46 C111.19,30.75 110.72,32 110.23,33.26 L110.11,32.74 L114.68,37.14 L115.82,38.24 C115.858,38.287 115.905,38.325 115.96,38.35 L116.04,38.35 L116.18,38.35 C116.406,38.302 116.628,38.232 116.84,38.14 C117.818,37.687 118.819,37.286 119.84,36.94 C120.367,36.773 120.91,36.663 121.46,36.61 C122.014,36.554 122.573,36.577 123.12,36.68 C123.678,36.778 124.212,36.985 124.69,37.29 C125.15,37.602 125.555,37.987 125.89,38.43 C126.504,39.3 127.062,40.209 127.56,41.15 C127.821,41.6 128.137,42.017 128.5,42.39 C128.874,42.738 129.345,42.965 129.85,43.04 z" fill="#FFFFFF"/>
      <path d="M101.92,35.38 C102.208,35.172 102.512,34.988 102.83,34.83 C103.156,34.676 103.49,34.54 103.83,34.42 C104.5,34.18 105.18,33.99 105.83,33.81 C107.2,33.46 108.6,33.17 109.96,32.86 L109.85,33.31 C108.96,32.602 108.152,31.797 107.44,30.91 C106.761,30.014 106.147,29.072 105.6,28.09 C105.374,27.665 105.025,27.316 104.6,27.09 C104.502,27.057 104.402,27.03 104.3,27.01 L103.95,27.01 C103.67,27.01 103.4,27.01 103.1,27.01 C101.966,26.948 100.836,26.811 99.72,26.6 C97.459,26.251 95.273,25.528 93.25,24.46 C92.991,24.317 92.743,24.153 92.51,23.97 C92.26,23.797 92.029,23.6 91.82,23.38 C91.595,23.161 91.397,22.916 91.23,22.65 L91.01,22.32 C90.948,22.246 90.881,22.176 90.81,22.11 C89.962,21.569 88.965,21.306 87.96,21.36 C85.8,21.36 83.6,21.69 81.35,21.86 C80.778,21.908 80.204,21.924 79.63,21.91 C78.994,21.925 78.366,21.77 77.81,21.46 L77.66,21.37 L77.6,21.37 C77.6,21.37 77.6,21.37 77.6,21.37 C77.505,21.553 77.451,21.754 77.44,21.96 C77.392,22.499 77.375,23.039 77.39,23.58 C77.39,24.69 77.39,25.81 77.33,26.95 C77.288,27.528 77.177,28.098 77,28.65 C76.903,28.938 76.765,29.211 76.59,29.46 C76.38,29.72 76.21,29.89 76.02,30.1 C74.51,31.73 73.02,33.38 71.48,35 C72.87,33.26 74.29,31.54 75.7,29.82 C75.87,29.61 76.07,29.37 76.2,29.19 C76.331,28.97 76.436,28.735 76.51,28.49 C76.655,27.975 76.739,27.445 76.76,26.91 C76.82,25.82 76.76,24.72 76.7,23.6 C76.666,23.027 76.666,22.453 76.7,21.88 C76.707,21.527 76.807,21.182 76.99,20.88 C77.161,20.65 77.447,20.534 77.73,20.58 C77.844,20.603 77.955,20.64 78.06,20.69 L78.27,20.81 C78.71,21.005 79.189,21.098 79.67,21.08 C80.211,21.085 80.752,21.062 81.29,21.01 C83.48,20.82 85.69,20.41 87.99,20.43 C89.228,20.371 90.452,20.723 91.47,21.43 C91.604,21.553 91.728,21.687 91.84,21.83 L92.09,22.19 C92.217,22.394 92.368,22.582 92.54,22.75 C92.711,22.937 92.903,23.104 93.11,23.25 C93.314,23.415 93.531,23.562 93.76,23.69 C95.674,24.719 97.746,25.425 99.89,25.78 C100.96,25.993 102.042,26.137 103.13,26.21 C103.39,26.21 103.66,26.21 103.94,26.21 L104.42,26.21 C104.591,26.245 104.758,26.295 104.92,26.36 C105.481,26.673 105.931,27.151 106.21,27.73 C106.71,28.712 107.278,29.658 107.91,30.56 C108.563,31.433 109.311,32.232 110.14,32.94 L110.55,33.3 L110.03,33.4 C108.62,33.66 107.23,33.84 105.85,34.12 C105.16,34.26 104.47,34.41 103.8,34.61 C103.45,34.69 103.14,34.83 102.8,34.94 C102.496,35.064 102.202,35.211 101.92,35.38 z" fill="#FFFFFF"/>
    </g>
    <g>
      <path d="M150.77,2.78 C151.166,3.655 150.994,4.682 150.336,5.381 C149.678,6.08 148.663,6.313 147.766,5.971 C146.869,5.629 146.267,4.779 146.241,3.819 C146.216,2.859 146.772,1.979 147.65,1.59 C148.84,1.068 150.229,1.598 150.77,2.78 z" fill="#FFFFFF"/>
      <path d="M165.92,15.38 C166.316,16.255 166.144,17.282 165.486,17.981 C164.828,18.68 163.813,18.913 162.916,18.571 C162.019,18.229 161.417,17.379 161.391,16.419 C161.366,15.459 161.922,14.579 162.8,14.19 C163.99,13.668 165.379,14.198 165.92,15.38 z" fill="#FFFFFF"/>
      <path d="M192.5,3.49 C192.896,4.365 192.724,5.392 192.066,6.091 C191.408,6.79 190.393,7.023 189.496,6.681 C188.599,6.339 187.997,5.489 187.971,4.529 C187.946,3.569 188.502,2.689 189.38,2.3 C190.57,1.778 191.959,2.308 192.5,3.49 z" fill="#FFFFFF"/>
      <path d="M189.705,-3.349 C190.032,-2.619 189.705,-1.761 188.975,-1.433 C188.244,-1.105 187.386,-1.432 187.058,-2.163 C186.731,-2.894 187.058,-3.752 187.788,-4.079 C188.519,-4.407 189.377,-4.08 189.705,-3.349 z" fill="#FFFFFF"/>
      <path d="M192.64,-10.894 C193.146,-9.766 192.642,-8.44 191.513,-7.934 C190.384,-7.427 189.059,-7.932 188.552,-9.061 C188.046,-10.19 188.55,-11.515 189.679,-12.021 C190.808,-12.528 192.133,-12.023 192.64,-10.894 z" fill="#FFFFFF"/>
      <path d="M190.34,-6.588 C190.59,-6.028 190.338,-5.371 189.778,-5.122 C189.219,-4.872 188.562,-5.123 188.312,-5.683 C188.063,-6.243 188.314,-6.899 188.874,-7.149 C189.434,-7.399 190.09,-7.147 190.34,-6.588 z" fill="#FFFFFF"/>
      <path d="M179.806,8.438 C180.223,9.372 179.804,10.465 178.871,10.882 C177.938,11.298 176.844,10.879 176.427,9.946 C176.011,9.013 176.43,7.919 177.363,7.503 C178.296,7.087 179.39,7.505 179.806,8.438 z" fill="#FFFFFF"/>
      <path d="M165.081,9.339 C165.497,10.272 165.078,11.366 164.145,11.783 C163.212,12.199 162.118,11.78 161.702,10.847 C161.286,9.914 161.704,8.82 162.637,8.404 C163.57,7.987 164.664,8.406 165.081,9.339 z" fill="#FFFFFF"/>
      <path d="M163.648,1.034 C163.936,1.68 163.646,2.436 163,2.725 C162.355,3.013 161.598,2.723 161.31,2.077 C161.022,1.432 161.312,0.675 161.957,0.387 C162.603,0.099 163.36,0.388 163.648,1.034 z" fill="#FFFFFF"/>
      <path d="M160.802,3.085 C160.976,3.473 160.803,3.929 160.415,4.103 C160.027,4.277 159.572,4.104 159.397,3.716 C159.223,3.329 159.396,2.873 159.784,2.698 C160.172,2.524 160.628,2.697 160.802,3.085 z" fill="#FFFFFF"/>
      <path d="M159.634,14.364 C160.113,15.439 159.631,16.698 158.557,17.178 C157.482,17.657 156.223,17.175 155.744,16.101 C155.264,15.026 155.746,13.767 156.821,13.287 C157.895,12.808 159.154,13.29 159.634,14.364 z" fill="#FFFFFF"/>
      <path d="M169.565,19.779 C169.874,20.47 169.564,21.28 168.873,21.589 C168.182,21.897 167.372,21.587 167.063,20.896 C166.755,20.205 167.065,19.395 167.756,19.087 C168.447,18.778 169.257,19.088 169.565,19.779 z" fill="#FFFFFF"/>
      <path d="M177.994,24.64 C178.136,24.957 177.993,25.33 177.676,25.472 C177.358,25.614 176.985,25.471 176.843,25.153 C176.702,24.836 176.844,24.463 177.162,24.321 C177.48,24.179 177.852,24.322 177.994,24.64 z" fill="#FFFFFF"/>
      <path d="M176.289,22.573 C176.903,23.95 176.285,25.564 174.908,26.178 C173.531,26.793 171.917,26.175 171.303,24.798 C170.688,23.421 171.306,21.807 172.683,21.192 C174.06,20.578 175.674,21.196 176.289,22.573 z" fill="#FFFFFF"/>
      <path d="M144.854,6.943 C145.263,7.861 144.851,8.937 143.933,9.347 C143.015,9.756 141.939,9.344 141.529,8.427 C141.12,7.509 141.532,6.432 142.45,6.023 C143.368,5.613 144.444,6.025 144.854,6.943 z" fill="#FFFFFF"/>
      <path d="M135.189,4.716 C135.442,5.281 135.188,5.943 134.623,6.195 C134.058,6.447 133.396,6.194 133.144,5.629 C132.892,5.064 133.145,4.402 133.71,4.15 C134.275,3.898 134.937,4.151 135.189,4.716 z" fill="#FFFFFF"/>
      <path d="M139.526,5.995 C139.873,6.772 139.524,7.683 138.747,8.029 C137.971,8.376 137.06,8.027 136.713,7.251 C136.367,6.474 136.715,5.563 137.492,5.217 C138.269,4.87 139.179,5.219 139.526,5.995 z" fill="#FFFFFF"/>
      <path d="M133.97,4.95 C134.484,4.786 135.036,4.786 135.55,4.95 C136.059,5.119 136.543,5.354 136.99,5.65 C137.844,6.256 138.736,6.807 139.66,7.3 C140.115,7.52 140.601,7.671 141.1,7.75 C141.589,7.81 142.085,7.772 142.56,7.64 C143.047,7.512 143.512,7.314 143.94,7.05 C144.374,6.79 144.78,6.485 145.15,6.14 C145.896,5.407 146.604,4.636 147.27,3.83 C147.465,3.607 147.687,3.409 147.93,3.24 L148.15,3.11 L148.45,3.02 C148.654,2.999 148.859,3.026 149.05,3.1 L150.54,3.64 L156.54,5.8 L156.84,5.91 L156.84,6.23 C156.9,7.55 157,8.88 157.11,10.23 C157.2,11.536 157.39,12.833 157.68,14.11 C157.745,14.388 157.846,14.657 157.98,14.91 C158,14.942 158.023,14.973 158.05,15 C158.077,15.027 158.05,15 158.05,15 C158.05,15 158.05,15 158.05,15 L158.51,15.07 C159.14,15.14 159.82,15.18 160.51,15.23 C161.2,15.28 161.85,15.33 162.51,15.43 C162.847,15.476 163.181,15.543 163.51,15.63 C163.699,15.679 163.884,15.746 164.06,15.83 C164.165,15.875 164.263,15.936 164.35,16.01 C164.437,16.08 164.514,16.16 164.58,16.25 C165.378,17.297 166.258,18.28 167.21,19.19 C167.69,19.65 168.21,20.09 168.69,20.5 C169.17,20.91 169.69,21.31 170.27,21.69 C170.85,22.07 171.37,22.42 171.95,22.75 C172.53,23.08 173.11,23.39 173.71,23.67 C174.312,23.951 174.93,24.198 175.56,24.41 C176.18,24.66 176.83,24.8 177.47,25 C176.82,24.85 176.15,24.77 175.47,24.57 C174.822,24.396 174.184,24.185 173.56,23.94 C172.93,23.7 172.32,23.42 171.71,23.12 C171.102,22.819 170.511,22.485 169.94,22.12 C167.651,20.663 165.606,18.854 163.88,16.76 C163.414,16.441 162.865,16.266 162.3,16.26 C161.66,16.18 161,16.14 160.3,16.1 C159.6,16.06 158.97,16.03 158.3,15.96 L157.77,15.88 C157.612,15.852 157.463,15.783 157.34,15.68 C157.243,15.596 157.159,15.498 157.09,15.39 C156.899,15.062 156.754,14.708 156.66,14.34 C156.34,13.025 156.123,11.688 156.01,10.34 C155.88,9 155.81,7.66 155.77,6.34 L156.08,6.77 L150.15,4.53 L148.67,3.97 C148.614,3.957 148.556,3.957 148.5,3.97 L148.42,3.97 L148.3,4.04 C148.109,4.172 147.931,4.323 147.77,4.49 C147.061,5.286 146.309,6.043 145.52,6.76 C145.101,7.12 144.645,7.435 144.16,7.7 C143.674,7.97 143.152,8.168 142.61,8.29 C142.056,8.422 141.482,8.442 140.92,8.35 C140.376,8.246 139.852,8.053 139.37,7.78 C138.462,7.223 137.59,6.609 136.76,5.94 C136.343,5.629 135.89,5.37 135.41,5.17 C134.962,4.957 134.461,4.881 133.97,4.95 z" fill="#FFFFFF"/>
      <path d="M162.65,0.95 C162.467,1.253 162.26,1.541 162.03,1.81 C161.797,2.079 161.55,2.336 161.29,2.58 C160.77,3.06 160.22,3.51 159.66,3.95 C158.54,4.81 157.37,5.63 156.24,6.45 L156.16,5.99 C157.256,6.288 158.316,6.707 159.32,7.24 C160.299,7.797 161.238,8.421 162.13,9.11 C162.496,9.417 162.945,9.608 163.42,9.66 C163.52,9.666 163.62,9.666 163.72,9.66 L164.05,9.53 C164.3,9.42 164.56,9.3 164.84,9.2 C165.904,8.795 166.993,8.461 168.1,8.2 C170.312,7.629 172.603,7.429 174.88,7.61 C175.174,7.637 175.464,7.687 175.75,7.76 C176.048,7.82 176.34,7.91 176.62,8.03 C176.913,8.144 177.192,8.291 177.45,8.47 L177.78,8.68 C177.864,8.725 177.951,8.765 178.04,8.8 C179.032,8.96 180.05,8.806 180.95,8.36 C182.95,7.55 184.83,6.36 186.82,5.29 C187.327,5.022 187.848,4.782 188.38,4.57 C188.958,4.303 189.597,4.196 190.23,4.26 L190.41,4.26 L190.48,4.26 C190.48,4.26 190.48,4.26 190.48,4.26 C190.494,4.053 190.463,3.845 190.39,3.65 C190.223,3.136 190.026,2.632 189.8,2.14 C189.36,1.14 188.88,0.14 188.53,-0.98 C188.343,-1.527 188.223,-2.094 188.17,-2.67 C188.147,-2.971 188.167,-3.274 188.23,-3.57 C188.32,-3.89 188.41,-4.11 188.5,-4.39 C189.24,-6.49 189.97,-8.59 190.74,-10.68 C190.15,-8.53 189.52,-6.4 188.91,-4.25 C188.84,-3.99 188.74,-3.69 188.7,-3.47 C188.669,-3.218 188.669,-2.962 188.7,-2.71 C188.768,-2.18 188.899,-1.659 189.09,-1.16 C189.46,-0.16 189.96,0.84 190.45,1.84 C190.708,2.353 190.935,2.88 191.13,3.42 C191.255,3.738 191.296,4.082 191.25,4.42 C191.184,4.7 190.968,4.919 190.69,4.99 C190.574,5.005 190.456,5.005 190.34,4.99 L190.1,4.99 C189.62,4.983 189.145,5.086 188.71,5.29 C188.211,5.497 187.724,5.731 187.25,5.99 C185.31,6.99 183.44,8.27 181.32,9.17 C180.217,9.723 178.963,9.899 177.75,9.67 C177.577,9.611 177.41,9.537 177.25,9.45 L176.88,9.22 C176.681,9.081 176.466,8.967 176.24,8.88 C176.009,8.778 175.768,8.701 175.52,8.65 C175.268,8.578 175.01,8.528 174.75,8.5 C172.584,8.31 170.401,8.479 168.29,9 C167.222,9.225 166.17,9.519 165.14,9.88 C164.9,9.96 164.64,10.07 164.38,10.19 L163.93,10.35 C163.759,10.386 163.585,10.406 163.41,10.41 C162.773,10.342 162.173,10.081 161.69,9.66 C160.843,8.955 159.948,8.31 159.01,7.73 C158.062,7.183 157.056,6.744 156.01,6.42 L155.49,6.26 L155.93,5.97 C157.12,5.18 158.32,4.46 159.49,3.66 C160.07,3.26 160.64,2.85 161.18,2.4 C161.47,2.19 161.7,1.94 161.97,1.7 C162.216,1.468 162.443,1.217 162.65,0.95 z" fill="#FFFFFF"/>
    </g>
    <g>
      <path d="M162.91,8.6 C163.274,9.566 162.786,10.645 161.82,11.009 C160.854,11.374 159.775,10.886 159.411,9.92 C159.046,8.953 159.534,7.875 160.5,7.51 C161.466,7.151 162.541,7.637 162.91,8.6 z" fill="#6FABA5"/>
      <path d="M163.672,4.195 C163.905,4.81 163.596,5.497 162.981,5.73 C162.366,5.962 161.679,5.653 161.447,5.038 C161.214,4.423 161.524,3.736 162.138,3.504 C162.753,3.271 163.44,3.581 163.672,4.195 z" fill="#6FABA5"/>
      <path d="M186.563,6.835 C186.796,7.449 186.487,8.136 185.872,8.369 C185.257,8.602 184.57,8.292 184.338,7.677 C184.105,7.063 184.414,6.376 185.029,6.143 C185.644,5.91 186.331,6.22 186.563,6.835 z" fill="#6FABA5"/>
      <path d="M191.246,2.321 C191.479,2.936 191.169,3.622 190.554,3.855 C189.94,4.088 189.253,3.778 189.02,3.164 C188.787,2.549 189.097,1.862 189.712,1.629 C190.326,1.397 191.013,1.706 191.246,2.321 z" fill="#6FABA5"/>
      <path d="M173.86,16.4 C174.3,17.585 173.7,18.903 172.518,19.351 C171.336,19.798 170.014,19.208 169.558,18.029 C169.102,16.85 169.684,15.524 170.86,15.06 C171.435,14.836 172.076,14.852 172.64,15.104 C173.203,15.355 173.643,15.822 173.86,16.4 z" fill="#6FABA5"/>
      <path d="M182.7,12.32 C183.14,13.505 182.54,14.823 181.358,15.271 C180.176,15.718 178.854,15.128 178.398,13.949 C177.942,12.77 178.524,11.444 179.7,10.98 C180.275,10.756 180.916,10.772 181.48,11.024 C182.043,11.275 182.483,11.742 182.7,12.32 z" fill="#6FABA5"/>
      <path d="M180.51,6.88 C180.95,8.065 180.35,9.383 179.168,9.831 C177.986,10.278 176.664,9.688 176.208,8.509 C175.752,7.33 176.334,6.004 177.51,5.54 C178.085,5.316 178.726,5.332 179.29,5.584 C179.853,5.835 180.293,6.302 180.51,6.88 z" fill="#6FABA5"/>
      <path d="M162.64,4.5 C162.815,5.002 162.815,5.548 162.64,6.05 C162.504,6.562 162.323,7.06 162.1,7.54 C161.88,8.02 161.64,8.49 161.4,8.95 L161.31,9.12 L161.31,9.2 C161.31,9.11 161.31,9.2 161.31,9.2 C161.326,9.297 161.356,9.392 161.4,9.48 C161.49,9.71 161.6,9.95 161.71,10.18 C162.62,12.04 163.66,13.85 164.71,15.65 L164.41,15.46 C166.054,15.558 167.688,15.776 169.3,16.11 C169.716,16.2 170.127,16.314 170.53,16.45 C170.747,16.521 170.958,16.612 171.16,16.72 C171.278,16.781 171.388,16.855 171.49,16.94 L171.57,17 L171.52,17 L171.52,17 L171.52,17 C171.58,17.05 171.52,17 171.52,17 C171.635,16.991 171.749,16.971 171.86,16.94 C172.034,16.887 172.204,16.824 172.37,16.75 C172.72,16.6 173.07,16.41 173.37,16.22 C174.77,15.44 176.11,14.51 177.6,13.76 C177.977,13.566 178.364,13.392 178.76,13.24 C179.2,13.055 179.673,12.964 180.15,12.97 L180.46,12.97 C180.395,12.958 180.33,12.991 180.3,13.05 C180.25,13.23 180.3,13 180.23,12.86 C180.108,12.515 179.958,12.18 179.78,11.86 C179.42,11.15 179.01,10.45 178.61,9.74 C178.41,9.38 178.21,9.02 178.03,8.64 C177.94,8.45 177.85,8.25 177.77,8.04 C177.655,7.769 177.62,7.47 177.67,7.18 C177.696,7.113 177.73,7.05 177.77,6.99 L177.77,6.99 C177.77,6.99 177.71,7.04 177.86,6.9 L177.86,6.9 L177.86,6.9 L177.99,6.82 C178.144,6.755 178.305,6.708 178.47,6.68 C178.693,6.664 178.917,6.664 179.14,6.68 C179.57,6.68 179.98,6.68 180.39,6.77 L182.81,7.04 C183.21,7.04 183.61,7.11 184,7.12 C184.365,7.145 184.731,7.101 185.08,6.99 C185.674,6.498 186.181,5.91 186.58,5.25 C187.052,4.571 187.599,3.947 188.21,3.39 C188.822,2.819 189.606,2.467 190.44,2.39 C189.643,2.535 188.912,2.927 188.35,3.51 C187.797,4.094 187.31,4.738 186.9,5.43 C186.68,5.77 186.47,6.12 186.24,6.43 C186.023,6.833 185.71,7.176 185.33,7.43 C184.914,7.596 184.468,7.674 184.02,7.66 C183.6,7.66 183.19,7.66 182.77,7.66 L180.33,7.49 C179.93,7.49 179.53,7.49 179.14,7.49 C178.957,7.477 178.773,7.477 178.59,7.49 C178.555,7.504 178.515,7.504 178.48,7.49 L178.36,7.58 L178.36,7.58 L178.36,7.58 L178.45,7.5 C178.457,7.481 178.457,7.459 178.45,7.44 C178.472,7.552 178.502,7.662 178.54,7.77 C178.61,7.94 178.68,8.11 178.77,8.29 C178.94,8.64 179.14,8.99 179.34,9.29 C179.74,9.99 180.17,10.69 180.56,11.42 C180.772,11.803 180.95,12.205 181.09,12.62 C181.129,12.747 181.155,12.878 181.17,13.01 C181.177,13.097 181.177,13.183 181.17,13.27 C181.118,13.679 180.75,13.971 180.34,13.93 L180.05,13.93 C179.341,14.031 178.66,14.276 178.05,14.65 C176.65,15.4 175.27,16.27 173.83,17.07 C173.46,17.27 173.09,17.46 172.69,17.63 C172.485,17.72 172.275,17.797 172.06,17.86 C171.775,17.938 171.475,17.938 171.19,17.86 C171.097,17.835 171.009,17.794 170.93,17.74 L170.93,17.74 L170.93,17.74 L170.86,17.68 L170.86,17.68 C170.808,17.634 170.751,17.594 170.69,17.56 C170.533,17.472 170.369,17.399 170.2,17.34 C169.833,17.209 169.459,17.099 169.08,17.01 C167.53,16.66 165.92,16.44 164.32,16.25 L164.11,16.25 L164.02,16.09 C163.53,15.16 163.02,14.24 162.58,13.3 C162.14,12.36 161.65,11.42 161.25,10.45 C161.15,10.2 161.06,9.95 160.98,9.7 C160.929,9.545 160.902,9.383 160.9,9.22 L160.9,9.15 L160.9,9.15 C160.9,9.03 160.9,9.15 160.9,9.08 L160.95,8.99 L161.05,8.82 C161.33,8.38 161.6,7.94 161.84,7.48 C162.089,7.028 162.3,6.557 162.47,6.07 C162.711,5.583 162.771,5.027 162.64,4.5 z" fill="#6FABA5"/>
    </g>
    <g>
      <path d="M86.489,43.849 C87.065,44.166 87.274,44.89 86.957,45.465 C86.64,46.041 85.916,46.25 85.341,45.933 C84.765,45.616 84.556,44.892 84.873,44.316 C85.19,43.741 85.914,43.531 86.489,43.849 z" fill="#6FABA5"/>
      <path d="M85.055,41.425 C85.418,41.625 85.55,42.081 85.35,42.444 C85.15,42.807 84.694,42.939 84.331,42.739 C83.968,42.539 83.836,42.083 84.036,41.72 C84.236,41.357 84.692,41.225 85.055,41.425 z" fill="#6FABA5"/>
      <path d="M97.168,33.273 C97.531,33.472 97.663,33.929 97.463,34.291 C97.263,34.654 96.807,34.786 96.444,34.586 C96.081,34.386 95.949,33.93 96.149,33.567 C96.349,33.205 96.805,33.073 97.168,33.273 z" fill="#6FABA5"/>
      <path d="M97.566,29.162 C97.928,29.362 98.06,29.818 97.86,30.181 C97.661,30.544 97.204,30.676 96.842,30.476 C96.479,30.276 96.347,29.82 96.547,29.457 C96.747,29.094 97.203,28.962 97.566,29.162 z" fill="#6FABA5"/>
      <path d="M94.98,43.12 C95.679,43.516 95.927,44.402 95.535,45.104 C95.143,45.805 94.257,46.057 93.554,45.668 C92.851,45.279 92.594,44.395 92.98,43.69 C93.168,43.347 93.485,43.094 93.861,42.987 C94.237,42.879 94.64,42.927 94.98,43.12 z" fill="#6FABA5"/>
      <path d="M97.57,37.53 C98.269,37.926 98.517,38.812 98.125,39.514 C97.733,40.215 96.847,40.467 96.144,40.078 C95.441,39.689 95.184,38.805 95.57,38.1 C95.758,37.757 96.075,37.504 96.451,37.397 C96.827,37.289 97.23,37.337 97.57,37.53 z" fill="#6FABA5"/>
      <path d="M94.28,35.8 C94.979,36.196 95.227,37.082 94.835,37.784 C94.443,38.485 93.557,38.737 92.854,38.348 C92.151,37.959 91.894,37.075 92.28,36.37 C92.468,36.027 92.785,35.774 93.161,35.667 C93.537,35.559 93.94,35.607 94.28,35.8 z" fill="#6FABA5"/>
      <path d="M84.68,41.98 C84.976,42.142 85.208,42.399 85.34,42.71 C85.484,43.013 85.601,43.327 85.69,43.65 C85.78,43.97 85.86,44.3 85.93,44.65 C85.93,44.718 85.951,44.784 85.99,44.84 C86.038,44.881 86.092,44.915 86.15,44.94 L86.59,45.15 C87.79,45.67 89.04,46.15 90.28,46.56 L90.06,46.56 C90.895,45.934 91.774,45.369 92.69,44.87 C92.927,44.743 93.17,44.63 93.42,44.53 C93.553,44.475 93.69,44.431 93.83,44.4 C93.913,44.391 93.997,44.391 94.08,44.4 L94.15,44.4 C94.07,44.4 94.15,44.4 94.15,44.4 C94.15,44.4 94.15,44.4 94.15,44.4 C94.281,44.264 94.386,44.104 94.46,43.93 C94.56,43.71 94.66,43.48 94.75,43.24 C95.1,42.29 95.37,41.24 95.75,40.32 C95.937,39.779 96.249,39.289 96.66,38.89 L96.83,38.78 C96.812,38.811 96.812,38.849 96.83,38.88 C96.83,38.99 96.83,38.88 96.72,38.82 C96.516,38.695 96.302,38.588 96.08,38.5 C95.62,38.31 95.08,38.14 94.64,37.96 C94.4,37.87 94.15,37.78 93.91,37.67 L93.54,37.49 C93.375,37.406 93.237,37.278 93.14,37.12 C93.136,37.077 93.136,37.033 93.14,36.99 L93.14,36.99 C93.14,36.99 93.14,37.04 93.14,36.91 L93.14,36.91 L93.14,36.91 L93.14,36.82 C93.187,36.727 93.244,36.64 93.31,36.56 C93.406,36.456 93.51,36.359 93.62,36.27 C93.83,36.1 94.04,35.95 94.26,35.8 L95.54,34.94 C95.956,34.677 96.319,34.337 96.61,33.94 C96.691,33.46 96.691,32.97 96.61,32.49 C96.552,31.972 96.552,31.448 96.61,30.93 C96.679,30.408 96.918,29.923 97.29,29.55 C96.964,29.947 96.771,30.437 96.74,30.95 C96.713,31.458 96.743,31.968 96.83,32.47 C96.961,32.997 96.981,33.545 96.89,34.08 C96.589,34.538 96.198,34.929 95.74,35.23 L94.49,36.15 C94.29,36.3 94.09,36.46 93.91,36.62 C93.821,36.697 93.737,36.781 93.66,36.87 C93.644,36.874 93.626,36.874 93.61,36.87 L93.61,36.96 L93.61,36.96 L93.61,36.96 L93.61,36.89 C93.763,37.006 93.931,37.101 94.11,37.17 L94.82,37.44 C95.3,37.61 95.82,37.77 96.28,37.97 C96.54,38.067 96.791,38.188 97.03,38.33 C97.227,38.429 97.368,38.613 97.41,38.83 C97.421,39.003 97.342,39.17 97.2,39.27 L97.05,39.38 C96.741,39.721 96.506,40.123 96.36,40.56 C95.99,41.5 95.69,42.48 95.36,43.46 C95.26,43.71 95.16,43.95 95.04,44.2 C94.917,44.506 94.7,44.766 94.42,44.94 C94.364,44.949 94.306,44.949 94.25,44.94 L94.07,44.94 C94.027,44.935 93.983,44.935 93.94,44.94 C93.831,44.964 93.724,44.997 93.62,45.04 C93.391,45.128 93.168,45.228 92.95,45.34 C92.06,45.81 91.19,46.34 90.34,46.93 L90.23,47 L90.12,47 C88.89,46.5 87.66,46 86.47,45.41 L86.03,45.16 C85.944,45.105 85.866,45.038 85.8,44.96 C85.75,44.875 85.722,44.779 85.72,44.68 C85.72,44.35 85.62,44.03 85.55,43.68 C85.483,43.359 85.389,43.045 85.27,42.74 C85.166,42.427 84.957,42.159 84.68,41.98 z" fill="#6FABA5"/>
    </g>
    <g>
      <path d="M104.27,20.37 L106.34,17.96 C107.033,17.15 107.771,16.378 108.55,15.65 C108.959,15.264 109.438,14.959 109.96,14.75 C110.547,14.56 111.19,14.653 111.7,15 C111.929,15.154 112.146,15.324 112.35,15.51 C112.541,15.677 112.753,15.818 112.98,15.93 C113.423,16.159 113.894,16.33 114.38,16.44 C114.876,16.566 115.381,16.653 115.89,16.7 C116.4,16.77 116.89,16.78 117.43,16.79 C117.97,16.8 118.43,16.79 118.98,16.73 C119.53,16.67 119.98,16.62 120.52,16.56 C121.542,16.394 122.546,16.133 123.52,15.78 C123.993,15.592 124.454,15.375 124.9,15.13 C125.342,14.89 125.766,14.619 126.17,14.32 L126.17,14.32 C126.65,13.787 127.164,13.286 127.71,12.82 C128.277,12.333 128.906,11.922 129.58,11.6 C130.298,11.256 131.098,11.118 131.89,11.2 C132.674,11.34 133.4,11.704 133.98,12.25 C134.442,12.676 135.002,12.982 135.61,13.14 C136.225,13.233 136.853,13.146 137.42,12.89 C138.04,12.65 138.67,12.34 139.31,12.04 C139.95,11.74 140.62,11.44 141.31,11.2 C142,10.96 142.61,10.69 143.31,10.49 L145.31,9.85 L149.36,8.67 L151.36,8.07 L153.36,7.41 C154.02,7.17 154.66,6.89 155.31,6.62 C155.96,6.35 156.55,5.98 157.18,5.62 C156.58,5.99 156,6.38 155.38,6.73 C154.76,7.08 154.12,7.36 153.47,7.64 C152.17,8.18 150.85,8.69 149.47,9.14 L145.47,10.46 L143.47,11.16 C142.82,11.38 142.17,11.69 141.47,11.94 C140.77,12.19 140.21,12.48 139.57,12.78 C138.93,13.08 138.32,13.41 137.63,13.68 C136.907,14.007 136.105,14.119 135.32,14 C134.56,13.821 133.856,13.456 133.27,12.94 C132.823,12.513 132.259,12.228 131.65,12.12 C131.037,12.068 130.421,12.186 129.87,12.46 C129.272,12.739 128.714,13.095 128.21,13.52 C127.697,13.994 127.216,14.502 126.77,15.04 L126.77,15.04 L126.77,15.04 C126.322,15.367 125.85,15.661 125.36,15.92 C124.875,16.178 124.374,16.405 123.86,16.6 C122.833,16.961 121.776,17.225 120.7,17.39 C120.16,17.45 119.62,17.53 119.08,17.55 C118.54,17.577 118,17.577 117.46,17.55 C116.92,17.55 116.38,17.48 115.84,17.39 C115.299,17.318 114.764,17.205 114.24,17.05 C113.974,16.978 113.713,16.888 113.46,16.78 C113.192,16.683 112.934,16.559 112.69,16.41 C112.448,16.274 112.223,16.109 112.02,15.92 C111.839,15.74 111.645,15.573 111.44,15.42 C111.081,15.138 110.607,15.048 110.17,15.18 C109.701,15.348 109.265,15.595 108.88,15.91 C108.071,16.584 107.3,17.301 106.57,18.06 z" fill="#6FABA5"/>
      <path d="M112.728,14.23 C113.205,15.496 112.566,16.91 111.3,17.387 C110.034,17.865 108.621,17.226 108.143,15.96 C107.666,14.694 108.305,13.28 109.571,12.803 C110.837,12.325 112.25,12.964 112.728,14.23 z" fill="#6FABA5"/>
      <path d="M117.411,16.515 C117.729,17.357 117.304,18.298 116.462,18.616 C115.619,18.934 114.679,18.509 114.361,17.666 C114.043,16.824 114.468,15.884 115.31,15.566 C116.153,15.248 117.093,15.673 117.411,16.515 z" fill="#6FABA5"/>
      <path d="M123.66,15.94 C124.003,16.84 123.77,17.859 123.069,18.52 C122.367,19.181 121.336,19.354 120.458,18.958 C119.579,18.562 119.026,17.675 119.058,16.711 C119.089,15.748 119.698,14.899 120.6,14.56 C121.826,14.106 123.189,14.721 123.66,15.94 z" fill="#6FABA5"/>
      <path d="M133.43,10.83 C133.773,11.73 133.54,12.749 132.839,13.41 C132.137,14.071 131.106,14.244 130.228,13.848 C129.349,13.452 128.796,12.565 128.828,11.601 C128.859,10.638 129.468,9.789 130.37,9.45 C131.596,8.996 132.959,9.611 133.43,10.83 z" fill="#6FABA5"/>
      <path d="M137.85,13.29 C138.08,13.885 137.927,14.56 137.463,14.998 C136.999,15.436 136.316,15.549 135.735,15.285 C135.155,15.021 134.792,14.431 134.817,13.794 C134.842,13.156 135.25,12.598 135.85,12.38 C136.653,12.094 137.538,12.497 137.85,13.29 z" fill="#6FABA5"/>
      <path d="M144.03,10.77 C144.378,11.67 144.146,12.691 143.442,13.352 C142.739,14.013 141.706,14.181 140.829,13.778 C139.952,13.375 139.408,12.48 139.452,11.516 C139.496,10.552 140.12,9.711 141.03,9.39 C142.238,8.969 143.564,9.578 144.03,10.77 z" fill="#6FABA5"/>
      <path d="M158.54,5.47 C158.888,6.37 158.656,7.391 157.952,8.052 C157.249,8.713 156.216,8.881 155.339,8.478 C154.462,8.075 153.918,7.18 153.962,6.216 C154.006,5.252 154.63,4.411 155.54,4.09 C156.748,3.669 158.074,4.278 158.54,5.47 z" fill="#6FABA5"/>
      <path d="M151.46,8.04 C151.705,8.688 151.535,9.42 151.029,9.894 C150.522,10.367 149.781,10.488 149.15,10.2 C148.52,9.912 148.126,9.273 148.152,8.58 C148.178,7.888 148.62,7.279 149.27,7.04 C150.151,6.716 151.128,7.162 151.46,8.04 z" fill="#6FABA5"/>
      <path d="M105.661,19.699 C105.902,20.34 105.579,21.055 104.938,21.297 C104.297,21.539 103.582,21.215 103.34,20.575 C103.099,19.934 103.422,19.218 104.063,18.977 C104.704,18.735 105.419,19.058 105.661,19.699 z" fill="#6FABA5"/>
    </g>
    <g>
      <path d="M146.66,35.04 C147.008,35.94 146.776,36.961 146.072,37.622 C145.369,38.283 144.336,38.451 143.459,38.048 C142.582,37.645 142.038,36.75 142.082,35.786 C142.126,34.822 142.75,33.981 143.66,33.66 C144.868,33.239 146.194,33.848 146.66,35.04 z" fill="#6FABA5"/>
      <path d="M161.03,48.52 C161.378,49.42 161.146,50.441 160.442,51.102 C159.739,51.763 158.706,51.931 157.829,51.528 C156.952,51.125 156.408,50.23 156.452,49.266 C156.496,48.302 157.12,47.461 158.03,47.14 C159.238,46.719 160.564,47.328 161.03,48.52 z" fill="#6FABA5"/>
      <path d="M188.28,38.27 C188.628,39.17 188.396,40.191 187.692,40.852 C186.989,41.513 185.956,41.681 185.079,41.278 C184.202,40.875 183.658,39.98 183.702,39.016 C183.746,38.052 184.37,37.211 185.28,36.89 C186.488,36.469 187.814,37.078 188.28,38.27 z" fill="#6FABA5"/>
      <path d="M185.914,31.264 C186.197,32.014 185.818,32.85 185.069,33.133 C184.32,33.415 183.483,33.037 183.201,32.288 C182.918,31.538 183.297,30.702 184.046,30.419 C184.795,30.137 185.632,30.515 185.914,31.264 z" fill="#6FABA5"/>
      <path d="M189.275,23.991 C189.712,25.149 189.127,26.441 187.97,26.878 C186.812,27.314 185.52,26.73 185.083,25.572 C184.647,24.415 185.231,23.122 186.389,22.686 C187.546,22.249 188.839,22.834 189.275,23.991 z" fill="#6FABA5"/>
      <path d="M186.737,28.088 C186.952,28.662 186.661,29.301 186.087,29.517 C185.513,29.732 184.873,29.441 184.658,28.867 C184.443,28.293 184.734,27.653 185.308,27.438 C185.882,27.223 186.521,27.514 186.737,28.088 z" fill="#6FABA5"/>
      <path d="M175.309,42.452 C175.668,43.409 175.184,44.475 174.227,44.834 C173.27,45.193 172.204,44.708 171.845,43.752 C171.486,42.795 171.971,41.729 172.928,41.37 C173.884,41.011 174.951,41.496 175.309,42.452 z" fill="#6FABA5"/>
      <path d="M160.559,42.452 C160.918,43.409 160.433,44.475 159.476,44.834 C158.52,45.193 157.453,44.708 157.095,43.752 C156.736,42.795 157.22,41.729 158.177,41.37 C159.134,41.011 160.2,41.496 160.559,42.452 z" fill="#6FABA5"/>
      <path d="M159.629,34.066 C159.877,34.727 159.542,35.465 158.88,35.714 C158.218,35.962 157.48,35.627 157.232,34.965 C156.983,34.303 157.319,33.565 157.981,33.317 C158.643,33.068 159.38,33.404 159.629,34.066 z" fill="#6FABA5"/>
      <path d="M156.645,36.002 C156.796,36.4 156.595,36.844 156.197,36.995 C155.799,37.145 155.355,36.944 155.205,36.546 C155.054,36.149 155.255,35.704 155.653,35.554 C156.051,35.404 156.495,35.604 156.645,36.002 z" fill="#6FABA5"/>
      <path d="M154.811,47.138 C155.224,48.24 154.666,49.468 153.565,49.881 C152.464,50.294 151.236,49.736 150.823,48.635 C150.41,47.533 150.968,46.305 152.069,45.892 C153.17,45.479 154.398,46.037 154.811,47.138 z" fill="#6FABA5"/>
      <path d="M164.4,53.143 C164.665,53.851 164.306,54.641 163.598,54.906 C162.89,55.172 162.1,54.813 161.834,54.105 C161.568,53.396 161.927,52.607 162.636,52.341 C163.344,52.075 164.134,52.434 164.4,53.143 z" fill="#6FABA5"/>
      <path d="M170.943,56.331 C171.472,57.743 170.757,59.316 169.345,59.846 C167.934,60.375 166.36,59.66 165.83,58.249 C165.301,56.837 166.016,55.263 167.428,54.734 C168.839,54.204 170.413,54.919 170.943,56.331 z" fill="#6FABA5"/>
      <path d="M140.512,38.831 C140.865,39.772 140.389,40.821 139.447,41.174 C138.506,41.527 137.457,41.05 137.104,40.109 C136.751,39.168 137.228,38.119 138.169,37.766 C139.11,37.413 140.159,37.89 140.512,38.831 z" fill="#6FABA5"/>
      <path d="M130.988,36.063 C131.206,36.642 130.912,37.288 130.333,37.505 C129.754,37.722 129.108,37.429 128.891,36.85 C128.674,36.27 128.967,35.625 129.546,35.408 C130.126,35.19 130.771,35.484 130.988,36.063 z" fill="#6FABA5"/>
      <path d="M136.252,39.152 C136.549,39.952 136.142,40.841 135.343,41.139 C134.543,41.437 133.654,41.03 133.356,40.23 C133.059,39.431 133.465,38.541 134.265,38.244 C135.064,37.946 135.954,38.353 136.252,39.152 z" fill="#6FABA5"/>
      <path d="M129.77,36.17 C130.29,36.025 130.842,36.046 131.35,36.23 C131.849,36.427 132.32,36.689 132.75,37.01 C133.568,37.667 134.426,38.272 135.32,38.82 C135.761,39.065 136.237,39.243 136.73,39.35 C137.212,39.446 137.708,39.446 138.19,39.35 C138.682,39.254 139.157,39.085 139.6,38.85 C140.048,38.618 140.47,38.34 140.86,38.02 C141.651,37.333 142.405,36.605 143.12,35.84 C143.33,35.629 143.565,35.444 143.82,35.29 L144.05,35.17 L144.36,35.1 C144.563,35.093 144.766,35.134 144.95,35.22 L146.4,35.85 L152.22,38.37 L152.51,38.5 L152.51,38.82 C152.51,40.14 152.51,41.48 152.51,42.82 C152.519,44.13 152.63,45.437 152.84,46.73 C152.891,47.013 152.978,47.289 153.1,47.55 C153.117,47.582 153.137,47.612 153.16,47.64 C153.183,47.668 153.16,47.64 153.16,47.64 C153.16,47.64 153.16,47.64 153.16,47.64 L153.62,47.74 C154.25,47.85 154.92,47.93 155.62,48.02 C156.32,48.11 156.95,48.2 157.62,48.34 C157.959,48.409 158.293,48.499 158.62,48.61 C158.804,48.673 158.982,48.753 159.15,48.85 C159.253,48.902 159.347,48.97 159.43,49.05 C159.514,49.123 159.588,49.208 159.65,49.3 C160.384,50.396 161.203,51.433 162.1,52.4 C162.55,52.88 163.01,53.4 163.5,53.8 C163.99,54.2 164.5,54.67 165.01,55.08 C165.52,55.49 166.06,55.88 166.62,56.24 C167.18,56.6 167.74,56.95 168.33,57.24 C168.914,57.557 169.515,57.841 170.13,58.09 C170.73,58.38 171.38,58.56 172,58.8 C171.36,58.61 170.69,58.49 170.07,58.25 C169.433,58.035 168.809,57.785 168.2,57.5 C167.59,57.22 166.99,56.91 166.4,56.57 C165.814,56.234 165.246,55.867 164.7,55.47 C162.505,53.876 160.574,51.945 158.98,49.75 C158.536,49.406 158,49.201 157.44,49.16 C156.8,49.04 156.15,48.96 155.44,48.88 C154.73,48.8 154.12,48.73 153.44,48.62 L152.92,48.51 C152.762,48.472 152.617,48.393 152.5,48.28 C152.405,48.189 152.324,48.084 152.26,47.97 C152.087,47.629 151.962,47.265 151.89,46.89 C151.647,45.546 151.51,44.185 151.48,42.82 C151.48,41.47 151.48,40.13 151.48,38.82 L151.76,39.27 L145.98,36.68 L144.53,36.03 C144.479,35.997 144.421,35.976 144.36,35.97 L144.28,35.97 L144.16,36.03 C143.963,36.151 143.779,36.292 143.61,36.45 C142.851,37.202 142.054,37.913 141.22,38.58 C140.781,38.912 140.308,39.197 139.81,39.43 C139.309,39.668 138.777,39.833 138.23,39.92 C137.672,40.032 137.098,40.032 136.54,39.92 C136.004,39.78 135.493,39.554 135.03,39.25 C134.158,38.637 133.326,37.969 132.54,37.25 C132.143,36.914 131.707,36.629 131.24,36.4 C130.784,36.178 130.272,36.098 129.77,36.17 z" fill="#6FABA5"/>
      <path d="M158.65,33.92 C158.449,34.211 158.225,34.485 157.98,34.74 C157.729,34.993 157.465,35.234 157.19,35.46 C156.64,35.91 156.06,36.32 155.48,36.73 C154.31,37.52 153.09,38.27 151.91,39.02 L151.86,38.56 C152.937,38.924 153.97,39.407 154.94,40 C155.882,40.603 156.781,41.271 157.63,42 C157.976,42.329 158.41,42.548 158.88,42.63 C158.983,42.637 159.087,42.637 159.19,42.63 L159.52,42.52 C159.78,42.42 160.04,42.32 160.33,42.24 C161.419,41.914 162.528,41.66 163.65,41.48 C165.895,41.046 168.196,40.988 170.46,41.31 C170.752,41.357 171.039,41.427 171.32,41.52 C171.614,41.597 171.898,41.705 172.17,41.84 C172.458,41.971 172.73,42.135 172.98,42.33 L173.3,42.56 C173.384,42.609 173.471,42.652 173.56,42.69 C174.543,42.913 175.571,42.822 176.5,42.43 C178.5,41.74 180.5,40.65 182.5,39.73 C183.022,39.492 183.556,39.281 184.1,39.1 C184.694,38.867 185.34,38.798 185.97,38.9 L186.15,38.9 L186.22,38.9 C186.22,38.9 186.22,38.9 186.22,38.9 C186.263,38.699 186.263,38.491 186.22,38.29 C186.083,37.767 185.916,37.253 185.72,36.75 C185.34,35.75 184.93,34.66 184.64,33.56 C184.486,33.002 184.398,32.428 184.38,31.85 C184.374,31.546 184.411,31.243 184.49,30.95 C184.6,30.64 184.7,30.42 184.81,30.15 C185.68,28.15 186.53,26.04 187.43,24.01 C186.71,26.12 185.95,28.21 185.21,30.31 C185.12,30.56 185.01,30.86 184.95,31.08 C184.899,31.33 184.879,31.585 184.89,31.84 C184.928,32.373 185.028,32.9 185.19,33.41 C185.5,34.41 185.94,35.47 186.36,36.5 C186.585,37.025 186.778,37.562 186.94,38.11 C187.045,38.433 187.065,38.777 187,39.11 C186.916,39.382 186.69,39.586 186.41,39.64 C186.294,39.655 186.176,39.655 186.06,39.64 L185.82,39.64 C185.339,39.605 184.857,39.68 184.41,39.86 C183.9,40.037 183.399,40.24 182.91,40.47 C180.91,41.39 178.97,42.47 176.8,43.28 C175.663,43.766 174.398,43.864 173.2,43.56 C173.033,43.49 172.873,43.406 172.72,43.31 L172.36,43.06 C172.17,42.909 171.961,42.781 171.74,42.68 C171.514,42.561 171.276,42.467 171.03,42.4 C170.782,42.315 170.528,42.252 170.27,42.21 C168.119,41.886 165.93,41.92 163.79,42.31 C162.71,42.47 161.641,42.701 160.59,43 C160.34,43.07 160.08,43.16 159.82,43.26 L159.36,43.4 C159.187,43.416 159.013,43.416 158.84,43.4 C158.208,43.292 157.625,42.991 157.17,42.54 C156.367,41.787 155.511,41.092 154.61,40.46 C153.698,39.857 152.722,39.357 151.7,38.97 L151.19,38.77 L151.65,38.5 C152.89,37.78 154.13,37.14 155.34,36.41 C155.94,36.04 156.54,35.67 157.11,35.26 C157.41,35.07 157.66,34.83 157.94,34.61 C158.194,34.398 158.431,34.168 158.65,33.92 z" fill="#6FABA5"/>
    </g>
    <g>
      <g>
        <path d="M161.94,23.76 L160.4,25.04 C159.9,25.44 159.34,25.96 158.71,26.56 C158.08,27.16 157.39,27.87 156.65,28.65 C156.26,29.03 155.96,29.5 155.59,29.95 C155.42,30.18 155.22,30.4 155.06,30.65 L154.59,31.42 L154.1,32.21 L153.71,33.07 C153.59,33.36 153.42,33.65 153.33,33.96 L153.06,34.91 C152.881,35.564 152.764,36.234 152.71,36.91 L152.55,37.98 C152.458,38.356 152.327,38.721 152.16,39.07 C151.405,40.373 150.318,41.453 149.01,42.2 C147.78,43 146.48,43.67 145.3,44.46 C144.714,44.837 144.168,45.272 143.67,45.76 C143.431,46 143.21,46.257 143.01,46.53 C142.801,46.814 142.57,47.081 142.32,47.33 C141.341,48.244 140.184,48.946 138.92,49.39 C137.81,49.802 136.649,50.064 135.47,50.17 C134.469,50.256 133.46,50.212 132.47,50.04 C132.03,49.98 131.63,49.83 131.26,49.74 L130.26,49.35 C129.817,49.13 129.398,48.866 129.01,48.56 L128.6,48.24 L129.02,48.55 C129.413,48.846 129.835,49.1 130.28,49.31 L131.28,49.68 C131.65,49.76 132.05,49.89 132.49,49.95 C133.483,50.1 134.492,50.12 135.49,50.01 C136.653,49.878 137.793,49.592 138.88,49.16 C140.088,48.705 141.191,48.007 142.12,47.11 C142.353,46.866 142.567,46.606 142.76,46.33 C142.965,46.037 143.193,45.759 143.44,45.5 C143.944,44.981 144.501,44.515 145.1,44.11 C146.29,43.28 147.57,42.58 148.76,41.77 C149.975,41.044 150.976,40.009 151.66,38.77 C151.792,38.474 151.896,38.166 151.97,37.85 L152.1,36.85 C152.144,36.138 152.255,35.432 152.43,34.74 L152.7,33.74 C152.79,33.41 152.96,33.11 153.08,32.79 L153.47,31.87 L153.96,31.03 L154.44,30.21 C154.61,29.95 154.8,29.71 154.98,29.47 C155.35,29 155.66,28.47 156.05,28.1 C156.79,27.27 157.46,26.51 158.12,25.9 C158.78,25.29 159.33,24.72 159.82,24.31 L161.33,22.99 z" fill="#2D7174"/>
        <path d="M179.01,40.56 L178.83,39.84 C178.642,39.171 178.384,38.524 178.06,37.91 C177.537,36.953 176.862,36.089 176.06,35.35 C175.055,34.384 173.869,33.626 172.57,33.12 C172.211,32.985 171.839,32.887 171.46,32.83 L171.32,32.83 L171.22,32.83 L171.15,32.83 C171.048,32.808 170.948,32.777 170.85,32.74 C170.74,32.666 170.636,32.582 170.54,32.49 L170.37,32.18 C170.204,31.326 170.104,30.46 170.07,29.59 C169.988,28.718 169.662,27.886 169.13,27.19 C168.542,26.484 167.775,25.949 166.91,25.64 L161.33,23.58 C159.43,22.88 157.5,22.17 155.53,21.63 C153.56,21.09 151.53,20.63 149.63,21.32 C147.706,21.886 145.723,22.221 143.72,22.32 C141.848,22.417 139.972,22.289 138.13,21.94 C137.69,21.85 137.27,21.73 136.85,21.63 C136.431,21.541 136.02,21.421 135.62,21.27 L134.45,20.86 C134.08,20.7 133.72,20.53 133.37,20.37 C132.677,20.073 132.008,19.722 131.37,19.32 C130.807,18.968 130.272,18.574 129.77,18.14 C128.902,17.487 128.08,16.776 127.31,16.01 C126.68,15.37 126.24,14.81 125.91,14.45 L125.42,13.89 L125.92,14.43 C126.26,14.78 126.71,15.32 127.36,15.94 C128.15,16.663 128.989,17.331 129.87,17.94 C130.398,18.339 130.956,18.697 131.54,19.01 C132.181,19.393 132.849,19.727 133.54,20.01 C133.89,20.16 134.25,20.33 134.62,20.48 L135.78,20.86 C136.174,21.004 136.579,21.117 136.99,21.2 C137.41,21.29 137.83,21.4 138.26,21.48 C142.028,22.117 145.892,21.874 149.55,20.77 C150.044,20.593 150.558,20.475 151.08,20.42 C151.605,20.365 152.135,20.365 152.66,20.42 C153.695,20.533 154.719,20.734 155.72,21.02 C157.72,21.57 159.66,22.3 161.56,23.02 L167.14,25.12 C168.07,25.456 168.889,26.041 169.51,26.81 C170.082,27.569 170.428,28.473 170.51,29.42 C170.528,30.264 170.605,31.106 170.74,31.94 L170.86,32.17 C170.917,32.216 170.971,32.266 171.02,32.32 C171.111,32.357 171.205,32.387 171.3,32.41 L171.37,32.41 L171.37,32.41 L171.52,32.41 C171.917,32.479 172.306,32.59 172.68,32.74 C174,33.276 175.195,34.079 176.19,35.1 C176.963,35.875 177.604,36.77 178.09,37.75 C178.401,38.389 178.642,39.059 178.81,39.75 z" fill="#2D7174"/>
        <path d="M175.4,11.86 L174.89,11.86 C174.414,11.827 173.936,11.827 173.46,11.86 C172.722,11.921 171.99,12.038 171.27,12.21 C170.825,12.306 170.387,12.433 169.96,12.59 C169.483,12.749 169.015,12.936 168.56,13.15 C168.08,13.36 167.61,13.65 167.12,13.93 C166.644,14.267 166.193,14.638 165.77,15.04 C164.82,15.869 164.012,16.849 163.38,17.94 C163.057,18.521 162.78,19.126 162.55,19.75 L162.21,20.75 L161.98,21.75 C161.695,23.114 161.574,24.507 161.62,25.9 C161.659,28.654 162.145,31.382 163.06,33.98 C163.91,36.48 165.06,38.69 165.84,40.66 C166.24,41.548 166.516,42.487 166.66,43.45 C166.768,44.206 166.613,44.976 166.22,45.63 C165.951,46.022 165.612,46.361 165.22,46.63 L164.8,46.91 L165.21,46.61 C165.607,46.327 165.947,45.971 166.21,45.56 C166.567,44.915 166.69,44.166 166.56,43.44 C166.38,42.499 166.088,41.582 165.69,40.71 C164.86,38.77 163.69,36.56 162.82,34.05 C161.859,31.426 161.332,28.663 161.26,25.87 C161.231,24.448 161.372,23.028 161.68,21.64 L161.92,20.64 L162.28,19.64 C162.522,19.002 162.813,18.383 163.15,17.79 C163.81,16.681 164.648,15.687 165.63,14.85 C166.081,14.463 166.559,14.109 167.06,13.79 C167.56,13.51 168.06,13.22 168.53,13.01 C169.415,12.605 170.345,12.307 171.3,12.12 C172.032,11.971 172.774,11.877 173.52,11.84 C173.999,11.807 174.481,11.807 174.96,11.84 z" fill="#2D7174"/>
        <path d="M76.19,49.83 L77.56,49.24 C78.887,48.762 80.252,48.394 81.64,48.14 C83.43,47.8 85.64,47.53 88.15,47.31 L92.15,46.94 C93.614,46.832 95.065,46.581 96.48,46.19 C96.828,46.075 97.163,45.924 97.48,45.74 C97.83,45.53 98.16,45.31 98.48,45.12 C99.2,44.71 99.94,44.35 100.71,43.99 C102.296,43.257 103.926,42.623 105.59,42.09 C107.354,41.505 109.173,41.106 111.02,40.9 C112.004,40.796 112.998,40.836 113.97,41.02 L114.16,41.02 L114.29,41.02 C114.399,41.037 114.511,41.037 114.62,41.02 L114.84,41.02 L115.11,40.91 C115.489,40.701 115.827,40.427 116.11,40.1 C117.299,38.565 118.34,36.921 119.22,35.19 C120.187,33.381 121.297,31.652 122.54,30.02 C123.194,29.18 123.95,28.424 124.79,27.77 C125.669,27.088 126.697,26.625 127.79,26.42 C128.897,26.234 130.033,26.333 131.09,26.71 C132.072,27.033 133.074,27.29 134.09,27.48 C136.087,27.854 138.121,27.991 140.15,27.89 C142.183,27.812 144.209,27.588 146.21,27.22 C150.121,26.503 153.975,25.5 157.74,24.22 C159.57,23.62 161.39,22.93 163.19,22.43 C164.08,22.14 165.03,22 165.93,21.78 C166.83,21.56 167.74,21.49 168.63,21.36 C172.2,20.94 175.63,20.92 178.63,20.64 C181.437,20.455 184.199,19.841 186.82,18.82 C187.904,18.374 188.95,17.842 189.95,17.23 C190.84,16.62 191.66,16.04 192.37,15.47 L194.16,13.85 C194.66,13.35 195.04,12.85 195.38,12.54 L196.38,11.44 L195.38,12.58 C195.06,12.95 194.69,13.42 194.21,13.94 L192.46,15.62 C191.77,16.21 190.96,16.82 190.07,17.46 C189.073,18.109 188.027,18.677 186.94,19.16 C184.305,20.266 181.509,20.941 178.66,21.16 C175.55,21.5 172.17,21.57 168.66,22.05 C167.79,22.2 166.9,22.33 166.02,22.51 C165.14,22.69 164.26,22.88 163.37,23.18 C161.57,23.72 159.81,24.38 157.95,25.01 C154.152,26.337 150.261,27.383 146.31,28.14 C144.267,28.528 142.198,28.768 140.12,28.86 C138.008,28.978 135.89,28.843 133.81,28.46 C132.774,28.257 131.751,27.986 130.75,27.65 C129.849,27.32 128.878,27.227 127.93,27.38 C126.027,27.859 124.361,29.009 123.24,30.62 C122.022,32.197 120.932,33.869 119.98,35.62 C119.062,37.407 117.973,39.102 116.73,40.68 C116.377,41.086 115.953,41.425 115.48,41.68 L115.07,41.84 C114.908,41.874 114.745,41.898 114.58,41.91 C114.45,41.926 114.32,41.926 114.19,41.91 L113.96,41.91 L113.79,41.91 C112.901,41.74 111.992,41.693 111.09,41.77 C109.298,41.942 107.528,42.301 105.81,42.84 C104.165,43.337 102.552,43.935 100.98,44.63 C100.22,44.97 99.48,45.32 98.78,45.7 C98.43,45.88 98.08,46.1 97.78,46.29 C97.416,46.494 97.03,46.659 96.63,46.78 C95.171,47.167 93.677,47.401 92.17,47.48 L88.17,47.74 C85.65,47.89 83.46,48.1 81.67,48.39 C80.283,48.618 78.916,48.953 77.58,49.39 z" fill="#2D7174"/>
        <path d="M99.01,4.4 L100.11,4.82 L101.44,5.32 C101.97,5.48 102.6,5.6 103.29,5.78 C103.652,5.882 104.024,5.942 104.4,5.96 L105.63,6.08 C106.551,6.08 107.469,5.983 108.37,5.79 C109.393,5.53 110.396,5.196 111.37,4.79 C112.508,4.433 113.676,4.182 114.86,4.04 C117.3,3.66 119.96,3.36 122.79,3.15 C125.758,2.915 128.738,2.881 131.71,3.05 C133.292,3.144 134.865,3.344 136.42,3.65 C138.055,3.934 139.628,4.499 141.07,5.32 C141.831,5.764 142.483,6.372 142.98,7.1 L143.63,8.16 C143.815,8.515 144.036,8.85 144.29,9.16 C145.267,10.4 146.459,11.453 147.81,12.27 C150.51,14.02 153.57,15.34 156.28,17.21 C157.63,18.141 158.865,19.229 159.96,20.45 C160.484,21.082 160.962,21.75 161.39,22.45 L162.02,23.45 L162.54,24.45 C163.229,25.814 163.83,27.22 164.34,28.66 C164.85,30.06 165.25,31.47 165.76,32.75 C166.212,33.992 166.989,35.09 168.01,35.93 C168.996,36.703 170.083,37.339 171.24,37.82 C172.349,38.273 173.4,38.857 174.37,39.56 C175.236,40.208 176.018,40.96 176.7,41.8 C177.8,43.166 178.604,44.746 179.06,46.44 C179.39,47.519 179.449,48.663 179.23,49.77 C179.179,50.174 178.927,50.524 178.56,50.7 C178.649,50.657 178.73,50.6 178.8,50.53 C178.993,50.313 179.121,50.046 179.17,49.76 C179.331,48.665 179.229,47.547 178.87,46.5 C178.367,44.862 177.529,43.347 176.41,42.05 C174.946,40.387 173.09,39.115 171.01,38.35 C169.788,37.872 168.638,37.229 167.59,36.44 C166.467,35.549 165.601,34.375 165.08,33.04 C164.52,31.71 164.08,30.32 163.57,28.95 C163.047,27.551 162.446,26.182 161.77,24.85 L161.24,23.85 L160.65,22.85 C160.241,22.202 159.786,21.584 159.29,21 C158.238,19.845 157.053,18.818 155.76,17.94 C153.14,16.14 150.1,14.87 147.27,13.07 C145.817,12.176 144.539,11.024 143.5,9.67 C143.24,9.359 143.009,9.024 142.81,8.67 L142.19,7.67 C141.77,7.052 141.216,6.536 140.57,6.16 C139.225,5.384 137.757,4.847 136.23,4.57 C134.719,4.264 133.189,4.06 131.65,3.96 C128.712,3.789 125.768,3.789 122.83,3.96 C120.02,4.1 117.37,4.35 114.94,4.68 C113.783,4.797 112.639,5.015 111.52,5.33 C110.517,5.705 109.487,6.005 108.44,6.23 C107.506,6.397 106.558,6.464 105.61,6.43 L104.36,6.27 C103.98,6.239 103.604,6.165 103.24,6.05 C102.54,5.85 101.91,5.7 101.39,5.51 L100.09,4.95 z" fill="#2D7174"/>
        <path d="M164.394,22.238 C164.998,23.846 164.185,25.639 162.577,26.244 C160.97,26.848 159.176,26.035 158.572,24.427 C157.967,22.82 158.78,21.026 160.388,20.422 C161.996,19.817 163.789,20.63 164.394,22.238 z" fill="#2D7174"/>
        <path d="M141.033,27.673 C141.435,28.738 140.898,29.926 139.833,30.328 C138.769,30.73 137.58,30.192 137.179,29.128 C136.777,28.063 137.314,26.875 138.379,26.473 C139.443,26.072 140.632,26.609 141.033,27.673 z" fill="#2D7174"/>
        <path d="M196.453,12.62 C196.855,13.684 196.318,14.873 195.253,15.274 C194.189,15.676 193,15.139 192.599,14.074 C192.197,13.01 192.734,11.821 193.799,11.419 C194.863,11.018 196.052,11.555 196.453,12.62 z" fill="#2D7174"/>
        <path d="M149.089,11.728 C149.49,12.792 148.953,13.981 147.888,14.382 C146.824,14.784 145.635,14.247 145.234,13.182 C144.832,12.118 145.37,10.929 146.434,10.528 C147.499,10.126 148.687,10.663 149.089,11.728 z" fill="#2D7174"/>
        <path d="M135.557,27.477 C135.877,28.324 135.449,29.27 134.602,29.59 C133.754,29.91 132.808,29.482 132.488,28.634 C132.169,27.787 132.597,26.841 133.444,26.521 C134.291,26.201 135.238,26.629 135.557,27.477 z" fill="#2D7174"/>
        <path d="M142.864,47.294 C143.183,48.142 142.755,49.088 141.908,49.407 C141.061,49.727 140.114,49.299 139.795,48.452 C139.475,47.604 139.903,46.658 140.75,46.339 C141.598,46.019 142.544,46.447 142.864,47.294 z" fill="#2D7174"/>
        <path d="M120.867,54.797 C121.187,55.644 120.759,56.591 119.912,56.91 C119.064,57.23 118.118,56.802 117.798,55.955 C117.479,55.107 117.906,54.161 118.754,53.841 C119.601,53.522 120.547,53.949 120.867,54.797 z" fill="#2D7174"/>
        <path d="M154.033,14.982 C154.352,15.83 153.924,16.776 153.077,17.096 C152.23,17.415 151.283,16.988 150.964,16.14 C150.644,15.293 151.072,14.347 151.919,14.027 C152.767,13.707 153.713,14.135 154.033,14.982 z" fill="#2D7174"/>
        <path d="M140.919,21.377 C141.239,22.225 140.811,23.171 139.964,23.491 C139.116,23.81 138.17,23.383 137.85,22.535 C137.531,21.688 137.958,20.742 138.806,20.422 C139.653,20.102 140.599,20.53 140.919,21.377 z" fill="#2D7174"/>
        <path d="M176.533,11.541 C176.853,12.388 176.425,13.335 175.578,13.654 C174.731,13.974 173.784,13.546 173.465,12.699 C173.145,11.851 173.573,10.905 174.42,10.585 C175.268,10.266 176.214,10.694 176.533,11.541 z" fill="#2D7174"/>
        <path d="M174,38.207 C174.32,39.055 173.892,40.001 173.045,40.321 C172.197,40.64 171.251,40.212 170.932,39.365 C170.612,38.518 171.04,37.571 171.887,37.252 C172.735,36.932 173.681,37.36 174,38.207 z" fill="#2D7174"/>
        <path d="M166.847,45.501 C167.167,46.349 166.739,47.295 165.892,47.615 C165.045,47.934 164.098,47.506 163.779,46.659 C163.459,45.812 163.887,44.865 164.734,44.546 C165.582,44.226 166.528,44.654 166.847,45.501 z" fill="#2D7174"/>
        <path d="M137.94,3.51 C138.259,4.358 137.831,5.304 136.984,5.624 C136.137,5.943 135.19,5.515 134.871,4.668 C134.551,3.821 134.979,2.874 135.826,2.555 C136.674,2.235 137.62,2.663 137.94,3.51 z" fill="#2D7174"/>
        <path d="M98.732,45.648 C99.052,46.495 98.624,47.441 97.776,47.761 C96.929,48.081 95.983,47.653 95.663,46.805 C95.343,45.958 95.771,45.012 96.619,44.692 C97.466,44.372 98.412,44.8 98.732,45.648 z" fill="#2D7174"/>
        <path d="M103.388,57.65 C103.707,58.498 103.28,59.444 102.432,59.763 C101.585,60.083 100.639,59.655 100.319,58.808 C99.999,57.96 100.427,57.014 101.274,56.695 C102.122,56.375 103.068,56.803 103.388,57.65 z" fill="#2D7174"/>
        <path d="M98.857,25.141 C99.177,25.989 98.749,26.935 97.902,27.255 C97.054,27.574 96.108,27.146 95.788,26.299 C95.469,25.452 95.897,24.505 96.744,24.186 C97.591,23.866 98.538,24.294 98.857,25.141 z" fill="#2D7174"/>
        <path d="M94.377,23.049 C94.574,23.571 94.31,24.154 93.788,24.351 C93.266,24.547 92.684,24.284 92.487,23.762 C92.29,23.24 92.554,22.657 93.076,22.461 C93.598,22.264 94.18,22.527 94.377,23.049 z" fill="#2D7174"/>
        <path d="M84.572,47.676 C84.843,48.394 84.48,49.196 83.762,49.467 C83.044,49.738 82.242,49.375 81.971,48.657 C81.7,47.939 82.062,47.137 82.781,46.866 C83.499,46.595 84.301,46.957 84.572,47.676 z" fill="#2D7174"/>
        <path d="M103.339,43.358 C103.61,44.077 103.247,44.878 102.529,45.149 C101.81,45.42 101.009,45.058 100.738,44.34 C100.467,43.621 100.829,42.819 101.547,42.548 C102.266,42.277 103.068,42.64 103.339,43.358 z" fill="#2D7174"/>
        <path d="M112.009,46.355 C112.28,47.073 111.918,47.875 111.2,48.146 C110.481,48.417 109.679,48.054 109.408,47.336 C109.137,46.618 109.5,45.816 110.218,45.545 C110.937,45.274 111.738,45.637 112.009,46.355 z" fill="#2D7174"/>
        <path d="M106.033,54.122 C106.304,54.84 105.941,55.642 105.223,55.914 C104.505,56.185 103.703,55.822 103.432,55.104 C103.161,54.386 103.523,53.584 104.241,53.313 C104.96,53.042 105.762,53.404 106.033,54.122 z" fill="#2D7174"/>
        <path d="M107.985,5.75 C108.256,6.468 107.894,7.27 107.176,7.542 C106.458,7.813 105.656,7.45 105.384,6.732 C105.113,6.014 105.476,5.212 106.194,4.941 C106.912,4.67 107.714,5.032 107.985,5.75 z" fill="#2D7174"/>
        <path d="M77.778,49.196 C78.041,49.894 77.689,50.672 76.992,50.936 C76.294,51.199 75.515,50.847 75.252,50.149 C74.989,49.451 75.341,48.673 76.039,48.409 C76.736,48.146 77.515,48.498 77.778,49.196 z" fill="#2D7174"/>
        <path d="M116.662,40.899 C117.046,41.917 116.532,43.054 115.514,43.438 C114.496,43.822 113.36,43.308 112.976,42.29 C112.592,41.272 113.106,40.136 114.124,39.752 C115.141,39.368 116.278,39.881 116.662,40.899 z" fill="#2D7174"/>
        <path d="M102.213,3.958 C102.597,4.976 102.083,6.112 101.065,6.497 C100.047,6.881 98.911,6.367 98.527,5.349 C98.143,4.331 98.656,3.194 99.674,2.81 C100.692,2.426 101.829,2.94 102.213,3.958 z" fill="#2D7174"/>
        <path d="M120.379,3.213 C120.763,4.23 120.249,5.367 119.231,5.751 C118.213,6.135 117.076,5.621 116.692,4.603 C116.308,3.585 116.822,2.449 117.84,2.065 C118.858,1.681 119.995,2.195 120.379,3.213 z" fill="#2D7174"/>
        <path d="M180.411,49.707 C180.795,50.725 180.281,51.862 179.263,52.246 C178.245,52.63 177.108,52.116 176.724,51.098 C176.34,50.08 176.854,48.944 177.872,48.56 C178.89,48.175 180.026,48.689 180.411,49.707 z" fill="#2D7174"/>
        <path d="M155.22,25.18 C155.656,26.316 155.362,27.603 154.477,28.438 C153.591,29.272 152.289,29.489 151.181,28.987 C150.072,28.485 149.377,27.363 149.421,26.147 C149.465,24.931 150.238,23.861 151.38,23.44 C152.92,22.871 154.632,23.647 155.22,25.18 z" fill="#2D7174"/>
        <path d="M171.859,26.75 C172.307,27.939 171.707,29.266 170.519,29.714 C169.33,30.162 168.003,29.562 167.555,28.374 C167.106,27.185 167.706,25.858 168.895,25.41 C170.083,24.962 171.41,25.562 171.859,26.75 z" fill="#2D7174"/>
        <path d="M129,2.24 C129.436,3.376 129.142,4.663 128.257,5.498 C127.371,6.332 126.069,6.549 124.961,6.047 C123.852,5.545 123.157,4.423 123.201,3.207 C123.245,1.991 124.018,0.921 125.16,0.5 C126.7,-0.069 128.412,0.707 129,2.24 z" fill="#2D7174"/>
        <path d="M123.816,30.185 C124.104,30.944 123.721,31.793 122.962,32.08 C122.202,32.367 121.354,31.985 121.067,31.225 C120.779,30.466 121.162,29.618 121.921,29.33 C122.681,29.043 123.529,29.426 123.816,30.185 z" fill="#2D7174"/>
        <path d="M101.628,29.022 C101.915,29.781 101.532,30.629 100.773,30.917 C100.014,31.204 99.165,30.821 98.878,30.062 C98.591,29.303 98.973,28.454 99.733,28.167 C100.492,27.88 101.341,28.262 101.628,29.022 z" fill="#2D7174"/>
        <path d="M113.688,4.105 C113.975,4.865 113.593,5.713 112.833,6 C112.074,6.288 111.225,5.905 110.938,5.146 C110.651,4.386 111.034,3.538 111.793,3.25 C112.552,2.963 113.401,3.346 113.688,4.105 z" fill="#2D7174"/>
        <path d="M130.833,25.823 C131.451,27.461 130.623,29.29 128.985,29.907 C127.347,30.525 125.518,29.697 124.901,28.059 C124.283,26.42 125.111,24.592 126.749,23.974 C128.387,23.357 130.216,24.185 130.833,25.823 z" fill="#2D7174"/>
        <path d="M113.06,32.434 C113.677,34.073 112.85,35.901 111.211,36.519 C109.573,37.136 107.744,36.308 107.127,34.67 C106.51,33.032 107.337,31.203 108.975,30.586 C110.614,29.968 112.442,30.796 113.06,32.434 z" fill="#2D7174"/>
        <path d="M145.276,5.859 C145.893,7.498 145.066,9.326 143.428,9.944 C141.789,10.561 139.961,9.733 139.343,8.095 C138.726,6.457 139.553,4.628 141.192,4.011 C142.83,3.394 144.659,4.221 145.276,5.859 z" fill="#2D7174"/>
        <path d="M154.82,37.436 C155.437,39.074 154.61,40.903 152.972,41.52 C151.333,42.138 149.505,41.31 148.887,39.672 C148.27,38.034 149.097,36.205 150.736,35.588 C152.374,34.97 154.203,35.798 154.82,37.436 z" fill="#2D7174"/>
        <path d="M192.66,16.28 C193.278,17.919 192.45,19.747 190.812,20.365 C189.173,20.982 187.345,20.154 186.727,18.516 C186.11,16.878 186.938,15.049 188.576,14.432 C190.214,13.814 192.043,14.642 192.66,16.28 z" fill="#2D7174"/>
        <path d="M152.73,20.066 C153.129,21.125 152.593,22.307 151.534,22.706 C150.474,23.105 149.292,22.57 148.893,21.51 C148.494,20.451 149.03,19.268 150.089,18.869 C151.149,18.47 152.331,19.006 152.73,20.066 z" fill="#2D7174"/>
        <path d="M135.725,21.039 C136.25,22.451 135.532,24.022 134.12,24.547 C132.708,25.073 131.137,24.355 130.611,22.943 C130.085,21.531 130.804,19.96 132.216,19.434 C133.628,18.908 135.199,19.627 135.725,21.039 z" fill="#2D7174"/>
        <path d="M128.147,13.977 C128.546,15.037 128.01,16.219 126.951,16.618 C125.891,17.017 124.709,16.481 124.31,15.422 C123.911,14.362 124.447,13.18 125.506,12.781 C126.566,12.382 127.748,12.917 128.147,13.977 z" fill="#2D7174"/>
        <path d="M168.073,16.912 C168.552,18.199 167.897,19.631 166.61,20.111 C165.322,20.59 163.89,19.935 163.41,18.648 C162.931,17.36 163.586,15.928 164.874,15.448 C166.161,14.969 167.593,15.624 168.073,16.912 z" fill="#2D7174"/>
        <path d="M179.282,20.113 C179.845,21.607 179.091,23.274 177.597,23.837 C176.104,24.4 174.437,23.645 173.874,22.152 C173.311,20.658 174.065,18.991 175.559,18.428 C177.052,17.865 178.719,18.62 179.282,20.113 z" fill="#2D7174"/>
        <path d="M180.95,39.263 C181.396,40.446 180.798,41.767 179.615,42.213 C178.431,42.659 177.11,42.062 176.664,40.878 C176.218,39.695 176.816,38.374 177.999,37.928 C179.183,37.482 180.504,38.079 180.95,39.263 z" fill="#2D7174"/>
        <path d="M110.669,41.051 C111.253,42.602 110.47,44.332 108.92,44.917 C107.369,45.501 105.639,44.718 105.055,43.167 C104.47,41.617 105.253,39.886 106.804,39.302 C108.354,38.718 110.085,39.501 110.669,41.051 z" fill="#2D7174"/>
        <path d="M146.822,27.119 C147.267,28.297 146.672,29.612 145.494,30.057 C144.315,30.501 143,29.906 142.556,28.728 C142.111,27.549 142.706,26.234 143.885,25.79 C145.063,25.346 146.378,25.94 146.822,27.119 z" fill="#2D7174"/>
        <path d="M171.105,21.015 C171.55,22.193 170.955,23.509 169.776,23.953 C168.598,24.397 167.283,23.802 166.839,22.624 C166.394,21.446 166.989,20.13 168.168,19.686 C169.346,19.242 170.661,19.837 171.105,21.015 z" fill="#2D7174"/>
        <path d="M147.867,42.723 C148.203,43.611 147.754,44.604 146.865,44.939 C145.976,45.274 144.984,44.825 144.649,43.936 C144.314,43.047 144.762,42.055 145.651,41.72 C146.54,41.385 147.532,41.834 147.867,42.723 z" fill="#2D7174"/>
        <path d="M155.296,31.236 C155.613,32.078 155.188,33.018 154.346,33.336 C153.503,33.653 152.563,33.228 152.245,32.386 C151.928,31.543 152.353,30.603 153.195,30.285 C154.038,29.968 154.978,30.393 155.296,31.236 z" fill="#2D7174"/>
        <path d="M177.043,33.909 C177.36,34.752 176.935,35.692 176.093,36.01 C175.25,36.327 174.31,35.902 173.992,35.06 C173.675,34.217 174.1,33.277 174.942,32.959 C175.785,32.642 176.725,33.067 177.043,33.909 z" fill="#2D7174"/>
        <path d="M171.377,11.864 C171.694,12.707 171.269,13.647 170.427,13.965 C169.584,14.282 168.644,13.857 168.327,13.015 C168.009,12.172 168.434,11.232 169.277,10.914 C170.119,10.597 171.059,11.022 171.377,11.864 z" fill="#2D7174"/>
        <path d="M172.134,31.825 C172.452,32.668 172.027,33.608 171.184,33.926 C170.342,34.243 169.402,33.818 169.084,32.976 C168.767,32.133 169.192,31.193 170.034,30.875 C170.877,30.558 171.817,30.983 172.134,31.825 z" fill="#2D7174"/>
        <path d="M146.951,21.25 C147.269,22.092 146.843,23.033 146.001,23.35 C145.159,23.668 144.218,23.242 143.901,22.4 C143.583,21.558 144.008,20.617 144.851,20.3 C145.693,19.982 146.633,20.408 146.951,21.25 z" fill="#2D7174"/>
        <path d="M165.718,29.14 C166.035,29.982 165.61,30.923 164.768,31.24 C163.925,31.558 162.985,31.133 162.667,30.29 C162.35,29.448 162.775,28.508 163.617,28.19 C164.46,27.872 165.4,28.298 165.718,29.14 z" fill="#2D7174"/>
        <path d="M164.235,33.167 C164.553,34.009 164.128,34.949 163.285,35.267 C162.443,35.584 161.503,35.159 161.185,34.317 C160.867,33.474 161.293,32.534 162.135,32.216 C162.977,31.899 163.918,32.324 164.235,33.167 z" fill="#2D7174"/>
        <path d="M185.244,19.305 C185.562,20.147 185.136,21.088 184.294,21.405 C183.452,21.723 182.511,21.298 182.194,20.455 C181.876,19.613 182.301,18.673 183.144,18.355 C183.986,18.037 184.926,18.463 185.244,19.305 z" fill="#2D7174"/>
        <path d="M179.135,42.997 C179.453,43.84 179.028,44.78 178.185,45.098 C177.343,45.415 176.403,44.99 176.085,44.148 C175.767,43.305 176.193,42.365 177.035,42.047 C177.877,41.73 178.818,42.155 179.135,42.997 z" fill="#2D7174"/>
        <path d="M138.294,48.836 C138.762,50.076 138.136,51.461 136.895,51.928 C135.655,52.396 134.271,51.77 133.803,50.53 C133.335,49.289 133.962,47.905 135.202,47.437 C136.442,46.97 137.827,47.596 138.294,48.836 z" fill="#2D7174"/>
        <path d="M133.459,54.998 C133.927,56.238 133.3,57.622 132.06,58.09 C130.82,58.558 129.435,57.931 128.968,56.691 C128.5,55.451 129.126,54.066 130.366,53.599 C131.607,53.131 132.991,53.757 133.459,54.998 z" fill="#2D7174"/>
        <path d="M130.752,47.927 C131.079,48.795 130.641,49.764 129.773,50.092 C128.905,50.419 127.935,49.981 127.608,49.112 C127.281,48.244 127.719,47.275 128.587,46.948 C129.455,46.62 130.425,47.059 130.752,47.927 z" fill="#2D7174"/>
        <path d="M124.596,57.748 C124.924,58.616 124.485,59.586 123.617,59.913 C122.749,60.24 121.78,59.802 121.452,58.934 C121.125,58.065 121.563,57.096 122.432,56.769 C123.3,56.442 124.269,56.88 124.596,57.748 z" fill="#2D7174"/>
        <path d="M108.427,49.071 C108.755,49.939 108.316,50.908 107.448,51.236 C106.58,51.563 105.611,51.125 105.283,50.256 C104.956,49.388 105.394,48.419 106.262,48.092 C107.131,47.764 108.1,48.203 108.427,49.071 z" fill="#2D7174"/>
        <path d="M115.836,27.804 C116.163,28.672 115.725,29.642 114.857,29.969 C113.989,30.296 113.02,29.858 112.692,28.99 C112.365,28.122 112.803,27.152 113.671,26.825 C114.54,26.498 115.509,26.936 115.836,27.804 z" fill="#2D7174"/>
        <path d="M113.002,23.187 C113.171,23.637 112.944,24.139 112.495,24.308 C112.045,24.478 111.543,24.251 111.374,23.801 C111.204,23.352 111.431,22.85 111.881,22.68 C112.331,22.511 112.832,22.738 113.002,23.187 z" fill="#2D7174"/>
        <path d="M159.036,17.143 C159.48,18.321 158.885,19.636 157.707,20.08 C156.529,20.525 155.214,19.93 154.769,18.751 C154.325,17.573 154.92,16.258 156.098,15.814 C157.277,15.369 158.592,15.964 159.036,17.143 z" fill="#2D7174"/>
        <path d="M169.307,34.866 C169.751,36.044 169.156,37.36 167.978,37.804 C166.8,38.248 165.485,37.653 165.04,36.475 C164.596,35.297 165.191,33.981 166.369,33.537 C167.547,33.093 168.863,33.688 169.307,34.866 z" fill="#2D7174"/>
        <path d="M169.116,43.188 C169.557,44.371 168.955,45.688 167.771,46.129 C166.587,46.57 165.27,45.967 164.83,44.784 C164.389,43.6 164.991,42.283 166.175,41.843 C167.359,41.402 168.675,42.004 169.116,43.188 z" fill="#2D7174"/>
        <path d="M92.326,46.529 C92.77,47.707 92.175,49.023 90.997,49.467 C89.818,49.911 88.503,49.316 88.059,48.138 C87.615,46.96 88.21,45.645 89.388,45.2 C90.566,44.756 91.881,45.351 92.326,46.529 z" fill="#2D7174"/>
        <path d="M120.98,35.968 C121.424,37.146 120.829,38.461 119.651,38.906 C118.472,39.35 117.157,38.755 116.713,37.577 C116.269,36.398 116.864,35.083 118.042,34.639 C119.22,34.195 120.535,34.79 120.98,35.968 z" fill="#2D7174"/>
        <path d="M118.324,49.617 C118.768,50.795 118.173,52.111 116.995,52.555 C115.817,52.999 114.501,52.404 114.057,51.226 C113.613,50.048 114.208,48.733 115.386,48.288 C116.564,47.844 117.88,48.439 118.324,49.617 z" fill="#2D7174"/>
        <path d="M104.641,35.315 C105.085,36.493 104.49,37.808 103.312,38.252 C102.134,38.697 100.819,38.102 100.374,36.924 C99.93,35.745 100.525,34.43 101.703,33.986 C102.882,33.541 104.197,34.136 104.641,35.315 z" fill="#2D7174"/>
      </g>
      <path d="M93.24,23.23 Q94.6,23.99 95.94,24.79 L97.27,25.62 C97.69,25.93 98.14,26.22 98.54,26.62 C98.951,26.97 99.32,27.366 99.64,27.8 C99.974,28.236 100.243,28.717 100.44,29.23 C100.59,29.74 100.7,30.35 100.79,30.81 C100.878,31.297 101.019,31.773 101.21,32.23 C101.995,34.116 103.002,35.902 104.21,37.55 C104.806,38.379 105.443,39.176 106.12,39.94 C106.771,40.688 107.506,41.359 108.31,41.94 L107.56,42.37 L107.56,40.98 C107.564,40.515 107.597,40.051 107.66,39.59 C107.696,39.126 107.763,38.665 107.86,38.21 C107.941,37.747 108.052,37.289 108.19,36.84 C108.322,36.384 108.489,35.94 108.69,35.51 C108.881,35.069 109.119,34.65 109.4,34.26 C109.685,33.855 110.021,33.489 110.4,33.17 C110.772,32.88 111.159,32.609 111.56,32.36 C111.905,32.114 112.224,31.832 112.51,31.52 C112.804,31.212 113.069,30.877 113.3,30.52 C113.54,30.157 113.738,29.768 113.89,29.36 C114.045,28.957 114.156,28.537 114.22,28.11 C114.288,27.679 114.288,27.241 114.22,26.81 C114.155,26.375 114.03,25.951 113.85,25.55 L113.53,24.97 C113.42,24.78 113.26,24.61 113.14,24.43 C112.861,24.073 112.553,23.738 112.22,23.43 C112.576,23.703 112.911,24.004 113.22,24.33 C113.379,24.495 113.529,24.669 113.67,24.85 L114.05,25.43 C114.272,25.842 114.437,26.283 114.54,26.74 C114.646,27.202 114.68,27.678 114.64,28.15 C114.632,28.386 114.598,28.621 114.54,28.85 C114.497,29.082 114.434,29.309 114.35,29.53 C114.205,29.98 114.011,30.413 113.77,30.82 C113.538,31.232 113.266,31.62 112.96,31.98 C112.663,32.348 112.328,32.683 111.96,32.98 C111.613,33.23 111.28,33.497 110.96,33.78 C110.661,34.084 110.396,34.419 110.17,34.78 C109.926,35.13 109.722,35.505 109.56,35.9 C109.385,36.295 109.241,36.703 109.13,37.12 C109.01,37.54 108.917,37.968 108.85,38.4 C108.764,38.832 108.707,39.27 108.68,39.71 C108.625,40.148 108.598,40.589 108.6,41.03 L108.6,43.26 L107.86,42.79 C106.957,42.182 106.146,41.448 105.45,40.61 C104.764,39.807 104.12,38.969 103.52,38.1 Q102.62,36.8 101.85,35.42 C101.6,34.95 101.35,34.49 101.13,34.01 C100.897,33.531 100.697,33.036 100.53,32.53 C100.345,32.018 100.214,31.489 100.14,30.95 C100.06,30.38 100,29.95 99.89,29.47 C99.737,29.008 99.518,28.57 99.24,28.17 C98.953,27.752 98.617,27.369 98.24,27.03 C97.88,26.68 97.47,26.36 97.09,26.03 L95.77,25.04 z" fill="#2D7174"/>
      <path d="M98.44,61.54 C98.824,61.28 99.191,60.996 99.54,60.69 C99.88,60.38 100.23,60.07 100.54,59.69 C101.19,59.032 101.797,58.334 102.36,57.6 Q103.19,56.49 103.92,55.32 L104.61,54.12 L105.22,52.89 C105.41,52.47 105.58,52.04 105.76,51.62 C105.94,51.2 106.07,50.76 106.22,50.33 C106.376,49.901 106.506,49.464 106.61,49.02 C106.72,48.58 106.88,48.14 106.95,47.69 L107.22,46.34 C107.3,45.89 107.33,45.43 107.39,44.98 C107.456,44.526 107.493,44.069 107.5,43.61 L107.55,42.24 L107.6,40.86 L108.4,41.98 C109.18,43.07 109.91,44.19 110.63,45.31 C111.267,46.426 112.029,47.466 112.9,48.41 C113.334,48.819 113.858,49.12 114.43,49.29 C114.724,49.378 115.025,49.441 115.33,49.48 L115.56,49.48 L115.62,49.48 L115.73,49.48 L115.85,49.48 C116.057,49.528 116.255,49.605 116.44,49.71 C117.043,50.139 117.537,50.704 117.88,51.36 C118.23,51.95 118.53,52.55 118.83,53.14 C119.361,54.32 120.033,55.431 120.83,56.45 C121.621,57.435 122.781,58.053 124.04,58.16 C124.679,58.189 125.319,58.125 125.94,57.97 C126.575,57.819 127.195,57.608 127.79,57.34 C128.395,57.073 128.982,56.769 129.55,56.43 C130.13,56.11 130.68,55.74 131.24,55.43 C130.71,55.83 130.24,56.26 129.64,56.63 C129.087,56.998 128.513,57.332 127.92,57.63 C127.323,57.949 126.697,58.21 126.05,58.41 C125.404,58.618 124.729,58.72 124.05,58.71 C122.623,58.646 121.283,58.003 120.34,56.93 C119.445,55.899 118.689,54.756 118.09,53.53 C117.78,52.94 117.48,52.35 117.15,51.81 C116.872,51.291 116.482,50.841 116.01,50.49 C115.68,50.28 114.84,50.32 114.17,50.09 C113.464,49.887 112.813,49.525 112.27,49.03 C111.76,48.548 111.303,48.011 110.91,47.43 C110.51,46.87 110.16,46.31 109.81,45.74 C109.11,44.61 108.41,43.5 107.66,42.42 L108.51,42.15 L108.44,43.57 C108.426,44.042 108.383,44.513 108.31,44.98 C108.24,45.45 108.2,45.92 108.11,46.39 L107.77,47.93 C107.68,48.4 107.52,48.84 107.4,49.3 C107.273,49.755 107.12,50.203 106.94,50.64 C106.76,51.08 106.62,51.53 106.41,51.95 C106.2,52.37 106.02,52.81 105.8,53.23 L105.12,54.47 L104.37,55.66 C104.11,56.05 103.82,56.43 103.55,56.81 C103.28,57.19 102.95,57.54 102.66,57.9 C101.465,59.339 100.039,60.569 98.44,61.54 z" fill="#2D7174"/>
    </g>
  </g>
</svg>
