<?xml version="1.0" encoding="UTF-8"?>
<!DOCTYPE svg PUBLIC "-//W3C//DTD SVG 1.1//EN" "http://www.w3.org/Graphics/SVG/1.1/DTD/svg11.dtd">
<svg version="1.1" xmlns="http://www.w3.org/2000/svg" xmlns:xlink="http://www.w3.org/1999/xlink" x="0" y="0" width="194.49" height="58.07" viewBox="0, 0, 194.49, 58.07">
  <g id="Layer_1">
    <g>
      <g>
        <path d="M143.39,66.47 C130.08,66.47 119.29,55.68 119.29,42.37 C119.29,29.06 130.08,18.27 143.39,18.27 C156.7,18.27 167.49,29.06 167.49,42.37 C167.473,55.673 156.693,66.453 143.39,66.47 z M143.39,18.47 C130.19,18.47 119.49,29.17 119.49,42.37 C119.49,55.57 130.19,66.27 143.39,66.27 C156.59,66.27 167.29,55.57 167.29,42.37 C167.273,29.177 156.583,18.487 143.39,18.47 z" fill="#5BA5B3"/>
        <path d="M171.72,52.47 C156.753,52.47 144.62,40.337 144.62,25.37 C144.62,10.403 156.753,-1.73 171.72,-1.73 C186.687,-1.73 198.82,10.403 198.82,25.37 C198.803,40.33 186.68,52.453 171.72,52.47 z M171.72,-1.53 C156.864,-1.53 144.82,10.514 144.82,25.37 C144.82,40.226 156.864,52.27 171.72,52.27 C186.576,52.27 198.62,40.226 198.62,25.37 C198.603,10.52 186.57,-1.513 171.72,-1.53 z" fill="#5BA5B3"/>
        <path d="M107.89,60.81 C94.486,60.81 83.62,49.944 83.62,36.54 C83.62,23.136 94.486,12.27 107.89,12.27 C121.294,12.27 132.16,23.136 132.16,36.54 C132.149,49.939 121.289,60.799 107.89,60.81 z M107.89,12.48 C94.597,12.48 83.82,23.257 83.82,36.55 C83.82,49.843 94.597,60.62 107.89,60.62 C121.183,60.62 131.96,49.843 131.96,36.55 C131.954,23.257 121.183,12.481 107.89,12.47 z" fill="#5BA5B3"/>
        <path d="M146.39,42.81 C137.498,42.81 130.29,35.602 130.29,26.71 C130.29,17.818 137.498,10.61 146.39,10.61 C155.282,10.61 162.49,17.818 162.49,26.71 C162.479,35.597 155.277,42.799 146.39,42.81 z M146.39,10.81 C137.609,10.81 130.49,17.929 130.49,26.71 C130.49,35.491 137.609,42.61 146.39,42.61 C155.171,42.61 162.29,35.491 162.29,26.71 C162.279,17.933 155.167,10.821 146.39,10.81 z" fill="#5BA5B3"/>
        <path d="M192.05,73.81 C181.501,73.81 172.95,65.259 172.95,54.71 C172.95,44.161 181.501,35.61 192.05,35.61 C202.599,35.61 211.15,44.161 211.15,54.71 C211.139,65.254 202.594,73.799 192.05,73.81 z M192.05,35.81 C181.612,35.81 173.15,44.272 173.15,54.71 C173.15,65.148 181.612,73.61 192.05,73.61 C202.488,73.61 210.95,65.148 210.95,54.71 C210.939,44.276 202.484,35.821 192.05,35.81 z" fill="#5BA5B3"/>
        <path d="M79.39,70.81 C71.421,70.81 64.96,64.349 64.96,56.38 C64.96,48.411 71.421,41.95 79.39,41.95 C87.359,41.95 93.82,48.411 93.82,56.38 C93.809,64.345 87.355,70.799 79.39,70.81 z M79.39,42.14 C71.531,42.14 65.16,48.511 65.16,56.37 C65.16,64.229 71.531,70.6 79.39,70.6 C87.249,70.6 93.62,64.229 93.62,56.37 C93.609,48.516 87.244,42.151 79.39,42.14 z" fill="#5BA5B3"/>
        <path d="M107.39,43.47 C102.546,43.47 98.62,39.544 98.62,34.7 C98.62,29.856 102.546,25.93 107.39,25.93 C112.234,25.93 116.16,29.856 116.16,34.7 C116.154,39.541 112.231,43.464 107.39,43.47 z M107.39,26.14 C102.657,26.14 98.82,29.977 98.82,34.71 C98.82,39.443 102.657,43.28 107.39,43.28 C112.123,43.28 115.96,39.443 115.96,34.71 C115.954,29.979 112.121,26.146 107.39,26.14 z" fill="#5BA5B3"/>
        <path d="M160.72,56.81 C148.885,56.81 139.29,47.215 139.29,35.38 C139.29,23.545 148.885,13.95 160.72,13.95 C172.555,13.95 182.15,23.545 182.15,35.38 C182.133,47.209 172.549,56.793 160.72,56.81 z M160.72,14.14 C148.995,14.14 139.49,23.645 139.49,35.37 C139.49,47.095 148.995,56.6 160.72,56.6 C172.445,56.6 181.95,47.095 181.95,35.37 C181.933,23.652 172.438,14.157 160.72,14.14 z" fill="#5BA5B3"/>
        <path d="M99.55,42.81 C90.2,42.81 82.62,35.23 82.62,25.88 C82.62,16.53 90.2,8.95 99.55,8.95 C108.9,8.95 116.48,16.53 116.48,25.88 C116.442,35.214 108.884,42.772 99.55,42.81 z M99.55,9.14 C90.31,9.14 82.82,16.63 82.82,25.87 C82.82,35.11 90.31,42.6 99.55,42.6 C108.79,42.6 116.28,35.11 116.28,25.87 C116.269,16.635 108.785,9.151 99.55,9.14 z" fill="#5BA5B3"/>
        <path d="M141.18,30.68 C132.658,30.68 125.75,23.772 125.75,15.25 C125.75,6.728 132.658,-0.18 141.18,-0.18 C149.702,-0.18 156.61,6.728 156.61,15.25 C156.599,23.767 149.697,30.669 141.18,30.68 z M141.18,0.01 C132.769,0.01 125.95,6.829 125.95,15.24 C125.95,23.651 132.769,30.47 141.18,30.47 C149.591,30.47 156.41,23.651 156.41,15.24 C156.382,6.845 149.575,0.051 141.18,0.04 z" fill="#5BA5B3"/>
        <path d="M59.89,73.81 C51.274,73.81 44.29,66.826 44.29,58.21 C44.29,49.594 51.274,42.61 59.89,42.61 C68.506,42.61 75.49,49.594 75.49,58.21 C75.479,66.821 68.501,73.799 59.89,73.81 z M59.89,42.81 C51.385,42.81 44.49,49.705 44.49,58.21 C44.49,66.715 51.385,73.61 59.89,73.61 C68.395,73.61 75.29,66.715 75.29,58.21 C75.279,49.709 68.391,42.821 59.89,42.81 z" fill="#5BA5B3"/>
        <path d="M136.72,56.14 C129.485,56.14 123.62,50.275 123.62,43.04 C123.62,35.805 129.485,29.94 136.72,29.94 C143.955,29.94 149.82,35.805 149.82,43.04 C149.809,50.27 143.95,56.129 136.72,56.14 z M136.72,30.14 C129.596,30.14 123.82,35.916 123.82,43.04 C123.82,50.164 129.596,55.94 136.72,55.94 C143.844,55.94 149.62,50.164 149.62,43.04 C149.614,35.918 143.842,30.146 136.72,30.14 z" fill="#5BA5B3"/>
        <path d="M171.97,41.22 C162.984,41.22 155.7,33.936 155.7,24.95 C155.7,15.964 162.984,8.68 171.97,8.68 C180.956,8.68 188.24,15.964 188.24,24.95 C188.229,33.931 180.951,41.209 171.97,41.22 z M171.97,8.89 C163.095,8.89 155.9,16.085 155.9,24.96 C155.9,33.835 163.095,41.03 171.97,41.03 C180.845,41.03 188.04,33.835 188.04,24.96 C188.034,16.087 180.843,8.896 171.97,8.89 z" fill="#5BA5B3"/>
      </g>
      <path d="M129.99,23.49 C129.99,24.445 129.215,25.22 128.26,25.22 C127.305,25.22 126.53,24.445 126.53,23.49 C126.53,22.535 127.305,21.76 128.26,21.76 C129.215,21.76 129.99,22.535 129.99,23.49 z" fill="#5BA5B3"/>
      <path d="M104.14,42.36 C104.14,42.918 103.688,43.37 103.13,43.37 C102.572,43.37 102.12,42.918 102.12,42.36 C102.12,41.802 102.572,41.35 103.13,41.35 C103.688,41.35 104.14,41.802 104.14,42.36 z" fill="#5BA5B3"/>
      <path d="M116.28,31.46 C116.28,32.018 115.828,32.47 115.27,32.47 C114.712,32.47 114.26,32.018 114.26,31.46 C114.26,30.902 114.712,30.45 115.27,30.45 C115.828,30.45 116.28,30.902 116.28,31.46 z" fill="#5BA5B3"/>
      <path d="M141.44,41.2 C141.44,41.758 140.988,42.21 140.43,42.21 C139.872,42.21 139.42,41.758 139.42,41.2 C139.42,40.642 139.872,40.19 140.43,40.19 C140.988,40.19 141.44,40.642 141.44,41.2 z" fill="#5BA5B3"/>
      <path d="M141.12,30.48 C141.12,31.038 140.668,31.49 140.11,31.49 C139.552,31.49 139.1,31.038 139.1,30.48 C139.1,29.922 139.552,29.47 140.11,29.47 C140.668,29.47 141.12,29.922 141.12,30.48 z" fill="#5BA5B3"/>
      <path d="M132.35,21.72 C132.35,22.278 131.898,22.73 131.34,22.73 C130.782,22.73 130.33,22.278 130.33,21.72 C130.33,21.162 130.782,20.71 131.34,20.71 C131.898,20.71 132.35,21.162 132.35,21.72 z" fill="#5BA5B3"/>
      <path d="M149.89,11 C149.89,11.558 149.438,12.01 148.88,12.01 C148.322,12.01 147.87,11.558 147.87,11 C147.87,10.442 148.322,9.99 148.88,9.99 C149.438,9.99 149.89,10.442 149.89,11 z" fill="#5BA5B3"/>
      <path d="M157.19,14.25 C157.19,14.808 156.738,15.26 156.18,15.26 C155.622,15.26 155.17,14.808 155.17,14.25 C155.17,13.692 155.622,13.24 156.18,13.24 C156.738,13.24 157.19,13.692 157.19,14.25 z" fill="#5BA5B3"/>
      <path d="M159.47,16.36 C159.47,16.918 159.018,17.37 158.46,17.37 C157.902,17.37 157.45,16.918 157.45,16.36 C157.45,15.802 157.902,15.35 158.46,15.35 C159.018,15.35 159.47,15.802 159.47,16.36 z" fill="#5BA5B3"/>
      <path d="M146.32,30.16 C146.32,30.718 145.868,31.17 145.31,31.17 C144.752,31.17 144.3,30.718 144.3,30.16 C144.3,29.602 144.752,29.15 145.31,29.15 C145.868,29.15 146.32,29.602 146.32,30.16 z" fill="#5BA5B3"/>
      <path d="M160.6,35.68 C160.6,36.238 160.148,36.69 159.59,36.69 C159.032,36.69 158.58,36.238 158.58,35.68 C158.58,35.122 159.032,34.67 159.59,34.67 C160.148,34.67 160.6,35.122 160.6,35.68 z" fill="#5BA5B3"/>
      <path d="M175.2,52.4 C175.2,53.394 174.394,54.2 173.4,54.2 C172.406,54.2 171.6,53.394 171.6,52.4 C171.6,51.406 172.406,50.6 173.4,50.6 C174.394,50.6 175.2,51.406 175.2,52.4 z" fill="#5BA5B3"/>
      <path d="M162.83,27.72 C162.83,28.073 162.543,28.36 162.19,28.36 C161.837,28.36 161.55,28.073 161.55,27.72 C161.55,27.367 161.837,27.08 162.19,27.08 C162.543,27.08 162.83,27.367 162.83,27.72 z" fill="#5BA5B3"/>
      <path d="M157.12,21.72 C157.12,22.598 156.408,23.31 155.53,23.31 C154.652,23.31 153.94,22.598 153.94,21.72 C153.94,20.842 154.652,20.13 155.53,20.13 C156.408,20.13 157.12,20.842 157.12,21.72 z" fill="#5BA5B3"/>
      <path d="M146.91,34.06 C146.91,34.496 146.556,34.85 146.12,34.85 C145.684,34.85 145.33,34.496 145.33,34.06 C145.33,33.624 145.684,33.27 146.12,33.27 C146.556,33.27 146.91,33.624 146.91,34.06 z" fill="#5BA5B3"/>
      <path d="M147.58,51.27 C147.58,51.706 147.226,52.06 146.79,52.06 C146.354,52.06 146,51.706 146,51.27 C146,50.834 146.354,50.48 146.79,50.48 C147.226,50.48 147.58,50.834 147.58,51.27 z" fill="#5BA5B3"/>
      <path d="M127.75,51.59 C127.75,52.026 127.396,52.38 126.96,52.38 C126.524,52.38 126.17,52.026 126.17,51.59 C126.17,51.154 126.524,50.8 126.96,50.8 C127.396,50.8 127.75,51.154 127.75,51.59 z" fill="#5BA5B3"/>
      <path d="M166.07,51.92 C166.07,52.356 165.716,52.71 165.28,52.71 C164.844,52.71 164.49,52.356 164.49,51.92 C164.49,51.484 164.844,51.13 165.28,51.13 C165.716,51.13 166.07,51.484 166.07,51.92 z" fill="#5BA5B3"/>
      <path d="M168.78,40.55 C168.78,41.318 168.158,41.94 167.39,41.94 C166.622,41.94 166,41.318 166,40.55 C166,39.782 166.622,39.16 167.39,39.16 C168.158,39.16 168.78,39.782 168.78,40.55 z" fill="#5BA5B3"/>
      <path d="M161.8,13.92 C161.8,14.688 161.178,15.31 160.41,15.31 C159.642,15.31 159.02,14.688 159.02,13.92 C159.02,13.152 159.642,12.53 160.41,12.53 C161.178,12.53 161.8,13.152 161.8,13.92 z" fill="#5BA5B3"/>
      <path d="M164.23,56.3 C164.23,57.068 163.608,57.69 162.84,57.69 C162.072,57.69 161.45,57.068 161.45,56.3 C161.45,55.532 162.072,54.91 162.84,54.91 C163.608,54.91 164.23,55.532 164.23,56.3 z" fill="#5BA5B3"/>
      <path d="M124.45,55.16 C124.45,55.928 123.828,56.55 123.06,56.55 C122.292,56.55 121.67,55.928 121.67,55.16 C121.67,54.392 122.292,53.77 123.06,53.77 C123.828,53.77 124.45,54.392 124.45,55.16 z" fill="#5BA5B3"/>
      <path d="M110.43,12.46 C110.43,13.018 109.978,13.47 109.42,13.47 C108.862,13.47 108.41,13.018 108.41,12.46 C108.41,11.902 108.862,11.45 109.42,11.45 C109.978,11.45 110.43,11.902 110.43,12.46 z" fill="#5BA5B3"/>
      <path d="M85.26,31.95 C85.26,32.508 84.808,32.96 84.25,32.96 C83.692,32.96 83.24,32.508 83.24,31.95 C83.24,31.392 83.692,30.94 84.25,30.94 C84.808,30.94 85.26,31.392 85.26,31.95 z" fill="#5BA5B3"/>
      <path d="M94.73,56.37 C94.73,56.928 94.278,57.38 93.72,57.38 C93.162,57.38 92.71,56.928 92.71,56.37 C92.71,55.812 93.162,55.36 93.72,55.36 C94.278,55.36 94.73,55.812 94.73,56.37 z" fill="#5BA5B3"/>
      <path d="M85.75,43.15 C85.75,43.708 85.298,44.16 84.74,44.16 C84.182,44.16 83.73,43.708 83.73,43.15 C83.73,42.592 84.182,42.14 84.74,42.14 C85.298,42.14 85.75,42.592 85.75,43.15 z" fill="#5BA5B3"/>
      <path d="M70.49,46.07 C70.49,46.628 70.038,47.08 69.48,47.08 C68.922,47.08 68.47,46.628 68.47,46.07 C68.47,45.512 68.922,45.06 69.48,45.06 C70.038,45.06 70.49,45.512 70.49,46.07 z" fill="#5BA5B3"/>
      <path d="M133.11,31.3 C133.11,32.278 132.318,33.07 131.34,33.07 C130.362,33.07 129.57,32.278 129.57,31.3 C129.57,30.322 130.362,29.53 131.34,29.53 C132.318,29.53 133.11,30.322 133.11,31.3 z" fill="#5BA5B3"/>
      <path d="M149.23,19.12 C149.23,20.931 147.761,22.4 145.95,22.4 C144.139,22.4 142.67,20.931 142.67,19.12 C142.67,17.309 144.139,15.84 145.95,15.84 C147.761,15.84 149.23,17.309 149.23,19.12 z" fill="#5BA5B3"/>
      <path d="M183.79,38.12 C183.79,39.109 182.989,39.91 182,39.91 C181.011,39.91 180.21,39.109 180.21,38.12 C180.21,37.131 181.011,36.33 182,36.33 C182.989,36.33 183.79,37.131 183.79,38.12 z" fill="#5BA5B3"/>
      <path d="M151.64,42.01 C151.64,42.999 150.839,43.8 149.85,43.8 C148.861,43.8 148.06,42.999 148.06,42.01 C148.06,41.021 148.861,40.22 149.85,40.22 C150.839,40.22 151.64,41.021 151.64,42.01 z" fill="#5BA5B3"/>
    </g>
    <g>
      <path d="M162.59,36.71 C162.59,37.665 161.815,38.44 160.86,38.44 C159.905,38.44 159.13,37.665 159.13,36.71 C159.13,35.755 159.905,34.98 160.86,34.98 C161.815,34.98 162.59,35.755 162.59,36.71 z" fill="#2D7174"/>
      <path d="M186.99,17.84 C186.99,18.398 186.538,18.85 185.98,18.85 C185.422,18.85 184.97,18.398 184.97,17.84 C184.97,17.282 185.422,16.83 185.98,16.83 C186.538,16.83 186.99,17.282 186.99,17.84 z" fill="#2D7174"/>
      <path d="M174.86,28.74 C174.86,29.298 174.408,29.75 173.85,29.75 C173.292,29.75 172.84,29.298 172.84,28.74 C172.84,28.182 173.292,27.73 173.85,27.73 C174.408,27.73 174.86,28.182 174.86,28.74 z" fill="#2D7174"/>
      <path d="M150.02,29.72 C150.02,30.278 149.568,30.73 149.01,30.73 C148.452,30.73 148,30.278 148,29.72 C148,29.162 148.452,28.71 149.01,28.71 C149.568,28.71 150.02,29.162 150.02,29.72 z" fill="#2D7174"/>
      <path d="M144.82,30.04 C144.82,30.598 144.368,31.05 143.81,31.05 C143.252,31.05 142.8,30.598 142.8,30.04 C142.8,29.482 143.252,29.03 143.81,29.03 C144.368,29.03 144.82,29.482 144.82,30.04 z" fill="#2D7174"/>
      <path d="M135.17,38.49 C135.17,39.368 134.458,40.08 133.58,40.08 C132.702,40.08 131.99,39.368 131.99,38.49 C131.99,37.612 132.702,36.9 133.58,36.9 C134.458,36.9 135.17,37.612 135.17,38.49 z" fill="#2D7174"/>
      <path d="M122.96,6.78 C122.96,7.216 122.606,7.57 122.17,7.57 C121.734,7.57 121.38,7.216 121.38,6.78 C121.38,6.344 121.734,5.99 122.17,5.99 C122.606,5.99 122.96,6.344 122.96,6.78 z" fill="#2D7174"/>
      <path d="M116.47,5.61 C116.47,5.886 116.246,6.11 115.97,6.11 C115.694,6.11 115.47,5.886 115.47,5.61 C115.47,5.334 115.694,5.11 115.97,5.11 C116.246,5.11 116.47,5.334 116.47,5.61 z" fill="#2D7174"/>
      <path d="M125.96,23.46 C125.96,23.736 125.736,23.96 125.46,23.96 C125.184,23.96 124.96,23.736 124.96,23.46 C124.96,23.184 125.184,22.96 125.46,22.96 C125.736,22.96 125.96,23.184 125.96,23.46 z" fill="#2D7174"/>
      <path d="M129.03,24.41 C129.03,24.686 128.806,24.91 128.53,24.91 C128.254,24.91 128.03,24.686 128.03,24.41 C128.03,24.134 128.254,23.91 128.53,23.91 C128.806,23.91 129.03,24.134 129.03,24.41 z" fill="#2D7174"/>
      <path d="M138.79,13.08 C138.79,13.356 138.566,13.58 138.29,13.58 C138.014,13.58 137.79,13.356 137.79,13.08 C137.79,12.804 138.014,12.58 138.29,12.58 C138.566,12.58 138.79,12.804 138.79,13.08 z" fill="#2D7174"/>
      <path d="M143.98,16.65 C143.98,16.926 143.756,17.15 143.48,17.15 C143.204,17.15 142.98,16.926 142.98,16.65 C142.98,16.374 143.204,16.15 143.48,16.15 C143.756,16.15 143.98,16.374 143.98,16.65 z" fill="#2D7174"/>
      <path d="M143.7,26.36 C143.7,26.636 143.476,26.86 143.2,26.86 C142.924,26.86 142.7,26.636 142.7,26.36 C142.7,26.084 142.924,25.86 143.2,25.86 C143.476,25.86 143.7,26.084 143.7,26.36 z" fill="#2D7174"/>
      <path d="M164.85,26.81 C164.85,27.086 164.626,27.31 164.35,27.31 C164.074,27.31 163.85,27.086 163.85,26.81 C163.85,26.534 164.074,26.31 164.35,26.31 C164.626,26.31 164.85,26.534 164.85,26.81 z" fill="#2D7174"/>
      <path d="M162.28,22.01 C162.28,22.286 162.056,22.51 161.78,22.51 C161.504,22.51 161.28,22.286 161.28,22.01 C161.28,21.734 161.504,21.51 161.78,21.51 C162.056,21.51 162.28,21.734 162.28,22.01 z" fill="#2D7174"/>
      <path d="M163.95,24.41 C163.95,24.686 163.726,24.91 163.45,24.91 C163.174,24.91 162.95,24.686 162.95,24.41 C162.95,24.134 163.174,23.91 163.45,23.91 C163.726,23.91 163.95,24.134 163.95,24.41 z" fill="#2D7174"/>
      <path d="M166.12,25.92 C166.12,26.406 165.726,26.8 165.24,26.8 C164.754,26.8 164.36,26.406 164.36,25.92 C164.36,25.434 164.754,25.04 165.24,25.04 C165.726,25.04 166.12,25.434 166.12,25.92 z" fill="#2D7174"/>
      <path d="M147.32,21.73 C147.32,22.216 146.926,22.61 146.44,22.61 C145.954,22.61 145.56,22.216 145.56,21.73 C145.56,21.244 145.954,20.85 146.44,20.85 C146.926,20.85 147.32,21.244 147.32,21.73 z" fill="#2D7174"/>
      <path d="M140.12,9.01 C140.12,9.496 139.726,9.89 139.24,9.89 C138.754,9.89 138.36,9.496 138.36,9.01 C138.36,8.524 138.754,8.13 139.24,8.13 C139.726,8.13 140.12,8.524 140.12,9.01 z" fill="#2D7174"/>
      <path d="M134.6,23.68 C134.6,24.166 134.206,24.56 133.72,24.56 C133.234,24.56 132.84,24.166 132.84,23.68 C132.84,23.194 133.234,22.8 133.72,22.8 C134.206,22.8 134.6,23.194 134.6,23.68 z" fill="#2D7174"/>
      <path d="M119.92,27.14 C119.92,27.626 119.526,28.02 119.04,28.02 C118.554,28.02 118.16,27.626 118.16,27.14 C118.16,26.654 118.554,26.26 119.04,26.26 C119.526,26.26 119.92,26.654 119.92,27.14 z" fill="#2D7174"/>
      <path d="M128.02,15.43 C128.02,15.612 127.872,15.76 127.69,15.76 C127.508,15.76 127.36,15.612 127.36,15.43 C127.36,15.248 127.508,15.1 127.69,15.1 C127.872,15.1 128.02,15.248 128.02,15.43 z" fill="#2D7174"/>
      <path d="M132.26,34.62 C132.26,34.802 132.112,34.95 131.93,34.95 C131.748,34.95 131.6,34.802 131.6,34.62 C131.6,34.438 131.748,34.29 131.93,34.29 C132.112,34.29 132.26,34.438 132.26,34.62 z" fill="#2D7174"/>
      <path d="M124.56,36.85 C124.56,37.032 124.412,37.18 124.23,37.18 C124.048,37.18 123.9,37.032 123.9,36.85 C123.9,36.668 124.048,36.52 124.23,36.52 C124.412,36.52 124.56,36.668 124.56,36.85 z" fill="#2D7174"/>
      <path d="M146.82,36.46 C146.82,36.642 146.672,36.79 146.49,36.79 C146.308,36.79 146.16,36.642 146.16,36.46 C146.16,36.278 146.308,36.13 146.49,36.13 C146.672,36.13 146.82,36.278 146.82,36.46 z" fill="#2D7174"/>
      <path d="M145.04,27.53 C145.04,27.712 144.892,27.86 144.71,27.86 C144.528,27.86 144.38,27.712 144.38,27.53 C144.38,27.348 144.528,27.2 144.71,27.2 C144.892,27.2 145.04,27.348 145.04,27.53 z" fill="#2D7174"/>
      <path d="M144.31,25.97 C144.31,26.152 144.162,26.3 143.98,26.3 C143.798,26.3 143.65,26.152 143.65,25.97 C143.65,25.788 143.798,25.64 143.98,25.64 C144.162,25.64 144.31,25.788 144.31,25.97 z" fill="#2D7174"/>
      <path d="M143.36,19.11 C143.36,19.292 143.212,19.44 143.03,19.44 C142.848,19.44 142.7,19.292 142.7,19.11 C142.7,18.928 142.848,18.78 143.03,18.78 C143.212,18.78 143.36,18.928 143.36,19.11 z" fill="#2D7174"/>
      <path d="M140.18,22.18 C140.18,22.362 140.032,22.51 139.85,22.51 C139.668,22.51 139.52,22.362 139.52,22.18 C139.52,21.998 139.668,21.85 139.85,21.85 C140.032,21.85 140.18,21.998 140.18,22.18 z" fill="#2D7174"/>
      <path d="M130.36,35.62 C130.36,36.018 130.038,36.34 129.64,36.34 C129.242,36.34 128.92,36.018 128.92,35.62 C128.92,35.222 129.242,34.9 129.64,34.9 C130.038,34.9 130.36,35.222 130.36,35.62 z" fill="#2D7174"/>
      <path d="M149.21,32.78 C149.21,33.051 148.991,33.27 148.72,33.27 C148.449,33.27 148.23,33.051 148.23,32.78 C148.23,32.509 148.449,32.29 148.72,32.29 C148.991,32.29 149.21,32.509 149.21,32.78 z" fill="#2D7174"/>
      <path d="M161.95,28.71 C161.95,28.981 161.731,29.2 161.46,29.2 C161.189,29.2 160.97,28.981 160.97,28.71 C160.97,28.439 161.189,28.22 161.46,28.22 C161.731,28.22 161.95,28.439 161.95,28.71 z" fill="#2D7174"/>
      <path d="M154.92,18.61 C154.92,18.881 154.701,19.1 154.43,19.1 C154.159,19.1 153.94,18.881 153.94,18.61 C153.94,18.339 154.159,18.12 154.43,18.12 C154.701,18.12 154.92,18.339 154.92,18.61 z" fill="#2D7174"/>
      <path d="M144.59,26.92 C144.59,27.412 144.192,27.81 143.7,27.81 C143.208,27.81 142.81,27.412 142.81,26.92 C142.81,26.428 143.208,26.03 143.7,26.03 C144.192,26.03 144.59,26.428 144.59,26.92 z" fill="#2D7174"/>
      <path d="M123.12,19.65 C123.12,20.418 122.498,21.04 121.73,21.04 C120.962,21.04 120.34,20.418 120.34,19.65 C120.34,18.882 120.962,18.26 121.73,18.26 C122.498,18.26 123.12,18.882 123.12,19.65 z" fill="#2D7174"/>
      <path d="M127.67,3.9 C127.67,4.668 127.048,5.29 126.28,5.29 C125.512,5.29 124.89,4.668 124.89,3.9 C124.89,3.132 125.512,2.51 126.28,2.51 C127.048,2.51 127.67,3.132 127.67,3.9 z" fill="#2D7174"/>
      <path d="M167.45,5.04 C167.45,5.808 166.828,6.43 166.06,6.43 C165.292,6.43 164.67,5.808 164.67,5.04 C164.67,4.272 165.292,3.65 166.06,3.65 C166.828,3.65 167.45,4.272 167.45,5.04 z" fill="#2D7174"/>
      <path d="M108.9,22.09 C108.9,23.079 108.099,23.88 107.11,23.88 C106.121,23.88 105.32,23.079 105.32,22.09 C105.32,21.101 106.121,20.3 107.11,20.3 C108.099,20.3 108.9,21.101 108.9,22.09 z" fill="#2D7174"/>
      <path d="M141.06,18.19 C141.06,19.179 140.259,19.98 139.27,19.98 C138.281,19.98 137.48,19.179 137.48,18.19 C137.48,17.201 138.281,16.4 139.27,16.4 C140.259,16.4 141.06,17.201 141.06,18.19 z" fill="#2D7174"/>
      <path d="M123.48,36.94 C114.323,36.94 106.9,29.517 106.9,20.36 C106.9,11.203 114.323,3.78 123.48,3.78 C132.637,3.78 140.06,11.203 140.06,20.36 C140.049,29.512 132.632,36.929 123.48,36.94 z M123.48,3.87 C114.378,3.87 107,11.248 107,20.35 C107,29.452 114.378,36.83 123.48,36.83 C132.582,36.83 139.96,29.452 139.96,20.35 C139.949,11.253 132.577,3.881 123.48,3.87 z" fill="#2D7174"/>
      <path d="M159.52,36.91 C150.363,36.91 142.94,29.487 142.94,20.33 C142.94,11.173 150.363,3.75 159.52,3.75 C168.677,3.75 176.1,11.173 176.1,20.33 C176.089,29.482 168.672,36.899 159.52,36.91 z M159.52,3.84 C150.418,3.84 143.04,11.218 143.04,20.32 C143.04,29.422 150.418,36.8 159.52,36.8 C168.622,36.8 176,29.422 176,20.32 C175.989,11.223 168.617,3.851 159.52,3.84 z" fill="#2D7174"/>
      <path d="M173.37,28.96 C166.13,28.96 160.26,23.09 160.26,15.85 C160.26,8.61 166.13,2.74 173.37,2.74 C180.61,2.74 186.48,8.61 186.48,15.85 C186.474,23.088 180.608,28.954 173.37,28.96 z M173.37,2.82 C166.19,2.82 160.37,8.64 160.37,15.82 C160.37,23 166.19,28.82 173.37,28.82 C180.55,28.82 186.37,23 186.37,15.82 C186.37,8.64 180.55,2.82 173.37,2.82 z" fill="#2D7174"/>
      <path d="M146.59,46.48 C138.248,46.469 131.493,39.699 131.5,31.357 C131.507,23.014 138.274,16.256 146.617,16.26 C154.959,16.264 161.72,23.028 161.72,31.37 C161.709,39.718 154.938,46.48 146.59,46.48 z M146.59,16.35 C138.306,16.35 131.59,23.066 131.59,31.35 C131.59,39.634 138.306,46.35 146.59,46.35 C154.874,46.35 161.59,39.634 161.59,31.35 C161.59,23.066 154.874,16.35 146.59,16.35 z" fill="#2D7174"/>
      <path d="M131.13,39.1 C124.449,39.1 119.034,33.681 119.04,27 C119.046,20.319 124.469,14.909 131.15,14.92 C137.831,14.931 143.237,20.359 143.22,27.04 C143.198,33.703 137.793,39.095 131.13,39.1 z M131.13,14.99 C124.503,14.99 119.13,20.363 119.13,26.99 C119.13,33.617 124.503,38.99 131.13,38.99 C137.757,38.99 143.13,33.617 143.13,26.99 C143.102,20.382 137.738,15.04 131.13,15.04 z" fill="#2D7174"/>
      <path d="M138.37,39.98 C132.295,39.98 127.37,35.055 127.37,28.98 C127.37,22.905 132.295,17.98 138.37,17.98 C144.445,17.98 149.37,22.905 149.37,28.98 C149.37,35.055 144.445,39.98 138.37,39.98 z M138.37,18.11 C132.35,18.11 127.47,22.99 127.47,29.01 C127.47,35.03 132.35,39.91 138.37,39.91 C144.39,39.91 149.27,35.03 149.27,29.01 C149.264,22.991 144.389,18.111 138.37,18.1 z" fill="#2D7174"/>
      <path d="M116.88,27.45 C110.805,27.45 105.88,22.525 105.88,16.45 C105.88,10.375 110.805,5.45 116.88,5.45 C122.955,5.45 127.88,10.375 127.88,16.45 C127.88,22.525 122.955,27.45 116.88,27.45 z M116.88,5.58 C110.86,5.58 105.98,10.46 105.98,16.48 C105.98,22.5 110.86,27.38 116.88,27.38 C122.9,27.38 127.78,22.5 127.78,16.48 C127.769,10.465 122.895,5.591 116.88,5.58 z" fill="#2D7174"/>
      <path d="M129.87,24.44 C124.049,24.44 119.33,19.721 119.33,13.9 C119.33,8.079 124.049,3.36 129.87,3.36 C135.691,3.36 140.41,8.079 140.41,13.9 C140.404,19.719 135.689,24.434 129.87,24.44 z M129.87,3.44 C124.082,3.44 119.39,8.132 119.39,13.92 C119.39,19.708 124.082,24.4 129.87,24.4 C135.658,24.4 140.35,19.708 140.35,13.92 C140.35,8.13 135.66,3.436 129.87,3.43 z" fill="#2D7174"/>
      <path d="M154.01,39.55 C148.185,39.55 143.465,34.825 143.47,29 C143.476,23.175 148.205,18.459 154.03,18.47 C159.855,18.481 164.567,23.215 164.55,29.04 C164.528,34.847 159.817,39.545 154.01,39.55 z M154.01,18.55 C148.223,18.55 143.532,23.24 143.53,29.027 C143.528,34.813 148.217,39.506 154.003,39.51 C159.79,39.514 164.484,34.827 164.49,29.04 C164.501,23.243 159.807,18.536 154.01,18.53 z" fill="#2D7174"/>
      <path d="M153.97,30.64 C145.211,30.64 138.11,23.539 138.11,14.78 C138.11,6.021 145.211,-1.08 153.97,-1.08 C162.729,-1.08 169.83,6.021 169.83,14.78 C169.819,23.535 162.725,30.629 153.97,30.64 z M153.97,-0.99 C145.258,-1.001 138.187,6.055 138.18,14.767 C138.173,23.479 145.231,30.546 153.943,30.55 C162.655,30.554 169.72,23.492 169.72,14.78 C169.698,6.092 162.658,-0.944 153.97,-0.96 z" fill="#2D7174"/>
    </g>
    <g>
      <path d="M105.91,21.17 C105.91,22.788 104.598,24.1 102.98,24.1 C101.362,24.1 100.05,22.788 100.05,21.17 C100.05,19.552 101.362,18.24 102.98,18.24 C104.598,18.24 105.91,19.552 105.91,21.17 z" fill="#2D7174"/>
      <path d="M62.08,53.18 C62.08,54.124 61.314,54.89 60.37,54.89 C59.426,54.89 58.66,54.124 58.66,53.18 C58.66,52.236 59.426,51.47 60.37,51.47 C61.314,51.47 62.08,52.236 62.08,53.18 z" fill="#2D7174"/>
      <path d="M82.66,34.68 C82.66,35.624 81.894,36.39 80.95,36.39 C80.006,36.39 79.24,35.624 79.24,34.68 C79.24,33.736 80.006,32.97 80.95,32.97 C81.894,32.97 82.66,33.736 82.66,34.68 z" fill="#2D7174"/>
      <path d="M124.79,33.03 C124.79,33.974 124.024,34.74 123.08,34.74 C122.136,34.74 121.37,33.974 121.37,33.03 C121.37,32.086 122.136,31.32 123.08,31.32 C124.024,31.32 124.79,32.086 124.79,33.03 z" fill="#2D7174"/>
      <path d="M133.6,32.48 C133.6,33.424 132.834,34.19 131.89,34.19 C130.946,34.19 130.18,33.424 130.18,32.48 C130.18,31.536 130.946,30.77 131.89,30.77 C132.834,30.77 133.6,31.536 133.6,32.48 z" fill="#2D7174"/>
      <path d="M151.93,18.16 C151.93,19.646 150.726,20.85 149.24,20.85 C147.754,20.85 146.55,19.646 146.55,18.16 C146.55,16.674 147.754,15.47 149.24,15.47 C150.726,15.47 151.93,16.674 151.93,18.16 z" fill="#2D7174"/>
      <path d="M163.87,43.64 C163.87,44.109 163.489,44.49 163.02,44.49 C162.551,44.49 162.17,44.109 162.17,43.64 C162.17,43.171 162.551,42.79 163.02,42.79 C163.489,42.79 163.87,43.171 163.87,43.64 z" fill="#2D7174"/>
      <path d="M158.67,42.03 C158.67,42.499 158.289,42.88 157.82,42.88 C157.351,42.88 156.97,42.499 156.97,42.03 C156.97,41.561 157.351,41.18 157.82,41.18 C158.289,41.18 158.67,41.561 158.67,42.03 z" fill="#2D7174"/>
      <path d="M133.31,55.18 C133.31,55.649 132.929,56.03 132.46,56.03 C131.991,56.03 131.61,55.649 131.61,55.18 C131.61,54.711 131.991,54.33 132.46,54.33 C132.929,54.33 133.31,54.711 133.31,55.18 z" fill="#2D7174"/>
      <path d="M133.78,38.72 C133.78,39.189 133.399,39.57 132.93,39.57 C132.461,39.57 132.08,39.189 132.08,38.72 C132.08,38.251 132.461,37.87 132.93,37.87 C133.399,37.87 133.78,38.251 133.78,38.72 z" fill="#2D7174"/>
      <path d="M97.91,37.96 C97.91,38.429 97.529,38.81 97.06,38.81 C96.591,38.81 96.21,38.429 96.21,37.96 C96.21,37.491 96.591,37.11 97.06,37.11 C97.529,37.11 97.91,37.491 97.91,37.96 z" fill="#2D7174"/>
      <path d="M102.27,46.1 C102.27,46.569 101.889,46.95 101.42,46.95 C100.951,46.95 100.57,46.569 100.57,46.1 C100.57,45.631 100.951,45.25 101.42,45.25 C101.889,45.25 102.27,45.631 102.27,46.1 z" fill="#2D7174"/>
      <path d="M99.43,42.03 C99.43,42.499 99.049,42.88 98.58,42.88 C98.111,42.88 97.73,42.499 97.73,42.03 C97.73,41.561 98.111,41.18 98.58,41.18 C99.049,41.18 99.43,41.561 99.43,42.03 z" fill="#2D7174"/>
      <path d="M97.04,39.47 C97.04,40.293 96.373,40.96 95.55,40.96 C94.727,40.96 94.06,40.293 94.06,39.47 C94.06,38.647 94.727,37.98 95.55,37.98 C96.373,37.98 97.04,38.647 97.04,39.47 z" fill="#2D7174"/>
      <path d="M128.93,46.57 C128.93,47.393 128.263,48.06 127.44,48.06 C126.617,48.06 125.95,47.393 125.95,46.57 C125.95,45.747 126.617,45.08 127.44,45.08 C128.263,45.08 128.93,45.747 128.93,46.57 z" fill="#2D7174"/>
      <path d="M150.51,43.26 C150.51,44.083 149.843,44.75 149.02,44.75 C148.197,44.75 147.53,44.083 147.53,43.26 C147.53,42.437 148.197,41.77 149.02,41.77 C149.843,41.77 150.51,42.437 150.51,43.26 z" fill="#2D7174"/>
      <path d="M175.39,37.39 C175.39,38.213 174.723,38.88 173.9,38.88 C173.077,38.88 172.41,38.213 172.41,37.39 C172.41,36.567 173.077,35.9 173.9,35.9 C174.723,35.9 175.39,36.567 175.39,37.39 z" fill="#2D7174"/>
      <path d="M159.8,57.26 C159.8,57.575 159.545,57.83 159.23,57.83 C158.915,57.83 158.66,57.575 158.66,57.26 C158.66,56.945 158.915,56.69 159.23,56.69 C159.545,56.69 159.8,56.945 159.8,57.26 z" fill="#2D7174"/>
      <path d="M152.61,24.71 C152.61,25.025 152.355,25.28 152.04,25.28 C151.725,25.28 151.47,25.025 151.47,24.71 C151.47,24.395 151.725,24.14 152.04,24.14 C152.355,24.14 152.61,24.395 152.61,24.71 z" fill="#2D7174"/>
      <path d="M165.67,20.93 C165.67,21.245 165.415,21.5 165.1,21.5 C164.785,21.5 164.53,21.245 164.53,20.93 C164.53,20.615 164.785,20.36 165.1,20.36 C165.415,20.36 165.67,20.615 165.67,20.93 z" fill="#2D7174"/>
      <path d="M127.92,21.59 C127.92,21.905 127.665,22.16 127.35,22.16 C127.035,22.16 126.78,21.905 126.78,21.59 C126.78,21.275 127.035,21.02 127.35,21.02 C127.665,21.02 127.92,21.275 127.92,21.59 z" fill="#2D7174"/>
      <path d="M130.94,36.73 C130.94,37.045 130.685,37.3 130.37,37.3 C130.055,37.3 129.8,37.045 129.8,36.73 C129.8,36.415 130.055,36.16 130.37,36.16 C130.685,36.16 130.94,36.415 130.94,36.73 z" fill="#2D7174"/>
      <path d="M132.17,39.38 C132.17,39.695 131.915,39.95 131.6,39.95 C131.285,39.95 131.03,39.695 131.03,39.38 C131.03,39.065 131.285,38.81 131.6,38.81 C131.915,38.81 132.17,39.065 132.17,39.38 z" fill="#2D7174"/>
      <path d="M133.78,51.02 C133.78,51.335 133.525,51.59 133.21,51.59 C132.895,51.59 132.64,51.335 132.64,51.02 C132.64,50.705 132.895,50.45 133.21,50.45 C133.525,50.45 133.78,50.705 133.78,51.02 z" fill="#2D7174"/>
      <path d="M139.18,45.81 C139.18,46.125 138.925,46.38 138.61,46.38 C138.295,46.38 138.04,46.125 138.04,45.81 C138.04,45.495 138.295,45.24 138.61,45.24 C138.925,45.24 139.18,45.495 139.18,45.81 z" fill="#2D7174"/>
      <path d="M157.14,23.01 C157.14,23.684 156.594,24.23 155.92,24.23 C155.246,24.23 154.7,23.684 154.7,23.01 C154.7,22.336 155.246,21.79 155.92,21.79 C156.594,21.79 157.14,22.336 157.14,23.01 z" fill="#2D7174"/>
      <path d="M124.39,27.84 C124.39,28.298 124.018,28.67 123.56,28.67 C123.102,28.67 122.73,28.298 122.73,27.84 C122.73,27.382 123.102,27.01 123.56,27.01 C124.018,27.01 124.39,27.382 124.39,27.84 z" fill="#2D7174"/>
      <path d="M102.79,34.74 C102.79,35.198 102.418,35.57 101.96,35.57 C101.502,35.57 101.13,35.198 101.13,34.74 C101.13,34.282 101.502,33.91 101.96,33.91 C102.418,33.91 102.79,34.282 102.79,34.74 z" fill="#2D7174"/>
      <path d="M114.71,51.87 C114.71,52.328 114.338,52.7 113.88,52.7 C113.422,52.7 113.05,52.328 113.05,51.87 C113.05,51.412 113.422,51.04 113.88,51.04 C114.338,51.04 114.71,51.412 114.71,51.87 z" fill="#2D7174"/>
      <path d="M133.58,37.77 C133.58,38.598 132.908,39.27 132.08,39.27 C131.252,39.27 130.58,38.598 130.58,37.77 C130.58,36.942 131.252,36.27 132.08,36.27 C132.908,36.27 133.58,36.942 133.58,37.77 z" fill="#2D7174"/>
      <path d="M171.69,50.1 C171.69,51.398 170.638,52.45 169.34,52.45 C168.042,52.45 166.99,51.398 166.99,50.1 C166.99,48.802 168.042,47.75 169.34,47.75 C170.638,47.75 171.69,48.802 171.69,50.1 z" fill="#2D7174"/>
      <path d="M197.16,45.97 C197.16,47.643 195.803,49 194.13,49 C192.457,49 191.1,47.643 191.1,45.97 C191.1,44.297 192.457,42.94 194.13,42.94 C195.803,42.94 197.16,44.297 197.16,45.97 z" fill="#2D7174"/>
      <path d="M142.63,52.58 C142.63,54.253 141.273,55.61 139.6,55.61 C137.927,55.61 136.57,54.253 136.57,52.58 C136.57,50.907 137.927,49.55 139.6,49.55 C141.273,49.55 142.63,50.907 142.63,52.58 z" fill="#2D7174"/>
      <path d="M166.36,77.04 C150.83,77.04 138.24,64.45 138.24,48.92 C138.24,33.39 150.83,20.8 166.36,20.8 C181.89,20.8 194.48,33.39 194.48,48.92 C194.458,64.441 181.881,77.018 166.36,77.04 z M166.36,20.96 C150.896,20.96 138.36,33.496 138.36,48.96 C138.36,64.424 150.896,76.96 166.36,76.96 C181.824,76.96 194.36,64.424 194.36,48.96 C194.36,33.496 181.824,20.96 166.36,20.96 z" fill="#2D7174"/>
      <path d="M105.25,77.04 C89.72,77.04 77.13,64.45 77.13,48.92 C77.13,33.39 89.72,20.8 105.25,20.8 C120.78,20.8 133.37,33.39 133.37,48.92 C133.348,64.441 120.771,77.018 105.25,77.04 z M105.25,20.96 C89.786,20.96 77.25,33.496 77.25,48.96 C77.25,64.424 89.786,76.96 105.25,76.96 C120.714,76.96 133.25,64.424 133.25,48.96 C133.206,33.527 120.683,21.04 105.25,21.04 z" fill="#2D7174"/>
      <path d="M81.72,78.78 C69.443,78.78 59.49,68.827 59.49,56.55 C59.49,44.273 69.443,34.32 81.72,34.32 C93.997,34.32 103.95,44.273 103.95,56.55 C103.933,68.82 93.99,78.763 81.72,78.78 z M81.72,34.45 C69.515,34.45 59.62,44.345 59.62,56.55 C59.62,68.755 69.515,78.65 81.72,78.65 C93.925,78.65 103.82,68.755 103.82,56.55 C103.809,44.349 93.921,34.461 81.72,34.45 z" fill="#2D7174"/>
      <path d="M127.18,55.87 C113.025,55.87 101.55,44.395 101.55,30.24 C101.55,16.085 113.025,4.61 127.18,4.61 C141.335,4.61 152.81,16.085 152.81,30.24 C152.793,44.388 141.328,55.853 127.18,55.87 z M127.18,4.77 C113.108,4.77 101.7,16.178 101.7,30.25 C101.7,44.322 113.108,55.73 127.18,55.73 C141.252,55.73 152.66,44.322 152.66,30.25 C152.654,16.178 141.252,4.771 127.18,4.76 z" fill="#2D7174"/>
      <path d="M153.4,58.13 C142.073,58.13 132.89,48.947 132.89,37.62 C132.89,26.293 142.073,17.11 153.4,17.11 C164.727,17.11 173.91,26.293 173.91,37.62 C173.899,48.943 164.723,58.119 153.4,58.13 z M153.4,17.24 C142.144,17.24 133.02,26.364 133.02,37.62 C133.02,48.876 142.144,58 153.4,58 C164.656,58 173.78,48.876 173.78,37.62 C173.769,26.369 164.651,17.251 153.4,17.24 z" fill="#2D7174"/>
      <path d="M141.12,52.85 C130.849,52.85 122.522,44.525 122.52,34.253 C122.518,23.982 130.842,15.654 141.113,15.65 C151.385,15.646 159.714,23.969 159.72,34.24 C159.714,44.512 151.392,52.839 141.12,52.85 z M141.12,15.76 C130.908,15.76 122.63,24.038 122.63,34.25 C122.63,44.462 130.908,52.74 141.12,52.74 C151.332,52.74 159.61,44.462 159.61,34.25 C159.604,24.039 151.331,15.761 141.12,15.75 z" fill="#2D7174"/>
      <path d="M177.56,74.04 C167.287,74.04 158.96,65.712 158.96,55.44 C158.96,45.168 167.287,36.84 177.56,36.84 C187.832,36.84 196.16,45.168 196.16,55.44 C196.149,65.708 187.828,74.029 177.56,74.04 z M177.56,36.95 C167.348,36.95 159.07,45.228 159.07,55.44 C159.07,65.652 167.348,73.93 177.56,73.93 C187.772,73.93 196.05,65.652 196.05,55.44 C196.017,45.248 187.752,37.001 177.56,36.99 z" fill="#2D7174"/>
      <path d="M155.53,77.73 C145.655,77.73 137.65,69.725 137.65,59.85 C137.65,49.975 145.655,41.97 155.53,41.97 C165.405,41.97 173.41,49.975 173.41,59.85 C173.399,69.72 165.4,77.719 155.53,77.73 z M155.53,42.08 C145.716,42.08 137.76,50.036 137.76,59.85 C137.76,69.664 145.716,77.62 155.53,77.62 C165.344,77.62 173.3,69.664 173.3,59.85 C173.311,50.025 165.355,42.051 155.53,42.04 z" fill="#2D7174"/>
      <path d="M114.58,52.12 C104.705,52.12 96.7,44.115 96.7,34.24 C96.7,24.365 104.705,16.36 114.58,16.36 C124.455,16.36 132.46,24.365 132.46,34.24 C132.449,44.11 124.45,52.109 114.58,52.12 z M114.58,16.47 C104.766,16.47 96.81,24.426 96.81,34.24 C96.81,44.054 104.766,52.01 114.58,52.01 C124.394,52.01 132.35,44.054 132.35,34.24 C132.339,24.43 124.39,16.481 114.58,16.47 z" fill="#2D7174"/>
      <path d="M114.65,85.28 C99.794,85.28 87.75,73.236 87.75,58.38 C87.75,43.524 99.794,31.48 114.65,31.48 C129.506,31.48 141.55,43.524 141.55,58.38 C141.533,73.23 129.5,85.263 114.65,85.28 z M114.65,31.64 C99.882,31.64 87.91,43.612 87.91,58.38 C87.91,73.148 99.882,85.12 114.65,85.12 C129.418,85.12 141.39,73.148 141.39,58.38 C141.373,43.619 129.411,31.657 114.65,31.64 z" fill="#2D7174"/>
    </g>
  </g>
</svg>
